<svg width="79" height="78" viewBox="0 0 79 78" fill="none" xmlns="http://www.w3.org/2000/svg">
<path d="M7.86649 41.4859C7.86649 42.2024 7.27918 42.7822 6.55589 42.7822C5.83107 42.7822 5.24414 42.2024 5.24414 41.4859C5.24414 40.771 5.83107 40.1904 6.55589 40.1904C7.27918 40.1904 7.86649 40.771 7.86649 41.4859Z" fill="#F47805"/>
<path d="M7.86649 33.7079C7.86649 34.4229 7.27918 35.0034 6.55589 35.0034C5.83107 35.0034 5.24414 34.4229 5.24414 33.7079C5.24414 32.9914 5.83107 32.4113 6.55589 32.4113C7.27918 32.4113 7.86649 32.9914 7.86649 33.7079Z" fill="#F47805"/>
<path d="M7.86649 49.2646C7.86649 49.9811 7.27918 50.5609 6.55589 50.5609C5.83107 50.5609 5.24414 49.9811 5.24414 49.2646C5.24414 48.5497 5.83107 47.9691 6.55589 47.9691C7.27918 47.9691 7.86649 48.5497 7.86649 49.2646Z" fill="#F47805"/>
<path d="M74.7334 28.5223H70.8001V15.5575C70.8001 13.4096 69.0393 11.6681 66.8667 11.6681H60.3114V3.88937C60.3114 1.74148 58.5499 0 56.3781 0H45.8894C43.7165 0 41.9553 1.74148 41.9553 3.88937V22.0395C41.9553 24.1881 43.7165 25.9296 45.8894 25.9296H49.822V27.2256C49.822 27.9415 49.2351 28.5223 48.5114 28.5223H30.1553C29.432 28.5223 28.8447 27.9415 28.8447 27.2256V25.9296H32.7777C34.9502 25.9296 36.7114 24.1881 36.7114 22.0395V3.88937C36.7114 1.74148 34.9502 0 32.7777 0H22.2887C20.1173 0 18.3553 1.74148 18.3553 3.88937V11.6681H11.8C9.62746 11.6681 7.86667 13.4096 7.86667 15.5575V28.5223H3.93334C1.76117 28.5223 0 30.2634 0 32.4113V50.5618C0 52.7097 1.76117 54.4511 3.93334 54.4511H7.86667V59.6372C7.86667 61.7851 9.62746 63.5262 11.8 63.5262H13.8792L13.4951 63.906C13.1552 64.2319 13.0177 64.7139 13.1379 65.1674C13.2577 65.6198 13.6161 65.9745 14.074 66.093C14.533 66.2119 15.02 66.0767 15.3492 65.7394L17.9712 63.1464C18.4832 62.6401 18.4832 61.8197 17.9712 61.313L15.3492 58.7203C14.8345 58.2288 14.0175 58.2361 13.5112 58.7367C13.0054 59.2361 12.9985 60.0452 13.4951 60.5534L13.8792 60.9332H11.8C11.076 60.9332 10.4886 60.3532 10.4886 59.6372V54.4511H14.4227C16.5942 54.4511 18.3553 52.7097 18.3553 50.5618V32.4113C18.3553 30.2634 16.5942 28.5223 14.4227 28.5223H10.4886V15.5575C10.4886 14.8415 11.076 14.2615 11.8 14.2615H18.3553V22.0395C18.3553 24.1881 20.1173 25.9296 22.2887 25.9296H26.2228V27.2256C26.2228 29.3738 27.9832 31.1149 30.1553 31.1149H38.022V34.468L37.6379 34.0882C37.1239 33.5963 36.3062 33.6039 35.7999 34.1038C35.2944 34.6036 35.2879 35.4126 35.7841 35.9212L38.4069 38.5139C38.5287 38.6335 38.6731 38.7296 38.8333 38.7942C39.1528 38.9271 39.5139 38.9271 39.8339 38.7942C39.9937 38.7296 40.1381 38.6335 40.2602 38.5139L42.8826 35.9212C43.3793 35.4126 43.3723 34.6036 42.8668 34.1038C42.3606 33.6039 41.5432 33.5963 41.0289 34.0882L40.6447 34.468V31.1149H48.5114C50.6836 31.1149 52.4444 29.3738 52.4444 27.2256V25.9296H56.3781C58.5499 25.9296 60.3114 24.1881 60.3114 22.0395V14.2615H66.8667C67.5908 14.2615 68.1781 14.8415 68.1781 15.5575V28.5223H64.2444C62.0726 28.5223 60.3114 30.2634 60.3114 32.4113V50.5618C60.3114 52.7097 62.0726 54.4511 64.2444 54.4511H68.1781V59.6372C68.1781 60.3532 67.5908 60.9332 66.8667 60.9332H64.7879L65.172 60.5534C65.6683 60.0452 65.6618 59.2361 65.1555 58.7367C64.6496 58.2361 63.8322 58.2288 63.3175 58.7203L60.6955 61.313C60.1835 61.8197 60.1835 62.6401 60.6955 63.1464L63.3175 65.7394C63.8322 66.2309 64.6496 66.2237 65.1555 65.7239C65.6618 65.224 65.6683 64.415 65.172 63.906L64.7879 63.5262H66.8667C69.0393 63.5262 70.8001 61.7851 70.8001 59.6372V54.4511H74.7334C76.9056 54.4511 78.6667 52.7097 78.6667 50.5618V32.4113C78.6667 30.2634 76.9056 28.5223 74.7334 28.5223ZM15.7333 44.0794H2.62197V38.8937H15.7333V44.0794ZM14.4227 51.8581H3.93334C3.20928 51.8581 2.62197 51.2777 2.62197 50.5618V46.6724H15.7333V50.5618C15.7333 51.2777 15.146 51.8581 14.4227 51.8581ZM15.7333 32.4113V36.301H2.62197V32.4113C2.62197 31.6957 3.20928 31.1149 3.93334 31.1149H14.4227C15.146 31.1149 15.7333 31.6957 15.7333 32.4113ZM20.9781 10.3714H34.0894V15.5575H20.9781V10.3714ZM22.2887 2.59266H32.7777C33.5021 2.59266 34.0894 3.1734 34.0894 3.88937V7.77874H20.9781V3.88937C20.9781 3.1734 21.5654 2.59266 22.2887 2.59266ZM20.9781 22.0395V18.1501H34.0894V22.0395C34.0894 22.7562 33.5021 23.3362 32.7777 23.3362H22.2887C21.5654 23.3362 20.9781 22.7562 20.9781 22.0395ZM44.5777 10.3714H57.6887V15.5575H44.5777V10.3714ZM45.8894 2.59266H56.3781C57.1018 2.59266 57.6887 3.1734 57.6887 3.88937V7.77874H44.5777V3.88937C44.5777 3.1734 45.1646 2.59266 45.8894 2.59266ZM56.3781 23.3362H45.8894C45.1646 23.3362 44.5777 22.7562 44.5777 22.0395V18.1501H57.6887V22.0395C57.6887 22.7562 57.1018 23.3362 56.3781 23.3362ZM62.9334 38.8937H76.0448V44.0794H62.9334V38.8937ZM64.2444 31.1149H74.7334C75.4575 31.1149 76.0448 31.6957 76.0448 32.4113V36.301H62.9334V32.4113C62.9334 31.6957 63.5207 31.1149 64.2444 31.1149ZM74.7334 51.8581H64.2444C63.5207 51.8581 62.9334 51.2777 62.9334 50.5618V46.6724H76.0448V50.5618C76.0448 51.2777 75.4575 51.8581 74.7334 51.8581Z" fill="#F47805"/>
<path d="M68.1786 41.4859C68.1786 42.2024 67.5913 42.7822 66.8672 42.7822C66.1432 42.7822 65.5566 42.2024 65.5566 41.4859C65.5566 40.771 66.1432 40.1904 66.8672 40.1904C67.5913 40.1904 68.1786 40.771 68.1786 41.4859Z" fill="#F47805"/>
<path d="M68.1786 33.7079C68.1786 34.4229 67.5913 35.0034 66.8672 35.0034C66.1432 35.0034 65.5566 34.4229 65.5566 33.7079C65.5566 32.9914 66.1432 32.4113 66.8672 32.4113C67.5913 32.4113 68.1786 32.9914 68.1786 33.7079Z" fill="#F47805"/>
<path d="M68.1786 49.2646C68.1786 49.9811 67.5913 50.5609 66.8672 50.5609C66.1432 50.5609 65.5566 49.9811 65.5566 49.2646C65.5566 48.5497 66.1432 47.9691 66.8672 47.9691C67.5913 47.9691 68.1786 48.5497 68.1786 49.2646Z" fill="#F47805"/>
<path d="M52.4446 58.3401C52.4446 59.0558 51.8577 59.6364 51.1336 59.6364C50.4096 59.6364 49.8223 59.0558 49.8223 58.3401C49.8223 57.6244 50.4096 57.0438 51.1336 57.0438C51.8577 57.0438 52.4446 57.6244 52.4446 58.3401Z" fill="#F47805"/>
<path d="M26.2223 12.964C26.2223 13.6801 25.635 14.2606 24.9106 14.2606C24.1869 14.2606 23.5996 13.6801 23.5996 12.964C23.5996 12.2486 24.1869 11.6681 24.9106 11.6681C25.635 11.6681 26.2223 12.2486 26.2223 12.964Z" fill="#F47805"/>
<path d="M26.2223 5.1853C26.2223 5.90141 25.635 6.48196 24.9106 6.48196C24.1869 6.48196 23.5996 5.90141 23.5996 5.1853C23.5996 4.46996 24.1869 3.8894 24.9106 3.8894C25.635 3.8894 26.2223 4.46996 26.2223 5.1853Z" fill="#F47805"/>
<path d="M26.2223 20.7432C26.2223 21.4589 25.635 22.0387 24.9106 22.0387C24.1869 22.0387 23.5996 21.4589 23.5996 20.7432C23.5996 20.0271 24.1869 19.4469 24.9106 19.4469C25.635 19.4469 26.2223 20.0271 26.2223 20.7432Z" fill="#F47805"/>
<path d="M49.8222 12.964C49.8222 13.6801 49.2352 14.2606 48.5116 14.2606C47.7871 14.2606 47.2002 13.6801 47.2002 12.964C47.2002 12.2486 47.7871 11.6681 48.5116 11.6681C49.2352 11.6681 49.8222 12.2486 49.8222 12.964Z" fill="#F47805"/>
<path d="M49.8222 5.1853C49.8222 5.90141 49.2352 6.48196 48.5116 6.48196C47.7871 6.48196 47.2002 5.90141 47.2002 5.1853C47.2002 4.46996 47.7871 3.8894 48.5116 3.8894C49.2352 3.8894 49.8222 4.46996 49.8222 5.1853Z" fill="#F47805"/>
<path d="M49.8222 20.7432C49.8222 21.4589 49.2352 22.0387 48.5116 22.0387C47.7871 22.0387 47.2002 21.4589 47.2002 20.7432C47.2002 20.0271 47.7871 19.4469 48.5116 19.4469C49.2352 19.4469 49.8222 20.0271 49.8222 20.7432Z" fill="#F47805"/>
<path d="M57.6882 66.1192V45.3765C57.6882 43.2278 55.927 41.4863 53.7556 41.4863H24.9105C22.7387 41.4863 20.9775 43.2278 20.9775 45.3765V66.1192C20.9775 68.2675 22.7387 70.0086 24.9105 70.0086H34.0467C33.8892 72.6894 33.2823 74.922 32.7626 75.1947H31.4662C30.7421 75.1947 30.1548 75.7747 30.1548 76.4906C30.1548 77.2074 30.7421 77.7873 31.4662 77.7873H47.1995C47.9236 77.7873 48.5109 77.2074 48.5109 76.4906C48.5109 75.7747 47.9236 75.1947 47.1995 75.1947H45.9031C45.3784 74.922 44.7769 72.6894 44.6194 70.0086H53.7556C55.927 70.0086 57.6882 68.2675 57.6882 66.1192ZM24.9105 44.0794H53.7556C54.4789 44.0794 55.0662 44.6597 55.0662 45.3765V62.2299H23.5995V45.3765C23.5995 44.6597 24.1868 44.0794 24.9105 44.0794ZM23.5995 66.1192V64.8233H55.0662V66.1192C55.0662 66.8352 54.4789 67.416 53.7556 67.416H24.9105C24.1868 67.416 23.5995 66.8352 23.5995 66.1192ZM42.8951 75.1947H35.7706C36.341 73.522 36.6498 71.7729 36.6882 70.0086H41.9905C42.024 71.7725 42.3293 73.5216 42.8951 75.1947Z" fill="#F47805"/>
<path d="M34.3415 59.6372H44.3246C45.3859 59.6455 46.3654 59.0754 46.8732 58.1536C47.3557 57.2823 47.3046 56.2176 46.7423 55.3949L41.7507 47.9387C41.2068 47.1471 40.301 46.6727 39.3331 46.6727C38.3651 46.6727 37.4597 47.1471 36.9154 47.9387L31.925 55.3942C31.3623 56.2173 31.312 57.2823 31.7944 58.1536C32.3018 59.0746 33.2809 59.6451 34.3415 59.6372ZM39.1026 49.3702C39.1483 49.2867 39.2366 49.2342 39.3331 49.2342C39.4295 49.2342 39.5178 49.2867 39.5635 49.3702L44.5628 56.9275C44.5129 57.0084 44.4203 57.0532 44.3246 57.0437H34.3415C34.184 57.0437 34.1229 56.9628 34.111 56.825L39.1026 49.3702Z" fill="#F47805"/>
<path d="M51.1336 54.4511C51.8577 54.4511 52.4446 53.8704 52.4446 53.1551V47.9691C52.4446 47.2527 51.8577 46.6724 51.1336 46.6724C50.4096 46.6724 49.8223 47.2527 49.8223 47.9691V53.1551C49.8223 53.8704 50.4096 54.4511 51.1336 54.4511Z" fill="#F47805"/>
<path d="M28.8446 58.3401C28.8446 59.0558 28.2573 59.6364 27.5333 59.6364C26.8092 59.6364 26.2227 59.0558 26.2227 58.3401C26.2227 57.6244 26.8092 57.0438 27.5333 57.0438C28.2573 57.0438 28.8446 57.6244 28.8446 58.3401Z" fill="#F47805"/>
<path d="M27.5333 54.4511C28.2573 54.4511 28.8446 53.8704 28.8446 53.1551V47.9691C28.8446 47.2527 28.2573 46.6724 27.5333 46.6724C26.8092 46.6724 26.2227 47.2527 26.2227 47.9691V53.1551C26.2227 53.8704 26.8092 54.4511 27.5333 54.4511Z" fill="#F47805"/>
</svg>
