<svg width="479" height="478" viewBox="0 0 479 478" fill="none" xmlns="http://www.w3.org/2000/svg">
<g filter="url(#filter0_d_160_13)">
<path d="M474.283 216.524C474.6 220.596 474.814 224.697 474.92 228.824L473.921 228.85C473.973 230.893 474 232.944 474 235C474 237.056 473.973 239.107 473.921 241.15L474.92 241.176C474.814 245.303 474.6 249.404 474.283 253.476L473.286 253.398C472.967 257.494 472.542 261.561 472.014 265.595L473.005 265.725C472.47 269.814 471.83 273.871 471.087 277.891L470.103 277.709C469.357 281.745 468.508 285.745 467.557 289.705L468.53 289.938C467.568 293.945 466.504 297.911 465.34 301.834L464.381 301.55C463.214 305.48 461.947 309.368 460.582 313.21L461.525 313.544C460.147 317.423 458.67 321.255 457.096 325.037L456.173 324.653C454.599 328.435 452.929 332.168 451.165 335.847L452.067 336.279C450.289 339.988 448.417 343.644 446.453 347.242L445.575 346.763C443.613 350.357 441.559 353.895 439.417 357.372L440.269 357.896C438.113 361.396 435.867 364.836 433.535 368.211L432.712 367.643C430.387 371.01 427.975 374.313 425.48 377.549L426.272 378.16C423.764 381.414 421.172 384.6 418.5 387.716L417.741 387.065C415.078 390.169 412.336 393.203 409.516 396.164L410.24 396.854C407.409 399.827 404.5 402.727 401.517 405.549L400.83 404.823C397.86 407.633 394.818 410.366 391.704 413.019L392.353 413.78C389.229 416.442 386.035 419.024 382.773 421.522L382.165 420.728C378.921 423.213 375.611 425.615 372.236 427.931L372.802 428.755C369.42 431.077 365.974 433.312 362.468 435.459L361.946 434.606C358.463 436.738 354.92 438.782 351.32 440.734L351.796 441.613C348.193 443.568 344.533 445.431 340.82 447.199L340.389 446.297C336.706 448.051 332.969 449.712 329.183 451.278L329.565 452.202C325.78 453.766 321.945 455.235 318.063 456.606L317.73 455.663C313.886 457.02 309.996 458.28 306.063 459.439L306.346 460.399C302.421 461.556 298.453 462.614 294.445 463.57L294.213 462.597C290.251 463.542 286.25 464.386 282.213 465.128L282.394 466.111C278.373 466.85 274.316 467.486 270.226 468.018L270.098 467.026C266.063 467.551 261.995 467.973 257.899 468.29L257.976 469.287C253.904 469.603 249.803 469.815 245.676 469.921L245.65 468.921C243.607 468.974 241.556 469 239.5 469C237.444 469 235.393 468.974 233.35 468.921L233.324 469.921C229.197 469.815 225.096 469.603 221.024 469.287L221.101 468.29C217.005 467.973 212.937 467.551 208.903 467.026L208.774 468.018C204.684 467.486 200.627 466.85 196.606 466.111L196.787 465.128C192.75 464.386 188.749 463.542 184.787 462.597L184.555 463.57C180.547 462.614 176.579 461.556 172.654 460.399L172.937 459.439C169.004 458.28 165.114 457.02 161.27 455.663L160.937 456.606C157.055 455.235 153.22 453.766 149.435 452.202L149.817 451.278C146.031 449.712 142.294 448.051 138.611 446.297L138.181 447.199C134.467 445.431 130.807 443.568 127.204 441.613L127.68 440.734C124.08 438.782 120.537 436.738 117.054 434.606L116.532 435.459C113.026 433.312 109.58 431.077 106.198 428.755L106.764 427.931C103.389 425.615 100.079 423.213 96.8353 420.728L96.2272 421.522C92.9653 419.024 89.7709 416.442 86.6471 413.78L87.2957 413.019C84.1825 410.366 81.1396 407.633 78.1704 404.823L77.4831 405.549C74.5002 402.727 71.5913 399.827 68.7596 396.854L69.4838 396.164C66.6644 393.203 63.9219 390.169 61.2594 387.065L60.5003 387.716C57.8282 384.6 55.2364 381.414 52.7281 378.16L53.5201 377.549C51.0252 374.313 48.6134 371.01 46.2876 367.643L45.4648 368.211C43.1331 364.836 40.8875 361.397 38.7313 357.896L39.5827 357.372C37.4406 353.895 35.3871 350.357 33.4253 346.763L32.5475 347.242C30.5834 343.644 28.7108 339.988 26.9328 336.279L27.8345 335.847C26.0708 332.168 24.4007 328.435 22.8271 324.653L21.9038 325.037C20.3305 321.255 18.8533 317.423 17.4753 313.544L18.4176 313.21C17.0527 309.368 15.7856 305.48 14.6192 301.55L13.6605 301.834C12.4963 297.911 11.4319 293.945 10.4704 289.939L11.4428 289.705C10.4922 285.745 9.64252 281.745 8.89663 277.709L7.91328 277.891C7.17028 273.871 6.52982 269.814 5.99471 265.725L6.98625 265.595C6.45831 261.561 6.03335 257.494 5.71409 253.398L4.71712 253.476C4.39979 249.404 4.18645 245.303 4.07975 241.176L5.07941 241.15C5.02658 239.107 5 237.056 5 235C5 232.944 5.02658 230.893 5.07941 228.85L4.07975 228.824C4.18645 224.697 4.39979 220.596 4.71712 216.524L5.71409 216.602C6.03335 212.506 6.45831 208.439 6.98625 204.405L5.9947 204.275C6.52981 200.186 7.17027 196.129 7.91328 192.109L8.89662 192.291C9.64251 188.255 10.4922 184.255 11.4428 180.295L10.4704 180.062C11.4319 176.055 12.4963 172.089 13.6605 168.166L14.6192 168.45C15.7856 164.52 17.0527 160.632 18.4175 156.79L17.4752 156.456C18.8532 152.577 20.3304 148.745 21.9037 144.963L22.827 145.347C24.4006 141.565 26.0708 137.832 27.8345 134.153L26.9328 133.721C28.7107 130.012 30.5834 126.356 32.5475 122.758L33.4252 123.237C35.3871 119.643 37.4406 116.105 39.5827 112.628L38.7313 112.104C40.8875 108.604 43.1331 105.164 45.4648 101.789L46.2876 102.357C48.6133 98.9901 51.0252 95.6869 53.5201 92.4507L52.7281 91.8402C55.2364 88.5864 57.8282 85.4001 60.5003 82.2843L61.2594 82.9353C63.9218 79.8308 66.6644 76.7966 69.4837 73.836L68.7596 73.1464C71.5913 70.1728 74.5002 67.2732 77.4831 64.4506L78.1704 65.1769C81.1396 62.3673 84.1824 59.6344 87.2957 56.9814L86.6471 56.2202C89.7709 53.5583 92.9653 50.9764 96.2271 48.4777L96.8352 49.2716C100.079 46.787 103.389 44.3851 106.764 42.069L106.198 41.2445C109.58 38.9231 113.026 36.6876 116.532 34.5411L117.054 35.394C120.537 33.2619 124.08 31.2181 127.68 29.2657L127.204 28.3866C130.807 26.4324 134.467 24.5694 138.18 22.8005L138.611 23.7033C142.294 21.9489 146.031 20.2876 149.817 18.7223L149.435 17.7982C153.22 16.2335 157.055 14.7646 160.937 13.3943L161.27 14.3372C165.114 12.9802 169.004 11.7203 172.937 10.5606L172.654 9.60145C176.579 8.44411 180.547 7.38609 184.555 6.4303L184.787 7.40302C188.749 6.45818 192.75 5.61367 196.787 4.87233L196.606 3.88878C200.627 3.15037 204.684 2.51389 208.774 1.98212L208.902 2.97377C212.937 2.44913 217.005 2.02684 221.101 1.70959L221.024 0.712572C225.096 0.397253 229.197 0.185269 233.324 0.0792433L233.35 1.07891C235.393 1.02641 237.444 1 239.5 1C241.556 1 243.607 1.02641 245.65 1.07891L245.676 0.0792433C249.803 0.185269 253.904 0.397254 257.976 0.712572L257.899 1.70959C261.995 2.02684 266.063 2.44914 270.098 2.97377L270.226 1.98212C274.316 2.51389 278.373 3.15037 282.394 3.88878L282.213 4.87233C286.25 5.61367 290.251 6.45818 294.213 7.40301L294.445 6.43029C298.453 7.38608 302.421 8.44411 306.346 9.60145L306.063 10.5606C309.996 11.7203 313.886 12.9802 317.73 14.3372L318.063 13.3942C321.945 14.7645 325.78 16.2335 329.565 17.7982L329.183 18.7223C332.969 20.2875 336.706 21.9489 340.389 23.7033L340.819 22.8005C344.533 24.5693 348.193 26.4324 351.796 28.3866L351.32 29.2656C354.92 31.2181 358.463 33.2619 361.946 35.3939L362.468 34.541C365.974 36.6875 369.42 38.9231 372.802 41.2445L372.236 42.069C375.611 44.385 378.921 46.7869 382.165 49.2716L382.773 48.4777C386.035 50.9763 389.229 53.5582 392.353 56.2202L391.704 56.9813C394.818 59.6344 397.86 62.3673 400.83 65.1769L401.517 64.4506C404.5 67.2731 407.409 70.1728 410.24 73.1464L409.516 73.836C412.336 76.7966 415.078 79.8308 417.741 82.9353L418.5 82.2843C421.172 85.4001 423.764 88.5864 426.272 91.8401L425.48 92.4507C427.975 95.6869 430.387 98.99 432.712 102.357L433.535 101.789C435.867 105.164 438.112 108.604 440.269 112.104L439.417 112.628C441.559 116.105 443.613 119.643 445.575 123.237L446.452 122.758C448.417 126.356 450.289 130.012 452.067 133.721L451.165 134.153C452.929 137.832 454.599 141.565 456.173 145.347L457.096 144.963C458.67 148.745 460.147 152.577 461.525 156.456L460.582 156.79C461.947 160.632 463.214 164.52 464.381 168.45L465.34 168.166C466.504 172.089 467.568 176.055 468.53 180.061L467.557 180.295C468.508 184.255 469.357 188.255 470.103 192.291L471.087 192.109C471.83 196.129 472.47 200.186 473.005 204.275L472.014 204.405C472.542 208.439 472.967 212.506 473.286 216.602L474.283 216.524Z" stroke="url(#paint0_linear_160_13)" stroke-width="2" stroke-dasharray="12 12" shape-rendering="crispEdges"/>
</g>
<defs>
<filter id="filter0_d_160_13" x="0" y="0" width="479" height="478" filterUnits="userSpaceOnUse" color-interpolation-filters="sRGB">
<feFlood flood-opacity="0" result="BackgroundImageFix"/>
<feColorMatrix in="SourceAlpha" type="matrix" values="0 0 0 0 0 0 0 0 0 0 0 0 0 0 0 0 0 0 127 0" result="hardAlpha"/>
<feOffset dy="4"/>
<feGaussianBlur stdDeviation="2"/>
<feComposite in2="hardAlpha" operator="out"/>
<feColorMatrix type="matrix" values="0 0 0 0 0 0 0 0 0 0 0 0 0 0 0 0 0 0 0.25 0"/>
<feBlend mode="normal" in2="BackgroundImageFix" result="effect1_dropShadow_160_13"/>
<feBlend mode="normal" in="SourceGraphic" in2="effect1_dropShadow_160_13" result="shape"/>
</filter>
<linearGradient id="paint0_linear_160_13" x1="121" y1="-2.65003e-06" x2="290.5" y2="98.5" gradientUnits="userSpaceOnUse">
<stop stop-color="#189897"/>
<stop offset="1" stop-color="#FFB800"/>
</linearGradient>
</defs>
</svg>
