<svg width="113" height="132" viewBox="0 0 113 132" fill="none" xmlns="http://www.w3.org/2000/svg">
<g clip-path="url(#clip0_160_2977)">
<path d="M84.5373 19.1403C84.6095 18.4917 84.6456 17.8359 84.6456 17.1729C84.6456 16.8198 84.6312 16.4739 84.6168 16.128L81.3603 15.0758C81.1582 13.7066 80.7683 12.395 80.2051 11.1772L82.364 8.5252C81.8658 7.64601 81.2881 6.81727 80.6527 6.04619L77.3963 7.10553C76.4432 6.13987 75.3601 5.30393 74.1688 4.63373L74.3565 1.21788C73.4467 0.807119 72.4936 0.468417 71.5117 0.208986L69.4971 2.98346C68.7101 2.85374 67.9086 2.78168 67.0855 2.78168C66.5223 2.78168 65.9736 2.81771 65.432 2.87536L63.5692 0C62.5727 0.20178 61.6052 0.490037 60.6738 0.850358L60.681 4.27341C59.4535 4.87875 58.3271 5.65704 57.3307 6.57225L54.132 5.33996C53.4533 6.08222 52.8396 6.88213 52.2908 7.72528L54.3053 10.4925C53.6844 11.6816 53.215 12.9643 52.9479 14.3192L49.6337 15.2055C49.5615 15.8541 49.5254 16.5099 49.5254 17.1729C49.5254 17.526 49.5398 17.8719 49.5543 18.2178L52.8107 19.27C53.0129 20.6392 53.4028 21.9508 53.966 23.1686L51.8071 25.8206C52.3053 26.6998 52.8829 27.5285 53.5183 28.2996L56.7747 27.2403C57.7278 28.2059 58.8109 29.0419 60.0023 29.7121L59.8145 33.1279C60.7243 33.5387 61.6774 33.8774 62.6594 34.1368L64.6739 31.3623C65.4609 31.4921 66.2624 31.5641 67.0855 31.5641C67.6487 31.5641 68.1975 31.5281 68.739 31.4704L70.6019 34.3458C71.5983 34.144 72.5658 33.8558 73.4973 33.4954L73.4901 30.0724C74.7175 29.4671 75.8439 28.6888 76.8403 27.7735L80.039 29.0058C80.7177 28.2636 81.3315 27.4637 81.8802 26.6205L79.8657 23.8533C80.4867 22.6642 80.956 21.3814 81.2232 20.0266L84.5373 19.1403ZM67.0855 24.0478C63.2803 24.0478 60.1972 20.9707 60.1972 17.1729C60.1972 13.3751 63.2803 10.298 67.0855 10.298C70.8907 10.298 73.9738 13.3751 73.9738 17.1729C73.9738 20.9707 70.8907 24.0478 67.0855 24.0478Z" fill="#9EC8FF"/>
<path d="M76.4792 25.0135C76.4214 25.0135 76.3636 24.9919 76.3131 24.9559C76.2048 24.8622 76.1903 24.7036 76.277 24.5955C78.0099 22.5201 78.963 19.8825 78.963 17.1801C78.963 15.883 78.7536 14.6147 78.3348 13.3968C78.2915 13.2598 78.3565 13.1157 78.4937 13.0725C78.6308 13.0292 78.7753 13.0941 78.8186 13.231C79.259 14.4994 79.4756 15.8253 79.4756 17.1801C79.4756 20.0051 78.4792 22.7579 76.6741 24.927C76.6236 24.9847 76.5514 25.0135 76.4792 25.0135Z" fill="white"/>
<path d="M75.4831 8.79177C75.4181 8.79177 75.3532 8.77016 75.3098 8.71971C74.1473 7.62433 72.7971 6.7956 71.3025 6.25511C71.1653 6.20467 71.1003 6.06054 71.1509 5.92362C71.2014 5.7867 71.3458 5.72184 71.483 5.77228C73.0426 6.33439 74.4506 7.19916 75.6636 8.34498C75.7647 8.43866 75.7719 8.60441 75.6781 8.7053C75.6203 8.76295 75.5481 8.79177 75.4831 8.79177Z" fill="white"/>
<path d="M64.4142 5.92373C64.2987 5.92373 64.1976 5.84446 64.1615 5.72916C64.1254 5.59224 64.2121 5.45532 64.3493 5.41929C65.3168 5.17427 66.3204 5.05176 67.3313 5.05176C67.4757 5.05176 67.5912 5.16706 67.5912 5.31119C67.5912 5.45532 67.4757 5.57062 67.3313 5.57062C66.3638 5.57062 65.4035 5.68592 64.472 5.92373C64.4576 5.92373 64.4359 5.92373 64.4142 5.92373Z" fill="white"/>
<path d="M29.1779 62.667C29.2284 62.2202 29.2573 61.7662 29.2573 61.305C29.2573 61.06 29.2501 60.8222 29.2357 60.5844L26.9757 59.8565C26.8385 58.9053 26.5641 58.0045 26.1742 57.1613L27.6688 55.3237C27.3223 54.7184 26.9251 54.1418 26.4847 53.6014L24.2247 54.3364C23.5676 53.6662 22.8167 53.0897 21.9936 52.6213L22.1235 50.2576C21.4953 49.9693 20.8383 49.7387 20.1523 49.5586L18.7588 51.4755C18.2173 51.3818 17.6613 51.3386 17.0909 51.3386C16.701 51.3386 16.3183 51.3602 15.9428 51.4034L14.6576 49.4072C13.9644 49.5441 13.2929 49.7459 12.6503 49.9982V52.3691C11.7983 52.787 11.0185 53.3275 10.3253 53.9617L8.11586 53.1113C7.64653 53.623 7.22052 54.1779 6.83784 54.7688L8.23861 56.6857C7.80538 57.5072 7.48768 58.4008 7.29995 59.3377L5.01107 59.943C4.96052 60.3898 4.93164 60.8438 4.93164 61.305C4.93164 61.55 4.93886 61.7879 4.9533 62.0257L7.2133 62.7535C7.35049 63.7048 7.62487 64.6056 8.01477 65.4487L6.52014 67.2864C6.86672 67.8917 7.26384 68.4682 7.70429 69.0087L9.96429 68.2736C10.6214 68.9438 11.3723 69.5203 12.1954 69.9888L12.0654 72.3525C12.6936 72.6407 13.3507 72.8713 14.0366 73.0515L15.4302 71.1346C15.9717 71.2283 16.5277 71.2715 17.0981 71.2715C17.488 71.2715 17.8707 71.2499 18.2461 71.2066L19.5386 73.1956C20.2318 73.0587 20.9033 72.8569 21.5459 72.6047V70.2338C22.3979 69.8158 23.1777 69.2753 23.8709 68.6412L26.0876 69.4915C26.5569 68.9799 26.9829 68.425 27.3656 67.834L25.9648 65.9171C26.398 65.0956 26.7157 64.202 26.9035 63.2652L29.1779 62.667ZM17.0909 66.0613C14.4554 66.0613 12.3182 63.9282 12.3182 61.2978C12.3182 58.6675 14.4554 56.5344 17.0909 56.5344C19.7263 56.5344 21.8636 58.6675 21.8636 61.2978C21.8636 63.9282 19.7263 66.0613 17.0909 66.0613Z" fill="#9EC8FF"/>
<path d="M23.5963 66.8107C23.5386 66.8107 23.4808 66.7891 23.4303 66.7531C23.322 66.6594 23.3075 66.5009 23.3942 66.3928C24.5783 64.9659 25.2354 63.1643 25.2354 61.305C25.2354 60.4187 25.091 59.5467 24.8022 58.7107C24.7588 58.5738 24.8238 58.4297 24.961 58.3864C25.0982 58.3432 25.2426 58.4081 25.2859 58.545C25.5892 59.4314 25.748 60.361 25.748 61.305C25.748 63.2796 25.0549 65.2037 23.7913 66.7243C23.748 66.7819 23.6758 66.8107 23.5963 66.8107Z" fill="white"/>
<path d="M22.911 55.576C22.846 55.576 22.781 55.5544 22.7377 55.5039C21.9434 54.7545 21.0192 54.1851 19.9939 53.8176C19.8567 53.7672 19.7917 53.623 19.8423 53.4861C19.8928 53.3492 20.0372 53.2843 20.1744 53.3348C21.2647 53.7311 22.2467 54.3365 23.0987 55.1292C23.1998 55.2301 23.207 55.3886 23.1131 55.4895C23.0481 55.5472 22.9759 55.576 22.911 55.576Z" fill="white"/>
<path d="M15.2424 53.587C15.1268 53.587 15.0258 53.5077 14.9897 53.3924C14.9536 53.2555 15.0402 53.1186 15.1774 53.0825C15.8561 52.9096 16.5565 52.8231 17.2641 52.8231C17.4085 52.8231 17.524 52.9384 17.524 53.0825C17.524 53.2267 17.4085 53.342 17.2641 53.342C16.5998 53.342 15.9428 53.4213 15.3074 53.587C15.2857 53.587 15.264 53.587 15.2424 53.587Z" fill="white"/>
<path d="M95.0505 32.2343C95.0505 32.1046 95.0432 31.9677 95.036 31.838L96.7256 30.4832C96.5956 29.8058 96.3862 29.1572 96.1119 28.5446L93.9313 28.3789C93.4331 27.6006 92.7905 26.916 92.0395 26.3755L92.0323 24.2064C91.4258 23.8893 90.776 23.6371 90.0972 23.4641L88.6026 25.0639C88.3427 25.0351 88.0827 25.0207 87.8228 25.0207C87.1657 25.0207 86.5303 25.1072 85.9238 25.2729L84.2126 23.9181C83.57 24.1992 82.9634 24.5523 82.4002 24.963L82.7252 27.1178C82.0898 27.7519 81.5699 28.5014 81.2016 29.3373L79.0716 29.8274C78.8911 30.4832 78.7828 31.1678 78.7539 31.874L80.6312 32.955C80.7251 33.899 81.0067 34.7926 81.4327 35.5997L80.494 37.5599C80.8984 38.1076 81.3605 38.612 81.8731 39.0588L83.8804 38.2733C84.6675 38.785 85.57 39.1525 86.5303 39.3254L87.4762 41.2712C87.5917 41.2784 87.7 41.2784 87.8156 41.2784C88.386 41.2784 88.942 41.2279 89.4763 41.127L90.1117 39.066C91.0431 38.7561 91.8879 38.2589 92.6027 37.6175L94.7183 38.0931C95.1515 37.5887 95.527 37.0266 95.8447 36.4357L94.6172 34.6413C94.9061 33.8918 95.0505 33.0775 95.0505 32.2343ZM87.7434 35.4124C86.061 35.4124 84.7036 34.0503 84.7036 32.3785C84.7036 30.6994 86.0682 29.3446 87.7434 29.3446C89.4257 29.3446 90.7832 30.7066 90.7832 32.3785C90.7904 34.0503 89.4257 35.4124 87.7434 35.4124Z" fill="#9EC8FF"/>
<path d="M21.9285 16.863H0V52.7294H21.9285V16.863Z" fill="#99BBEB"/>
<path d="M21.2068 17.5981H1.14844V51.3674H21.2068V17.5981Z" fill="white"/>
<path d="M7.14844 31.1388C7.90658 29.5174 9.1846 28.9985 11.2785 28.9985C13.7768 28.9985 15.0765 29.8993 15.4447 31.2181C10.9681 31.2758 7.14844 31.1388 7.14844 31.1388Z" fill="#9BD6E8"/>
<path d="M10.4053 21.1148C9.35115 21.4102 9.39447 22.0011 9.04067 22.556C8.68686 23.1037 7.9215 23.4713 7.82763 23.8388C7.73376 24.2063 8.06591 24.9702 7.676 25.3954C7.2861 25.8205 7.15613 26.0367 7.30776 26.4691C7.45939 26.8943 7.79875 27.5717 7.82763 27.6654C7.85651 27.7591 8.28974 28.4004 8.80961 28.4941C9.32948 28.5878 10.3115 28.7391 10.8025 28.9553C11.2934 29.1715 12.8675 28.6815 13.7412 28.7103C14.6149 28.7391 15.2141 28.0978 15.1492 27.6726C15.0914 27.2474 15.7918 26.3899 15.7918 25.6548C15.7918 24.8693 14.8748 24.2784 14.6293 23.7595C14.3838 23.2406 14.6582 22.3254 13.7412 21.7777C13.1635 21.4318 12.7592 21.4679 12.3043 21.3093C11.8494 21.1508 11.0841 20.9274 10.4053 21.1148Z" fill="#3A384D"/>
<path d="M11.6905 30.2885C11.4522 30.6416 11.2789 30.656 11.019 30.2885C10.8096 30.0003 10.4053 29.3373 10.4053 28.9986V25.6404C10.4053 25.3017 10.6797 25.0278 11.019 25.0278H11.6905C12.0299 25.0278 12.3043 25.3017 12.3043 25.6404V28.9986C12.3043 29.3373 11.9071 29.9786 11.6905 30.2885Z" fill="#F09959"/>
<path d="M11.6905 25.035H11.019C10.6797 25.035 10.4053 25.3089 10.4053 25.6476V28.6455C11.1634 28.8833 11.8566 28.4076 12.3043 27.8672V25.6476C12.3043 25.3089 12.0299 25.035 11.6905 25.035Z" fill="#E38540"/>
<path d="M11.3584 27.8384C12.483 27.8384 13.3946 26.5962 13.3946 25.0639C13.3946 23.5316 12.483 22.2894 11.3584 22.2894C10.2339 22.2894 9.32227 23.5316 9.32227 25.0639C9.32227 26.5962 10.2339 27.8384 11.3584 27.8384Z" fill="#F09959"/>
<path d="M12.3034 22.8587C11.0181 25.0278 9.11914 24.8188 9.11914 24.8188C9.11914 24.8188 9.16246 21.9435 10.6715 21.7921C12.1806 21.6408 13.0687 22.2461 13.3792 23.2406C13.6825 24.2351 13.3792 24.8981 13.3792 24.8981C13.3792 24.8981 12.8882 24.5162 12.6427 23.9036C12.3972 23.2911 12.3034 22.8587 12.3034 22.8587Z" fill="#3A384D"/>
<path d="M9.3832 25.9751C9.64975 25.8488 9.7119 25.4229 9.52201 25.0238C9.33212 24.6247 8.96209 24.4037 8.69554 24.53C8.42898 24.6564 8.36683 25.0823 8.55672 25.4814C8.74661 25.8804 9.11664 26.1015 9.3832 25.9751Z" fill="#F09959"/>
<path d="M13.0912 25.0207C12.9035 25.4242 12.9613 25.8494 13.2284 25.9719C13.4956 26.1016 13.8638 25.8782 14.0588 25.4747C14.2465 25.0711 14.1887 24.6459 13.9216 24.5234C13.6544 24.4009 13.2862 24.6243 13.0912 25.0207Z" fill="#F09959"/>
<path d="M12.1235 26.5701C12.1235 26.5701 11.7769 27.0169 11.3581 27.0169C10.9321 27.0169 10.5928 26.5701 10.5928 26.5701H12.1235Z" fill="white"/>
<path d="M13.7836 35.5349H8.63543C8.30329 35.5349 8.03613 35.2683 8.03613 34.9368C8.03613 34.6053 8.30329 34.3386 8.63543 34.3386H13.7836C14.1157 34.3386 14.3829 34.6053 14.3829 34.9368C14.3829 35.2683 14.1085 35.5349 13.7836 35.5349Z" fill="#99BBEB"/>
<path d="M14.7228 37.3725H7.69012C7.35798 37.3725 7.09082 37.1059 7.09082 36.7744C7.09082 36.4429 7.35798 36.1763 7.69012 36.1763H14.7228C15.055 36.1763 15.3221 36.4429 15.3221 36.7744C15.3221 37.0987 15.055 37.3725 14.7228 37.3725Z" fill="#99BBEB"/>
<path d="M19.7624 43.9664H2.65713C2.4694 43.9664 2.31055 43.8078 2.31055 43.6204C2.31055 43.4331 2.4694 43.2745 2.65713 43.2745H19.7551C19.9429 43.2745 20.1017 43.4331 20.1017 43.6204C20.1017 43.8078 19.9501 43.9664 19.7624 43.9664Z" fill="#99BBEB"/>
<path d="M19.7624 45.5806H2.65713C2.4694 45.5806 2.31055 45.4221 2.31055 45.2347C2.31055 45.0473 2.4694 44.8888 2.65713 44.8888H19.7551C19.9429 44.8888 20.1017 45.0473 20.1017 45.2347C20.1089 45.4221 19.9501 45.5806 19.7624 45.5806Z" fill="#99BBEB"/>
<path d="M19.7624 47.1877H2.65713C2.4694 47.1877 2.31055 47.0291 2.31055 46.8418C2.31055 46.6544 2.4694 46.4958 2.65713 46.4958H19.7551C19.9429 46.4958 20.1017 46.6544 20.1017 46.8418C20.1089 47.0363 19.9501 47.1877 19.7624 47.1877Z" fill="#99BBEB"/>
<path d="M17.3648 31.5353H5.04674C4.70738 31.5353 4.42578 31.2542 4.42578 30.9155V19.587C4.42578 19.2483 4.70738 18.9673 5.04674 18.9673H17.3648C17.7042 18.9673 17.9858 19.2483 17.9858 19.587V30.9155C17.9858 31.2614 17.7114 31.5353 17.3648 31.5353ZM5.04674 19.4717C4.98176 19.4717 4.93121 19.5222 4.93121 19.587V30.9155C4.93121 30.9804 4.98176 31.0308 5.04674 31.0308H17.3648C17.4298 31.0308 17.4803 30.9804 17.4803 30.9155V19.587C17.4803 19.5222 17.4298 19.4717 17.3648 19.4717H5.04674Z" fill="#99BBEB"/>
<path d="M6.83008 38.9291L7.18388 39.6497L7.97813 39.765L7.40049 40.3271L7.53768 41.1198L6.83008 40.7451L6.11525 41.1198L6.25244 40.3271L5.6748 39.765L6.46905 39.6497L6.83008 38.9291Z" fill="#99BBEB"/>
<path d="M9.74707 38.9291L10.1009 39.6497L10.9023 39.765L10.3247 40.3271L10.4619 41.1198L9.74707 40.7451L9.03224 41.1198L9.16943 40.3271L8.5918 39.765L9.39327 39.6497L9.74707 38.9291Z" fill="#99BBEB"/>
<path d="M12.6719 38.9291L13.0257 39.6497L13.8199 39.765L13.2495 40.3271L13.3795 41.1198L12.6719 40.7451L11.957 41.1198L12.0942 40.3271L11.5166 39.765L12.3109 39.6497L12.6719 38.9291Z" fill="#99BBEB"/>
<path d="M15.5889 38.9291L15.9499 39.6497L16.7441 39.765L16.1665 40.3271L16.3037 41.1198L15.5889 40.7451L14.874 41.1198L15.0112 40.3271L14.4336 39.765L15.2351 39.6497L15.5889 38.9291Z" fill="#99BBEB"/>
<path d="M70.8113 16.863H48.8828V52.7294H70.8113V16.863Z" fill="#99BBEB"/>
<path d="M70.0897 17.5981H50.0312V51.3674H70.0897V17.5981Z" fill="white"/>
<path d="M56.9844 24.8838C56.9844 26.4908 57.9519 29.0851 60.2408 28.9987C62.5297 28.9122 63.0351 26.4476 63.1218 25.7486C63.2084 25.0495 56.9844 24.8838 56.9844 24.8838Z" fill="#7A4E34"/>
<path d="M56.0312 31.139C56.7894 29.5175 58.0674 28.9987 60.1613 28.9987C62.6596 28.9987 63.9593 29.8995 64.3275 31.2182C59.8509 31.2759 56.0312 31.139 56.0312 31.139Z" fill="#D54A41"/>
<path d="M60.5733 30.2885C60.3351 30.6416 60.1618 30.656 59.9018 30.2885C59.6924 30.0003 59.2881 29.3373 59.2881 28.9986V25.6404C59.2881 25.3017 59.5625 25.0278 59.9018 25.0278H60.5733C60.9127 25.0278 61.1871 25.3017 61.1871 25.6404V28.9986C61.1871 29.3373 60.7899 29.9786 60.5733 30.2885Z" fill="#F09959"/>
<path d="M60.5733 25.035H59.9018C59.5625 25.035 59.2881 25.3089 59.2881 25.6476V28.6455C60.0462 28.8833 60.7394 28.4076 61.1871 27.8672V25.6476C61.1871 25.3089 60.9127 25.035 60.5733 25.035Z" fill="#E38540"/>
<path d="M60.2412 27.8384C61.3658 27.8384 62.2774 26.5962 62.2774 25.0639C62.2774 23.5316 61.3658 22.2894 60.2412 22.2894C59.1167 22.2894 58.2051 23.5316 58.2051 25.0639C58.2051 26.5962 59.1167 27.8384 60.2412 27.8384Z" fill="#F09959"/>
<path d="M61.3595 22.9596C61.114 23.81 60.5869 23.8028 59.8432 24.0838C59.1067 24.3649 58.7529 24.6459 58.5074 25.1936C58.1969 25.8854 58.6446 27.9176 58.6446 27.9176C58.6446 27.9176 56.7745 26.5196 56.9911 24.3144C57.2077 22.1165 58.5074 21.2589 59.7349 21.2589C60.9551 21.2589 61.4245 22.0012 61.4245 22.0012C61.4245 22.0012 62.0743 22.0012 62.6952 22.729C63.5256 23.7091 63.2657 26.0872 62.6952 26.9376C62.1248 27.7879 61.7422 28.0546 61.7494 28.0185C61.7638 27.9825 62.2837 26.0224 62.0021 24.8117C61.7205 23.6082 61.3595 22.9596 61.3595 22.9596Z" fill="#7A4E34"/>
<path d="M61.0063 26.5701C61.0063 26.5701 60.6597 27.0169 60.241 27.0169C59.8149 27.0169 59.4756 26.5701 59.4756 26.5701H61.0063Z" fill="white"/>
<path d="M62.6664 35.5349H57.5182C57.1861 35.5349 56.9189 35.2683 56.9189 34.9368C56.9189 34.6053 57.1861 34.3386 57.5182 34.3386H62.6664C62.9986 34.3386 63.2657 34.6053 63.2657 34.9368C63.2657 35.2683 62.9913 35.5349 62.6664 35.5349Z" fill="#99BBEB"/>
<path d="M63.6056 37.3725H56.5729C56.2408 37.3725 55.9736 37.1059 55.9736 36.7744C55.9736 36.4429 56.2408 36.1763 56.5729 36.1763H63.6056C63.9378 36.1763 64.2049 36.4429 64.2049 36.7744C64.2049 37.0987 63.9378 37.3725 63.6056 37.3725Z" fill="#99BBEB"/>
<path d="M68.6452 43.9664H51.5399C51.3522 43.9664 51.1934 43.8078 51.1934 43.6204C51.1934 43.4331 51.3522 43.2745 51.5399 43.2745H68.638C68.8257 43.2745 68.9845 43.4331 68.9845 43.6204C68.9845 43.8078 68.8329 43.9664 68.6452 43.9664Z" fill="#99BBEB"/>
<path d="M68.6452 45.5806H51.5399C51.3522 45.5806 51.1934 45.4221 51.1934 45.2347C51.1934 45.0473 51.3522 44.8888 51.5399 44.8888H68.638C68.8257 44.8888 68.9845 45.0473 68.9845 45.2347C68.9918 45.4221 68.8329 45.5806 68.6452 45.5806Z" fill="#99BBEB"/>
<path d="M68.6452 47.1877H51.5399C51.3522 47.1877 51.1934 47.0291 51.1934 46.8418C51.1934 46.6544 51.3522 46.4958 51.5399 46.4958H68.638C68.8257 46.4958 68.9845 46.6544 68.9845 46.8418C68.9918 47.0363 68.8329 47.1877 68.6452 47.1877Z" fill="#99BBEB"/>
<path d="M66.2476 31.5353H53.9296C53.5902 31.5353 53.3086 31.2542 53.3086 30.9155V19.587C53.3086 19.2483 53.5902 18.9673 53.9296 18.9673H66.2476C66.587 18.9673 66.8686 19.2483 66.8686 19.587V30.9155C66.8686 31.2614 66.5942 31.5353 66.2476 31.5353ZM53.9296 19.4717C53.8646 19.4717 53.814 19.5222 53.814 19.587V30.9155C53.814 30.9804 53.8646 31.0308 53.9296 31.0308H66.2476C66.3126 31.0308 66.3632 30.9804 66.3632 30.9155V19.587C66.3632 19.5222 66.3126 19.4717 66.2476 19.4717H53.9296Z" fill="#99BBEB"/>
<path d="M55.7129 38.9291L56.0667 39.6497L56.8609 39.765L56.2833 40.3271L56.4205 41.1198L55.7129 40.7451L54.9981 41.1198L55.1353 40.3271L54.5576 39.765L55.3519 39.6497L55.7129 38.9291Z" fill="#99BBEB"/>
<path d="M58.6299 38.9291L58.9837 39.6497L59.7852 39.765L59.2075 40.3271L59.3447 41.1198L58.6299 40.7451L57.9151 41.1198L58.0522 40.3271L57.4746 39.765L58.2761 39.6497L58.6299 38.9291Z" fill="#99BBEB"/>
<path d="M61.5547 38.9291L61.9085 39.6497L62.7027 39.765L62.1323 40.3271L62.2623 41.1198L61.5547 40.7451L60.8399 41.1198L60.977 40.3271L60.3994 39.765L61.1937 39.6497L61.5547 38.9291Z" fill="#99BBEB"/>
<path d="M64.4717 38.9291L64.8327 39.6497L65.6269 39.765L65.0493 40.3271L65.1865 41.1198L64.4717 40.7451L63.7569 41.1198L63.894 40.3271L63.3164 39.765L64.1179 39.6497L64.4717 38.9291Z" fill="#99BBEB"/>
<path opacity="0.2" d="M52.4132 65.2037H17.0908L19.5891 29.0923H53.6913L52.4132 65.2037Z" fill="#99BBEB"/>
<path d="M50.3264 10.3052H20.376V59.2944H50.3264V10.3052Z" fill="#99BBEB"/>
<path d="M49.3446 11.2997H21.9502V57.428H49.3446V11.2997Z" fill="white"/>
<path d="M33.0906 20.9922C33.0689 20.9345 32.5923 18.1889 32.5346 17.1223C32.4768 16.0558 34.253 15.9045 34.253 15.9045C34.253 15.9045 35.7044 15.119 36.7585 15.5225C37.8127 15.9261 38.5276 16.5963 39.0041 17.4394C39.4807 18.2754 38.5853 20.8985 38.5853 20.8985L33.0906 20.9922Z" fill="#2E2D3D"/>
<path d="M29.7981 29.82C29.7909 29.7768 29.9209 28.6958 29.9281 28.6526C30.1736 26.3754 32.9824 25.734 35.7911 25.734C39.0909 25.734 41.322 26.3393 41.683 28.7031C41.6902 28.7751 41.8852 29.8561 41.8707 29.9281C35.755 30.0074 29.7981 29.82 29.7981 29.82Z" fill="#D5E1E8"/>
<path d="M36.3466 27.4996C36.0217 27.9825 35.7834 28.0041 35.4224 27.4996C35.1408 27.1033 34.2021 26.1953 34.2021 25.734L34.5921 21.1508C34.5921 20.6896 34.9675 20.3148 35.4296 20.3148H36.3538C36.8159 20.3148 37.1914 20.6896 37.1914 21.1508L37.3719 25.734C37.3647 26.1881 36.6427 27.0672 36.3466 27.4996Z" fill="#F09959"/>
<path d="M36.3469 20.3148H35.4226C34.9605 20.3148 34.5851 20.6896 34.5851 21.1508L34.2529 25.2152C35.2855 25.5467 36.6862 24.8765 37.3 24.1414L37.1844 21.1508C37.1844 20.6896 36.809 20.3148 36.3469 20.3148Z" fill="#E38540"/>
<path d="M32.7295 26.0655L34.2025 28.7895C34.2025 28.7895 34.9895 28.1409 35.0689 28.2706C35.1483 28.4004 34.9317 30.0002 34.9317 30.0002C34.9317 30.0002 36.6935 30.0218 36.7657 29.9497C36.8451 29.8705 36.4119 28.2058 36.5852 28.2058C36.7657 28.2058 37.3 28.6886 37.3 28.6886L38.9463 26.0655L38.5853 25.979L35.8848 27.4275L32.9966 26.0078L32.7295 26.0655Z" fill="#BDCCD4"/>
<path d="M34.4189 27.3195L35.5092 28.0545L35.1699 30.0002L36.6501 29.921L36.2818 28.1482L37.1916 27.3195L36.7656 26.9159H34.845L34.4189 27.3195Z" fill="#D54A41"/>
<path d="M34.2822 24.7323L32.9248 26.015C32.9248 26.015 34.3039 28.4652 34.3833 28.4652C34.4628 28.4652 35.553 27.1104 35.553 27.1104L36.2534 27.096L37.3654 28.2562L38.6506 25.979L37.3365 24.5881C37.3365 24.5881 36.2173 26.7501 36.0079 26.8005C35.8058 26.8509 35.8058 26.8798 35.6397 26.7501C35.4808 26.6348 34.2822 24.7323 34.2822 24.7323Z" fill="#D5E1E8"/>
<path d="M35.8922 24.1414C37.4275 24.1414 38.672 22.4476 38.672 20.3581C38.672 18.2686 37.4275 16.5747 35.8922 16.5747C34.3569 16.5747 33.1123 18.2686 33.1123 20.3581C33.1123 22.4476 34.3569 24.1414 35.8922 24.1414Z" fill="#F09959"/>
<path d="M33.3866 20.3004C33.6466 20.8481 33.5599 21.4318 33.1989 21.6048C32.8307 21.7777 32.3252 21.475 32.0653 20.9274C31.8054 20.3797 31.892 19.796 32.253 19.623C32.6213 19.45 33.1267 19.7527 33.3866 20.3004Z" fill="#F09959"/>
<path d="M38.2606 20.3004C38.0007 20.8481 38.0873 21.4318 38.4483 21.6048C38.8166 21.7777 39.322 21.475 39.582 20.9274C39.8419 20.3797 39.7552 19.796 39.3942 19.623C39.026 19.45 38.5206 19.7527 38.2606 20.3004Z" fill="#F09959"/>
<path d="M37.1266 21.9147C37.1266 21.9147 36.5706 22.8083 35.8919 22.8083C35.2132 22.8083 34.6572 21.9147 34.6572 21.9147H37.1266Z" fill="white"/>
<path d="M34.2531 17.7854C35.4012 16.9854 35.9138 17.1152 36.7731 18.4339C37.6323 19.7527 38.6648 19.7743 38.6648 19.7743L38.802 18.4123C38.802 18.4123 37.524 15.9405 35.7983 16.2648C34.0798 16.5891 33.0978 18.1313 33.0978 18.1313C33.0978 18.1313 33.0112 21.0282 33.2567 21.1291C33.495 21.23 33.5239 20.1923 33.6971 19.9833C33.8704 19.7743 33.5239 18.7798 33.7549 18.3258C33.986 17.8646 34.2531 17.7854 34.2531 17.7854Z" fill="#2E2D3D"/>
<path d="M37.9424 19.2699C38.3395 19.7095 38.1879 21.4462 38.4045 21.4246C38.6139 21.403 38.6933 19.7671 38.6355 19.5942C38.5778 19.4284 37.9424 19.2699 37.9424 19.2699Z" fill="#2E2D3D"/>
<path d="M42.0809 35.8015H29.2935C28.8458 35.8015 28.4775 35.434 28.4775 34.9872C28.4775 34.5404 28.8458 34.1729 29.2935 34.1729H42.0809C42.5285 34.1729 42.8968 34.5404 42.8968 34.9872C42.8968 35.434 42.5285 35.8015 42.0809 35.8015Z" fill="#99BBEB"/>
<path d="M40.4923 38.3093H30.8892C30.4415 38.3093 30.0732 37.9418 30.0732 37.495C30.0732 37.0482 30.4415 36.6807 30.8892 36.6807H40.4923C40.94 36.6807 41.3083 37.0482 41.3083 37.495C41.3083 37.9418 40.94 38.3093 40.4923 38.3093Z" fill="#99BBEB"/>
<path d="M47.3659 47.3245H24.0078C23.7479 47.3245 23.5312 47.1083 23.5312 46.8489C23.5312 46.5895 23.7479 46.3733 24.0078 46.3733H47.3659C47.6259 46.3733 47.8425 46.5895 47.8425 46.8489C47.8425 47.1083 47.6259 47.3245 47.3659 47.3245Z" fill="#99BBEB"/>
<path d="M47.3659 49.5224H24.0078C23.7479 49.5224 23.5312 49.3062 23.5312 49.0468C23.5312 48.7874 23.7479 48.5712 24.0078 48.5712H47.3659C47.6259 48.5712 47.8425 48.7874 47.8425 49.0468C47.8425 49.3062 47.6259 49.5224 47.3659 49.5224Z" fill="#99BBEB"/>
<path d="M47.3659 51.7204H24.0078C23.7479 51.7204 23.5312 51.5042 23.5312 51.2448C23.5312 50.9854 23.7479 50.7692 24.0078 50.7692H47.3659C47.6259 50.7692 47.8425 50.9854 47.8425 51.2448C47.8425 51.5042 47.6259 51.7204 47.3659 51.7204Z" fill="#99BBEB"/>
<path d="M44.1019 30.2525H27.2783C26.8595 30.2525 26.5273 29.9138 26.5273 29.503V14.0236C26.5273 13.6057 26.8667 13.2742 27.2783 13.2742H44.1019C44.5207 13.2742 44.8528 13.6129 44.8528 14.0236V29.4958C44.8528 29.9138 44.5135 30.2525 44.1019 30.2525ZM27.2783 13.7714C27.1411 13.7714 27.0256 13.8867 27.0256 14.0236V29.4958C27.0256 29.6327 27.1411 29.748 27.2783 29.748H44.1019C44.2391 29.748 44.3546 29.6327 44.3546 29.4958V14.0236C44.3546 13.8867 44.2391 13.7714 44.1019 13.7714H27.2783Z" fill="#99BBEB"/>
<path d="M27.6756 40.4352L28.1666 41.4225L29.2497 41.581L28.4626 42.3449L28.6504 43.4258L27.6756 42.9214L26.7009 43.4258L26.8886 42.3449L26.1016 41.581L27.1919 41.4225L27.6756 40.4352Z" fill="#99BBEB"/>
<path d="M31.6682 40.4352L32.152 41.4225L33.2422 41.581L32.4552 42.3449L32.643 43.4258L31.6682 42.9214L30.6934 43.4258L30.8812 42.3449L30.0869 41.581L31.1772 41.4225L31.6682 40.4352Z" fill="#99BBEB"/>
<path d="M35.6541 40.4352L36.1451 41.4225L37.2354 41.581L36.4412 42.3449L36.6289 43.4258L35.6541 42.9214L34.6794 43.4258L34.8671 42.3449L34.0801 41.581L35.1704 41.4225L35.6541 40.4352Z" fill="#99BBEB"/>
<path d="M39.6467 40.4352L40.1305 41.4225L41.2208 41.581L40.4337 42.3449L40.6215 43.4258L39.6467 42.9214L38.6719 43.4258L38.8597 42.3449L38.0654 41.581L39.1557 41.4225L39.6467 40.4352Z" fill="#99BBEB"/>
<path d="M43.6981 40.4352L44.1891 41.4225L45.2721 41.581L44.4851 42.3449L44.6728 43.4258L43.6981 42.9214L42.7233 43.4258L42.911 42.3449L42.124 41.581L43.2143 41.4225L43.6981 40.4352Z" fill="#99BBEB"/>
<path d="M68.508 88.6678H5.45184C5.1197 88.6678 4.85254 88.4012 4.85254 88.0697V86.8734C4.85254 86.5419 5.1197 86.2753 5.45184 86.2753H68.508C68.8401 86.2753 69.1073 86.5419 69.1073 86.8734V88.0697C69.1073 88.4012 68.8329 88.6678 68.508 88.6678Z" fill="#2E5B9A"/>
<path d="M84.6093 54.2572C85.4613 57.2551 83.3818 60.3467 81.0857 60.9952C78.7968 61.6438 77.1578 59.6044 76.3057 56.6065C75.4537 53.6087 76.6234 50.654 78.9123 50.0055C81.2084 49.3497 83.7572 51.2594 84.6093 54.2572Z" fill="#F09959"/>
<path d="M71.7564 112.348C71.7564 112.348 77.6338 121.457 78.428 121.853C79.2223 122.25 81.2079 122.351 80.4642 123.835C79.7205 125.32 79.4245 131.164 78.7313 131.46C78.0381 131.755 72.0885 132.447 72.9766 131.46C73.8719 130.472 74.4207 130.962 74.8684 129.182C75.316 127.402 75.9514 124.037 75.1066 123.345C74.2618 122.653 69.1064 116.413 69.1064 116.413L71.7564 112.348Z" fill="#F09959"/>
<path d="M42.1888 116.261C42.1888 116.261 35.0477 128.008 33.7264 129.067C32.4051 130.126 28.0367 131.705 31.6108 131.971C35.1849 132.238 36.9034 130.782 39.149 130.126C41.3945 129.463 44.1744 129.067 43.113 127.352C42.0516 125.637 42.492 121.889 44.7737 119.511C47.0553 117.133 42.1888 116.261 42.1888 116.261Z" fill="#F09959"/>
<path d="M78.6304 89.0209C78.6304 89.0209 60.9548 88.5597 53.9437 94.3032C49.8425 100.508 39.9288 118.812 39.1562 120.83C39.6833 121.356 42.6582 122.307 43.9867 122.178C47.8858 117.537 53.0484 113.523 55.099 109.876C57.6262 105.387 58.406 103.146 62.5072 102.749C66.6084 102.353 75.865 101.034 78.6449 101.034C81.4103 101.027 78.6304 89.0209 78.6304 89.0209Z" fill="#6791C9"/>
<path d="M94.0537 132H93.1223L86.4795 104.327H88.5157L94.0537 132Z" fill="#2E5B9A"/>
<path d="M66.291 132H67.2152L74.84 103.347H72.8039L66.291 132Z" fill="#2E5B9A"/>
<path d="M88.7032 87.8103L78.4213 89.5831C78.4213 89.5831 64.7602 89.7056 58.5218 90.8658C52.8393 91.9252 52.0017 98.3605 58.5218 107.232C62.2259 112.269 65.3523 116.29 71.7568 120.823C73.3887 119.627 74.0096 119.18 74.4573 116.304C73.9952 115.67 72.7966 111.7 72.4211 110.929C68.8831 103.542 64.1537 100.854 64.0887 100.126C64.883 98.8361 85.1075 106.835 89.1292 102.129C92.9705 97.6471 88.7032 87.8103 88.7032 87.8103Z" fill="#75A1DE"/>
<path d="M89.1289 64.584C86.4213 64.2021 83.6631 64.7209 81.0854 66.5802C78.8326 68.8718 76.2838 72.6552 76.4354 78.8887C76.6303 86.8086 75.2079 87.3203 76.6953 89.4966C82.8977 92.0549 93.5117 103.045 91.0135 91.2622C89.2011 82.7298 94.9847 76.3737 90.3203 66.9117C89.9521 66.1406 89.4755 65.3983 89.1289 64.584Z" fill="#F37168"/>
<path d="M76.4428 81.8722C76.32 86.0015 75.7352 87.2193 76.1828 88.5093C78.71 88.7687 83.3383 89.7776 84.4936 91.3919C85.8149 93.2367 87.1362 93.5033 86.5225 92.1413C85.9088 90.7793 84.2769 88.8408 86.7897 82.1965C89.3024 75.5522 90.4937 71.0626 88.0244 66.4432L76.4428 81.8722Z" fill="#D54A41"/>
<path d="M89.1295 64.5839C87.4616 60.642 87.05 56.2173 87.05 56.2173L82.6889 57.5072C82.6889 57.5072 85.1655 63.049 82.79 65.0307C82.2845 65.4487 81.6997 65.9604 81.0859 66.5801C83.6709 64.7209 86.4291 64.2092 89.1295 64.5839Z" fill="#F09959"/>
<path d="M87.1864 57.2695C86.9265 57.0389 86.6016 56.7507 86.2622 56.4552L82.7025 57.5073C82.7025 57.5145 82.6953 57.5217 82.6953 57.529C82.782 57.7235 83.6845 59.835 83.8073 61.8672C84.8687 61.2258 86.0312 60.1809 87.3597 58.3505C87.2875 57.9397 87.2297 57.5794 87.1864 57.2695Z" fill="#E38540"/>
<path d="M86.0681 65.8235C81.5697 67.3945 82.0752 72.1219 77.9378 79.0905C75.7934 82.7009 73.8077 82.6433 73.8077 82.6433C73.8077 82.6433 68.7895 82.6865 62.7171 81.9443C58.912 81.4831 58.6737 82.6073 61.3164 83.5513C66.6523 85.4538 72.1831 87.5004 76.6526 87.0104C81.1148 86.5131 88.7468 75.1486 89.144 72.194C89.6783 68.1007 88.3281 65.0308 86.0681 65.8235Z" fill="#F09959"/>
<path d="M83.7504 105.48C83.4688 105.48 83.1872 105.473 82.8911 105.466C79.2304 105.372 76.7321 104.868 74.732 104.464C72.3926 103.989 71.1074 103.729 69.6055 104.443C69.0279 104.717 68.3419 104.472 68.0676 103.902C67.7932 103.326 68.0387 102.641 68.6091 102.367C70.8041 101.322 72.6453 101.69 75.1941 102.209C77.1076 102.598 79.4903 103.081 82.9489 103.167C86.8191 103.261 89.1801 102.692 90.3787 101.366C91.4474 100.184 91.7579 98.2019 91.3607 95.1248C91.2235 94.0726 91.0864 93.1935 90.9708 92.4224C90.6315 90.2388 90.4076 88.8047 90.6892 86.578C90.9492 84.5097 91.6351 81.7569 93.2236 76.4169C93.4041 75.8044 94.0467 75.4584 94.6605 75.6386C95.2742 75.8188 95.6208 76.4601 95.4403 77.0727C92.4799 87.0248 92.6315 87.9904 93.2597 92.0692C93.3825 92.8547 93.5196 93.7483 93.6568 94.8293C94.1478 98.6271 93.6496 101.193 92.0972 102.908C90.4943 104.673 87.9021 105.48 83.7504 105.48Z" fill="#2E5B9A"/>
<path d="M42.6728 126.163C37.9362 128.476 35.3802 129.802 33.8639 129.672C33.5029 129.644 33.2068 129.608 32.9613 129.564C31.2717 130.559 28.5713 131.741 31.6111 131.964C35.1852 132.231 36.9037 130.775 39.1492 130.119C41.3948 129.456 44.1747 129.06 43.1133 127.345C42.9111 127.02 42.7667 126.617 42.6728 126.163Z" fill="#D54A41"/>
<path d="M78.9407 122.048C78.8252 125.795 78.3125 129.507 76.0164 130.206C75.4099 130.393 74.8539 130.415 74.3629 130.35C74.0019 130.797 73.5615 130.797 72.9694 131.452C72.074 132.44 78.0309 131.748 78.7241 131.452C79.4172 131.157 79.7133 125.312 80.457 123.828C81.0707 122.61 79.8433 122.329 78.9407 122.048Z" fill="#D54A41"/>
<path d="M60.6881 86.6068H45.6407C45.1931 86.6068 44.7815 86.3474 44.5938 85.9366L38.5069 72.8714C38.2398 72.2949 38.4925 71.6103 39.0701 71.3364C39.6478 71.0698 40.3337 71.322 40.6081 71.8985L46.3844 84.3008H60.7026C61.338 84.3008 61.8579 84.8196 61.8579 85.4538C61.8434 86.0952 61.3308 86.6068 60.6881 86.6068Z" fill="#75A1DE"/>
<path d="M63.8433 82.074C60.8035 82.0308 57.7853 80.2219 56.2835 80.4814C54.7816 80.748 49.8934 84.135 50.5071 84.2647C51.1208 84.3945 55.0054 82.3911 55.1354 82.3623C55.2654 82.3334 56.103 83.7531 58.1752 84.272C60.2475 84.7908 58.1897 82.7226 64.6159 84.6611C68.7893 85.915 63.8433 82.074 63.8433 82.074Z" fill="#F09959"/>
<path d="M88.6889 60.988L89.1366 64.584C89.1366 64.584 85.2015 64.8146 83.2447 65.9172C81.288 67.0198 78.3926 70.1978 78.3926 70.1978L80.7537 66.1406L81.093 63.5463L88.6889 60.988Z" fill="#F2E5DE"/>
<path d="M87.0062 65.3911C84.0819 64.8434 82.7317 67.4593 80.8327 71.7255C78.9337 75.9917 75.699 81.1804 75.0563 81.8433C74.4137 82.5135 64.2112 81.8433 64.2112 81.8433C64.2112 81.8433 63.9008 84.7908 64.2112 85.1439C64.5217 85.497 66.2835 85.4538 66.2835 85.4538C66.2835 85.4538 66.9911 86.0159 67.6482 86.4627C68.3124 86.9095 73.9083 87.7454 76.5077 87.6085C79.107 87.4788 81.4898 87.2554 81.8436 86.859C82.1974 86.4627 89.2951 75.5521 89.7355 71.6391C90.1832 67.726 88.5008 65.6721 87.0062 65.3911Z" fill="#F2E5DE"/>
<path d="M78.3856 47.4399C72.8547 47.7066 73.7212 56.0084 73.7212 56.0084C73.7212 56.0084 75.1581 56.448 78.169 55.9579C77.9379 55.0643 78.039 52.7871 78.039 52.7871C78.039 52.7871 78.3856 54.6319 78.8333 55.7561C79.4687 56.0444 80.1907 55.7922 81.411 55.4967C82.0391 58.1343 83.8154 59.2512 85.0284 59.6332C86.3714 60.0512 87.7938 60.5556 89.3823 59.7629C90.9708 58.9702 90.0972 50.8774 89.2524 49.2487C87.9888 46.8058 85.8876 44.615 82.2485 45.7752C80.429 46.3445 78.3856 47.4399 78.3856 47.4399Z" fill="#303C60"/>
<path d="M88.0029 57.2983L90.2629 60.5917C90.2629 60.5917 87.7574 66.8396 95.0429 69.6717C100.747 71.8913 100.076 75.7972 97.4978 79.7247C94.9201 83.6522 99.043 87.0825 99.043 87.0825C99.043 87.0825 99.6712 82.7298 105.216 81.9082C112.776 80.7913 114.921 70.659 109.267 65.5929C104.596 61.3988 103.173 64.8723 100.011 61.1105C96.848 57.3488 90.8767 59.8926 90.8767 59.8926L88.6889 56.7074L88.0029 57.2983Z" fill="#303C60"/>
<path d="M111.874 75.7972C111.838 75.7972 111.809 75.79 111.78 75.7756C111.686 75.7251 111.65 75.6026 111.701 75.5017C113.6 72.0354 112.047 67.8341 111.267 66.6955C111.188 66.573 111.109 66.4505 111.022 66.3208C110.257 65.1245 109.304 63.64 104.213 62.7248C102.986 62.5014 101.996 61.7807 100.942 61.0096C98.7689 59.417 96.3139 57.6154 90.9636 60.0728C90.8625 60.116 90.7397 60.0728 90.6964 59.9719C90.6531 59.871 90.6964 59.7485 90.7975 59.7053C96.3572 57.1542 98.9205 59.0279 101.181 60.6853C102.191 61.4276 103.152 62.1266 104.285 62.3284C109.549 63.2724 110.553 64.8434 111.361 66.1046C111.441 66.2343 111.52 66.3496 111.6 66.4649C112.416 67.6539 114.04 72.0571 112.055 75.6891C112.011 75.7612 111.946 75.7972 111.874 75.7972Z" fill="#303C60"/>
<path d="M86.7968 60.6781C86.4357 60.6781 86.0458 60.6493 85.6198 60.5844C83.6847 60.2962 81.0926 59.2008 80.8832 53.0393C80.876 52.9312 80.9699 52.8375 81.0782 52.8303C81.1937 52.8303 81.2803 52.9168 81.2876 53.0249C81.3742 55.5616 81.8796 57.4424 82.7894 58.6099C83.4826 59.4963 84.3996 60.0007 85.6776 60.1881C87.4683 60.4547 88.6524 60.1232 89.2012 59.208C89.2589 59.1143 89.3817 59.0855 89.4755 59.1359C89.5694 59.1936 89.6055 59.3161 89.5477 59.4098C89.0495 60.2529 88.1253 60.6781 86.7968 60.6781Z" fill="#303C60"/>
<path d="M11.5957 132H13.0759L18.8595 87.9111H15.5886L11.5957 132Z" fill="#2E5B9A"/>
<path d="M62.0021 132H60.5219L54.7383 87.9111H58.0091L62.0021 132Z" fill="#2E5B9A"/>
</g>
<defs>
<clipPath id="clip0_160_2977">
<rect width="113" height="132" fill="white"/>
</clipPath>
</defs>
</svg>
