<svg width="266" height="274" viewBox="0 0 266 274" fill="none" xmlns="http://www.w3.org/2000/svg">
<g clip-path="url(#clip0_160_40)">
<path d="M97.5888 121.788L110.402 114.444L97.5888 107.012L84.7758 114.444L71.9629 121.788L84.7758 129.132L97.5888 136.563L110.402 129.132L97.5888 121.788Z" fill="#D4ECFF"/>
<path d="M97.5889 103.428V49.3095L110.402 41.9656V95.9962L97.5889 103.428Z" fill="#173D7A"/>
<path d="M97.5883 49.3095L84.7754 41.9656V95.9962L97.5883 103.428V49.3095Z" fill="#396CAA"/>
<path d="M110.401 41.9656L97.5883 34.6216L84.7754 41.9656L97.5883 49.3095L110.401 41.9656Z" fill="#D4ECFF"/>
<path d="M110.402 105.875L97.5889 98.5315V103.427L110.402 110.771V105.875Z" fill="#95D359"/>
<path d="M84.7754 110.772V71.4289L97.5883 64.085V103.428L84.7754 110.772Z" fill="#C13D1A"/>
<path d="M84.7758 71.4289L71.9629 64.085V103.428L84.7758 110.772V71.4289Z" fill="#DB5126"/>
<path d="M97.5888 64.0849L84.7758 56.741L71.9629 64.0849L84.7758 71.4289L97.5888 64.0849Z" fill="#EF602E"/>
<path d="M84.7754 110.772V71.4289L97.5883 64.085V103.428L84.7754 110.772Z" fill="#396CAA"/>
<path d="M84.7758 71.4289L71.9629 64.085V103.428L84.7758 110.772V71.4289Z" fill="#5793CE"/>
<path d="M97.5888 64.0849L84.7758 56.741L71.9629 64.0849L84.7758 71.4289L97.5888 64.0849Z" fill="#D4ECFF"/>
<path d="M97.5879 118.116V95.9963L110.401 88.6523V110.772L97.5879 118.116Z" fill="#173D7A"/>
<path d="M97.5883 95.9963L84.7754 88.6523V110.772L97.5883 118.116V95.9963Z" fill="#396CAA"/>
<path d="M110.401 88.6523L97.5883 81.3083L84.7754 88.6523L97.5883 95.9963L110.401 88.6523Z" fill="#D4ECFF"/>
<path d="M265.811 146.807L265.44 145.367L261.105 146.474L261.475 147.914L265.811 146.807Z" fill="#5793CE"/>
<path d="M263.601 149.066L263.209 147.542L258.873 148.649L259.266 150.173L263.601 149.066Z" fill="#5793CE"/>
<path d="M261.42 151.123L261.05 149.683L256.714 150.79L257.085 152.23L261.42 151.123Z" fill="#5793CE"/>
<path d="M259.166 153.276L258.796 151.836L254.46 152.943L254.831 154.382L259.166 153.276Z" fill="#5793CE"/>
<path d="M151.474 255.815L54.6745 200.123C51.954 198.549 52.305 195.839 55.4644 194.003L121.372 156.059C124.531 154.223 129.358 154.048 132.079 155.622L228.878 211.314C231.598 212.888 231.247 215.598 228.088 217.434L162.18 255.378C159.021 257.214 154.194 257.389 151.474 255.815Z" fill="#D4ECFF"/>
<path d="M232.388 101.766L134.009 45.2004C132.781 44.5009 131.552 44.3261 130.675 44.7632L130.499 44.8507L127.252 46.3369L130.762 48.0855C130.762 48.1729 130.762 48.1729 130.762 48.2604V128.782C130.762 132.803 133.307 137.525 136.379 139.273L232.125 194.353L232.651 198.812L236.162 197.151C237.303 196.451 238.005 194.965 238.005 192.779V112.258C238.005 108.236 235.46 103.515 232.388 101.766Z" fill="#173D7A"/>
<path d="M232.388 101.766L134.009 45.2004C132.781 44.5009 131.552 44.3261 130.675 44.7632L130.499 44.8507L127.252 46.3369L130.762 48.0855C130.762 48.1729 130.762 48.1729 130.762 48.2604V101.329L175.52 136.563L236.337 106.05C235.284 104.214 233.968 102.641 232.388 101.766Z" fill="#396CAA"/>
<path d="M234.055 103.078L224.401 107.1L231.685 112.695L237.741 110.16C237.214 107.449 235.81 104.826 234.055 103.078Z" fill="#274F89"/>
<path d="M229.229 198.375L130.762 141.896C127.691 140.147 125.146 135.426 125.146 131.405V50.8833C125.146 46.8616 127.603 45.0256 130.762 46.7742L229.141 103.34C232.212 105.089 234.757 109.81 234.757 113.832V194.353C234.757 198.375 232.3 200.211 229.229 198.375Z" fill="#D4ECFF"/>
<path d="M225.894 192.429L134.009 139.623C131.201 137.962 128.919 133.678 128.919 130.006V56.3037C128.919 52.6318 131.201 50.9706 134.009 52.5443L225.894 105.351C228.702 107.012 230.984 111.296 230.984 114.968V188.67C231.071 192.342 228.79 194.091 225.894 192.429Z" fill="white"/>
<path d="M225.894 192.429L134.009 139.623C131.201 137.962 128.919 133.678 128.919 130.006V56.3037C128.919 52.6318 131.201 50.9706 134.009 52.5443L225.894 105.351C228.702 107.012 230.984 111.296 230.984 114.968V188.67C231.071 192.342 228.79 194.091 225.894 192.429Z" fill="white"/>
<path d="M230.721 200.91L217.469 199.162L132.079 150.027C129.358 148.453 124.531 148.628 121.372 150.464L60.8176 185.26L52.8315 184.211V188.758C52.7437 189.807 53.358 190.768 54.6744 191.555L151.474 247.247C154.194 248.821 159.021 248.646 162.18 246.81L228.088 208.866C229.843 207.817 230.721 206.506 230.721 205.282V200.91Z" fill="#173D7A"/>
<path d="M166.48 169.873L160.425 166.376H93.7275L60.8176 185.26L52.8315 184.211V188.758C52.7437 189.807 53.358 190.768 54.6744 191.555L151.474 247.247C152.878 248.121 154.896 248.384 157.002 248.296L166.48 169.873Z" fill="#396CAA"/>
<path d="M56.3419 184.736L52.8315 184.299V188.845C52.7437 189.894 53.358 190.856 54.6744 191.643L56.3419 192.604V184.736Z" fill="#5793CE"/>
<path d="M152.438 247.684C155.071 248.646 158.757 248.471 161.478 247.159V237.105H152.438V247.684Z" fill="#274F89"/>
<path d="M151.474 242.701L54.6745 187.009C51.954 185.435 52.305 182.725 55.4644 180.889L121.372 142.945C124.531 141.109 129.358 140.934 132.079 142.508L228.878 198.2C231.598 199.773 231.247 202.484 228.088 204.32L162.18 242.263C159.021 244.099 154.194 244.274 151.474 242.701Z" fill="#D4ECFF"/>
<path d="M228.088 202.746L162.18 240.69C159.021 242.526 154.194 242.701 151.473 241.127L54.6744 185.348C53.7968 184.823 53.1825 184.211 53.007 183.512C52.5682 184.823 53.0947 186.135 54.6744 187.009L151.473 242.701C154.194 244.274 159.021 244.099 162.18 242.263L228.088 204.32C230.194 203.096 231.072 201.435 230.545 200.036C230.194 200.997 229.404 201.959 228.088 202.746Z" fill="white"/>
<path d="M95.8336 168.561L91.4456 166.026C91.0946 165.851 91.0946 165.502 91.5334 165.239L96.7112 162.267C97.15 162.004 97.7643 162.004 98.1154 162.179L102.503 164.715C102.854 164.89 102.854 165.239 102.416 165.502L97.2378 168.474C96.799 168.736 96.1846 168.824 95.8336 168.561Z" fill="#173D7A"/>
<path d="M102.591 172.496L98.2034 169.96C97.8524 169.786 97.8524 169.436 98.2912 169.174L103.469 166.201C103.908 165.939 104.522 165.939 104.873 166.114L109.261 168.649C109.612 168.824 109.612 169.174 109.173 169.436L103.996 172.408C103.557 172.671 102.942 172.671 102.591 172.496Z" fill="#173D7A"/>
<path d="M109.348 176.343L104.96 173.807C104.609 173.632 104.609 173.283 105.048 173.02L110.226 170.048C110.665 169.785 111.279 169.785 111.63 169.96L116.018 172.496C116.369 172.671 116.369 173.02 115.93 173.283L110.752 176.255C110.314 176.517 109.699 176.605 109.348 176.343Z" fill="#173D7A"/>
<path d="M118.739 173.195L114.351 170.66C114 170.485 114 170.135 114.439 169.873L118.739 167.337C119.178 167.075 119.792 167.075 120.143 167.25L124.531 169.785C124.882 169.96 124.882 170.31 124.443 170.572L120.143 173.108C119.704 173.37 119.09 173.37 118.739 173.195Z" fill="#173D7A"/>
<path d="M125.497 177.042L121.109 174.507C120.758 174.332 120.758 173.982 121.196 173.72L125.497 171.184C125.935 170.922 126.55 170.922 126.901 171.097L131.289 173.632C131.64 173.807 131.64 174.157 131.201 174.419L126.901 176.955C126.462 177.217 125.848 177.304 125.497 177.042Z" fill="#173D7A"/>
<path d="M132.254 180.976L127.866 178.441C127.514 178.266 127.514 177.916 127.953 177.654L132.254 175.118C132.692 174.856 133.307 174.856 133.658 175.031L138.046 177.566C138.397 177.741 138.397 178.091 137.958 178.353L133.658 180.889C133.219 181.151 132.605 181.151 132.254 180.976Z" fill="#173D7A"/>
<path d="M139.011 184.823L134.623 182.288C134.272 182.113 134.272 181.763 134.711 181.501L139.011 178.965C139.45 178.703 140.064 178.703 140.415 178.878L144.803 181.413C145.155 181.588 145.155 181.938 144.716 182.2L140.415 184.736C139.977 184.998 139.362 185.085 139.011 184.823Z" fill="#173D7A"/>
<path d="M145.769 188.757L141.381 186.222C141.03 186.047 141.03 185.697 141.469 185.435L145.769 182.9C146.208 182.637 146.822 182.637 147.173 182.812L151.561 185.348C151.912 185.523 151.912 185.872 151.474 186.135L147.173 188.67C146.734 188.932 146.12 188.932 145.769 188.757Z" fill="#173D7A"/>
<path d="M152.526 192.604L148.138 190.069C147.787 189.894 147.787 189.544 148.226 189.282L152.526 186.746C152.965 186.484 153.579 186.484 153.93 186.659L158.318 189.194C158.669 189.369 158.669 189.719 158.23 189.981L153.93 192.517C153.491 192.779 152.877 192.866 152.526 192.604Z" fill="#173D7A"/>
<path d="M159.284 196.538L154.896 194.003C154.545 193.828 154.545 193.478 154.984 193.216L159.284 190.681C159.723 190.418 160.337 190.418 160.688 190.593L165.076 193.129C165.427 193.304 165.427 193.653 164.988 193.916L160.688 196.451C160.249 196.713 159.635 196.713 159.284 196.538Z" fill="#173D7A"/>
<path d="M166.042 200.385L161.654 197.85C161.303 197.675 161.303 197.325 161.741 197.063L166.042 194.528C166.48 194.265 167.095 194.265 167.446 194.44L171.834 196.976C172.185 197.151 172.185 197.5 171.746 197.762L167.446 200.298C167.007 200.56 166.393 200.648 166.042 200.385Z" fill="#173D7A"/>
<path d="M172.799 204.32L168.411 201.784C168.06 201.609 168.06 201.26 168.499 200.997L172.799 198.462C173.238 198.2 173.853 198.2 174.204 198.375L178.592 200.91C178.943 201.085 178.943 201.435 178.504 201.697L174.204 204.232C173.765 204.495 173.15 204.495 172.799 204.32Z" fill="#173D7A"/>
<path d="M179.556 208.166L175.168 205.631C174.817 205.456 174.817 205.106 175.256 204.844L179.556 202.309C179.995 202.046 180.609 202.046 180.96 202.221L185.348 204.757C185.699 204.932 185.699 205.281 185.261 205.544L180.96 208.079C180.522 208.341 179.907 208.429 179.556 208.166Z" fill="#173D7A"/>
<path d="M128.656 171.359L124.268 168.824C123.917 168.649 123.917 168.299 124.356 168.037L128.656 165.502C129.095 165.239 129.709 165.239 130.06 165.414L134.448 167.95C134.799 168.124 134.799 168.474 134.36 168.736L130.06 171.272C129.621 171.534 129.007 171.534 128.656 171.359Z" fill="#396CAA"/>
<path d="M121.81 167.337L117.422 164.802C117.071 164.627 117.071 164.278 117.51 164.015L121.81 161.48C122.249 161.218 122.863 161.218 123.214 161.392L127.602 163.928C127.953 164.103 127.953 164.452 127.515 164.715L123.214 167.25C122.776 167.512 122.161 167.6 121.81 167.337Z" fill="#396CAA"/>
<path d="M114.965 163.403L105.575 157.983C105.223 157.808 105.223 157.458 105.662 157.196L109.963 154.66C110.401 154.398 111.016 154.398 111.367 154.573L120.757 159.994C121.108 160.168 121.108 160.518 120.669 160.78L116.369 163.316C115.93 163.578 115.316 163.666 114.965 163.403Z" fill="#173D7A"/>
<path d="M119.705 158.595L112.07 154.223C111.719 154.048 111.719 153.699 112.157 153.436L116.458 150.901C116.896 150.639 117.511 150.639 117.862 150.814L125.497 155.185C125.848 155.36 125.848 155.709 125.409 155.972L121.109 158.507C120.67 158.769 120.056 158.857 119.705 158.595Z" fill="#173D7A"/>
<path d="M135.414 175.206L131.026 172.67C130.675 172.496 130.675 172.146 131.113 171.884L135.414 169.348C135.852 169.086 136.467 169.086 136.818 169.261L141.206 171.796C141.557 171.971 141.557 172.321 141.118 172.583L136.818 175.118C136.379 175.381 135.765 175.381 135.414 175.206Z" fill="#396CAA"/>
<path d="M142.171 179.14L137.783 176.605C137.431 176.43 137.431 176.08 137.87 175.818L142.171 173.283C142.609 173.02 143.224 173.02 143.575 173.195L147.963 175.731C148.314 175.905 148.314 176.255 147.875 176.517L143.575 179.053C143.136 179.315 142.522 179.315 142.171 179.14Z" fill="#173D7A"/>
<path d="M148.928 182.987L144.54 180.452C144.189 180.277 144.189 179.927 144.628 179.665L148.928 177.129C149.367 176.867 149.981 176.867 150.332 177.042L154.72 179.577C155.072 179.752 155.072 180.102 154.633 180.364L150.332 182.9C149.894 183.162 149.279 183.162 148.928 182.987Z" fill="#173D7A"/>
<path d="M155.774 186.921L151.386 184.386C151.035 184.211 151.035 183.861 151.474 183.599L155.774 181.064C156.213 180.802 156.827 180.801 157.178 180.976L161.566 183.512C161.917 183.687 161.917 184.036 161.478 184.299L157.178 186.834C156.739 187.096 156.125 187.096 155.774 186.921Z" fill="#173D7A"/>
<path d="M162.531 190.768L158.143 188.233C157.792 188.058 157.792 187.708 158.231 187.446L162.531 184.91C162.97 184.648 163.584 184.648 163.935 184.823L168.323 187.358C168.674 187.533 168.674 187.883 168.235 188.145L163.935 190.681C163.496 190.943 162.882 190.943 162.531 190.768Z" fill="#173D7A"/>
<path d="M169.289 194.702L164.901 192.167C164.55 191.992 164.55 191.642 164.988 191.38L169.289 188.845C169.727 188.583 170.342 188.583 170.693 188.757L175.081 191.293C175.432 191.468 175.432 191.817 174.993 192.08L170.693 194.615C170.254 194.877 169.64 194.877 169.289 194.702Z" fill="#173D7A"/>
<path d="M176.046 198.549L171.659 196.014C171.307 195.839 171.307 195.489 171.746 195.227L176.046 192.692C176.485 192.429 177.1 192.429 177.451 192.604L181.839 195.14C182.19 195.315 182.19 195.664 181.751 195.927L177.451 198.462C177.012 198.724 176.398 198.724 176.046 198.549Z" fill="#173D7A"/>
<path d="M182.803 202.483L178.415 199.948C178.064 199.773 178.064 199.424 178.503 199.161L182.803 196.626C183.242 196.364 183.856 196.364 184.207 196.538L188.595 199.074C188.947 199.249 188.947 199.598 188.508 199.861L184.207 202.396C183.769 202.658 183.154 202.658 182.803 202.483Z" fill="#173D7A"/>
<path d="M189.561 206.33L185.173 203.795C184.822 203.62 184.822 203.27 185.261 203.008L189.561 200.473C190 200.21 190.614 200.21 190.965 200.385L195.353 202.921C195.704 203.096 195.704 203.445 195.266 203.708L190.965 206.243C190.526 206.505 189.912 206.505 189.561 206.33Z" fill="#173D7A"/>
<path d="M201.585 213.237L192.019 207.729C191.668 207.554 191.668 207.205 192.107 206.942L196.407 204.407C196.846 204.145 197.46 204.145 197.811 204.32L207.377 209.828C207.728 210.002 207.728 210.352 207.289 210.614L202.989 213.15C202.55 213.412 201.936 213.5 201.585 213.237Z" fill="#173D7A"/>
<path d="M214.748 205.718L206.674 201.085C206.323 200.91 206.323 200.56 206.762 200.298L211.062 197.763C211.501 197.5 212.115 197.5 212.466 197.675L220.54 202.309C220.891 202.484 220.891 202.833 220.452 203.096L216.152 205.631C215.713 205.893 215.099 205.893 214.748 205.718Z" fill="#173D7A"/>
<path d="M147.261 174.419L142.873 171.884C142.522 171.709 142.522 171.359 142.961 171.097L147.261 168.561C147.7 168.299 148.314 168.299 148.665 168.474L153.053 171.009C153.405 171.184 153.405 171.534 152.966 171.796L148.665 174.332C148.227 174.594 147.612 174.681 147.261 174.419Z" fill="#173D7A"/>
<path d="M140.328 170.485L135.94 167.95C135.589 167.775 135.589 167.425 136.028 167.163L140.328 164.627C140.767 164.365 141.381 164.365 141.732 164.54L146.12 167.075C146.471 167.25 146.471 167.6 146.032 167.862L141.732 170.398C141.293 170.66 140.679 170.66 140.328 170.485Z" fill="#173D7A"/>
<path d="M133.395 166.463L129.007 163.928C128.656 163.753 128.656 163.403 129.095 163.141L133.395 160.606C133.834 160.343 134.448 160.343 134.799 160.518L139.187 163.054C139.538 163.228 139.538 163.578 139.1 163.84L134.799 166.376C134.36 166.638 133.746 166.726 133.395 166.463Z" fill="#396CAA"/>
<path d="M126.462 162.529L122.074 159.993C121.723 159.819 121.722 159.469 122.161 159.207L126.462 156.671C126.9 156.409 127.515 156.409 127.866 156.584L132.254 159.119C132.605 159.294 132.605 159.644 132.166 159.906L127.866 162.441C127.427 162.704 126.813 162.704 126.462 162.529Z" fill="#173D7A"/>
<path d="M154.018 178.353L149.63 175.818C149.279 175.643 149.279 175.293 149.718 175.031L154.018 172.496C154.457 172.233 155.071 172.233 155.422 172.408L159.81 174.944C160.161 175.119 160.161 175.468 159.723 175.731L155.422 178.266C154.984 178.528 154.369 178.528 154.018 178.353Z" fill="#173D7A"/>
<path d="M160.776 182.2L156.388 179.665C156.037 179.49 156.037 179.14 156.476 178.878L160.776 176.343C161.215 176.08 161.829 176.08 162.18 176.255L166.568 178.791C166.919 178.965 166.919 179.315 166.48 179.577L162.18 182.113C161.741 182.375 161.127 182.463 160.776 182.2Z" fill="#173D7A"/>
<path d="M167.621 186.135L163.233 183.599C162.882 183.424 162.882 183.075 163.32 182.812L167.621 180.277C168.06 180.015 168.674 180.015 169.025 180.189L173.413 182.725C173.764 182.9 173.764 183.249 173.325 183.512L169.025 186.047C168.586 186.309 167.972 186.309 167.621 186.135Z" fill="#173D7A"/>
<path d="M174.379 189.981L169.991 187.446C169.639 187.271 169.639 186.921 170.078 186.659L174.379 184.124C174.817 183.861 175.432 183.861 175.783 184.036L180.171 186.572C180.522 186.746 180.522 187.096 180.083 187.358L175.783 189.894C175.344 190.156 174.73 190.244 174.379 189.981Z" fill="#173D7A"/>
<path d="M181.136 193.916L176.748 191.38C176.397 191.205 176.397 190.856 176.836 190.593L181.136 188.058C181.575 187.796 182.189 187.796 182.54 187.97L186.928 190.506C187.28 190.681 187.28 191.03 186.841 191.293L182.54 193.828C182.102 194.09 181.487 194.09 181.136 193.916Z" fill="#173D7A"/>
<path d="M187.893 197.763L183.505 195.227C183.154 195.052 183.154 194.703 183.593 194.44L187.893 191.905C188.332 191.643 188.946 191.643 189.297 191.817L193.685 194.353C194.036 194.528 194.036 194.877 193.598 195.14L189.297 197.675C188.859 197.937 188.244 198.025 187.893 197.763Z" fill="#173D7A"/>
<path d="M194.651 201.697L190.263 199.161C189.912 198.986 189.912 198.637 190.351 198.374L194.651 195.839C195.09 195.577 195.704 195.577 196.055 195.752L200.443 198.287C200.794 198.462 200.794 198.811 200.355 199.074L196.055 201.609C195.616 201.871 195.002 201.871 194.651 201.697Z" fill="#173D7A"/>
<path d="M201.409 205.544L197.021 203.008C196.67 202.833 196.67 202.484 197.109 202.221L201.409 199.686C201.848 199.424 202.462 199.424 202.813 199.598L207.201 202.134C207.552 202.309 207.552 202.658 207.113 202.921L202.813 205.456C202.374 205.718 201.76 205.806 201.409 205.544Z" fill="#173D7A"/>
<path d="M208.167 209.478L203.779 206.942C203.428 206.768 203.428 206.418 203.866 206.156L208.167 203.62C208.605 203.358 209.22 203.358 209.571 203.533L213.959 206.068C214.31 206.243 214.31 206.593 213.871 206.855L209.571 209.39C209.132 209.653 208.518 209.653 208.167 209.478Z" fill="#173D7A"/>
<path d="M143.751 164.802L139.363 162.267C139.012 162.092 139.012 161.742 139.45 161.48L143.751 158.944C144.189 158.682 144.804 158.682 145.155 158.857L149.543 161.392C149.894 161.567 149.894 161.917 149.455 162.179L145.155 164.715C144.716 164.977 144.102 165.064 143.751 164.802Z" fill="#173D7A"/>
<path d="M136.993 160.955L132.605 158.42C132.254 158.245 132.254 157.895 132.693 157.633L136.993 155.097C137.432 154.835 138.046 154.835 138.397 155.01L142.785 157.545C143.136 157.72 143.136 158.07 142.697 158.332L138.397 160.868C137.958 161.13 137.344 161.13 136.993 160.955Z" fill="#173D7A"/>
<path d="M130.235 157.108L125.847 154.573C125.496 154.398 125.496 154.048 125.935 153.786L130.235 151.251C130.674 150.988 131.288 150.988 131.639 151.163L136.027 153.699C136.378 153.873 136.378 154.223 135.939 154.485L131.639 157.021C131.2 157.283 130.586 157.283 130.235 157.108Z" fill="#173D7A"/>
<path d="M123.566 153.262L119.178 150.726C118.827 150.551 118.827 150.202 119.266 149.939L123.566 147.404C124.005 147.142 124.619 147.142 124.97 147.316L129.358 149.852C129.709 150.027 129.709 150.376 129.27 150.639L124.97 153.174C124.531 153.436 123.917 153.436 123.566 153.262Z" fill="#173D7A"/>
<path d="M130.411 149.24L126.023 146.704C125.672 146.53 125.672 146.18 126.111 145.918L127.515 145.131C127.953 144.868 128.568 144.868 128.919 145.043L133.307 147.579C133.658 147.754 133.658 148.103 133.219 148.366L131.815 149.152C131.376 149.415 130.762 149.415 130.411 149.24Z" fill="#173D7A"/>
<path d="M139.275 154.311L134.887 151.775C134.536 151.6 134.536 151.251 134.975 150.988L136.379 150.201C136.818 149.939 137.432 149.939 137.783 150.114L142.171 152.649C142.522 152.824 142.522 153.174 142.083 153.436L140.679 154.223C140.24 154.485 139.626 154.485 139.275 154.311Z" fill="#173D7A"/>
<path d="M145.945 158.158L141.557 155.622C141.206 155.447 141.206 155.098 141.645 154.835L143.049 154.048C143.488 153.786 144.102 153.786 144.453 153.961L148.841 156.496C149.192 156.671 149.192 157.021 148.753 157.283L147.349 158.07C146.91 158.332 146.296 158.332 145.945 158.158Z" fill="#173D7A"/>
<path d="M152.614 162.004L148.226 159.469C147.875 159.294 147.875 158.944 148.314 158.682L149.718 157.895C150.157 157.633 150.771 157.633 151.122 157.808L155.51 160.343C155.861 160.518 155.861 160.868 155.422 161.13L154.018 161.917C153.579 162.179 152.965 162.179 152.614 162.004Z" fill="#173D7A"/>
<path d="M159.372 165.851L154.984 163.316C154.633 163.141 154.633 162.791 155.071 162.529L156.476 161.742C156.914 161.48 157.529 161.48 157.88 161.655L162.268 164.19C162.619 164.365 162.619 164.715 162.18 164.977L160.776 165.764C160.337 166.026 159.723 166.026 159.372 165.851Z" fill="#173D7A"/>
<path d="M196.757 187.358L192.369 184.823C192.018 184.648 192.018 184.298 192.457 184.036L193.861 183.249C194.3 182.987 194.914 182.987 195.266 183.162L199.654 185.697C200.005 185.872 200.005 186.222 199.566 186.484L198.162 187.271C197.723 187.533 197.108 187.621 196.757 187.358Z" fill="#173D7A"/>
<path d="M203.427 191.205L199.039 188.67C198.688 188.495 198.688 188.145 199.127 187.883L200.531 187.096C200.97 186.834 201.584 186.834 201.935 187.009L206.323 189.544C206.674 189.719 206.674 190.069 206.236 190.331L204.832 191.118C204.393 191.38 203.778 191.468 203.427 191.205Z" fill="#173D7A"/>
<path d="M210.184 195.052L205.796 192.517C205.445 192.342 205.445 191.992 205.884 191.73L207.288 190.943C207.727 190.681 208.341 190.681 208.692 190.856L213.08 193.391C213.431 193.566 213.431 193.916 212.992 194.178L211.588 194.965C211.15 195.227 210.535 195.315 210.184 195.052Z" fill="#173D7A"/>
<path d="M216.854 198.986L212.466 196.451C212.115 196.276 212.115 195.926 212.554 195.664L213.958 194.877C214.397 194.615 215.011 194.615 215.362 194.79L219.75 197.325C220.101 197.5 220.101 197.85 219.662 198.112L218.258 198.899C217.819 199.161 217.205 199.161 216.854 198.986Z" fill="#173D7A"/>
<path d="M150.508 168.736L146.12 166.201C145.769 166.026 145.769 165.676 146.208 165.414L150.508 162.879C150.947 162.616 151.562 162.616 151.913 162.791L156.301 165.327C156.652 165.502 156.652 165.851 156.213 166.114L151.913 168.649C151.474 168.911 150.859 168.911 150.508 168.736Z" fill="#173D7A"/>
<path d="M157.265 172.583L152.877 170.048C152.526 169.873 152.526 169.523 152.965 169.261L157.265 166.725C157.704 166.463 158.318 166.463 158.669 166.638L163.057 169.173C163.408 169.348 163.408 169.698 162.97 169.96L158.669 172.496C158.231 172.758 157.616 172.845 157.265 172.583Z" fill="#173D7A"/>
<path d="M164.023 176.517L159.635 173.982C159.284 173.807 159.284 173.457 159.723 173.195L164.023 170.66C164.462 170.397 165.076 170.397 165.427 170.572L169.815 173.108C170.166 173.283 170.166 173.632 169.727 173.895L165.427 176.43C164.988 176.692 164.374 176.692 164.023 176.517Z" fill="#173D7A"/>
<path d="M170.781 180.364L166.393 177.829C166.042 177.654 166.042 177.304 166.481 177.042L170.781 174.507C171.22 174.244 171.834 174.244 172.185 174.419L176.573 176.955C176.924 177.129 176.924 177.479 176.485 177.742L172.185 180.277C171.746 180.539 171.132 180.627 170.781 180.364Z" fill="#173D7A"/>
<path d="M177.538 184.298L173.15 181.763C172.799 181.588 172.799 181.238 173.237 180.976L177.538 178.441C177.977 178.178 178.591 178.178 178.942 178.353L183.33 180.889C183.681 181.064 183.681 181.413 183.242 181.676L178.942 184.211C178.503 184.473 177.889 184.473 177.538 184.298Z" fill="#173D7A"/>
<path d="M184.296 188.145L179.908 185.61C179.556 185.435 179.556 185.085 179.995 184.823L184.296 182.288C184.734 182.025 185.349 182.025 185.7 182.2L190.088 184.736C190.439 184.911 190.439 185.26 190 185.523L185.7 188.058C185.261 188.32 184.647 188.408 184.296 188.145Z" fill="#173D7A"/>
<path d="M191.053 192.08L186.665 189.544C186.314 189.369 186.314 189.02 186.753 188.757L191.053 186.222C191.492 185.96 192.106 185.96 192.457 186.135L196.845 188.67C197.197 188.845 197.197 189.195 196.758 189.457L192.457 191.992C192.019 192.255 191.404 192.255 191.053 192.08Z" fill="#173D7A"/>
<path d="M197.81 195.927L193.422 193.391C193.071 193.216 193.071 192.867 193.51 192.604L197.81 190.069C198.249 189.807 198.863 189.807 199.214 189.981L203.602 192.517C203.953 192.692 203.953 193.041 203.515 193.304L199.214 195.839C198.776 196.101 198.161 196.189 197.81 195.927Z" fill="#173D7A"/>
<path d="M204.568 199.861L200.18 197.325C199.829 197.15 199.829 196.801 200.268 196.538L204.568 194.003C205.007 193.741 205.621 193.741 205.972 193.916L210.36 196.451C210.711 196.626 210.711 196.976 210.272 197.238L205.972 199.773C205.533 200.036 204.919 200.036 204.568 199.861Z" fill="#173D7A"/>
<path d="M111.806 169.173L98.9056 161.742C98.5545 161.567 98.5545 161.217 98.9933 160.955L103.294 158.42C103.732 158.157 104.347 158.157 104.698 158.332L117.598 165.764C117.949 165.939 117.949 166.288 117.511 166.551L113.21 169.086C112.772 169.348 112.157 169.436 111.806 169.173Z" fill="#173D7A"/>
<path d="M194.915 216.997L182.014 209.565C181.663 209.39 181.663 209.041 182.102 208.778L186.402 206.243C186.841 205.981 187.455 205.981 187.806 206.156L200.707 213.587C201.058 213.762 201.058 214.112 200.619 214.374L196.319 216.909C195.88 217.172 195.266 217.172 194.915 216.997Z" fill="#173D7A"/>
<path d="M167.884 210.002L163.496 207.467C163.145 207.292 163.145 206.942 163.584 206.68L168.762 203.708C169.201 203.445 169.815 203.445 170.166 203.62L174.554 206.156C174.905 206.33 174.905 206.68 174.466 206.942L169.289 209.915C168.85 210.177 168.235 210.265 167.884 210.002Z" fill="#173D7A"/>
<path d="M118.739 181.763L111.718 177.741C111.367 177.567 111.367 177.217 111.806 176.955L116.984 173.982C117.422 173.72 118.037 173.72 118.388 173.895L125.409 177.916C125.76 178.091 125.76 178.441 125.321 178.703L120.143 181.676C119.704 181.938 119.09 182.025 118.739 181.763Z" fill="#173D7A"/>
<path d="M161.39 206.33L154.369 202.309C154.018 202.134 154.018 201.784 154.457 201.522L159.635 198.549C160.074 198.287 160.688 198.287 161.039 198.462L168.06 202.484C168.411 202.659 168.411 203.008 167.972 203.271L162.794 206.243C162.356 206.505 161.741 206.505 161.39 206.33Z" fill="#173D7A"/>
<path d="M128.48 187.359L121.459 183.337C121.108 183.162 121.108 182.812 121.547 182.55L126.725 179.577C127.164 179.315 127.778 179.315 128.129 179.49L135.15 183.512C135.501 183.687 135.501 184.036 135.062 184.299L129.884 187.271C129.445 187.533 128.831 187.621 128.48 187.359Z" fill="#173D7A"/>
<path d="M128.217 179.577L158.669 197.063C159.02 197.238 159.02 197.675 158.669 197.85L153.404 200.91C153.053 201.085 152.438 201.085 152 200.91L121.547 183.424L128.217 179.577Z" fill="#173D7A"/>
<path d="M186.753 217.084L191.668 219.882C191.931 220.057 191.931 220.319 191.58 220.494L189.474 221.718C189.123 221.893 188.596 221.893 188.333 221.805L183.418 219.007C183.155 218.833 183.155 218.57 183.506 218.395L185.612 217.171C185.963 216.909 186.49 216.909 186.753 217.084Z" fill="#173D7A"/>
<path d="M179.907 213.15L184.822 215.947C185.085 216.122 185.085 216.385 184.734 216.559L182.628 217.783C182.277 217.958 181.75 217.958 181.487 217.871L176.572 215.073C176.309 214.898 176.309 214.636 176.66 214.461L178.766 213.237C179.117 213.062 179.644 212.975 179.907 213.15Z" fill="#173D7A"/>
<path d="M173.15 209.303L178.065 212.101C178.328 212.276 178.328 212.538 177.977 212.713L175.871 213.937C175.52 214.112 174.993 214.112 174.73 214.024L169.816 211.226C169.552 211.052 169.552 210.789 169.903 210.614L172.01 209.39C172.361 209.128 172.887 209.128 173.15 209.303Z" fill="#173D7A"/>
<path d="M183.681 211.052L188.595 213.849C188.859 214.024 188.859 214.286 188.508 214.461L186.401 215.685C186.05 215.86 185.524 215.86 185.26 215.773L180.346 212.975C180.083 212.8 180.083 212.538 180.434 212.363L182.54 211.139C182.891 210.877 183.417 210.877 183.681 211.052Z" fill="#173D7A"/>
<path d="M190.965 115.23L186.753 112.782C186.402 112.52 186.051 111.996 186.051 111.471C186.051 110.946 186.314 110.684 186.753 110.946L190.965 113.394C191.316 113.657 191.667 114.181 191.667 114.706C191.667 115.23 191.316 115.405 190.965 115.23Z" fill="#D4ECFF"/>
<path d="M200.97 121.001L194.827 117.416C194.476 117.154 194.125 116.629 194.125 116.105C194.125 115.58 194.388 115.318 194.827 115.58L200.97 119.165C201.321 119.427 201.672 119.952 201.672 120.476C201.585 120.913 201.321 121.176 200.97 121.001Z" fill="#D4ECFF"/>
<path d="M188.859 137.437L184.646 134.989C184.295 134.727 183.944 134.202 183.944 133.678C183.944 133.153 184.208 132.891 184.646 133.153L188.859 135.601C189.21 135.863 189.561 136.388 189.561 136.913C189.561 137.437 189.298 137.699 188.859 137.437Z" fill="#D4ECFF"/>
<path d="M197.81 142.595L191.667 139.011C191.316 138.749 190.965 138.224 190.965 137.699C190.965 137.175 191.228 136.913 191.667 137.175L197.81 140.759C198.161 141.022 198.512 141.546 198.512 142.071C198.424 142.595 198.161 142.77 197.81 142.595Z" fill="#D4ECFF"/>
<path d="M179.469 112.52L176.836 111.034C176.485 110.772 176.134 110.247 176.134 109.722C176.134 109.198 176.397 108.936 176.836 109.198L179.469 110.684C179.82 110.946 180.171 111.471 180.171 111.996C180.171 112.52 179.82 112.782 179.469 112.52Z" fill="#D4ECFF"/>
<path d="M188.421 121.525L180.435 116.892C180.083 116.629 179.732 116.105 179.732 115.58C179.732 115.056 179.996 114.793 180.435 115.056L188.421 119.689C188.772 119.952 189.123 120.476 189.123 121.001C189.123 121.525 188.772 121.787 188.421 121.525Z" fill="#D4ECFF"/>
<path d="M183.154 126.334L180.521 124.848C180.17 124.585 179.819 124.061 179.819 123.536C179.819 123.012 180.083 122.749 180.521 123.012L183.154 124.498C183.505 124.76 183.856 125.285 183.856 125.809C183.856 126.334 183.505 126.596 183.154 126.334Z" fill="#D4ECFF"/>
<path d="M200.882 152.213L193.861 148.191C193.51 147.929 193.159 147.404 193.159 146.879C193.159 146.355 193.422 146.093 193.861 146.355L200.882 150.377C201.233 150.639 201.584 151.163 201.584 151.688C201.584 152.125 201.233 152.387 200.882 152.213Z" fill="#D4ECFF"/>
<path d="M182.365 133.678L180.697 132.716C180.346 132.454 179.995 131.929 179.995 131.405C179.995 130.88 180.258 130.618 180.697 130.88L182.365 131.842C182.716 132.104 183.067 132.629 183.067 133.153C183.067 133.678 182.716 133.94 182.365 133.678Z" fill="#D4ECFF"/>
<path d="M182.891 141.809L180.785 140.585C180.434 140.322 180.083 139.798 180.083 139.273C180.083 138.749 180.346 138.486 180.785 138.749L182.891 139.973C183.242 140.235 183.593 140.76 183.593 141.284C183.593 141.809 183.242 142.071 182.891 141.809Z" fill="#D4ECFF"/>
<path d="M190.965 146.53L185.436 143.382C185.085 143.12 184.734 142.595 184.734 142.071C184.734 141.546 184.998 141.284 185.436 141.546L190.965 144.694C191.316 144.956 191.667 145.481 191.667 146.005C191.667 146.53 191.404 146.705 190.965 146.53Z" fill="#D4ECFF"/>
<path d="M184.822 146.88L180.873 144.606C180.522 144.344 180.171 143.82 180.171 143.295C180.171 142.77 180.434 142.508 180.873 142.77L184.822 145.044C185.173 145.306 185.524 145.83 185.524 146.355C185.524 146.879 185.173 147.054 184.822 146.88Z" fill="#D4ECFF"/>
<path d="M206.85 155.622L204.305 154.136C203.954 153.874 203.603 153.349 203.603 152.824C203.603 152.3 203.866 152.038 204.305 152.3L206.85 153.786C207.201 154.048 207.552 154.573 207.552 155.098C207.552 155.622 207.288 155.884 206.85 155.622Z" fill="#D4ECFF"/>
<path d="M192.896 131.929L185.875 127.907C185.524 127.645 185.173 127.121 185.173 126.596C185.173 126.071 185.436 125.809 185.875 126.071L192.896 130.093C193.247 130.355 193.598 130.88 193.598 131.405C193.598 131.929 193.247 132.191 192.896 131.929Z" fill="#D4ECFF"/>
<path d="M192.633 127.908L180.435 120.913C180.083 120.651 179.732 120.126 179.732 119.602C179.732 119.077 179.996 118.815 180.435 119.077L192.633 126.072C192.984 126.334 193.335 126.858 193.335 127.383C193.335 127.908 193.072 128.17 192.633 127.908Z" fill="#D4ECFF"/>
<path d="M187.542 132.803L180.521 128.782C180.17 128.519 179.819 127.995 179.819 127.47C179.819 126.946 180.083 126.683 180.521 126.946L187.542 130.967C187.893 131.23 188.244 131.754 188.244 132.279C188.244 132.803 187.981 133.066 187.542 132.803Z" fill="#D4ECFF"/>
<path d="M198.161 134.989L195.616 133.503C195.265 133.241 194.914 132.716 194.914 132.191C194.914 131.667 195.177 131.405 195.616 131.667L198.161 133.153C198.512 133.415 198.863 133.94 198.863 134.465C198.863 134.989 198.6 135.251 198.161 134.989Z" fill="#D4ECFF"/>
<path d="M219.75 131.754L204.743 123.099C204.392 122.837 204.041 122.312 204.041 121.787C204.041 121.263 204.304 121.001 204.743 121.263L219.75 129.918C220.101 130.18 220.452 130.705 220.452 131.23C220.452 131.754 220.189 132.016 219.75 131.754Z" fill="#D4ECFF"/>
<path d="M189.122 141.546L180.697 136.738C180.346 136.475 179.995 135.951 179.995 135.426C179.995 134.902 180.258 134.639 180.697 134.902L189.122 139.71C189.473 139.973 189.824 140.497 189.824 141.022C189.824 141.546 189.473 141.721 189.122 141.546Z" fill="#D4ECFF"/>
<path d="M182.979 110.597L176.836 107.012C176.485 106.75 176.134 106.225 176.134 105.701C176.134 105.176 176.397 104.914 176.836 105.176L182.979 108.761C183.33 109.023 183.681 109.548 183.681 110.072C183.681 110.597 183.33 110.859 182.979 110.597Z" fill="#D4ECFF"/>
<path d="M184.559 150.639L177.362 146.53C177.011 146.267 176.66 145.743 176.66 145.218C176.66 144.694 176.923 144.431 177.362 144.694L184.559 148.803C184.91 149.065 185.261 149.59 185.261 150.114C185.261 150.639 184.997 150.901 184.559 150.639Z" fill="#D4ECFF"/>
<path d="M1.66781 156.846L38.5269 135.514C45.811 131.317 52.744 130.618 57.9218 133.678C63.0997 136.65 65.9957 142.945 65.9957 151.338V154.049C65.7325 154.223 65.4692 154.398 65.2059 154.573V151.251C65.2059 143.12 62.4854 137.175 57.5708 134.29C52.6563 131.492 46.0743 132.104 38.9657 136.126L2.10661 157.458C1.93109 157.546 1.66781 157.546 1.58005 157.283C1.40453 157.196 1.49229 156.934 1.66781 156.846Z" fill="#D4ECFF"/>
<path d="M116.545 131.405V48.6101C116.545 32.0862 128.217 11.8029 142.61 3.58461C149.63 -0.437085 156.3 -1.13651 161.302 1.74862C166.305 4.63375 169.113 10.6663 169.113 18.7971V24.5674C168.85 24.8297 168.587 25.092 168.323 25.3542V18.7971C168.323 11.016 165.69 5.15832 160.951 2.44805C156.212 -0.262229 149.894 0.349769 143.048 4.28404C128.919 12.4149 117.335 32.3485 117.335 48.6101V131.317C117.335 145.043 109.261 161.305 98.2031 171.097C98.2031 170.747 98.2031 170.398 98.2031 170.048C108.822 160.343 116.545 144.694 116.545 131.405Z" fill="#D4ECFF"/>
<path d="M169.201 27.1027C170.517 25.8787 176.748 20.3707 185.875 18.9719C196.143 17.3982 200.443 29.3758 200.443 29.3758C200.443 29.3758 201.672 35.5832 201.584 39.2552C201.584 42.9272 201.233 56.3037 201.233 56.3037L168.674 37.5941C168.587 37.5066 168.411 37.4192 168.411 37.2444V27.8021C168.674 27.5398 168.938 27.4524 169.201 27.1027Z" fill="#173D7A"/>
<path d="M192.282 19.4965L161.391 1.74855L161.479 2.18569C156.74 -0.874298 149.543 -1.22401 139.89 5.85767C120.758 19.8462 118.476 39.2553 117.511 42.9272C116.546 46.5992 116.897 69.6803 116.897 69.6803C116.897 69.6803 116.809 125.372 116.809 131.842C116.721 138.311 114.878 145.568 111.192 153.437C107.507 161.305 98.1162 170.835 98.1162 170.835V182.2C99.6081 194.44 104.874 197.325 112.597 198.025C118.915 198.549 125.585 194.091 130.938 189.195C130.763 189.369 130.587 189.544 130.587 189.544V200.91C132.079 213.15 137.345 216.035 145.068 216.735C152.878 217.434 161.216 210.352 166.92 204.32C172.624 198.287 177.451 189.107 180.084 180.889C182.717 172.583 181.839 161.917 181.839 161.917C181.839 161.917 181.927 101.067 181.927 89.0019C182.015 77.0242 182.366 79.1225 186.315 67.0574C190.527 54.8175 200.971 46.3369 200.971 46.3369L226.07 38.9055L192.282 19.4965Z" fill="#D4ECFF"/>
<path d="M138.485 215.511C138.046 214.899 132.517 211.227 131.113 204.757C130.323 201.172 130.411 195.664 130.411 195.664C130.411 195.664 130.411 192.604 130.499 189.807C130.587 189.719 130.587 189.719 130.674 189.632C130.674 189.282 130.674 188.932 130.674 188.583C130.587 188.67 130.587 188.67 130.499 188.758C130.499 188.146 130.587 187.534 130.587 187.009C130.762 184.124 128.568 178.004 128.568 178.004C128.568 178.004 125.584 169.786 116.545 169.436C108.559 169.174 100.134 174.856 98.2911 176.168V172.496C98.2034 172.583 98.0278 172.671 97.9401 172.758C97.9401 172.234 97.9401 171.709 97.9401 171.272C98.0278 171.184 98.0278 171.184 98.1156 171.097C98.1156 170.747 98.1156 170.398 98.1156 170.048C98.0278 170.135 98.0278 170.135 97.9401 170.223C97.9401 169.611 98.0278 168.999 98.0278 168.474C98.2034 165.589 96.0094 159.469 96.0094 159.469C96.0094 159.469 93.0255 151.251 83.9863 150.901C76.0001 150.639 67.5752 156.322 65.7322 157.633V153.961C65.4689 154.136 65.2057 154.311 64.9424 154.486V160.955C64.9424 168.824 67.5752 174.769 72.402 177.654L72.5775 177.742C72.6652 177.742 72.6652 177.829 72.753 177.829H72.8408L105.926 196.801C105.926 196.801 105.926 196.801 105.926 196.714L138.485 215.511Z" fill="#173D7A"/>
<path d="M90.3931 152.212C90.3931 152.212 90.1299 152.125 89.6911 151.95C89.5155 151.863 89.4278 151.775 89.2523 151.775L57.922 133.59C57.922 133.59 52.1299 130.53 45.1968 133.153C38.176 135.688 1.66797 157.546 1.66797 157.546L34.2269 176.255H34.3146L66.698 194.877C66.698 194.877 85.0398 183.599 97.6772 176.255L98.467 175.818C103.645 172.845 107.77 170.66 109.086 170.31C116.897 168.212 122.338 170.747 123.742 171.534L90.3931 152.212Z" fill="#D4ECFF"/>
<path d="M123.83 171.447L124.181 171.621C124.181 171.709 124.093 171.621 123.83 171.447Z" fill="#D4ECFF"/>
<path d="M201.673 45.725C202.989 44.501 209.22 38.993 218.347 37.5942C228.615 36.0205 232.915 47.9981 232.915 47.9981C232.915 47.9981 234.144 54.2055 234.056 57.8775C234.056 61.5495 233.705 74.926 233.705 74.926L201.146 56.2164C201.058 56.129 200.883 56.0415 200.883 55.8667V46.4244C201.146 46.1621 201.409 45.9873 201.673 45.725Z" fill="#173D7A"/>
<path d="M144.892 216.997C148.49 216.997 152.439 215.773 156.564 213.412C170.869 205.194 182.453 185.085 182.453 168.649V85.9419C182.453 69.6802 193.95 49.7466 208.167 41.6158C214.924 37.6815 221.331 37.0695 226.07 39.7798C230.809 42.49 233.442 48.3477 233.442 56.1288V74.6636C233.442 74.9259 233.617 75.1008 233.881 75.1008C234.144 75.1008 234.319 74.9259 234.319 74.6636V56.1288C234.319 47.998 231.511 41.9655 226.509 39.0803C221.506 36.1952 214.837 36.8072 207.816 40.9163C193.336 49.222 181.663 69.4179 181.663 85.9419V168.649C181.663 184.823 170.255 204.582 156.125 212.713C149.368 216.56 143.049 217.259 138.31 214.549C133.571 211.838 130.938 206.068 130.938 198.287V188.583C130.938 180.189 128.042 173.895 122.864 170.922C117.687 167.95 110.754 168.562 103.469 172.758L66.6103 194.091C66.4348 194.178 66.3471 194.44 66.4348 194.615C66.5226 194.79 66.7859 194.877 66.9614 194.79L103.821 173.457C110.841 169.436 117.423 168.736 122.426 171.622C127.34 174.419 130.061 180.452 130.061 188.583V198.287C130.061 206.331 132.781 212.363 137.784 215.248C139.978 216.385 142.347 216.997 144.892 216.997Z" fill="#396CAA"/>
<path d="M147.437 106.225L141.996 103.078C141.469 102.816 141.03 102.029 141.03 101.329C141.03 100.63 141.381 100.368 141.908 100.63L147.349 103.777C147.876 104.04 148.314 104.827 148.314 105.526C148.314 106.225 147.876 106.488 147.437 106.225Z" fill="#5793CE"/>
<path d="M158.934 112.87L150.86 108.236C150.333 107.974 149.895 107.187 149.895 106.488C149.895 105.788 150.246 105.526 150.772 105.788L158.846 110.422C159.373 110.684 159.811 111.471 159.811 112.171C159.899 112.87 159.46 113.22 158.934 112.87Z" fill="#5793CE"/>
<path d="M146.823 85.5923L136.379 79.5597C135.853 79.2974 135.414 78.5106 135.414 77.8112C135.414 77.1117 135.765 76.8494 136.292 77.1117L146.647 83.0569C147.174 83.3191 147.613 84.106 147.613 84.8054C147.7 85.5048 147.262 85.8546 146.823 85.5923Z" fill="#5793CE"/>
<path d="M139.977 91.7998L136.554 89.8764C136.028 89.6141 135.589 88.8272 135.589 88.1278C135.589 87.4284 135.94 87.1661 136.466 87.4284L139.889 89.3518C140.416 89.6141 140.854 90.4009 140.854 91.1004C140.854 91.7998 140.503 92.0621 139.977 91.7998Z" fill="#5793CE"/>
<path d="M138.924 101.329L136.73 100.105C136.203 99.8431 135.765 99.0562 135.765 98.3568C135.765 97.6574 136.116 97.3951 136.642 97.6574L138.836 98.8814C139.363 99.1437 139.802 99.9305 139.802 100.63C139.802 101.329 139.451 101.679 138.924 101.329Z" fill="#5793CE"/>
<path d="M152.615 99.0561L143.488 93.8105C142.961 93.5482 142.522 92.7613 142.522 92.0619C142.522 91.3625 142.874 91.1002 143.4 91.3625L152.527 96.6082C153.054 96.8704 153.492 97.6573 153.492 98.3567C153.492 99.0561 153.141 99.4059 152.615 99.0561Z" fill="#5793CE"/>
<path d="M152.352 93.8105L136.467 84.7179C135.941 84.4556 135.502 83.6688 135.502 82.9694C135.502 82.2699 135.853 82.0076 136.38 82.2699L152.264 91.3625C152.791 91.6248 153.229 92.4116 153.229 93.111C153.229 93.8105 152.791 94.0727 152.352 93.8105Z" fill="#5793CE"/>
<path d="M145.769 100.193L136.642 94.9472C136.116 94.6849 135.677 93.898 135.677 93.1986C135.677 92.4992 136.028 92.2369 136.554 92.4992L145.681 97.7449C146.208 98.0072 146.647 98.794 146.647 99.4934C146.647 100.193 146.208 100.455 145.769 100.193Z" fill="#5793CE"/>
<path d="M159.548 103.078L156.213 101.154C155.687 100.892 155.248 100.105 155.248 99.4059C155.248 98.7065 155.599 98.4442 156.126 98.7065L159.461 100.63C159.987 100.892 160.426 101.679 160.426 102.378C160.426 102.99 159.987 103.34 159.548 103.078Z" fill="#5793CE"/>
<path d="M150.07 77.2865L144.628 74.1391C144.102 73.8768 143.663 73.0899 143.663 72.3905C143.663 71.6911 144.014 71.4288 144.541 71.6911L149.982 74.8385C150.508 75.1008 150.947 75.8876 150.947 76.5871C151.035 77.2865 150.596 77.5488 150.07 77.2865Z" fill="#5793CE"/>
<path d="M163.058 84.7178L154.984 80.0841C154.457 79.8218 154.019 79.035 154.019 78.3356C154.019 77.6361 154.37 77.3739 154.896 77.6361L162.97 82.2698C163.497 82.5321 163.935 83.319 163.935 84.0184C164.023 84.7178 163.584 85.0675 163.058 84.7178Z" fill="#5793CE"/>
<path d="M147.437 106.225L141.996 103.078C141.469 102.816 141.03 102.029 141.03 101.329C141.03 100.63 141.381 100.368 141.908 100.63L147.349 103.777C147.876 104.039 148.314 104.826 148.314 105.526C148.314 106.225 147.876 106.487 147.437 106.225Z" fill="#5793CE"/>
<path d="M158.934 112.87L150.86 108.236C150.333 107.974 149.895 107.187 149.895 106.487C149.895 105.788 150.246 105.526 150.772 105.788L158.846 110.422C159.373 110.684 159.811 111.471 159.811 112.17C159.899 112.87 159.46 113.219 158.934 112.87Z" fill="#5793CE"/>
<path d="M135.151 73.7893L131.728 71.8659C131.201 71.6036 130.763 70.8167 130.763 70.1173C130.763 69.4179 131.114 69.1556 131.64 69.4179L135.063 71.3413C135.589 71.6036 136.028 72.3904 136.028 73.0899C136.116 73.7893 135.677 74.0516 135.151 73.7893Z" fill="#5793CE"/>
<path d="M146.823 85.5923L136.379 79.5597C135.853 79.2974 135.414 78.5106 135.414 77.8112C135.414 77.1117 135.765 76.8494 136.292 77.1117L146.647 83.0569C147.174 83.3191 147.613 84.106 147.613 84.8054C147.7 85.5048 147.262 85.8546 146.823 85.5923Z" fill="#5793CE"/>
<path d="M139.977 91.7995L136.554 89.8761C136.028 89.6138 135.589 88.827 135.589 88.1276C135.589 87.4281 135.94 87.1659 136.466 87.4281L139.889 89.3516C140.416 89.6138 140.854 90.4007 140.854 91.1001C140.854 91.7995 140.503 92.0618 139.977 91.7995Z" fill="#5793CE"/>
<path d="M162.97 125.372L153.843 120.126C153.317 119.864 152.878 119.077 152.878 118.378C152.878 117.678 153.229 117.416 153.756 117.678L162.883 122.924C163.409 123.186 163.848 123.973 163.848 124.673C163.936 125.372 163.497 125.634 162.97 125.372Z" fill="#5793CE"/>
<path d="M138.924 101.329L136.73 100.105C136.203 99.8428 135.765 99.056 135.765 98.3566C135.765 97.6571 136.116 97.3949 136.642 97.6571L138.836 98.8811C139.363 99.1434 139.802 99.9303 139.802 100.63C139.802 101.329 139.451 101.679 138.924 101.329Z" fill="#5793CE"/>
<path d="M139.626 111.908L136.906 110.334C136.379 110.072 135.94 109.285 135.94 108.586C135.94 107.886 136.291 107.624 136.818 107.886L139.539 109.46C140.065 109.722 140.504 110.509 140.504 111.209C140.504 111.908 140.153 112.17 139.626 111.908Z" fill="#5793CE"/>
<path d="M150.158 118.028L143.049 113.919C142.523 113.657 142.084 112.87 142.084 112.17C142.084 111.471 142.435 111.209 142.962 111.471L150.07 115.58C150.597 115.842 151.035 116.629 151.035 117.329C151.035 117.941 150.684 118.29 150.158 118.028Z" fill="#5793CE"/>
<path d="M142.084 118.465L136.906 115.493C136.379 115.23 135.94 114.443 135.94 113.744C135.94 113.045 136.291 112.782 136.818 113.045L141.996 116.017C142.522 116.279 142.961 117.066 142.961 117.766C143.049 118.378 142.61 118.727 142.084 118.465Z" fill="#5793CE"/>
<path d="M152.615 99.0561L143.488 93.8105C142.961 93.5482 142.522 92.7613 142.522 92.0619C142.522 91.3625 142.874 91.1002 143.4 91.3625L152.527 96.6082C153.054 96.8704 153.492 97.6573 153.492 98.3567C153.492 99.0561 153.141 99.4059 152.615 99.0561Z" fill="#5793CE"/>
<path d="M152.352 93.8105L136.467 84.7179C135.941 84.4556 135.502 83.6688 135.502 82.9694C135.502 82.2699 135.853 82.0076 136.38 82.2699L152.264 91.3625C152.791 91.6248 153.229 92.4116 153.229 93.111C153.229 93.8105 152.791 94.0727 152.352 93.8105Z" fill="#5793CE"/>
<path d="M145.769 100.193L136.642 94.9469C136.116 94.6846 135.677 93.8978 135.677 93.1984C135.677 92.4989 136.028 92.2367 136.554 92.4989L145.681 97.7446C146.208 98.0069 146.647 98.7938 146.647 99.4932C146.647 100.193 146.208 100.455 145.769 100.193Z" fill="#5793CE"/>
<path d="M159.547 103.078L156.212 101.154C155.686 100.892 155.247 100.105 155.247 99.4059C155.247 98.7065 155.598 98.4442 156.125 98.7065L159.46 100.63C159.986 100.892 160.425 101.679 160.425 102.378C160.425 102.99 159.986 103.34 159.547 103.078Z" fill="#5793CE"/>
<path d="M147.7 111.471L136.818 105.176C136.291 104.914 135.853 104.127 135.853 103.428C135.853 102.728 136.204 102.466 136.73 102.728L147.612 109.023C148.139 109.285 148.578 110.072 148.578 110.772C148.665 111.471 148.227 111.821 147.7 111.471Z" fill="#5793CE"/>
<path d="M139.714 71.3414L131.64 66.7077C131.114 66.4454 130.675 65.6585 130.675 64.9591C130.675 64.2597 131.026 63.9974 131.552 64.2597L139.626 68.8934C140.153 69.1557 140.592 69.9425 140.592 70.6419C140.592 71.3414 140.241 71.6036 139.714 71.3414Z" fill="#5793CE"/>
<path d="M141.821 123.361L132.518 118.028C131.992 117.766 131.553 116.979 131.553 116.279C131.553 115.58 131.904 115.318 132.43 115.58L141.733 120.913C142.259 121.175 142.698 121.962 142.698 122.662C142.698 123.361 142.347 123.623 141.821 123.361Z" fill="#5793CE"/>
<path d="M146.12 154.923L140.679 151.776C140.153 151.513 139.714 150.726 139.714 150.027C139.714 149.328 140.065 149.065 140.591 149.328L146.033 152.475C146.559 152.737 146.998 153.524 146.998 154.224C146.998 154.923 146.647 155.185 146.12 154.923Z" fill="#5793CE"/>
<path d="M157.704 161.567L149.63 156.934C149.104 156.671 148.665 155.885 148.665 155.185C148.665 154.486 149.016 154.223 149.543 154.486L157.617 159.119C158.143 159.382 158.582 160.169 158.582 160.868C158.582 161.567 158.231 161.83 157.704 161.567Z" fill="#5793CE"/>
<path d="M145.507 134.202L135.151 128.257C134.624 127.995 134.186 127.208 134.186 126.509C134.186 125.809 134.537 125.547 135.063 125.809L145.419 131.754C145.945 132.017 146.384 132.803 146.384 133.503C146.384 134.202 146.033 134.552 145.507 134.202Z" fill="#5793CE"/>
<path d="M138.66 140.497L135.238 138.574C134.711 138.311 134.272 137.524 134.272 136.825C134.272 136.126 134.624 135.863 135.15 136.126L138.573 138.049C139.099 138.311 139.538 139.098 139.538 139.798C139.626 140.41 139.187 140.759 138.66 140.497Z" fill="#5793CE"/>
<path d="M137.608 150.027L135.414 148.803C134.887 148.541 134.448 147.754 134.448 147.054C134.448 146.355 134.799 146.093 135.326 146.355L137.52 147.579C138.046 147.841 138.485 148.628 138.485 149.327C138.573 150.027 138.134 150.289 137.608 150.027Z" fill="#5793CE"/>
<path d="M151.298 147.754L142.171 142.508C141.645 142.246 141.206 141.459 141.206 140.759C141.206 140.06 141.557 139.798 142.084 140.06L151.211 145.306C151.737 145.568 152.176 146.355 152.176 147.054C152.264 147.754 151.825 148.016 151.298 147.754Z" fill="#5793CE"/>
<path d="M151.035 142.508L135.151 133.415C134.624 133.153 134.186 132.366 134.186 131.667C134.186 130.967 134.537 130.705 135.063 130.967L150.948 140.06C151.474 140.322 151.913 141.109 151.913 141.809C151.913 142.508 151.562 142.77 151.035 142.508Z" fill="#5793CE"/>
<path d="M144.453 148.89L135.326 143.645C134.799 143.382 134.36 142.596 134.36 141.896C134.36 141.197 134.711 140.934 135.238 141.197L144.365 146.442C144.892 146.705 145.33 147.492 145.33 148.191C145.33 148.89 144.979 149.153 144.453 148.89Z" fill="#5793CE"/>
<path d="M158.231 151.688L154.896 149.765C154.369 149.502 153.931 148.715 153.931 148.016C153.931 147.317 154.282 147.054 154.808 147.317L158.143 149.24C158.67 149.502 159.109 150.289 159.109 150.989C159.109 151.688 158.757 152.038 158.231 151.688Z" fill="#5793CE"/>
<path d="M185.963 268.23L196.055 262.46L206.148 268.23L196.055 274L185.963 268.23Z" fill="#D4ECFF"/>
<path d="M207.376 255.728L217.468 249.957L227.561 255.728L217.468 261.585L207.376 255.728Z" fill="#D4ECFF"/>
<path d="M228.702 243.575L238.795 237.805L248.887 243.575L238.795 249.345L228.702 243.575Z" fill="#D4ECFF"/>
<path d="M217.468 255.728V224.778L207.376 219.008V249.957L217.468 255.728Z" fill="#C13D1A"/>
<path d="M217.469 224.778L227.561 219.008V249.957L217.469 255.728V224.778Z" fill="#D3008D"/>
<path d="M217.468 255.728V224.778L207.376 219.008V249.957L217.468 255.728Z" fill="#D3008D"/>
<path d="M196.055 268.23V250.832L185.963 245.061V262.46L196.055 268.23Z" fill="#D3008D"/>
<path d="M196.056 250.832L206.148 245.061V262.46L196.056 268.23V250.832Z" fill="#D3008D"/>
<path d="M185.963 245.061L196.055 239.204L206.148 245.061L196.055 250.832L185.963 245.061Z" fill="#FF2C9C"/>
<path d="M238.795 243.575V200.998L228.702 195.227V237.805L238.795 243.575Z" fill="#D3008D"/>
<path d="M238.795 200.998L248.887 195.227V237.805L238.795 243.575V200.998Z" fill="#D3008D"/>
<path d="M228.702 195.227L238.795 189.37L248.887 195.227L238.795 200.998L228.702 195.227Z" fill="#FF2C9C"/>
<path d="M207.376 219.008L217.468 213.238L227.561 219.008L217.468 224.778L207.376 219.008Z" fill="#FF2C9C"/>
<path d="M42.3887 210.177C42.3887 210.177 39.3171 208.604 37.3864 210.964C35.4557 213.325 32.7351 218.833 32.6473 222.505C32.5596 226.264 35.6312 226.002 37.3864 225.128C39.2293 224.253 44.4949 216.647 44.7582 215.161C45.1092 213.675 44.4072 211.664 43.8806 211.227C43.4418 210.789 42.3887 210.177 42.3887 210.177Z" fill="#5793CE"/>
<path d="M43.0905 209.391L43.266 212.626C43.266 213.325 42.915 213.937 42.3885 214.287C41.8619 214.636 41.0721 214.811 40.0189 214.636C37.6494 214.287 37.4739 213.587 37.2984 210.352C37.0351 207.205 43.0905 209.391 43.0905 209.391Z" fill="#D4ECFF"/>
<path d="M30.9805 203.97C30.9805 203.97 27.9089 202.396 25.9782 204.757C24.0475 207.117 21.3269 212.625 21.2391 216.297C21.1514 220.057 24.223 219.794 25.9782 218.92C27.8211 218.046 33.0867 210.44 33.35 208.953C33.701 207.467 32.999 205.456 32.4724 205.019C32.0336 204.582 30.9805 203.97 30.9805 203.97Z" fill="#5793CE"/>
<path d="M31.6823 203.27L31.8578 206.505C31.8578 207.205 31.5068 207.817 30.9802 208.166C30.4537 208.516 29.6638 208.691 28.6107 208.516C26.2412 208.166 26.0657 207.467 25.8902 204.232C25.6269 200.997 31.6823 203.27 31.6823 203.27Z" fill="#D4ECFF"/>
<path d="M59.502 144.256C58.5366 129.306 43.2664 146.442 43.2664 146.442L32.823 156.671L23.3449 166.988C21.502 168.999 20.6244 171.709 20.9754 174.419L24.8369 203.358C25.0124 204.757 26.241 205.806 27.7329 205.806C28.1717 205.806 28.6105 205.806 29.1371 205.718C32.5597 205.194 32.2964 201.959 32.2964 201.959L31.5944 174.856L51.4281 162.966C51.3403 163.053 60.3796 159.207 59.502 144.256Z" fill="#173D7A"/>
<path d="M70.9112 149.939C69.9458 134.989 54.6756 152.125 54.6756 152.125L44.2322 162.354L34.7541 172.671C32.9112 174.681 32.0336 177.392 32.3846 180.102L36.246 209.041C36.4216 210.44 37.6502 211.489 39.1421 211.489C39.5809 211.489 40.0197 211.489 40.5463 211.401C43.9689 210.877 43.7056 207.642 43.7056 207.642L43.0035 180.539L62.7495 168.736C62.7495 168.736 71.7888 164.89 70.9112 149.939Z" fill="#173D7A"/>
<path d="M61.7841 101.941C73.3684 106.75 73.1929 113.569 73.1929 113.569C73.1929 113.569 70.9111 138.661 71.7009 155.36C72.052 162.354 34.403 162.879 40.0196 144.256C46.6016 122.225 44.1444 104.389 47.3037 101.679C50.2875 99.0561 58.8002 100.717 61.7841 101.941Z" fill="#5793CE"/>
<path d="M65.557 108.061C64.9427 110.422 61.8711 111.646 58.624 110.859C55.3769 110.072 53.3584 107.449 53.885 105.089C54.4993 102.728 57.5709 101.504 60.818 102.291C64.0651 103.078 66.1714 105.701 65.557 108.061Z" fill="#FFC2B0"/>
<path d="M60.6426 111.558C59.9405 111.558 59.2384 111.471 58.5363 111.296C56.8689 110.859 55.4647 109.985 54.4994 108.848C53.534 107.624 53.0952 106.225 53.4462 104.914C54.1483 102.291 57.571 100.892 60.9936 101.766C62.661 102.203 64.0652 103.078 65.0305 104.214C65.9959 105.438 66.4347 106.837 66.0837 108.149C65.5571 110.247 63.2753 111.558 60.6426 111.558ZM58.8874 102.553C56.6934 102.553 54.9382 103.515 54.4994 105.176C54.2361 106.138 54.4994 107.187 55.2892 108.149C56.079 109.11 57.3077 109.897 58.7996 110.247C61.6957 111.034 64.504 109.897 65.0305 107.886C65.2938 106.925 65.0305 105.875 64.2407 104.914C63.4509 103.952 62.2222 103.165 60.7303 102.815C60.116 102.641 59.5017 102.553 58.8874 102.553Z" fill="white"/>
<path d="M57.1321 101.417C57.1321 101.417 57.2199 101.854 57.0444 105.526C56.9566 106.662 60.9936 107.799 62.0467 106.75C63.0998 105.701 62.661 104.652 62.9243 100.717C63.1876 96.783 57.1321 101.417 57.1321 101.417Z" fill="#FFC2B0"/>
<path d="M63.0127 100.717C63.0127 100.717 62.0474 104.389 57.1328 105.788L57.2206 102.466L63.0127 100.717Z" fill="#EA9C92"/>
<path d="M65.1812 98.2139C67.6644 93.9552 66.212 88.4973 61.9371 86.0234C57.6623 83.5495 52.1837 84.9965 49.7004 89.2552C47.2172 93.5139 48.6696 98.9718 52.9445 101.446C57.2193 103.92 62.6979 102.473 65.1812 98.2139Z" fill="#FFC2B0"/>
<path d="M59.5019 93.9853C59.5019 93.9853 54.5873 96.0835 51.1647 96.0835C47.7421 96.0835 48.5319 93.2858 48.5319 93.2858L58.6243 91.7996L59.5019 93.9853Z" fill="#EA9C92"/>
<path d="M50.1116 94.5973C50.1116 94.5973 54.4118 92.7613 58.1855 93.5482C59.0631 93.723 59.8529 94.1602 60.4672 94.8596C60.6427 95.1219 60.906 95.2967 61.1693 95.3842C61.8714 95.559 62.9245 92.7613 64.2409 92.6739C65.5573 92.5865 66.4349 93.5482 65.3818 95.2093C64.3287 96.8704 64.6797 98.7939 65.2063 99.0562C65.7328 99.3184 70.9106 95.3842 66.3471 86.3791C61.6081 77.374 50.0238 82.1825 48.1809 84.0185C48.1809 84.0185 46.2501 85.6796 44.7582 84.1934C44.7582 84.1934 43.003 97.2202 50.1116 94.5973Z" fill="#FF2C9C"/>
<path d="M66.6985 131.929V138.748C66.6985 139.535 66.3474 140.235 65.8209 140.759L51.7793 153.436L53.359 155.884L71.7885 142.595C72.6661 141.983 73.1927 141.022 73.2805 139.972L74.5091 128.17L66.6985 131.929Z" fill="#FFC2B0"/>
<path d="M72.2269 110.247C72.2269 110.247 76.4394 116.629 78.0191 133.328C78.0191 133.328 70.735 135.689 66.6981 134.377C62.5733 132.978 72.2269 110.247 72.2269 110.247Z" fill="#5793CE"/>
<path d="M65.9085 118.203C65.9085 118.203 64.2411 127.033 64.1533 131.23C64.1533 132.366 64.8554 133.415 65.9085 133.765V118.203Z" fill="#396CAA"/>
<path d="M62.3102 162.267L59.2386 161.83L39.2294 150.377C38.615 150.027 37.4742 150.027 36.7721 150.464L22.6428 158.595L20.7998 158.333V160.168C20.7998 160.431 20.8876 160.606 21.2386 160.78L43.7929 173.807C44.4072 174.157 45.5481 174.157 46.2502 173.72L61.6081 164.89C62.0469 164.627 62.2224 164.365 62.2224 164.015V162.267H62.3102Z" fill="#5793CE"/>
<path d="M47.3033 155.01L45.8991 154.223H30.2779L22.6428 158.595L20.7998 158.333V160.169C20.7998 160.431 20.8876 160.606 21.2386 160.781L43.7929 173.807C44.1439 173.982 44.5827 174.07 45.1093 174.07L47.3033 155.01Z" fill="#396CAA"/>
<path d="M21.5896 158.42L20.7998 158.333V160.169C20.7998 160.431 20.8876 160.606 21.2386 160.78L21.6774 161.043V158.42H21.5896Z" fill="#5793CE"/>
<path d="M44.0566 173.982C44.671 174.244 45.5486 174.157 46.1629 173.895V170.747H44.0566V173.982Z" fill="white"/>
<path d="M43.7932 171.971L21.2389 158.945C20.6246 158.595 20.7124 157.895 21.4145 157.546L36.7724 148.715C37.4745 148.278 38.6154 148.278 39.2297 148.628L61.784 161.655C62.3983 162.005 62.3105 162.704 61.6085 163.054L46.2505 171.884C45.5484 172.321 44.4075 172.321 43.7932 171.971Z" fill="white"/>
<path d="M43.4418 170.048L24.6612 159.207C24.1346 158.945 24.2224 158.333 24.8367 157.983L33.0861 153.349C33.7004 152.999 34.6658 152.999 35.1924 153.262L53.973 164.103C54.4995 164.365 54.4118 164.977 53.7974 165.327L45.548 169.96C44.8459 170.31 43.9683 170.31 43.4418 170.048Z" fill="#D4ECFF"/>
<path d="M37.6493 148.278L37.386 149.852C37.2105 151.163 37.2105 152.562 37.4738 153.874L37.737 155.272C37.9126 156.059 38.5269 156.671 39.3167 156.759C39.931 156.846 40.4576 156.409 40.5454 155.797L40.8964 152.475C40.8964 152.475 41.774 153.611 42.125 153.611C42.5638 153.611 41.6862 150.289 40.7209 148.366C39.931 146.53 37.6493 148.278 37.6493 148.278Z" fill="#FFC2B0"/>
<path d="M45.2846 123.623L42.8273 128.432C42.213 129.569 41.9497 130.793 41.862 132.017L40.8088 148.366L37.6495 148.278L36.2453 129.918C36.1576 129.394 36.2453 128.782 36.3331 128.257L38.0005 118.99L45.2846 123.623Z" fill="#FFC2B0"/>
<path d="M43.0031 173.283L41.0724 170.835L21.1509 159.382C20.5366 159.032 20.01 157.983 20.01 157.196V140.934L18.8691 139.448L19.9223 138.836C20.0978 138.661 20.3611 138.749 20.7121 138.923L43.2664 151.95C43.8807 152.3 44.4072 153.349 44.4072 154.136V171.796C44.4072 172.234 44.2317 172.583 43.9684 172.758L43.0031 173.283Z" fill="#173D7A"/>
<path d="M29.2248 163.928L27.8206 163.141L20.01 149.677V140.847L18.8691 139.361L19.9223 138.749C20.0978 138.574 20.3611 138.661 20.7121 138.836L43.2664 151.863C43.6174 152.038 43.8807 152.387 44.144 152.825L29.2248 163.928Z" fill="#396CAA"/>
<path d="M19.4826 139.973L18.9561 139.273L20.0092 138.661C20.1847 138.486 20.448 138.574 20.799 138.749L21.2378 139.011L19.4826 139.973Z" fill="#5793CE"/>
<path d="M43.5288 151.95C44.0554 152.388 44.4064 153.174 44.4942 153.874L42.3002 155.185L41.2471 153.349L43.5288 151.95Z" fill="#274F89"/>
<path d="M42.3006 152.387L19.7463 139.361C19.132 139.011 18.6055 139.361 18.6055 140.235V157.895C18.6055 158.77 19.132 159.731 19.7463 160.081L42.3006 173.108C42.9149 173.458 43.4415 173.108 43.4415 172.234V154.573C43.4415 153.786 42.9149 152.825 42.3006 152.387Z" fill="#5793CE"/>
<path d="M53.3582 155.884L53.0072 156.671C52.5684 157.546 51.9541 158.245 51.0765 158.77L48.7947 160.168C48.0926 160.606 47.215 160.606 46.513 160.256C46.513 160.256 46.4252 160.256 46.4252 160.168C45.7231 159.731 45.6354 158.682 46.2497 158.07L48.6192 155.71C48.6192 155.71 47.3028 156.671 46.9518 156.322C46.6885 156.059 48.2682 154.573 49.409 154.573C50.6377 154.486 51.7785 153.611 51.7785 153.611L53.3582 155.884Z" fill="#FFC2B0"/>
<path d="M47.4782 101.679C47.4782 101.679 38.8777 111.034 35.4551 119.514C35.4551 119.514 38.3512 124.76 45.5475 126.858C52.7438 128.957 47.4782 101.679 47.4782 101.679Z" fill="#5793CE"/>
<path d="M43.8801 126.334L45.2842 112.957L42.0371 125.547C42.5637 125.809 43.2657 126.072 43.8801 126.334Z" fill="#396CAA"/>
<path d="M53.8853 99.843L51.6035 99.231C51.6035 99.231 52.7444 100.98 54.3241 101.417C55.9037 101.854 56.167 100.542 56.167 100.542L53.8853 99.843Z" fill="white"/>
<path d="M66.2588 96.171C66.2588 96.8705 65.6445 97.4825 64.9424 97.4825C64.2403 97.4825 63.626 96.8705 63.626 96.171C63.626 95.4716 64.2403 94.8596 64.9424 94.8596C65.6445 94.8596 66.2588 95.4716 66.2588 96.171Z" fill="white"/>
<path d="M258.102 101.067L254.24 93.1984L262.139 89.3516L266 97.2201L258.102 101.067ZM256.61 93.9853L258.891 98.7064L263.631 96.4333L261.349 91.7121L256.61 93.9853Z" fill="#FF2C9C"/>
<path d="M92.0602 250.569C83.4597 245.586 69.5059 245.586 60.9054 250.569C52.305 255.553 52.305 263.509 60.9054 268.492C69.5059 273.476 83.4597 273.476 92.0602 268.492C100.661 263.509 100.661 255.465 92.0602 250.569ZM83.6352 263.596C79.686 265.869 73.2796 265.869 69.3304 263.596C65.3812 261.323 65.3812 257.651 69.3304 255.378C73.2796 253.105 79.686 253.105 83.6352 255.378C87.5844 257.651 87.5844 261.323 83.6352 263.596Z" fill="#D4ECFF"/>
<path d="M57.6584 247.597L65.5568 247.684C66.1711 246.897 66.961 246.198 68.0141 245.586C72.3143 243.138 79.1596 242.876 83.8109 244.974L88.4621 240.603L95.6584 240.69C95.3074 240.428 94.9563 240.253 94.5176 239.991C84.5129 234.22 68.3651 234.22 58.3605 239.991C56.5176 241.04 55.0256 242.264 53.8848 243.488L57.6584 247.597Z" fill="#B70083"/>
<path d="M95.6582 229.412V240.777L88.4619 240.69V229.324L95.6582 229.412Z" fill="#D3008D"/>
<path d="M83.8105 233.696V245.061L88.4618 240.69V229.324L83.8105 233.696Z" fill="#B70083"/>
<path d="M65.4695 236.318V247.684L75.8251 239.291L83.8113 245.061V233.696L76.4395 230.111C76.4395 230.111 66.3471 233.171 65.8205 233.346C65.294 233.521 65.4695 236.318 65.4695 236.318Z" fill="#B70083"/>
<path d="M57.6582 236.231V247.597L65.4688 247.684V236.319L57.6582 236.231Z" fill="#B70083"/>
<path d="M53.8848 232.209V243.575L57.6584 247.597V236.231L53.8848 232.209Z" fill="#D3008D"/>
<path d="M57.6584 236.231L65.5568 236.318C66.1711 235.532 66.961 234.832 68.0141 234.22C72.3143 231.772 79.1596 231.51 83.8109 233.608L88.4621 229.237L95.6584 229.324C95.3074 229.062 94.9563 228.887 94.5176 228.625C84.5129 222.855 68.3651 222.855 58.3605 228.625C56.5176 229.674 55.0256 230.898 53.8848 232.122L57.6584 236.231Z" fill="#FF2C9C"/>
<path d="M86.1797 235.094V245.498L92.9372 243.837C92.9372 243.837 92.4984 237.717 92.4106 237.542C92.3229 237.368 86.1797 235.094 86.1797 235.094Z" fill="#5793CE"/>
<path d="M81.002 245.498V256.864L81.704 257.651L86.5308 254.941C86.5308 254.941 85.8287 246.285 85.741 246.11C85.6532 245.935 81.002 245.498 81.002 245.498Z" fill="#173D7A"/>
<path d="M90.3045 242.613L86.1798 246.46C89.6024 249.17 89.1636 252.93 84.9511 255.378C83.8103 256.077 82.4939 256.514 81.002 256.864L85.2144 261.41L81.4408 264.907C86.1798 264.383 90.7433 262.984 94.517 260.886C103.117 255.99 104.258 248.384 98.1151 242.701L90.3045 242.613Z" fill="#396CAA"/>
<path d="M81.5283 253.542V264.907L90.8309 261.323L102.064 250.657L101.976 238.592L90.1288 248.034L81.5283 253.542Z" fill="#396CAA"/>
<path d="M90.3045 231.248L86.1798 235.094C89.6024 237.805 89.1636 241.564 84.9511 244.012C83.8103 244.712 82.4939 245.149 81.002 245.498L85.2144 250.045L81.4408 253.542C86.1798 253.017 90.7433 251.618 94.517 249.52C103.117 244.624 104.258 237.018 98.1151 231.335L90.3045 231.248Z" fill="#D4ECFF"/>
<path d="M81.4412 261.323L77.6675 257.389C74.1571 257.564 70.559 256.952 67.9262 255.378C65.2056 253.804 64.0648 251.618 64.5036 249.608L55.5521 249.433L52.1294 245.761C49.1456 250.919 51.1641 256.777 58.2726 260.886C63.4504 263.858 70.3835 265.345 77.2287 265.17L81.4412 261.323Z" fill="#396CAA"/>
<path d="M77.3161 253.892V265.257L50.9004 250.657V239.204L54.7618 240.777L77.3161 253.892Z" fill="#396CAA"/>
<path d="M81.4411 249.957V261.323L77.3164 265.257V253.892L81.4411 249.957Z" fill="#173D7A"/>
<path d="M81.4412 249.957L77.6675 246.023C74.1571 246.198 70.559 245.586 67.9262 244.012C65.2056 242.438 64.0648 240.253 64.5036 238.242L55.5521 238.067L52.1294 234.395C49.1456 239.553 51.1641 245.411 58.2726 249.52C63.4504 252.493 70.3835 253.979 77.2287 253.804L81.4412 249.957Z" fill="#5793CE"/>
<path d="M22.1155 66.7077C18.9562 66.7077 16.4111 64.1723 16.4111 61.0249C16.4111 57.8775 18.9562 55.342 22.1155 55.342C25.2749 55.342 27.8199 57.8775 27.8199 61.0249C27.8199 64.1723 25.2749 66.7077 22.1155 66.7077ZM22.1155 57.0906C19.9215 57.0906 18.1663 58.8392 18.1663 61.0249C18.1663 63.2106 19.9215 64.9591 22.1155 64.9591C24.3095 64.9591 26.0647 63.2106 26.0647 61.0249C26.0647 58.8392 24.3095 57.0906 22.1155 57.0906Z" fill="#5793CE"/>
<path d="M8.24942 244.187C8.24942 246.46 6.40647 248.296 4.12471 248.296C1.84296 248.296 0 246.46 0 244.187C0 241.914 1.84296 240.078 4.12471 240.078C6.40647 240.078 8.24942 241.914 8.24942 244.187Z" fill="#D4ECFF"/>
<path d="M219.926 8.21834C219.926 10.9286 217.732 13.1143 215.011 13.1143C212.291 13.1143 210.097 10.9286 210.097 8.21834C210.097 5.50806 212.291 3.32236 215.011 3.32236C217.732 3.23493 219.926 5.42063 219.926 8.21834Z" fill="#D4ECFF"/>
<path d="M193.247 59.0141L169.815 45.5501C169.376 45.2878 168.937 45.2878 168.586 45.4627L166.305 46.7741C166.305 46.7741 167.27 47.1238 167.884 47.3861V64.4346C167.884 65.8335 168.762 67.4072 169.815 68.0192L192.282 80.9585V82.9694L194.563 81.658C194.914 81.3957 195.178 80.8711 195.178 80.1717V62.5986C195.178 61.1998 194.3 59.6261 193.247 59.0141Z" fill="#D3008D"/>
<path d="M190.965 82.7946L167.533 69.3306C166.48 68.7186 165.603 67.1449 165.603 65.7461V48.2604C165.603 46.8616 166.48 46.2496 167.533 46.8616L190.965 60.3255C192.018 60.9375 192.896 62.5112 192.896 63.9101V81.3083C192.896 82.7072 192.018 83.3192 190.965 82.7946Z" fill="#FF2C9C"/>
<path d="M175.432 63.298C175.432 64.3471 174.73 64.6968 173.852 64.1722C172.975 63.6477 172.272 62.4237 172.272 61.462C172.272 60.4128 172.975 60.0631 173.852 60.5877C174.642 61.0248 175.432 62.2488 175.432 63.298Z" fill="white"/>
<path d="M180.171 66.0082C180.171 67.0573 179.469 67.407 178.591 66.8824C177.714 66.3579 177.012 65.1339 177.012 64.1722C177.012 63.123 177.714 62.7733 178.591 63.2979C179.469 63.8225 180.171 65.0465 180.171 66.0082Z" fill="white"/>
<path d="M184.997 68.806C184.997 69.8552 184.295 70.2049 183.418 69.6803C182.54 69.1557 181.838 67.9317 181.838 66.97C181.838 65.9209 182.54 65.5712 183.418 66.0957C184.295 66.5329 184.997 67.7569 184.997 68.806Z" fill="white"/>
<path d="M79.1598 32.4359L56.1668 19.2342C55.728 18.9719 55.2892 18.9719 54.9381 19.1468L52.7441 20.4582C52.7441 20.4582 53.7095 20.8079 54.3238 21.0702V37.769C54.3238 39.1678 55.1137 40.7415 56.1668 41.2661L78.1945 53.9432V55.8666L80.4762 54.5552C80.8273 54.2929 81.0906 53.8558 81.0906 53.0689V36.0204C81.0028 34.6216 80.213 33.0478 79.1598 32.4359Z" fill="#5793CE"/>
<path d="M76.878 55.7792L53.885 42.4902C52.8318 41.8782 52.042 40.3044 52.042 38.993V21.9445C52.042 20.5457 52.8318 19.9337 53.885 20.5457L76.878 33.7473C77.9311 34.3593 78.721 35.933 78.721 37.2445V54.293C78.721 55.6918 77.9311 56.3038 76.878 55.7792Z" fill="#D4ECFF"/>
<path d="M61.6076 36.6324C61.6076 37.5941 60.9055 38.0313 60.0279 37.5067C59.1503 36.9822 58.4482 35.8456 58.4482 34.7964C58.4482 33.8347 59.1503 33.3976 60.0279 33.9222C60.9055 34.4467 61.6076 35.6707 61.6076 36.6324Z" fill="white"/>
<path d="M66.3469 39.3426C66.3469 40.3044 65.6448 40.7415 64.7672 40.2169C63.8896 39.6924 63.1875 38.5558 63.1875 37.5066C63.1875 36.5449 63.8896 36.1078 64.7672 36.6324C65.6448 37.1569 66.3469 38.3809 66.3469 39.3426Z" fill="white"/>
<path d="M71.0861 42.0531C71.0861 43.0148 70.384 43.4519 69.5064 42.9274C68.6288 42.4028 67.9268 41.2662 67.9268 40.2171C67.9268 39.2554 68.6288 38.8182 69.5064 39.3428C70.384 39.8674 71.0861 41.0914 71.0861 42.0531Z" fill="white"/>
</g>
<defs>
<clipPath id="clip0_160_40">
<rect width="266" height="274" fill="white"/>
</clipPath>
</defs>
</svg>
