<svg width="93" height="93" viewBox="0 0 93 93" fill="none" xmlns="http://www.w3.org/2000/svg">
<mask id="mask0_160_3412" style="mask-type:luminance" maskUnits="userSpaceOnUse" x="0" y="0" width="93" height="93">
<path d="M0 -1.52588e-05H93V93H0V-1.52588e-05Z" fill="white"/>
</mask>
<g mask="url(#mask0_160_3412)">
<path d="M50.5869 45.1377C49.8344 45.1377 49.2246 45.7476 49.2246 46.5C49.2246 47.2524 49.8344 47.8623 50.5869 47.8623C51.3395 47.8623 51.9492 47.2524 51.9492 46.5C51.9492 45.7476 51.3395 45.1377 50.5869 45.1377Z" fill="#F47805"/>
<path d="M50.5869 69.8408C49.8344 69.8408 49.2246 70.4508 49.2246 71.2031C49.2246 71.9555 49.8344 72.5654 50.5869 72.5654C51.3395 72.5654 51.9492 71.9555 51.9492 71.2031C51.9492 70.4508 51.3395 69.8408 50.5869 69.8408Z" fill="#F47805"/>
<path d="M38.9167 66.7137C38.2651 66.3376 37.432 66.5608 37.0558 67.2123C36.6796 67.8641 36.9028 68.6971 37.5544 69.0732C38.2059 69.4496 39.0391 69.2264 39.4153 68.5746C39.7915 67.9231 39.5682 67.0899 38.9167 66.7137Z" fill="#F47805"/>
<path d="M63.6198 23.9267C62.9683 23.5506 62.1351 23.7738 61.7589 24.4253C61.3827 25.0769 61.606 25.9101 62.2575 26.2863C62.9091 26.6624 63.7422 26.4392 64.1184 25.7877C64.4946 25.1361 64.2714 24.3029 63.6198 23.9267Z" fill="#F47805"/>
<path d="M73.1605 33.4673C72.7843 32.8158 71.9511 32.5926 71.2996 32.9687C70.648 33.3449 70.4246 34.1781 70.801 34.8296C71.1772 35.4812 72.0103 35.7044 72.6619 35.3282C73.3134 34.9521 73.5367 34.1189 73.1605 33.4673Z" fill="#F47805"/>
<path d="M30.3734 58.1705C29.9972 57.5189 29.1641 57.2957 28.5125 57.6719C27.8608 58.048 27.6376 58.8812 28.0139 59.5328C28.3901 60.1843 29.2231 60.4076 29.8748 60.0314C30.5264 59.6552 30.7496 58.822 30.3734 58.1705Z" fill="#F47805"/>
<path d="M76.6523 46.5C76.6523 45.7476 76.0426 45.1377 75.29 45.1377C74.5375 45.1377 73.9277 45.7476 73.9277 46.5C73.9277 47.2524 74.5375 47.8623 75.29 47.8623C76.0426 47.8623 76.6523 47.2524 76.6523 46.5Z" fill="#F47805"/>
<path d="M73.1605 59.5328C73.5367 58.8812 73.3134 58.048 72.6619 57.6719C72.0103 57.2957 71.1772 57.5189 70.801 58.1705C70.4246 58.822 70.648 59.6552 71.2996 60.0314C71.9511 60.4076 72.7843 60.1843 73.1605 59.5328Z" fill="#F47805"/>
<path d="M30.3734 34.8296C30.7496 34.1781 30.5264 33.3449 29.8748 32.9687C29.2231 32.5926 28.3901 32.8158 28.0139 33.4673C27.6376 34.1189 27.8608 34.9521 28.5125 35.3282C29.1641 35.7044 29.9972 35.4812 30.3734 34.8296Z" fill="#F47805"/>
<path d="M63.6198 69.0732C64.2714 68.6971 64.4946 67.8639 64.1184 67.2123C63.7422 66.5608 62.9091 66.3376 62.2575 66.7137C61.606 67.0899 61.3827 67.9231 61.7589 68.5746C62.1351 69.2262 62.9683 69.4494 63.6198 69.0732Z" fill="#F47805"/>
<path d="M38.9167 26.2863C39.5682 25.9101 39.7915 25.0769 39.4153 24.4253C39.0391 23.7736 38.2059 23.5504 37.5544 23.9267C36.9028 24.3029 36.6796 25.1359 37.0558 25.7877C37.432 26.4392 38.2651 26.6624 38.9167 26.2863Z" fill="#F47805"/>
<path d="M47.8623 41.7816V24.5216C47.8623 23.0167 49.0822 21.797 50.5869 21.797C52.0916 21.797 53.3115 23.0167 53.3115 24.5216V41.7816" stroke="#F47805" stroke-width="2" stroke-miterlimit="10" stroke-linecap="round" stroke-linejoin="round"/>
<path d="M55.3057 43.7754H67.1165C68.6214 43.7754 69.8411 44.9953 69.8411 46.5C69.8411 48.0047 68.6214 49.2246 67.1165 49.2246H55.3057" stroke="#F47805" stroke-width="2" stroke-miterlimit="10" stroke-linecap="round" stroke-linejoin="round"/>
<path d="M56.0361 46.5C56.0361 43.4906 53.5963 41.0508 50.5869 41.0508C47.5775 41.0508 45.1377 43.4906 45.1377 46.5C45.1377 49.5094 47.5775 51.9492 50.5869 51.9492C53.5963 51.9492 56.0361 49.5094 56.0361 46.5Z" stroke="#F47805" stroke-width="2" stroke-miterlimit="10" stroke-linecap="round" stroke-linejoin="round"/>
<path d="M50.5869 76.6523C67.2397 76.6523 80.7393 63.1526 80.7393 46.5C80.7393 29.8474 67.2397 16.3476 50.5869 16.3476C33.9343 16.3476 20.4346 29.8474 20.4346 46.5C20.4346 63.1526 33.9343 76.6523 50.5869 76.6523Z" stroke="#F47805" stroke-width="2" stroke-miterlimit="10" stroke-linecap="round" stroke-linejoin="round"/>
<path d="M25.8838 46.5H45.1377" stroke="#F47805" stroke-width="2" stroke-miterlimit="10" stroke-linecap="round" stroke-linejoin="round"/>
<path d="M1.3623 68.2969H15.798" stroke="#F47805" stroke-width="2" stroke-miterlimit="10" stroke-linecap="round" stroke-linejoin="round"/>
<path d="M15.798 24.7031H1.3623" stroke="#F47805" stroke-width="2" stroke-miterlimit="10" stroke-linecap="round" stroke-linejoin="round"/>
<path d="M1.3623 57.3984H11.0014" stroke="#F47805" stroke-width="2" stroke-miterlimit="10" stroke-linecap="round" stroke-linejoin="round"/>
<path d="M11.0014 35.6016H1.3623" stroke="#F47805" stroke-width="2" stroke-miterlimit="10" stroke-linecap="round" stroke-linejoin="round"/>
<path d="M20.4346 46.5H1.3623" stroke="#F47805" stroke-width="2" stroke-miterlimit="10" stroke-linecap="round" stroke-linejoin="round"/>
<path d="M9.89687 51.9492C12.5624 72.0447 29.7629 87.5508 50.5869 87.5508C52.6927 87.5508 54.7614 87.3917 56.7818 87.0856L58.61 81.1935C62.5035 80.297 66.1513 78.7599 69.4403 76.7023L74.905 79.5788C76.5499 78.3665 78.1253 77.0163 79.6142 75.5273C81.1033 74.0382 82.4534 72.463 83.6657 70.818L80.7892 65.3534C82.8468 62.0644 84.3839 58.4163 85.2806 54.5229L91.1727 52.6947C91.4784 50.6743 91.6377 48.6058 91.6377 46.5C91.6377 44.3942 91.4784 42.3257 91.1727 40.3053L85.2806 38.4769C84.3839 34.5836 82.8468 30.9356 80.7892 27.6466L83.6657 22.1819C82.4534 20.537 81.1033 18.9618 79.6142 17.4727C78.1253 15.9836 76.5499 14.6335 74.905 13.4212L69.4403 16.2977C66.1513 14.2401 62.5035 12.703 58.61 11.8064L56.7818 5.91439C54.7614 5.60832 52.6927 5.44921 50.5869 5.44921C27.9153 5.44921 9.53613 23.8283 9.53613 46.5" stroke="#F47805" stroke-width="2" stroke-miterlimit="10" stroke-linecap="round" stroke-linejoin="round"/>
</g>
</svg>
