<svg width="90" height="90" viewBox="0 0 90 90" fill="none" xmlns="http://www.w3.org/2000/svg">
<path d="M10.1633 70.459H23.9718C24.6513 70.459 25.2022 69.9081 25.2022 69.2285V50.2731C25.2022 49.5935 24.6513 49.0427 23.9718 49.0427H10.1633C9.48369 49.0427 8.93279 49.5935 8.93279 50.2731V69.2285C8.93279 69.9081 9.48369 70.459 10.1633 70.459ZM11.3937 51.5036H22.7413V67.998H11.3937V51.5036ZM31.8802 35.2342C31.2006 35.2342 30.6497 35.7851 30.6497 36.4646V69.2285C30.6497 69.9081 31.2006 70.459 31.8802 70.459H45.6886C46.3682 70.459 46.9191 69.9081 46.9191 69.2285V36.4646C46.9191 35.7851 46.3682 35.2342 45.6886 35.2342H31.8802ZM44.4582 67.998H33.1106V37.6951H44.4582V67.998ZM15.5269 42.7353L27.2012 27.5458C27.4341 27.2428 27.7946 27.0652 28.1768 27.0652H41.3368L55.5918 6.24642L49.7381 9.35511C49.1384 9.67398 48.393 9.44581 48.0743 8.84552C47.7557 8.2454 47.9836 7.50044 48.5838 7.18175L58.8569 1.72585C58.8584 1.72515 58.8598 1.7248 58.8608 1.7241C58.9051 1.70072 58.9506 1.68033 58.9972 1.66275C59.0074 1.65888 59.0174 1.65589 59.0278 1.6522C59.0638 1.63972 59.1002 1.62882 59.1371 1.61951C59.151 1.61599 59.1647 1.61248 59.1788 1.60966C59.2205 1.60087 59.2626 1.59384 59.3048 1.58945C59.3103 1.58892 59.3156 1.58769 59.321 1.58734C59.3685 1.58294 59.4165 1.58189 59.4643 1.58312C59.4766 1.58347 59.4891 1.58453 59.5014 1.58523C59.539 1.58734 59.5762 1.59103 59.6137 1.59648C59.6258 1.59824 59.6381 1.59999 59.6502 1.6021C59.7457 1.61915 59.8397 1.64728 59.9308 1.68771C59.942 1.69281 59.9535 1.69861 59.9647 1.70406C59.9983 1.72023 60.0313 1.73781 60.0637 1.75732C60.0711 1.76171 60.079 1.76488 60.0864 1.76945C60.0918 1.77296 60.0966 1.77718 60.102 1.7807C60.111 1.7865 60.1203 1.79124 60.1291 1.79722C60.1549 1.81498 60.1792 1.83431 60.2033 1.85382C60.2094 1.85874 60.2161 1.86314 60.2221 1.86824C60.2609 1.90058 60.2969 1.93486 60.3309 1.97089C60.3365 1.97722 60.3419 1.98373 60.3476 1.99005C60.3755 2.02099 60.4015 2.05316 60.4256 2.08621C60.4325 2.09535 60.439 2.10449 60.4455 2.1138C60.4699 2.14931 60.4926 2.18587 60.5132 2.22349C60.5161 2.22894 60.5193 2.23404 60.5223 2.23931C60.5452 2.2829 60.5654 2.32755 60.5828 2.37343C60.5865 2.38257 60.5889 2.39189 60.5923 2.40103C60.6051 2.43759 60.6163 2.47451 60.6258 2.51212C60.6294 2.52566 60.6323 2.53919 60.6355 2.5529C60.6445 2.59421 60.6513 2.63587 60.6561 2.67771C60.6568 2.68386 60.658 2.69001 60.6585 2.69617C60.6633 2.74539 60.6643 2.79496 60.6631 2.84453C60.6629 2.84822 60.6636 2.85191 60.6635 2.85578L60.2518 14.4809C60.2282 15.1452 59.6824 15.6676 59.0231 15.6678C59.0083 15.6678 58.9935 15.6676 58.9786 15.6671C58.2995 15.643 57.7683 15.0729 57.7926 14.3937L58.0543 7.00492L43.0002 28.9906C42.7709 29.3256 42.391 29.5258 41.9851 29.5258H28.7825L17.4775 44.2347C17.2353 44.5499 16.8702 44.7153 16.5011 44.7153C16.2393 44.7153 15.9756 44.6321 15.752 44.4604C15.2138 44.0466 15.1127 43.274 15.5269 42.7353ZM86.5465 67.8628C86.5077 67.3142 86.1095 66.8579 85.5711 66.7452L83.3547 66.2813C83.1998 65.4395 82.9784 64.6116 82.6924 63.8058L84.382 62.2941C84.7919 61.9274 84.9086 61.3331 84.668 60.8385C84.2695 60.0204 83.8093 59.2244 83.2997 58.4731C82.9915 58.0186 82.4188 57.8235 81.8975 57.9948L79.741 58.7029C79.1861 58.0532 78.5807 57.448 77.9315 56.8934L78.6395 54.7367C78.8109 54.215 78.6156 53.6428 78.1611 53.3345C77.4094 52.8248 76.6135 52.3646 75.7958 51.9666C75.3013 51.7256 74.7071 51.8427 74.3405 52.2524L72.8286 53.942C72.0221 53.656 71.1943 53.4345 70.3529 53.2797L69.8892 51.0631C69.7765 50.5247 69.32 50.1262 68.771 50.0877C68.7257 50.0845 68.6812 50.0835 68.636 50.0805V22.6561C68.636 21.9766 68.0851 21.4257 67.4055 21.4257H53.5974C52.9178 21.4257 52.3669 21.9766 52.3669 22.6561V57.947C52.0277 57.9927 51.7132 58.1764 51.5118 58.4735C51.0023 59.2253 50.5421 60.0211 50.1442 60.8385C49.9035 61.3329 50.0202 61.9272 50.4302 62.2941L52.1198 63.8058C51.8336 64.6123 51.6119 65.4402 51.4573 66.2813L49.2407 66.7452C48.7021 66.8581 48.3036 67.3148 48.2652 67.8639C48.2327 68.3259 48.2166 68.785 48.2166 69.2285C48.2166 69.672 48.2329 70.1311 48.2652 70.5931C48.3036 71.1422 48.7019 71.5989 49.2407 71.7118L51.4574 72.1756C51.6123 73.0178 51.8338 73.8457 52.1196 74.6512L50.4302 76.1629C50.0202 76.5296 49.9035 77.1239 50.1442 77.6185C50.5421 78.4357 51.0022 79.2313 51.5118 79.9835C51.8197 80.4384 52.3926 80.6337 52.9143 80.4623L55.0711 79.7541C55.6261 80.404 56.2315 81.009 56.8806 81.5636L56.1726 83.7203C56.0012 84.242 56.1965 84.8141 56.6511 85.1225C57.4024 85.6319 58.1981 86.0922 59.016 86.4904C59.511 86.7316 60.1048 86.6145 60.4717 86.2046L61.9836 84.5148C62.7901 84.8008 63.6178 85.0224 64.4593 85.1771L64.923 87.3937C65.0357 87.9323 65.4922 88.3306 66.0411 88.3691C66.5024 88.4017 66.9617 88.418 67.4062 88.418C67.8508 88.418 68.3105 88.4015 68.7717 88.3691C69.3207 88.3306 69.7774 87.9323 69.8899 87.3937L70.3536 85.1771C71.1954 85.0223 72.0233 84.8008 72.8293 84.515L74.3412 86.2046C74.7082 86.6145 75.3023 86.7314 75.797 86.4902C76.6158 86.0914 77.4115 85.6312 78.1618 85.1223C78.6163 84.814 78.8115 84.2418 78.6403 83.7201L77.9322 81.5634C78.5817 81.0085 79.1871 80.4033 79.7415 79.7541L81.898 80.4623C82.4204 80.6339 82.9922 80.4384 83.3006 79.9838C83.8103 79.2317 84.2709 78.4359 84.6687 77.6184C84.9093 77.1239 84.7926 76.5296 84.3827 76.1629L82.6931 74.6512C82.9792 73.8447 83.2009 73.0168 83.3556 72.1756L85.5718 71.7118C86.1102 71.5991 86.5084 71.1427 86.5472 70.5941C86.5799 70.1336 86.5963 69.6743 86.5963 69.2285C86.5963 68.7827 86.5791 68.3234 86.5465 67.8628ZM66.1754 23.8866V50.0808C66.1304 50.0836 66.0861 50.0847 66.0408 50.088C65.4918 50.1265 65.0351 50.5248 64.9226 51.0634L64.4589 53.28C63.6169 53.4349 62.789 53.6564 61.9832 53.9422L60.4713 52.2526C60.1048 51.843 59.5109 51.726 59.0157 51.9669C58.1972 52.3654 57.4013 52.8256 56.6507 53.3347C56.1961 53.643 56.001 54.2152 56.1722 54.7369L56.8803 56.8936C56.2304 57.4485 55.6252 58.0537 55.0706 58.7031L54.8277 58.6233V23.8866H66.1754ZM84.1324 69.4987L82.0184 69.9411C81.5051 70.0485 81.1163 70.4695 81.0499 70.9896C80.8946 72.2053 80.5763 73.3956 80.1033 74.5274C79.9013 75.0108 80.0277 75.5693 80.4183 75.9187L82.0286 77.3594C81.9411 77.5166 81.8509 77.6723 81.7584 77.8265L79.7025 77.1511C79.205 76.9878 78.6589 77.1569 78.3409 77.5728C77.5968 78.5465 76.7251 79.418 75.7504 80.1633C75.3347 80.4813 75.1656 81.0275 75.3289 81.5246L76.0041 83.5809C75.8501 83.6733 75.6943 83.7633 75.5372 83.8509L74.0965 82.2405C73.7472 81.8501 73.1887 81.7239 72.705 81.9257C71.5749 82.398 70.3847 82.7164 69.1672 82.8719C68.6471 82.9384 68.2263 83.3272 68.1189 83.8405L67.6766 85.9546C67.4952 85.9576 67.3175 85.9576 67.1361 85.9546L66.6936 83.8405C66.5862 83.3272 66.1652 82.9384 65.6451 82.8719C64.429 82.7167 63.2388 82.3982 62.1073 81.9255C61.6241 81.7237 61.0656 81.8501 60.716 82.2405L59.2751 83.8509C59.118 83.7633 58.9624 83.6733 58.8084 83.5809L59.4836 81.5246C59.6471 81.0273 59.4776 80.481 59.0617 80.1631C58.0883 79.4191 57.2167 78.5475 56.4714 77.5727C56.1536 77.1568 55.6073 76.9877 55.1102 77.151L53.0541 77.8261C52.9616 77.672 52.8714 77.5162 52.7839 77.3591L54.3942 75.9184C54.785 75.5689 54.9112 75.0103 54.709 74.5267C54.2369 73.3977 53.9186 72.2073 53.7626 70.9891C53.696 70.4692 53.3074 70.0482 52.7941 69.9409L50.6801 69.4985C50.6786 69.4078 50.6778 69.3176 50.6778 69.2283C50.6778 69.139 50.6786 69.0489 50.6801 68.9581L52.7941 68.5157C53.3074 68.4083 53.6962 67.9873 53.7626 67.4672C53.9178 66.2515 54.2362 65.0611 54.7092 63.9294C54.9112 63.446 54.7848 62.8875 54.3942 62.5381L52.7839 61.0974C52.8714 60.9402 52.9616 60.7847 53.0539 60.6305L55.1102 61.3057C55.6073 61.4688 56.1538 61.2997 56.4718 60.8838C57.2155 59.9103 58.0869 59.0388 59.0619 58.2935C59.4778 57.9757 59.6469 57.4294 59.4836 56.9321L58.8084 54.8758C58.9624 54.7835 59.1182 54.6933 59.2751 54.6058L60.716 56.2161C61.0656 56.6067 61.6237 56.7329 62.1077 56.5309C63.2374 56.0586 64.4275 55.7403 65.6453 55.5847C66.1654 55.5183 66.5862 55.1294 66.6936 54.6161L67.1361 52.502C67.3175 52.499 67.4954 52.499 67.6764 52.502L68.1189 54.6161C68.2263 55.1294 68.6473 55.5183 69.1674 55.5847C70.3834 55.7399 71.5737 56.0584 72.7052 56.5311C73.1887 56.7331 73.7472 56.6069 74.0965 56.2163L75.5374 54.6058C75.6945 54.6933 75.8501 54.7833 76.0041 54.8758L75.3289 56.9321C75.1654 57.4294 75.3349 57.9757 75.7508 58.2935C76.7242 59.0376 77.5958 59.9091 78.3411 60.884C78.6591 61.2999 79.2054 61.469 79.7023 61.3057L81.7584 60.6305C81.8509 60.7847 81.9411 60.9404 82.0286 61.0976L80.4183 62.5383C80.0277 62.8877 79.9013 63.4462 80.1033 63.9297C80.5758 65.0602 80.8941 66.2506 81.0499 67.4677C81.1165 67.9877 81.5051 68.4085 82.0184 68.5159L84.1324 68.9583C84.1339 69.049 84.1346 69.139 84.1346 69.2285C84.1346 69.318 84.1339 69.408 84.1324 69.4987ZM67.4059 58.3642C61.4154 58.3642 56.5417 63.2379 56.5417 69.2285C56.5417 75.2189 61.4154 80.0927 67.4059 80.0927C73.3963 80.0927 78.2701 75.2189 78.2701 69.2285C78.2701 63.2379 73.3963 58.3642 67.4059 58.3642ZM67.4059 77.6317C62.7725 77.6317 59.0027 73.8621 59.0027 69.2285C59.0027 64.5949 62.7723 60.8251 67.4059 60.8251C72.0395 60.8251 75.8091 64.5947 75.8091 69.2285C75.8091 73.8621 72.0393 77.6317 67.4059 77.6317ZM46.9195 74.9428C46.9195 75.6224 46.3686 76.1733 45.689 76.1733H10.1633C9.48369 76.1733 8.93279 75.6224 8.93279 74.9428C8.93279 74.2632 9.48369 73.7123 10.1633 73.7123H45.689C46.3686 73.7123 46.9195 74.2632 46.9195 74.9428ZM46.9195 80.0276C46.9195 80.7072 46.3686 81.2581 45.689 81.2581H4.63477C3.9552 81.2581 3.4043 80.7072 3.4043 80.0276C3.4043 79.348 3.9552 78.7971 4.63477 78.7971H45.689C46.3686 78.7971 46.9195 79.348 46.9195 80.0276Z" fill="#F47805"/>
</svg>
