<svg width="86" height="86" viewBox="0 0 86 86" fill="none" xmlns="http://www.w3.org/2000/svg">
<path d="M25.0703 60.3021L19.2479 55.3961C14.8985 51.7419 11.4025 47.1792 9.00571 42.0289C6.60896 36.8786 5.36967 31.2657 5.37501 25.585V16.1008C8.50642 15.985 11.6106 15.473 14.6133 14.577C14.9549 14.4745 15.2418 14.2406 15.4109 13.9266C15.58 13.6126 15.6174 13.2443 15.5149 12.9027C15.4125 12.5611 15.1785 12.2742 14.8645 12.1051C14.5505 11.936 14.1822 11.8986 13.8406 12.001C10.6575 12.9516 7.3533 13.4354 4.03126 13.4375C3.67487 13.4375 3.33308 13.5791 3.08108 13.8311C2.82908 14.0831 2.6875 14.4249 2.6875 14.7812V25.585C2.6828 35.191 6.00677 44.5019 12.0938 51.9332V67.4347C11.1972 67.7517 10.4415 68.3755 9.96037 69.1957C9.47921 70.0159 9.3035 70.9799 9.46431 71.9171C9.62512 72.8544 10.1121 73.7046 10.8392 74.3176C11.5662 74.9305 12.4866 75.2667 13.4375 75.2667C14.3885 75.2667 15.3088 74.9305 16.0359 74.3176C16.7629 73.7046 17.2499 72.8544 17.4107 71.9171C17.5715 70.9799 17.3958 70.0159 16.9146 69.1957C16.4335 68.3755 15.6778 67.7517 14.7813 67.4347V54.9123C15.6547 55.7925 16.559 56.6458 17.5171 57.452L23.3383 62.3567C23.6113 62.5811 23.9618 62.6889 24.3138 62.6566C24.6658 62.6244 24.9909 62.4548 25.2187 62.1846C25.4465 61.9144 25.5587 61.5653 25.5309 61.2129C25.5032 60.8606 25.3377 60.5333 25.0703 60.3021ZM13.4375 72.5625C13.1717 72.5625 12.9119 72.4837 12.691 72.336C12.47 72.1884 12.2977 71.9785 12.196 71.733C12.0943 71.4874 12.0677 71.2173 12.1196 70.9566C12.1714 70.6959 12.2994 70.4565 12.4873 70.2686C12.6753 70.0806 12.9147 69.9527 13.1754 69.9008C13.436 69.849 13.7062 69.8756 13.9517 69.9773C14.1973 70.079 14.4071 70.2512 14.5548 70.4722C14.7024 70.6932 14.7813 70.953 14.7813 71.2188C14.7813 71.5751 14.6397 71.9169 14.3877 72.1689C14.1357 72.4209 13.7939 72.5625 13.4375 72.5625Z" fill="#F47805"/>
<path d="M29.5625 13.4375C30.3046 13.4375 30.9062 12.8359 30.9062 12.0938C30.9062 11.3516 30.3046 10.75 29.5625 10.75C28.8204 10.75 28.2188 11.3516 28.2188 12.0938C28.2188 12.8359 28.8204 13.4375 29.5625 13.4375Z" fill="#F47805"/>
<path d="M9.40625 21.5C10.1484 21.5 10.75 20.8984 10.75 20.1562C10.75 19.4141 10.1484 18.8125 9.40625 18.8125C8.66412 18.8125 8.0625 19.4141 8.0625 20.1562C8.0625 20.8984 8.66412 21.5 9.40625 21.5Z" fill="#F47805"/>
<path d="M49.7188 21.5C50.4609 21.5 51.0625 20.8984 51.0625 20.1562C51.0625 19.4141 50.4609 18.8125 49.7188 18.8125C48.9766 18.8125 48.375 19.4141 48.375 20.1562C48.375 20.8984 48.9766 21.5 49.7188 21.5Z" fill="#F47805"/>
<path d="M73.9063 56.4375C74.2627 56.4375 74.6045 56.2959 74.8565 56.0439C75.1085 55.7919 75.25 55.4501 75.25 55.0938V51.0625H79.2813C79.6377 51.0625 79.9795 50.9209 80.2315 50.6689C80.4835 50.4169 80.625 50.0751 80.625 49.7188V34.6903C81.5216 34.3733 82.2773 33.7495 82.7584 32.9293C83.2396 32.1091 83.4153 31.1451 83.2545 30.2079C83.0937 29.2706 82.6067 28.4204 81.8796 27.8074C81.1526 27.1945 80.2322 26.8583 79.2813 26.8583C78.3303 26.8583 77.41 27.1945 76.6829 27.8074C75.9559 28.4204 75.4689 29.2706 75.3081 30.2079C75.1473 31.1451 75.323 32.1091 75.8042 32.9293C76.2853 33.7495 77.041 34.3733 77.9375 34.6903V48.375H75.25V44.3438C75.25 43.9874 75.1085 43.6456 74.8565 43.3936C74.6045 43.1416 74.2627 43 73.9063 43H68.7181C68.4842 42.3296 68.215 41.6721 67.9118 41.0301L71.5749 37.367C71.8268 37.115 71.9683 36.7733 71.9683 36.417C71.9683 36.0607 71.8268 35.7189 71.5749 35.4669L68.5044 32.3951C68.5161 32.3473 68.525 32.2988 68.5313 32.25V8.06251H75.4973C75.8143 8.95908 76.438 9.71472 77.2582 10.1959C78.0785 10.6771 79.0424 10.8528 79.9797 10.692C80.9169 10.5311 81.7672 10.0442 82.3801 9.31711C82.9931 8.59005 83.3292 7.66971 83.3292 6.71876C83.3292 5.7678 82.9931 4.84746 82.3801 4.1204C81.7672 3.39334 80.9169 2.90637 79.9797 2.74556C79.0424 2.58476 78.0785 2.76046 77.2582 3.24163C76.438 3.72279 75.8143 4.47844 75.4973 5.37501H67.1875C66.8312 5.37501 66.4894 5.51658 66.2374 5.76858C65.9854 6.02059 65.8438 6.36237 65.8438 6.71876V29.7372L63.9706 27.8654C63.7186 27.6134 63.3769 27.4719 63.0206 27.4719C62.6642 27.4719 62.3225 27.6134 62.0705 27.8654L58.4061 31.5284C57.7647 31.225 57.1076 30.9558 56.4375 30.7222V14.7813C56.4375 14.4249 56.296 14.0831 56.044 13.8311C55.792 13.5791 55.4502 13.4375 55.0938 13.4375C45.9899 13.4113 37.2636 9.79627 30.8082 3.37685L30.5126 3.08123C30.2606 2.82931 29.9188 2.6878 29.5625 2.6878C29.2062 2.6878 28.8645 2.82931 28.6125 3.08123L28.3169 3.37685C25.5208 6.17841 22.2594 8.47314 18.6782 10.1588C18.515 10.2317 18.3679 10.3364 18.2457 10.4668C18.1235 10.5972 18.0285 10.7507 17.9663 10.9183C17.9042 11.0858 17.876 11.2641 17.8836 11.4427C17.8912 11.6213 17.9343 11.7965 18.0105 11.9582C18.0867 12.1199 18.1943 12.2648 18.3272 12.3844C18.46 12.504 18.6154 12.5959 18.7841 12.6547C18.9529 12.7134 19.1318 12.738 19.3101 12.7268C19.4885 12.7156 19.6629 12.669 19.823 12.5896C23.4078 10.9027 26.6967 8.648 29.5625 5.91251C36.1265 12.123 44.7206 15.7416 53.75 16.0968V24.1875H44.3438C43.9874 24.1875 43.6456 24.3291 43.3936 24.5811C43.1416 24.8331 43 25.1749 43 25.5313V30.7195C42.33 30.9532 41.6729 31.2223 41.0314 31.5257L39.7562 30.2505C39.2523 28.7134 38.4077 27.3099 37.2853 26.145C36.163 24.9801 34.7919 24.0838 33.2746 23.5231C31.7572 22.9624 30.1328 22.7517 28.5226 22.9069C26.9124 23.0621 25.3581 23.579 23.9758 24.4191C22.5934 25.2592 21.4187 26.4008 20.5395 27.7586C19.6602 29.1164 19.099 30.6553 18.8979 32.2604C18.6968 33.8655 18.861 35.4953 19.3781 37.028C19.8952 38.5607 20.752 39.9568 21.8843 41.112C22.0072 41.241 22.1544 41.3442 22.3175 41.4157C22.4806 41.4872 22.6563 41.5256 22.8343 41.5287C23.0124 41.5317 23.1893 41.4993 23.3547 41.4334C23.5201 41.3675 23.6708 41.2693 23.7979 41.1447C23.9251 41.02 24.0262 40.8713 24.0954 40.7072C24.1646 40.5431 24.2005 40.3669 24.201 40.1888C24.2015 40.0107 24.1665 39.8343 24.0983 39.6699C24.03 39.5054 23.9297 39.3562 23.8032 39.2308C22.3141 37.7026 21.493 35.6455 21.5206 33.5119C21.5482 31.3783 22.4222 29.3431 23.9504 27.8539C25.4785 26.3648 27.5357 25.5437 29.6693 25.5713C31.8028 25.5989 33.8381 26.4729 35.3272 28.0011L27.8654 35.4629C27.6135 35.7149 27.4719 36.0566 27.4719 36.4129C27.4719 36.7693 27.6135 37.111 27.8654 37.363L31.5284 41.026C31.2252 41.668 30.9561 42.3256 30.7222 42.996H25.5313C25.1749 42.996 24.8331 43.1376 24.5811 43.3896C24.3291 43.6416 24.1875 43.9833 24.1875 44.3397V52.5366L22.7013 51.2842C19.1031 48.2584 16.1814 44.5096 14.1262 40.2812C12.0709 36.0528 10.9279 31.4394 10.7715 26.7406C12.2842 26.4247 13.6421 25.5977 14.617 24.3987C15.5918 23.1996 16.1244 21.7016 16.125 20.1563C16.125 20.0219 16.125 19.8875 16.1103 19.7531C18.9762 18.9061 21.7428 17.7533 24.3622 16.3145C24.9866 17.0937 25.7781 17.7227 26.6782 18.1549C27.5783 18.5871 28.564 18.8115 29.5625 18.8115C30.561 18.8115 31.5468 18.5871 32.4469 18.1549C33.347 17.7227 34.1385 17.0937 34.7628 16.3145C37.3823 17.7533 40.1488 18.9061 43.0148 19.7531C43 19.8875 43 20.0219 43 20.1563C43 20.5126 43.1416 20.8544 43.3936 21.1064C43.6456 21.3584 43.9874 21.5 44.3438 21.5C44.7002 21.5 45.042 21.3584 45.294 21.1064C45.546 20.8544 45.6875 20.5126 45.6875 20.1563C45.6937 19.8118 45.7457 19.4698 45.8421 19.139C45.8887 18.9678 45.901 18.789 45.8781 18.6129C45.8552 18.4369 45.7977 18.2671 45.7089 18.1135C45.6201 17.9598 45.5017 17.8252 45.3605 17.7176C45.2194 17.6099 45.0583 17.5313 44.8867 17.4862C41.4222 16.5734 38.1001 15.1875 35.0141 13.3676C34.8567 13.2739 34.6817 13.2133 34.5 13.1897C34.3183 13.166 34.1336 13.1798 33.9574 13.2301C33.7812 13.2805 33.6172 13.3663 33.4754 13.4824C33.3336 13.5985 33.217 13.7423 33.1329 13.9051C32.802 14.5705 32.292 15.1302 31.6603 15.5216C31.0286 15.9129 30.3002 16.1202 29.5572 16.1202C28.8141 16.1202 28.0857 15.9129 27.4541 15.5216C26.8224 15.1302 26.3124 14.5705 25.9814 13.9051C25.8973 13.7423 25.7807 13.5985 25.6389 13.4824C25.4971 13.3663 25.3331 13.2805 25.1569 13.2301C24.9807 13.1798 24.7961 13.166 24.6143 13.1897C24.4326 13.2133 24.2576 13.2739 24.1002 13.3676C21.0192 15.1862 17.7026 16.572 14.2438 17.4862C14.0721 17.5313 13.911 17.6099 13.7699 17.7176C13.6288 17.8252 13.5104 17.9598 13.4215 18.1135C13.3327 18.2671 13.2752 18.4369 13.2523 18.6129C13.2295 18.789 13.2417 18.9678 13.2884 19.139C13.3829 19.47 13.4331 19.8121 13.4375 20.1563C13.4375 21.2254 13.0128 22.2508 12.2568 23.0068C11.5008 23.7628 10.4754 24.1875 9.40629 24.1875C9.04447 24.1997 8.70169 24.3526 8.45078 24.6135C8.19986 24.8745 8.06058 25.223 8.06254 25.585C8.05514 30.8744 9.2069 36.1011 11.4368 40.8975C13.6666 45.6938 16.9204 49.9433 20.9693 53.3469L24.1284 56.0075C24.368 56.2086 24.6702 56.3198 24.983 56.3219C25.1556 56.3988 25.3424 56.4382 25.5313 56.4375H30.7195C30.9532 57.1075 31.2223 57.7647 31.5258 58.4061L27.8627 62.0705C27.6108 62.3225 27.4693 62.6642 27.4693 63.0205C27.4693 63.3769 27.6108 63.7186 27.8627 63.9706L35.4643 71.5722C35.7163 71.8241 36.058 71.9656 36.4143 71.9656C36.7706 71.9656 37.1124 71.8241 37.3643 71.5722L41.0288 67.9091C41.6702 68.2125 42.3273 68.4817 42.9973 68.7154V73.9063C42.9973 74.2626 43.1389 74.6044 43.3909 74.8564C43.6429 75.1084 43.9847 75.25 44.3411 75.25H55.0911C55.4475 75.25 55.7893 75.1084 56.0413 74.8564C56.2933 74.6044 56.4348 74.2626 56.4348 73.9063V70.43C56.4348 70.0736 56.2933 69.7318 56.0413 69.4798C55.7893 69.2278 55.4475 69.0862 55.0911 69.0862C54.7347 69.0862 54.3929 69.2278 54.1409 69.4798C53.8889 69.7318 53.7473 70.0736 53.7473 70.43V72.5625H45.6875V67.7425C45.6877 67.4528 45.5942 67.1709 45.4211 66.9387C45.2479 66.7064 45.0044 66.5364 44.7268 66.4538C43.5769 66.1139 42.4651 65.6564 41.409 65.0886C41.1545 64.9508 40.8623 64.8988 40.5759 64.9405C40.2894 64.9821 40.0241 65.1151 39.8194 65.3197L36.4157 68.7221L30.7155 63.0219L34.1178 59.6195C34.3227 59.4149 34.4559 59.1497 34.4978 58.8633C34.5397 58.5768 34.488 58.2845 34.3503 58.0299C33.7814 56.9741 33.3235 55.8623 32.9837 54.7121C32.9014 54.4342 32.7315 54.1904 32.4992 54.017C32.267 53.8436 31.9849 53.75 31.6951 53.75H26.875V45.6875H31.6951C31.9847 45.6876 32.2667 45.5942 32.4989 45.421C32.7311 45.2479 32.9012 45.0044 32.9837 44.7267C33.3235 43.5766 33.7814 42.4648 34.3503 41.409C34.488 41.1543 34.5397 40.862 34.4978 40.5756C34.4559 40.2892 34.3227 40.0239 34.1178 39.8194L30.7155 36.4156L36.4157 30.7154L39.818 34.1178C40.0226 34.3226 40.2879 34.4559 40.5743 34.4978C40.8607 34.5397 41.153 34.4879 41.4077 34.3503C42.4634 33.7814 43.5753 33.3234 44.7254 32.9837C45.0033 32.9014 45.2471 32.7314 45.4205 32.4992C45.5939 32.2669 45.6876 31.9849 45.6875 31.695V26.875H53.75V31.695C53.7499 31.9847 53.8434 32.2666 54.0165 32.4989C54.1896 32.7311 54.4332 32.9011 54.7108 32.9837C55.8609 33.3234 56.9728 33.7814 58.0285 34.3503C58.2832 34.4879 58.5755 34.5397 58.8619 34.4978C59.1484 34.4559 59.4136 34.3226 59.6182 34.1178L63.0219 30.7154L68.7221 36.4156L65.3197 39.8194C65.1151 40.0241 64.9821 40.2894 64.9405 40.5758C64.8988 40.8623 64.9508 41.1545 65.0886 41.409C65.6565 42.4651 66.114 43.5768 66.4538 44.7267C66.5364 45.0044 66.7065 45.2479 66.9387 45.421C67.1709 45.5942 67.4528 45.6876 67.7425 45.6875H72.5625V53.75H67.7425C67.4528 53.7499 67.1709 53.8433 66.9387 54.0165C66.7065 54.1896 66.5364 54.4331 66.4538 54.7108C66.2859 55.2765 66.0883 55.8301 65.8693 56.3676L63.0112 53.5095C63.5871 51.3678 63.6232 49.1168 63.1162 46.9578C62.6092 44.7987 61.575 42.799 60.106 41.1376C59.9889 41.0052 59.8469 40.8972 59.6881 40.8198C59.5292 40.7423 59.3567 40.6969 59.1804 40.6861C59.004 40.6753 58.8272 40.6993 58.6601 40.7569C58.493 40.8144 58.3389 40.9043 58.2066 41.0213C58.0742 41.1384 57.9662 41.2804 57.8888 41.4392C57.8113 41.5981 57.7659 41.7706 57.7551 41.947C57.7443 42.1233 57.7683 42.3001 57.8259 42.4672C57.8834 42.6343 57.9733 42.7884 58.0903 42.9207C59.9268 45.0151 60.8786 47.7406 60.7452 50.5229C60.6118 53.3053 59.4036 55.9272 57.3752 57.8363C55.3468 59.7453 52.6565 60.7925 49.8712 60.7572C47.0859 60.7219 44.4231 59.6068 42.4437 57.6469L39.5923 54.7968C38.4993 53.7004 37.8175 52.2609 37.6618 50.7206C37.5062 49.1803 37.8861 47.6335 38.7377 46.3406L45.2938 52.8967C46.3184 53.8731 47.6793 54.4177 49.0946 54.4177C50.5099 54.4177 51.8709 53.8731 52.8954 52.8967C53.3946 52.3976 53.7905 51.8051 54.0606 51.1529C54.3308 50.5008 54.4698 49.8018 54.4698 49.0959C54.4698 48.3901 54.3308 47.6911 54.0606 47.0389C53.7905 46.3868 53.3946 45.7943 52.8954 45.2951L46.3393 38.739C47.6322 37.8877 49.179 37.5079 50.7192 37.6635C52.2594 37.8192 53.699 38.5008 54.7955 39.5936C55.0489 39.8384 55.3883 39.9738 55.7407 39.9708C56.093 39.9677 56.43 39.8264 56.6792 39.5772C56.9283 39.3281 57.0696 38.9911 57.0727 38.6387C57.0758 38.2864 56.9403 37.947 56.6955 37.6935C54.9301 35.9319 52.538 34.9426 50.044 34.9426C47.55 34.9426 45.1578 35.9319 43.3924 37.6935C43.1405 37.9455 42.999 38.2873 42.999 38.6436C42.999 38.9999 43.1405 39.3416 43.3924 39.5936L50.994 47.1952C51.2437 47.4448 51.4417 47.7411 51.5769 48.0672C51.712 48.3934 51.7815 48.7429 51.7815 49.0959C51.7815 49.449 51.712 49.7985 51.5769 50.1246C51.4417 50.4508 51.2437 50.7471 50.994 50.9967C50.482 51.4857 49.8013 51.7585 49.0933 51.7585C48.3853 51.7585 47.7045 51.4857 47.1925 50.9967L39.5909 43.3951C39.339 43.1432 38.9972 43.0016 38.6409 43.0016C38.2846 43.0016 37.9429 43.1432 37.6909 43.3951C35.9293 45.1605 34.94 47.5526 34.94 50.0466C34.94 52.5406 35.9293 54.9328 37.6909 56.6982L40.5423 59.5483C42.2059 61.2207 44.2825 62.4231 46.5612 63.0332C48.8399 63.6433 51.2395 63.6394 53.5162 63.0219L71.8423 81.3506C73.1025 82.6108 74.8116 83.3188 76.5938 83.3188C78.3759 83.3188 80.0851 82.6108 81.3453 81.3506C82.6055 80.0905 83.3134 78.3813 83.3134 76.5991C83.3134 74.817 82.6055 73.1078 81.3453 71.8476L75.8547 66.353C75.6013 66.1083 75.2619 65.9728 74.9095 65.9759C74.5572 65.979 74.2202 66.1203 73.971 66.3694C73.7219 66.6186 73.5806 66.9556 73.5775 67.3079C73.5744 67.6602 73.7099 67.9997 73.9547 68.2531L79.4452 73.7423C80.2015 74.4986 80.6263 75.5243 80.6263 76.5938C80.6263 77.6633 80.2015 78.6889 79.4452 79.4452C78.689 80.2014 77.6633 80.6263 76.5938 80.6263C75.5243 80.6263 74.4986 80.2014 73.7423 79.4452L56.2588 61.9603C58.6985 60.6879 60.687 58.6948 61.9536 56.2521L70.1505 64.449C70.4039 64.6937 70.7434 64.8292 71.0957 64.8261C71.448 64.823 71.7851 64.6817 72.0342 64.4326C72.2833 64.1834 72.4247 63.8464 72.4277 63.4941C72.4308 63.1418 72.2953 62.8023 72.0506 62.5489L67.8957 58.394C68.2042 57.7568 68.4787 57.1037 68.7181 56.4375H73.9063ZM79.2813 29.5625C79.5471 29.5625 79.8069 29.6413 80.0278 29.789C80.2488 29.9366 80.421 30.1465 80.5227 30.392C80.6245 30.6376 80.6511 30.9077 80.5992 31.1684C80.5474 31.4291 80.4194 31.6685 80.2315 31.8564C80.0435 32.0444 79.8041 32.1723 79.5434 32.2242C79.2828 32.276 79.0126 32.2494 78.7671 32.1477C78.5215 32.046 78.3117 31.8738 78.164 31.6528C78.0163 31.4318 77.9375 31.172 77.9375 30.9063C77.9375 30.5499 78.0791 30.2081 78.3311 29.9561C78.5831 29.7041 78.9249 29.5625 79.2813 29.5625ZM79.2813 5.37501C79.5471 5.37501 79.8069 5.45382 80.0278 5.60147C80.2488 5.74912 80.421 5.95899 80.5227 6.20453C80.6245 6.45007 80.6511 6.72025 80.5992 6.98091C80.5474 7.24157 80.4194 7.48101 80.2315 7.66893C80.0435 7.85686 79.8041 7.98484 79.5434 8.03669C79.2828 8.08854 79.0126 8.06193 78.7671 7.96022C78.5215 7.85852 78.3117 7.68628 78.164 7.46531C78.0163 7.24433 77.9375 6.98453 77.9375 6.71876C77.9375 6.36237 78.0791 6.02059 78.3311 5.76858C78.5831 5.51658 78.9249 5.37501 79.2813 5.37501Z" fill="#F47805"/>
<path d="M32.25 77.9375C31.8936 77.9375 31.5518 78.0791 31.2998 78.3311C31.0478 78.5831 30.9062 78.9249 30.9062 79.2812V81.9688C30.9062 82.3251 31.0478 82.6669 31.2998 82.9189C31.5518 83.1709 31.8936 83.3125 32.25 83.3125C32.6064 83.3125 32.9482 83.1709 33.2002 82.9189C33.4522 82.6669 33.5938 82.3251 33.5938 81.9688V79.2812C33.5938 78.9249 33.4522 78.5831 33.2002 78.3311C32.9482 78.0791 32.6064 77.9375 32.25 77.9375Z" fill="#F47805"/>
<path d="M26.875 75.25C26.5186 75.25 26.1768 75.3916 25.9248 75.6436C25.6728 75.8956 25.5312 76.2374 25.5312 76.5938V81.9688C25.5312 82.3251 25.6728 82.6669 25.9248 82.9189C26.1768 83.1709 26.5186 83.3125 26.875 83.3125C27.2314 83.3125 27.5732 83.1709 27.8252 82.9189C28.0772 82.6669 28.2188 82.3251 28.2188 81.9688V76.5938C28.2188 76.2374 28.0772 75.8956 27.8252 75.6436C27.5732 75.3916 27.2314 75.25 26.875 75.25Z" fill="#F47805"/>
<path d="M21.5 72.5625C21.1436 72.5625 20.8018 72.7041 20.5498 72.9561C20.2978 73.2081 20.1562 73.5499 20.1562 73.9062V81.9688C20.1562 82.3251 20.2978 82.6669 20.5498 82.9189C20.8018 83.1709 21.1436 83.3125 21.5 83.3125C21.8564 83.3125 22.1982 83.1709 22.4502 82.9189C22.7022 82.6669 22.8438 82.3251 22.8438 81.9688V73.9062C22.8438 73.5499 22.7022 73.2081 22.4502 72.9561C22.1982 72.7041 21.8564 72.5625 21.5 72.5625Z" fill="#F47805"/>
<path d="M76.1182 77.4618C76.8603 77.4618 77.4619 76.8602 77.4619 76.118C77.4619 75.3759 76.8603 74.7743 76.1182 74.7743C75.376 74.7743 74.7744 75.3759 74.7744 76.118C74.7744 76.8602 75.376 77.4618 76.1182 77.4618Z" fill="#F47805"/>
</svg>
