<svg width="91" height="91" viewBox="0 0 91 91" fill="none" xmlns="http://www.w3.org/2000/svg">
<g clip-path="url(#clip0_160_3346)">
<path d="M65.2333 61.8516C63.2789 61.8516 61.4078 62.5778 59.9624 63.8969C56.7826 66.8045 56.5597 71.7575 59.4653 74.9366C60.942 76.5556 63.0463 77.4846 65.2368 77.4846C67.1891 77.4846 69.0601 76.7583 70.5042 75.4399C73.6861 72.5358 73.9117 67.5828 71.0076 64.3989C69.5302 62.7798 67.4258 61.8516 65.2333 61.8516ZM68.6936 73.4557C67.7452 74.3214 66.5177 74.7977 65.2368 74.7977C63.7996 74.7977 62.4194 74.1888 61.4495 73.1252C59.5423 71.0382 59.6881 67.7876 61.7744 65.8797C62.7228 65.0147 63.951 64.5377 65.2333 64.5377C66.6718 64.5377 68.0534 65.1466 69.0226 66.2095C70.9291 68.2993 70.7812 71.5499 68.6936 73.4557Z" fill="#F47805"/>
<path d="M83.2151 63.6733H82.2799C82.0661 63.0534 81.8168 62.4438 81.5343 61.8481L82.191 61.1913C83.49 59.8923 83.4914 57.7734 82.1917 56.4647L78.4322 52.7045C77.8011 52.0776 76.9632 51.7318 76.071 51.7318C75.1775 51.7318 74.3388 52.0783 73.7098 52.7073L73.053 53.3641C72.4608 53.0836 71.8519 52.8343 71.2298 52.6177V51.6832C71.2298 50.4273 70.5335 49.3324 69.5087 48.761L69.5136 33.6786C69.5136 32.9371 68.9123 32.3359 68.1709 32.3352C68.1702 32.3352 68.1702 32.3352 68.1702 32.3352C67.4287 32.3352 66.8267 32.9364 66.8267 33.6779L66.8226 48.341H63.363V11.736C63.363 9.93299 61.896 8.46529 60.093 8.46529H50.6564V5.09181H64.4398C65.7534 5.09181 66.8219 6.15891 66.8219 7.4697V27.4023C66.8219 28.1445 67.4231 28.7458 68.1646 28.7458C68.9068 28.7458 69.508 28.1445 69.508 27.4023V7.4697C69.508 4.67733 67.2343 2.40566 64.4398 2.40566H50.403C49.8621 1.00114 48.502 0 46.9087 0H26.8601C25.2667 0 23.9067 1.00114 23.3651 2.40566H9.32828C6.5366 2.40566 4.26562 4.67733 4.26562 7.4697V80.0506C4.26562 82.843 6.5366 85.1153 9.32828 85.1153H50.5245L52.0373 86.6282C52.6663 87.2572 53.5043 87.6043 54.3985 87.6043C55.2907 87.6043 56.1287 87.2586 56.7632 86.6282L57.6998 85.6909C58.199 85.929 58.7127 86.1449 59.2383 86.3366V87.6578C59.2383 89.5004 60.7373 91 62.5806 91H67.8931C69.733 91 71.2298 89.5004 71.2298 87.6578V86.4386C71.7811 86.2477 72.3261 86.0269 72.8614 85.7797L73.7098 86.6282C74.3388 87.2572 75.1775 87.6036 76.071 87.6036C76.9632 87.6036 77.8011 87.2586 78.4357 86.6282L82.1917 82.8707C83.49 81.5717 83.4914 79.4535 82.1903 78.1427L81.4412 77.3971C81.7162 76.834 81.9619 76.2564 82.1772 75.6676H83.2151C85.0577 75.6676 86.5566 74.168 86.5566 72.3247V67.0107C86.5566 65.1702 85.0577 63.6733 83.2151 63.6733ZM26.8601 2.68615H46.9087C47.494 2.68615 47.9702 3.16312 47.9702 3.74908V10.1684C47.9702 10.7439 47.4842 11.2306 46.9087 11.2306H26.8601C26.2846 11.2306 25.7986 10.7446 25.7986 10.1684V3.74908C25.7986 3.16312 26.2748 2.68615 26.8601 2.68615ZM6.95177 80.0506V7.4697C6.95177 6.15891 8.01818 5.09181 9.32828 5.09181H23.1117V8.46529H13.6751C11.8721 8.46529 10.4058 9.93299 10.4058 11.736V47.3919C10.4058 48.1334 11.007 48.7346 11.7485 48.7346C12.4907 48.7346 13.0919 48.1334 13.0919 47.3919V11.736C13.0919 11.4194 13.3592 11.1514 13.6751 11.1514H23.2471C23.681 12.7427 25.1341 13.9167 26.8594 13.9167H46.9087C48.6347 13.9167 50.0878 12.7427 50.521 11.1514H60.093C60.4151 11.1514 60.6768 11.4139 60.6768 11.736V48.9394C59.8083 49.5435 59.2383 50.5474 59.2383 51.6832V52.7198C58.6537 52.9329 58.0761 53.1794 57.5096 53.4571L56.7598 52.7045C56.1287 52.0776 55.29 51.7318 54.3978 51.7318C53.5043 51.7318 52.6656 52.0783 52.0366 52.7073L48.2778 56.4682C47.3843 57.3679 47.1079 58.6544 47.4474 59.7923H37.7526C37.0104 59.7923 36.4092 60.3936 36.4092 61.1358C36.4092 61.8773 37.0104 62.4792 37.7526 62.4792H48.9346C48.7659 62.8728 48.611 63.2714 48.4715 63.6733H47.253C46.0874 63.6733 45.0605 64.2732 44.4628 65.1792H37.7526C37.0104 65.1792 36.4092 65.7805 36.4092 66.5226C36.4092 67.2641 37.0104 67.8661 37.7526 67.8661H43.9108V72.3254C43.9108 74.1687 45.4104 75.6676 47.253 75.6676H48.5729C48.659 75.9044 48.752 76.1377 48.8478 76.3689H13.6751C13.3592 76.3689 13.0919 76.1016 13.0919 75.785L13.1024 53.673C13.1024 52.9315 12.5018 52.3296 11.7596 52.3296H11.7589C11.0174 52.3296 10.4162 52.9301 10.4155 53.6716L10.4058 75.7843C10.4058 77.588 11.8721 79.055 13.6751 79.055H47.6404C47.1225 80.1332 47.2135 81.4315 47.914 82.4285H9.32828C8.01818 82.4285 6.95177 81.3621 6.95177 80.0506ZM83.8705 72.3254C83.8705 72.6809 83.5706 72.9815 83.2151 72.9815H81.2107C80.6199 72.9815 80.0978 73.3682 79.9256 73.934C79.6035 74.9977 79.164 76.0266 78.6218 76.993C78.3267 77.5179 78.4184 78.176 78.8446 78.6009L80.2887 80.0409C80.5456 80.2991 80.547 80.7171 80.2922 80.9719L76.5389 84.7258C76.3716 84.8932 76.1738 84.9175 76.071 84.9175C75.9696 84.9175 75.7739 84.8932 75.61 84.7293L74.0791 83.1977C73.6612 82.7791 73.019 82.684 72.4976 82.9617C71.5416 83.4713 70.5418 83.874 69.524 84.1593C68.9443 84.3218 68.5437 84.8508 68.5437 85.4527V87.6578C68.5437 88.0132 68.2458 88.3139 67.8931 88.3139H62.5806C62.2251 88.3139 61.9245 88.0132 61.9245 87.6578V85.3708C61.9245 84.7793 61.5378 84.2572 60.9719 84.0857C59.959 83.7775 58.9898 83.3699 58.0914 82.8735C57.8873 82.761 57.6644 82.7062 57.4422 82.7062C57.0944 82.7062 56.7507 82.8416 56.4925 83.0998L54.8665 84.7265C54.6991 84.8932 54.5013 84.9182 54.3985 84.9182C54.2965 84.9182 54.1014 84.8939 53.9375 84.7293L50.1815 80.9726C49.926 80.7171 49.9274 80.2998 50.1808 80.0443L51.5617 78.6627C51.5624 78.662 51.5631 78.6613 51.5638 78.6607L51.8096 78.4149C52.2331 77.9921 52.3247 77.3401 52.0359 76.8167C51.5402 75.9176 51.1327 74.9484 50.8251 73.9347C50.6529 73.3689 50.1315 72.9815 49.5393 72.9815H47.253C46.8976 72.9815 46.597 72.6816 46.597 72.3254V67.0107C46.597 66.658 46.8976 66.3595 47.253 66.3595H49.4574C50.0593 66.3595 50.5876 65.9589 50.7501 65.3792C51.0355 64.3621 51.4388 63.3609 51.9477 62.4042C52.2254 61.8828 52.1296 61.2413 51.7117 60.8233L50.1808 59.2918C49.9302 59.0411 49.9316 58.6149 50.1808 58.3642L53.9368 54.6068C54.1007 54.443 54.2965 54.418 54.3985 54.418C54.5013 54.418 54.6984 54.443 54.8616 54.6047L56.3057 56.0544C56.7313 56.4813 57.3888 56.5737 57.915 56.2779C58.8981 55.7253 59.9249 55.2872 60.9671 54.9748C61.5357 54.8047 61.9245 54.2812 61.9245 53.6883V51.6832C61.9245 51.3277 62.2251 51.0271 62.5806 51.0271H67.8931C68.2451 51.0271 68.543 51.3277 68.543 51.6832V53.6008C68.543 54.2 68.9401 54.7269 69.5164 54.8922C70.6168 55.2067 71.6776 55.6413 72.6704 56.1828C73.1932 56.4682 73.8424 56.3751 74.2638 55.9537L75.61 54.6068C75.7739 54.443 75.9689 54.4187 76.071 54.4187C76.1738 54.4187 76.3716 54.443 76.5362 54.6068L80.2887 58.3614C80.5456 58.6197 80.547 59.037 80.2922 59.2918L78.946 60.6387C78.5246 61.0601 78.4315 61.7078 78.7169 62.2313C79.2633 63.2339 79.6951 64.2933 79.9999 65.3799C80.1631 65.9589 80.6914 66.3595 81.2933 66.3595H83.2151C83.5706 66.3595 83.8705 66.658 83.8705 67.0107V72.3254Z" fill="#F47805"/>
<path d="M20.4992 34.3326H28.3501C30.1559 34.3326 31.625 32.8635 31.625 31.057V23.2034C31.625 22.7542 31.534 22.3258 31.3695 21.9356L33.8397 18.9134C34.309 18.3386 34.2236 17.493 33.6495 17.0229C33.0753 16.5543 32.229 16.639 31.7597 17.2132L29.3984 20.1027C29.0687 19.991 28.7167 19.9271 28.3501 19.9271H20.4992C18.6927 19.9271 17.2236 21.3969 17.2236 23.2034V31.057C17.2236 32.8635 18.6934 34.3326 20.4992 34.3326ZM19.9098 23.2034C19.9098 22.884 20.1799 22.6139 20.4992 22.6139H27.3462L24.4573 26.1485L23.2354 24.9925C22.6966 24.4829 21.8461 24.5065 21.3365 25.0453C20.8269 25.584 20.8505 26.4345 21.3893 26.9441L23.6603 29.0929C23.9109 29.3296 24.2414 29.4602 24.5836 29.4602C24.6121 29.4602 24.6406 29.4588 24.6697 29.4574C25.0419 29.4331 25.3876 29.2554 25.6237 28.9665L28.9381 24.9099V31.057C28.9381 31.3764 28.6688 31.6464 28.3494 31.6464H20.4985C20.1792 31.6464 19.9098 31.3764 19.9098 31.057V23.2034Z" fill="#F47805"/>
<path d="M20.2729 52.2505H28.1238C29.9296 52.2505 31.3994 50.7814 31.3994 48.9749V41.1206C31.3994 40.6721 31.3077 40.2437 31.1439 39.8535L33.6134 36.8313C34.0835 36.2565 33.9981 35.4101 33.4239 34.9408C32.849 34.4715 32.0034 34.5569 31.5341 35.1311L29.1729 38.0206C28.8431 37.9081 28.4911 37.845 28.1245 37.845H20.2729C18.4671 37.845 16.998 39.3148 16.998 41.1213V48.9749C16.998 50.7814 18.4671 52.2505 20.2729 52.2505ZM19.6842 41.1206C19.6842 40.8012 19.9543 40.5318 20.2729 40.5318H27.1206L24.2324 44.065L23.0153 42.9111C22.4773 42.4008 21.6275 42.4237 21.1172 42.9618C20.6062 43.4998 20.6291 44.3503 21.1672 44.8606L23.4333 47.0094C23.6839 47.2468 24.0144 47.3781 24.3574 47.3781C24.3858 47.3781 24.4143 47.3767 24.4428 47.3753C24.8149 47.3517 25.1613 47.1739 25.3974 46.8844L28.7125 42.8278V48.9749C28.7125 49.2943 28.4425 49.5643 28.1238 49.5643H20.2722C19.9536 49.5643 19.6835 49.2943 19.6835 48.9749V41.1206H19.6842Z" fill="#F47805"/>
<path d="M20.2729 70.8008H28.1238C29.9296 70.8008 31.3994 69.331 31.3994 67.5245V59.6709C31.3994 59.2217 31.3077 58.7933 31.1439 58.4031L33.6134 55.381C34.0835 54.8068 33.9981 53.9605 33.4239 53.4911C32.849 53.0218 32.0034 53.1065 31.5341 53.6807L29.1729 56.5703C28.8431 56.4585 28.4911 56.3953 28.1245 56.3953H20.2729C18.4671 56.3953 16.998 57.8644 16.998 59.6709V67.5245C16.998 69.331 18.4671 70.8008 20.2729 70.8008ZM19.6842 59.6709C19.6842 59.3515 19.9543 59.0814 20.2729 59.0814H27.1206L24.2324 62.6153L23.0153 61.4614C22.4773 60.9511 21.6275 60.9733 21.1172 61.5121C20.6062 62.0502 20.6291 62.9007 21.1672 63.4109L23.4333 65.559C23.6839 65.7965 24.0144 65.9277 24.3574 65.9277C24.3858 65.9277 24.4143 65.927 24.4428 65.9249C24.8149 65.9013 25.1613 65.7236 25.3974 65.4348L28.7125 61.3781V67.5245C28.7125 67.8439 28.4425 68.114 28.1238 68.114H20.2722C19.9536 68.114 19.6835 67.8439 19.6835 67.5245V59.6709H19.6842Z" fill="#F47805"/>
<path d="M37.3932 25.7957H55.4284C56.1699 25.7957 56.7711 25.1945 56.7711 24.4523C56.7711 23.7101 56.1699 23.1089 55.4284 23.1089H37.3932C36.6517 23.1089 36.0498 23.7101 36.0498 24.4523C36.0498 25.1938 36.6517 25.7957 37.3932 25.7957Z" fill="#F47805"/>
<path d="M37.3932 31.182H55.4284C56.1699 31.182 56.7711 30.5808 56.7711 29.8393C56.7711 29.0971 56.1699 28.4958 55.4284 28.4958H37.3932C36.6517 28.4958 36.0498 29.0971 36.0498 29.8393C36.0498 30.5808 36.6517 31.182 37.3932 31.182Z" fill="#F47805"/>
<path d="M55.4282 41.7773H38.1178C37.3757 41.7773 36.7744 42.3786 36.7744 43.1201C36.7744 43.8623 37.3757 44.4635 38.1178 44.4635H55.4282C56.1697 44.4635 56.7709 43.8623 56.7709 43.1201C56.7709 42.3786 56.1697 41.7773 55.4282 41.7773Z" fill="#F47805"/>
<path d="M55.4282 47.1635H38.1178C37.3757 47.1635 36.7744 47.7647 36.7744 48.5069C36.7744 49.2491 37.3757 49.8503 38.1178 49.8503H55.4282C56.1697 49.8503 56.7709 49.2491 56.7709 48.5069C56.7709 47.7647 56.1697 47.1635 55.4282 47.1635Z" fill="#F47805"/>
</g>
<defs>
<clipPath id="clip0_160_3346">
<rect width="91" height="91" fill="white"/>
</clipPath>
</defs>
</svg>
