<svg width="376" height="772" viewBox="0 0 376 772" fill="none" xmlns="http://www.w3.org/2000/svg">
<path d="M-21.5272 7.34358C-80.3272 -19.4564 -196.694 33.5102 -247.527 63.3436C-284.861 212.344 -337.127 540.444 -247.527 660.844C-135.527 811.344 20.9728 773.344 119.973 745.344C218.973 717.344 192.473 594.344 192.473 561.844C192.473 529.344 319.473 442.344 351.973 418.844C384.473 395.344 379.973 321.344 360.473 262.344C340.973 203.344 223.473 207.844 192.473 157.844C161.473 107.844 110.973 104.344 82.9728 89.8436C54.9728 75.3436 51.9728 40.8436 -21.5272 7.34358Z" fill="url(#paint0_linear_160_1272)"/>
<defs>
<linearGradient id="paint0_linear_160_1272" x1="-178.5" y1="-68.5" x2="694" y2="496.5" gradientUnits="userSpaceOnUse">
<stop stop-color="#4DFFD4"/>
<stop offset="1" stop-color="#D9D9D9" stop-opacity="0"/>
</linearGradient>
</defs>
</svg>
