<svg width="60" height="61" viewBox="0 0 60 61" fill="none" xmlns="http://www.w3.org/2000/svg">
<g clip-path="url(#clip0_604_2)">
<path d="M55.4212 52.9107C56.3982 51.8245 57.0003 50.3839 57.0003 48.8004C57.0003 45.7837 54.8333 43.2788 52.0003 42.7918V34.5672C52.0003 34.2967 51.8953 34.0385 51.7074 33.8484L47.681 29.755C47.8632 29.4035 48.056 29.0575 48.2162 28.6976C48.3934 28.3015 48.3012 27.8339 47.9882 27.537L46.1254 25.7619C46.3305 25.1314 46.4994 24.489 46.6313 23.8383L49.1322 23.2445C49.5492 23.1458 49.8583 22.7878 49.9003 22.355C49.9662 21.6689 50.0004 20.9893 50.0004 20.3341C50.0004 19.6783 49.9662 18.9992 49.8993 18.3127C49.8573 17.8798 49.5482 17.5219 49.1312 17.4231L46.6303 16.8294C46.4984 16.1786 46.3295 15.5372 46.1244 14.9058L47.9872 13.1306C48.2992 12.8338 48.3915 12.3661 48.2152 11.97C47.6713 10.7488 47.0014 9.57134 46.2221 8.47278C45.9721 8.11884 45.5321 7.96544 45.1191 8.09352L42.6953 8.84261C42.2583 8.34421 41.7934 7.86964 41.3012 7.42535L42.0395 4.96115C42.1635 4.54516 42.0141 4.09392 41.6665 3.83975C40.5864 3.04847 39.4282 2.3664 38.2256 1.8134C37.8355 1.63667 37.3765 1.72702 37.0835 2.04522L35.3374 3.94053C34.7183 3.73203 34.0855 3.55928 33.4454 3.42475L32.8614 0.882126C32.7642 0.458189 32.4127 0.14396 31.9864 0.101268C30.6363 -0.0337561 29.3595 -0.0337561 28.0094 0.101268C27.5836 0.14396 27.2316 0.458189 27.1344 0.882126L26.5504 3.42475C25.9103 3.55928 25.2795 3.73104 24.6584 3.93904L22.9128 2.04522C22.6193 1.72801 22.1628 1.63767 21.7707 1.8134C20.5696 2.3664 19.4114 3.04748 18.3308 3.83975C17.9827 4.09392 17.8338 4.54416 17.9578 4.96115L18.6946 7.42535C18.2039 7.87063 17.7366 8.34321 17.3006 8.84161L14.8807 8.09253C14.4735 7.96544 14.0277 8.11884 13.7777 8.47129C12.9998 9.56935 12.3289 10.7468 11.7845 11.97C11.6078 12.3661 11.6996 12.8338 12.0125 13.1306L13.8768 14.9058C13.6717 15.5352 13.5018 16.1786 13.3695 16.8294L10.8685 17.4231C10.4515 17.5219 10.1429 17.8798 10.1009 18.3127C10.0345 18.9992 10.0009 19.6783 10.0009 20.3341C10.0009 20.9893 10.0345 21.6689 10.1019 22.355C10.1439 22.7878 10.4525 23.1458 10.8695 23.2445L13.3709 23.8383C13.5028 24.489 13.6717 25.1304 13.8768 25.7619L12.0135 27.537C11.7015 27.8339 11.6097 28.3015 11.7855 28.6976C11.9457 29.0575 12.1385 29.4045 12.3206 29.755L8.29482 33.8484C8.10586 34.0385 8.00088 34.2967 8.00088 34.5672V42.7918C5.1679 43.2788 3.00094 45.7837 3.00094 48.8004C3.00094 50.3839 3.60298 51.8245 4.58002 52.9107C2.02292 53.1331 0.000976562 55.2964 0.000976562 57.9542V59.9836C0.000976562 60.5455 0.447748 61.0002 1.00096 61.0002H17.0008C17.5535 61.0002 18.0008 60.5455 18.0008 59.9836V57.9542C18.0008 55.2974 15.9788 53.1341 13.4217 52.9107C14.3987 51.8245 15.0008 50.3839 15.0008 48.8004C15.0008 45.7837 12.8338 43.2788 10.0009 42.7918V34.9877L13.3729 31.56C13.5106 31.7699 13.6326 31.9908 13.7777 32.1954C14.0277 32.5478 14.4676 32.7012 14.8807 32.5741L17.3045 31.825C17.7415 32.3234 18.2068 32.798 18.6985 33.2423L17.9607 35.7065C17.8367 36.1225 17.9856 36.5737 18.3338 36.8279C19.4138 37.6192 20.5715 38.3012 21.7746 38.8542C22.1667 39.032 22.6237 38.9416 22.9167 38.6224L24.6628 36.7276C25.2814 36.9356 25.9147 37.1089 26.5544 37.2429L27.1383 39.7855C27.2355 40.2095 27.5875 40.5237 28.0133 40.5664C28.3483 40.5996 28.6715 40.5996 29.0016 40.617V42.7938C26.1686 43.2798 24.0017 45.7847 24.0017 48.8024C24.0017 50.3859 24.6037 51.8265 25.5807 52.9127C23.0227 53.1331 21.0007 55.2964 21.0007 57.9542V59.9836C21.0007 60.5455 21.4475 61.0002 22.0007 61.0002H38.0005C38.5532 61.0002 39.0005 60.5455 39.0005 59.9836V57.9542C39.0005 55.2974 36.9785 53.1341 34.4214 52.9107C35.3985 51.8245 36.0005 50.3839 36.0005 48.8004C36.0005 45.7837 33.8336 43.2788 31.0006 42.7918V40.615C31.3307 40.5977 31.6534 40.5977 31.9884 40.5644C32.4146 40.5217 32.7667 40.2075 32.8634 39.7835L33.4473 37.2409C34.0875 37.1064 34.7183 36.9346 35.3394 36.7261L37.0855 38.6204C37.3784 38.9386 37.8374 39.029 38.2275 38.8523C39.4282 38.2993 40.5864 37.6182 41.6674 36.8259C42.0151 36.5717 42.1645 36.1215 42.0405 35.7045L41.3032 33.2403C41.7934 32.796 42.2602 32.3234 42.6972 31.8231L45.1215 32.5731C45.5292 32.6992 45.9745 32.5468 46.2245 32.1944C46.369 31.9889 46.4921 31.768 46.6293 31.5575L50.0004 34.9877V42.7918C47.1674 43.2778 45.0004 45.7827 45.0004 48.8004C45.0004 50.3839 45.6025 51.8245 46.5795 52.9107C44.0224 53.1331 42.0005 55.2964 42.0005 57.9542V59.9836C42.0005 60.5455 42.4472 61.0002 43.0004 61.0002H59.0002C59.553 61.0002 60.0002 60.5455 60.0002 59.9836V57.9542C60.0002 55.2964 57.9783 53.1331 55.4212 52.9107ZM16.0008 57.9542V58.9669H2.00095V57.9542C2.00095 56.2704 3.34859 54.9003 5.00482 54.9003H12.9969C14.6526 54.9003 16.0008 56.2704 16.0008 57.9542ZM13.0008 48.8004C13.0008 51.0427 11.2069 52.867 9.00086 52.867C6.79484 52.867 5.00091 51.0427 5.00091 48.8004C5.00091 46.5576 6.79484 44.7338 9.00086 44.7338C11.2069 44.7338 13.0008 46.5576 13.0008 48.8004ZM37.0005 57.9542V58.9669H23.0007V57.9542C23.0007 56.2704 24.3483 54.9003 26.0046 54.9003H33.9966C35.6524 54.9003 37.0005 56.2704 37.0005 57.9542ZM34.0006 48.8004C34.0006 51.0427 32.2066 52.867 30.0006 52.867C27.7946 52.867 26.0007 51.0427 26.0007 48.8004C26.0007 46.5576 27.7946 44.7338 30.0006 44.7338C32.2066 44.7338 34.0006 46.5576 34.0006 48.8004ZM45.0043 30.4137L42.6533 29.686C42.2651 29.5639 41.8462 29.6964 41.5903 30.0121C40.9712 30.7791 40.2754 31.4865 39.5215 32.1159C39.2095 32.3771 39.0835 32.804 39.2002 33.1966L39.9155 35.5869C39.3125 35.9924 38.6865 36.3613 38.0454 36.6889L36.3535 34.8517C36.0772 34.5508 35.6485 34.4491 35.2725 34.5945C34.3643 34.941 33.4185 35.1982 32.4615 35.359C32.0626 35.425 31.7413 35.7298 31.6495 36.1304L31.0836 38.5981C30.3497 38.6438 29.6534 38.6438 28.9196 38.5981L28.3536 36.1304C28.2614 35.7298 27.9415 35.426 27.5416 35.359C26.5837 35.1982 25.6384 34.941 24.7316 34.5945C24.3517 34.4461 23.9245 34.5499 23.6496 34.8507L21.9568 36.6879C21.3147 36.3613 20.6887 35.9914 20.0867 35.5869L20.8025 33.1966C20.9197 32.803 20.7927 32.3761 20.4817 32.1159C19.7278 31.4865 19.0315 30.7791 18.4129 30.0121C18.1555 29.6954 17.7366 29.5649 17.3499 29.686L14.9988 30.4127C14.5999 29.7997 14.2366 29.1633 13.9149 28.512L15.7215 26.7914C16.0169 26.5109 16.1165 26.0781 15.9749 25.6928C15.6336 24.7695 15.3807 23.808 15.2225 22.835C15.1575 22.4289 14.8577 22.1028 14.4637 22.0095L12.0365 21.4336C12.0125 21.0608 12.0008 20.694 12.0008 20.3341C12.0008 19.9742 12.0125 19.6068 12.0345 19.234L14.4617 18.6582C14.8558 18.5649 15.1546 18.2397 15.2205 17.8326C15.3787 16.8587 15.6316 15.8981 15.9725 14.9763C16.1155 14.5906 16.0154 14.1567 15.7205 13.8762L13.9139 12.1547C14.2347 11.5024 14.5985 10.866 14.9969 10.2539L17.3474 10.9816C17.7346 11.1018 18.1546 10.9717 18.4104 10.6545C19.0276 9.89053 19.7234 9.18314 20.4797 8.55171C20.7917 8.29059 20.9177 7.86368 20.8005 7.47102L20.0857 5.08079C20.6887 4.67522 21.3147 4.30638 21.9558 3.97875L23.6477 5.81598C23.9226 6.11581 24.3508 6.21658 24.7287 6.07312C25.6364 5.72662 26.5827 5.46948 27.5397 5.30864C27.9386 5.24262 28.2594 4.93782 28.3517 4.53722L28.9176 2.06955C29.6515 2.02388 30.3473 2.02388 31.0816 2.06955L31.6476 4.53722C31.7393 4.93782 32.0597 5.24163 32.4596 5.30864C33.4176 5.46948 34.3624 5.72662 35.2696 6.07312C35.6485 6.21956 36.0752 6.11779 36.3516 5.81697L38.0444 3.97974C38.6865 4.30638 39.3125 4.67621 39.9145 5.08079L39.1982 7.47102C39.0815 7.86467 39.2085 8.29159 39.5195 8.55171C40.2734 9.18116 40.9692 9.88855 41.5883 10.6555C41.8452 10.9727 42.2651 11.1028 42.6513 10.9816L45.0024 10.2549C45.4013 10.868 45.7641 11.5044 46.0863 12.1557L44.2792 13.8762C43.9843 14.1567 43.8842 14.5896 44.0263 14.9753C44.3671 15.8981 44.6205 16.8602 44.7782 17.8326C44.8432 18.2387 45.1435 18.5649 45.5375 18.6582L47.9642 19.234C47.9882 19.6068 48.0004 19.9742 48.0004 20.3341C48.0004 20.694 47.9882 21.0608 47.9662 21.4336L45.5395 22.0095C45.1454 22.1028 44.8461 22.4279 44.7802 22.835C44.6225 23.808 44.3691 24.7685 44.0283 25.6928C43.8862 26.0781 43.9863 26.5109 44.2812 26.7914L46.0883 28.512C45.7665 29.1658 45.4023 29.8012 45.0043 30.4137ZM51.0003 44.7338C53.2064 44.7338 55.0003 46.5576 55.0003 48.8004C55.0003 51.0427 53.2064 52.867 51.0003 52.867C48.7943 52.867 47.0004 51.0427 47.0004 48.8004C47.0004 46.5576 48.7943 44.7338 51.0003 44.7338ZM58.0003 58.9669H44.0004V57.9542C44.0004 56.2704 45.3481 54.9003 47.0043 54.9003H54.9964C56.6521 54.9003 58.0003 56.2704 58.0003 57.9542V58.9669Z" fill="#273B98"/>
<path d="M30.0008 7.11768C22.8329 7.11768 17.001 13.0463 17.001 20.3342C17.001 27.6215 22.8329 33.5507 30.0008 33.5507C37.1687 33.5507 43.0007 27.6215 43.0007 20.3342C43.0007 13.0463 37.1687 7.11768 30.0008 7.11768ZM23.0497 28.9916C23.3007 26.4257 25.4208 24.4008 28.0008 24.4008H32.0008C34.5808 24.4008 36.7004 26.4257 36.9514 28.9916C35.0554 30.5687 32.6355 31.5174 30.0008 31.5174C27.3656 31.5174 24.9457 30.5687 23.0497 28.9916ZM30.0008 22.3675C27.7948 22.3675 26.0009 20.5432 26.0009 18.3009C26.0009 16.0581 27.7948 14.2343 30.0008 14.2343C32.2068 14.2343 34.0008 16.0581 34.0008 18.3009C34.0008 20.5432 32.2068 22.3675 30.0008 22.3675ZM38.6364 27.2393C37.9294 25.0978 36.2478 23.4055 34.1346 22.712C35.2815 21.5995 36.0007 20.0348 36.0007 18.3009C36.0007 14.9367 33.3099 12.2009 30.0008 12.2009C26.6918 12.2009 24.0009 14.9367 24.0009 18.3009C24.0009 20.0348 24.7196 21.5995 25.8676 22.711C23.7548 23.404 22.0727 25.0968 21.3657 27.2383C19.8896 25.335 19.001 22.9399 19.001 20.3342C19.001 14.1677 23.9359 9.15098 30.0008 9.15098C36.0657 9.15098 41.0007 14.1677 41.0007 20.3342C41.0007 22.9399 40.1115 25.335 38.6364 27.2393Z" fill="#273B98"/>
<path d="M54 19.3174H56V21.3507H54V19.3174Z" fill="#273B98"/>
<path d="M58 19.3174H60V21.3507H58V19.3174Z" fill="#273B98"/>
<path d="M58 23.3838H60V25.4171H58V23.3838Z" fill="#273B98"/>
<path d="M58 15.251H60V17.2843H58V15.251Z" fill="#273B98"/>
<path d="M0.000976562 19.3174H2.00095V21.3507H0.000976562V19.3174Z" fill="#273B98"/>
<path d="M0.000976562 23.3838H2.00095V25.4171H0.000976562V23.3838Z" fill="#273B98"/>
<path d="M0.000976562 15.251H2.00095V17.2843H0.000976562V15.251Z" fill="#273B98"/>
<path d="M4.00098 19.3174H6.00095V21.3507H4.00098V19.3174Z" fill="#273B98"/>
</g>
<defs>
<clipPath id="clip0_604_2">
<rect width="60" height="61" fill="white"/>
</clipPath>
</defs>
</svg>
