<svg width="750" height="500" viewBox="0 0 750 500" fill="none" xmlns="http://www.w3.org/2000/svg">
<mask id="mask0_516_490" style="mask-type:luminance" maskUnits="userSpaceOnUse" x="0" y="0" width="750" height="500">
<path d="M0 0H750V500H0V0Z" fill="white"/>
</mask>
<g mask="url(#mask0_516_490)">
<path opacity="0.5" d="M-25.2988 389.9L80.2012 525.8L-50.6989 515L-25.2988 389.9Z" fill="#DDDEE0" fill-opacity="0.6"/>
<path opacity="0.5" d="M72.4004 389.9L-55.5996 457.8L-70.2996 355.7L72.4004 389.9Z" fill="#DDDEE0" fill-opacity="0.6"/>
<path opacity="0.5" d="M144.201 476.9L16.2012 544.8L1.50116 442.7L144.201 476.9Z" fill="#DDDEE0" fill-opacity="0.6"/>
<path opacity="0.5" d="M164.801 425.8L36.7008 493.8L22.1008 391.6L164.801 425.8Z" fill="#DDDEE0" fill-opacity="0.6"/>
<path opacity="0.25" d="M347.102 91.2L219.102 159.2L204.402 57L347.102 91.2Z" fill="#DDDEE0" fill-opacity="0.6"/>
<path opacity="0.18" d="M78.1003 335.1L28.2004 467.1L150.4 474.2L78.1003 335.1Z" fill="#DEDFE1" fill-opacity="0.6"/>
<path opacity="0.18" d="M32.5008 409.4L-17.3992 541.4L104.801 548.5L32.5008 409.4Z" fill="#DEDFE1" fill-opacity="0.6"/>
<path opacity="0.18" d="M183.802 -21.4004L134.002 110.5L256.102 117.6L183.802 -21.4004Z" fill="#DEDFE1" fill-opacity="0.6"/>
<path opacity="0.18" d="M122.702 99.2998L72.9016 231.2L195.102 238.3L122.702 99.2998Z" fill="#DEDFE1" fill-opacity="0.6"/>
<path opacity="0.18" d="M60.6 74.3999L143.5 188.5L216.5 90.1999L60.6 74.3999Z" fill="#DEDFE1" fill-opacity="0.6"/>
<path opacity="0.5" d="M115.4 327.4L72.4004 406.8L-16.4996 337.1L115.4 327.4Z" fill="#F6F6F6"/>
<path opacity="0.5" d="M-7.69965 257L49.4004 346.9L-12.1996 406.8L-7.69965 257Z" fill="#D8D8DB"/>
<path opacity="0.5" d="M7.2016 355.7L61.6016 441.7H-35.8984L7.2016 355.7Z" fill="#DDDEE0" fill-opacity="0.6"/>
<path opacity="0.24" d="M130.102 331.9L7.90161 401.8L-30.1984 293.2L130.102 331.9Z" fill="#DDDEE0" fill-opacity="0.6"/>
<path opacity="0.05" d="M124.201 394.8L-30.1989 347.5L-16.4988 488.3L124.201 394.8Z" fill="#ECECEC" fill-opacity="0.6"/>
<path opacity="0.32" d="M391.102 240.8L239.302 296L335.202 400.2L391.102 240.8Z" fill="#ECECEC" fill-opacity="0.6"/>
<path opacity="0.32" d="M269.001 171.7L363.701 302.6L437.701 181.9L269.001 171.7Z" fill="#ECECEC" fill-opacity="0.6"/>
<path opacity="0.12" d="M462.5 301.8L422.4 418.4L306.1 349.1L462.5 301.8Z" fill="#DDDEE0" fill-opacity="0.6"/>
<path opacity="0.5" d="M-15.6 207.3L90 343.2L-41 332.4L-15.6 207.3Z" fill="#DDDEE0" fill-opacity="0.6"/>
<path opacity="0.16" d="M301.201 279.5L406.701 415.4L275.701 404.6L301.201 279.5Z" fill="#DDDEE0" fill-opacity="0.6"/>
<path opacity="0.5" d="M82.2012 207.3L-45.8989 275.2L-60.4988 173.1L82.2012 207.3Z" fill="#DDDEE0" fill-opacity="0.6"/>
<path opacity="0.27" d="M195.4 29.0999L67.4004 97.0999L52.7004 -5.1001L195.4 29.0999Z" fill="#DDDEE0" fill-opacity="0.6"/>
<path opacity="0.5" d="M82.2 149.6L32.3 281.6L154.5 288.7L82.2 149.6Z" fill="#DEDFE1" fill-opacity="0.6"/>
<path opacity="0.5" d="M125.201 144.8L82.2012 224.2L-6.79883 154.5L125.201 144.8Z" fill="#F6F6F6"/>
<path opacity="0.28" d="M-13.3989 63.7002L43.7012 153.6L-17.8989 213.5L-13.3989 63.7002Z" fill="#D8D8DB"/>
<path opacity="0.28" d="M-21.2 -59.1001L36 30.7999L-25.7 90.6999L-21.2 -59.1001Z" fill="#D8D8DB"/>
<path opacity="0.5" d="M17.0004 173.1L71.4004 259.1H-26.0996L17.0004 173.1Z" fill="#DDDEE0" fill-opacity="0.6"/>
<path opacity="0.28" d="M130.102 158.3L7.90161 228.1L-30.1984 119.5L130.102 158.3Z" fill="#DDDEE0" fill-opacity="0.6"/>
<path opacity="0.05" d="M134 212.2L-20.5 164.9L-6.79999 305.7L134 212.2Z" fill="#ECECEC" fill-opacity="0.6"/>
<path opacity="0.05" d="M293.701 17.3996L139.301 -29.9004L153.001 111L293.701 17.3996Z" fill="#ECECEC" fill-opacity="0.6"/>
<path opacity="0.24" d="M149.602 235.3L109.502 352L-6.7984 282.6L149.602 235.3Z" fill="#DDDEE0" fill-opacity="0.6"/>
<path opacity="0.5" d="M383.7 524.3L519.5 418.7L508.8 549.7L383.7 524.3Z" fill="#DDDEE0" fill-opacity="0.6"/>
<path opacity="0.5" d="M383.702 426.5L451.602 554.6L349.502 569.2L383.702 426.5Z" fill="#DDDEE0" fill-opacity="0.6"/>
<path opacity="0.5" d="M326.002 426.5L458.002 476.4L465.102 354.2L326.002 426.5Z" fill="#DEDFE1" fill-opacity="0.6"/>
<path opacity="0.5" d="M321.1 383.5L400.5 426.5L330.9 515.5L321.1 383.5Z" fill="#F6F6F6"/>
<path opacity="0.5" d="M250.8 506.7L340.7 449.5L400.5 511.2L250.8 506.7Z" fill="#D8D8DB"/>
<path opacity="0.5" d="M349.5 491.8L435.5 437.3V534.8L349.5 491.8Z" fill="#DDDEE0" fill-opacity="0.6"/>
<path opacity="0.28" d="M325.7 368.9L395.5 491L286.9 529.2L325.7 368.9Z" fill="#DDDEE0" fill-opacity="0.6"/>
<path opacity="0.05" d="M388.602 374.7L341.202 529.2L482.102 515.5L388.602 374.7Z" fill="#ECECEC" fill-opacity="0.6"/>
<path opacity="0.28" d="M411.701 359.1L528.301 399.2L458.901 515.5L411.701 359.1Z" fill="#DDDEE0" fill-opacity="0.6"/>
<path opacity="0.18" d="M201.1 514.5L336.9 408.9L326.2 539.9L201.1 514.5Z" fill="#DDDEE0" fill-opacity="0.6"/>
<path opacity="0.5" d="M201.1 416.8L269 544.8L166.9 559.5L201.1 416.8Z" fill="#DDDEE0" fill-opacity="0.6"/>
<path opacity="0.5" d="M152.101 430L284.101 479.8L291.201 357.6L152.101 430Z" fill="#DEDFE1" fill-opacity="0.6"/>
<path opacity="0.5" d="M138.5 373.8L217.9 416.8L148.3 505.7L138.5 373.8Z" fill="#F6F6F6"/>
<path opacity="0.5" d="M68.2004 496.9L158.1 439.7L217.9 501.4L68.2004 496.9Z" fill="#D8D8DB"/>
<path opacity="0.5" d="M166.9 482L252.9 427.5V525L166.9 482Z" fill="#DDDEE0" fill-opacity="0.6"/>
<path opacity="0.24" d="M143 359.1L212.9 481.3L104.3 519.4L143 359.1Z" fill="#DDDEE0" fill-opacity="0.6"/>
<path opacity="0.05" d="M206 365L158.6 519.4L299.5 505.7L206 365Z" fill="#ECECEC" fill-opacity="0.6"/>
<path opacity="0.24" d="M229.101 349.3L345.701 389.4L276.301 505.7L229.101 349.3Z" fill="#DDDEE0" fill-opacity="0.6"/>
<path opacity="0.24" d="M-14.5984 14.5996L102.102 54.5996L32.7016 171L-14.5984 14.5996Z" fill="#DDDEE0" fill-opacity="0.6"/>
<path opacity="0.24" d="M271.6 200.5L341.4 322.7L232.8 360.8L271.6 200.5Z" fill="#DDDEE0" fill-opacity="0.6"/>
<path opacity="0.28" d="M147.001 346.1L282.801 240.6L272.101 371.5L147.001 346.1Z" fill="#DDDEE0" fill-opacity="0.6"/>
<path opacity="0.18" d="M147 248.4L214.9 376.4L112.8 391.1L147 248.4Z" fill="#DDDEE0" fill-opacity="0.6"/>
<path opacity="0.5" d="M89.3004 248.4L221.3 298.2L228.4 176.1L89.3004 248.4Z" fill="#DEDFE1" fill-opacity="0.6"/>
<path opacity="0.5" d="M84.4008 205.4L163.801 248.4L94.2008 337.3L84.4008 205.4Z" fill="#F6F6F6"/>
<path opacity="0.5" d="M112.801 313.6L198.801 259.1V356.6L112.801 313.6Z" fill="#DDDEE0" fill-opacity="0.6"/>
<path opacity="0.05" d="M151.9 196.6L104.5 351L245.4 337.3L151.9 196.6Z" fill="#ECECEC" fill-opacity="0.6"/>
<path opacity="0.24" d="M175.002 180.9L291.602 221L222.202 337.3L175.002 180.9Z" fill="#DDDEE0" fill-opacity="0.6"/>
<path opacity="0.24" d="M181.001 106.3L297.701 146.3L228.301 262.6L181.001 106.3Z" fill="#DDDEE0" fill-opacity="0.6"/>
</g>
</svg>
