<svg width="83" height="83" viewBox="0 0 83 83" fill="none" xmlns="http://www.w3.org/2000/svg">
<g filter="url(#filter0_d_515_216)">
<circle cx="41.5" cy="37.5" r="32.5" fill="#FF4D4D"/>
<circle cx="41.5" cy="37.5" r="31" stroke="white" stroke-width="3"/>
</g>
<path d="M41.6671 55.3337C51.4088 55.3337 59.334 47.4085 59.334 37.6668C59.334 27.9252 51.4088 20 41.6671 20C31.9255 20 24.0003 27.9252 24.0003 37.6668C24.0003 47.4085 31.9255 55.3337 41.6671 55.3337ZM41.6671 22.5238C50.0169 22.5238 56.8102 29.317 56.8102 37.6668C56.8102 46.0166 50.0169 52.8099 41.6671 52.8099C33.3173 52.8099 26.5241 46.0166 26.5241 37.6668C26.5241 29.317 33.3173 22.5238 41.6671 22.5238Z" fill="white"/>
<path d="M35.3571 45.2386C35.6801 45.2386 36.003 45.1154 36.2494 44.8688L48.8685 32.2497C49.3615 31.7567 49.3615 30.9582 48.8685 30.4654C48.3757 29.9726 47.577 29.9723 47.0842 30.4654L34.4651 43.0844C33.9721 43.5775 33.9721 44.376 34.4651 44.8688C34.7115 45.1154 35.0342 45.2386 35.3571 45.2386Z" fill="white"/>
<path d="M47.9765 45.2387C48.2994 45.2387 48.6221 45.1155 48.8685 44.8689C49.3615 44.3761 49.3615 43.5773 48.8685 43.0845L36.2494 30.4655C35.7564 29.9724 34.9579 29.9724 34.4651 30.4655C33.9723 30.9583 33.9721 31.757 34.4651 32.2498L47.0842 44.8689C47.3306 45.1155 47.6535 45.2387 47.9765 45.2387Z" fill="white"/>
<defs>
<filter id="filter0_d_515_216" x="0" y="0" width="83" height="83" filterUnits="userSpaceOnUse" color-interpolation-filters="sRGB">
<feFlood flood-opacity="0" result="BackgroundImageFix"/>
<feColorMatrix in="SourceAlpha" type="matrix" values="0 0 0 0 0 0 0 0 0 0 0 0 0 0 0 0 0 0 127 0" result="hardAlpha"/>
<feOffset dy="4"/>
<feGaussianBlur stdDeviation="4.5"/>
<feComposite in2="hardAlpha" operator="out"/>
<feColorMatrix type="matrix" values="0 0 0 0 0 0 0 0 0 0 0 0 0 0 0 0 0 0 0.25 0"/>
<feBlend mode="normal" in2="BackgroundImageFix" result="effect1_dropShadow_515_216"/>
<feBlend mode="normal" in="SourceGraphic" in2="effect1_dropShadow_515_216" result="shape"/>
</filter>
</defs>
</svg>
