<svg width="59" height="59" viewBox="0 0 59 59" fill="none" xmlns="http://www.w3.org/2000/svg">
<g clip-path="url(#clip0_605_13)">
<path d="M22.4157 11.2209L14.6463 6.73522C14.5061 6.65431 14.3472 6.61171 14.1854 6.61171C14.0235 6.61171 13.8646 6.65431 13.7244 6.73522L5.95474 11.2209C5.8146 11.3019 5.69822 11.4182 5.61731 11.5584C5.5364 11.6985 5.4938 11.8575 5.4938 12.0193V20.9909C5.4938 21.1527 5.5364 21.3116 5.61731 21.4518C5.69822 21.5919 5.8146 21.7083 5.95474 21.7892L13.7244 26.2749C13.8646 26.3558 14.0235 26.3984 14.1854 26.3984C14.3472 26.3984 14.5061 26.3558 14.6463 26.2749L22.4159 21.7892C22.556 21.7083 22.6724 21.5919 22.7533 21.4518C22.8342 21.3116 22.8768 21.1527 22.8768 20.9909V12.0189C22.8767 11.8572 22.8341 11.6983 22.7531 11.5582C22.6722 11.4181 22.5558 11.3018 22.4157 11.2209ZM14.1854 8.59798L20.1113 12.0193L14.1854 15.4406L8.25942 12.0189L14.1854 8.59798ZM7.33755 13.616L13.2634 17.0373V23.8799L7.33755 20.4586V13.616ZM15.1071 23.8799V17.0373L21.0329 13.616V20.4586L15.1071 23.8799ZM55.498 28.3699H53.6936V27.8168C53.693 27.2733 53.4768 26.7522 53.0925 26.3678C52.7082 25.9835 52.1872 25.7673 51.6437 25.7666H50.3897C49.846 25.7673 49.3248 25.9836 48.9405 26.3681C48.5561 26.7526 48.3401 27.2739 48.3397 27.8176V28.3707H43.6496V27.8176C43.6489 27.3137 43.4629 26.8277 43.127 26.4521C42.7911 26.0765 42.3287 25.8377 41.828 25.781V0.921875C41.828 0.677379 41.7309 0.442896 41.558 0.270011C41.3851 0.0971259 41.1506 0 40.9061 0L0.921875 0C0.677379 0 0.442896 0.0971259 0.270011 0.270011C0.0971259 0.442896 0 0.677379 0 0.921875L0 58.0781C0 58.3226 0.0971259 58.5571 0.270011 58.73C0.442896 58.9029 0.677379 59 0.921875 59H55.498C57.429 59 59 57.5287 59 55.7203V31.6497C59 29.8412 57.429 28.3699 55.498 28.3699ZM50.1834 27.8168C50.1841 27.7623 50.2061 27.7102 50.2446 27.6717C50.2831 27.6331 50.3352 27.6111 50.3897 27.6104H51.6437C51.6981 27.6111 51.7502 27.6331 51.7887 27.6717C51.8272 27.7102 51.8491 27.7623 51.8498 27.8168V31.4523C51.8491 31.5068 51.8272 31.5588 51.7887 31.5974C51.7502 31.6359 51.6981 31.6579 51.6437 31.6586H50.3897C50.3352 31.6579 50.2832 31.6359 50.2446 31.5974C50.2061 31.5588 50.1841 31.5068 50.1834 31.4523V27.8168ZM48.3397 30.2136V31.4526C48.3403 31.9962 48.5565 32.5172 48.9408 32.9016C49.3251 33.2859 49.8462 33.5021 50.3897 33.5027H51.6437C52.1872 33.5021 52.7082 33.2859 53.0925 32.9016C53.4768 32.5172 53.693 31.9961 53.6936 31.4526V30.2136H55.498C56.4124 30.2136 57.1562 30.8579 57.1562 31.6497V35.0209H25.303V31.6497C25.303 30.8579 26.047 30.2136 26.9614 30.2136H28.251V31.4526C28.2516 31.9962 28.4678 32.5173 28.8521 32.9016C29.2365 33.2859 29.7576 33.5021 30.3011 33.5027H31.555C32.0985 33.5021 32.6195 33.2859 33.0038 32.9016C33.3881 32.5172 33.6043 31.9961 33.6049 31.4526V30.2136H38.2949V31.4526C38.2955 31.9962 38.5117 32.5173 38.8961 32.9016C39.2804 33.2859 39.8015 33.5021 40.3451 33.5027H41.5996C42.1431 33.5021 42.6642 33.2859 43.0485 32.9016C43.4328 32.5172 43.649 31.9962 43.6496 31.4526V30.2136H48.3397ZM30.0947 31.4526V27.8176C30.0954 27.7631 30.1174 27.711 30.156 27.6724C30.1945 27.6339 30.2466 27.6119 30.3011 27.6112H31.555C31.6095 27.6119 31.6615 27.6339 31.7 27.6725C31.7385 27.711 31.7604 27.7631 31.7611 27.8176V31.4531C31.7604 31.5076 31.7385 31.5596 31.7 31.5982C31.6615 31.6367 31.6094 31.6587 31.555 31.6594H30.3011C30.2465 31.6587 30.1944 31.6367 30.1558 31.598C30.1172 31.5594 30.0953 31.5072 30.0947 31.4526ZM41.8055 27.8176V31.4531C41.8048 31.5076 41.7829 31.5596 41.7443 31.5982C41.7058 31.6367 41.6537 31.6587 41.5993 31.6594H40.3455C40.291 31.6587 40.2389 31.6367 40.2004 31.5982C40.1618 31.5597 40.1398 31.5076 40.1391 31.4531V27.8176C40.1398 27.7631 40.1618 27.711 40.2004 27.6724C40.2389 27.6339 40.291 27.6119 40.3455 27.6112H41.5996C41.654 27.612 41.706 27.6341 41.7445 27.6726C41.7829 27.7111 41.8048 27.7631 41.8055 27.8176ZM1.84375 1.84375H39.9839V25.801C39.5108 25.8861 39.0826 26.1346 38.774 26.5032C38.4654 26.8717 38.296 27.3369 38.2954 27.8176V28.3707H33.6053V27.8176C33.6048 27.2741 33.3886 26.753 33.0043 26.3686C32.62 25.9843 32.0989 25.7681 31.5554 25.7674H30.3011C29.7576 25.7681 29.2365 25.9842 28.8521 26.3686C28.4678 26.7529 28.2516 27.274 28.251 27.8176V28.3707H26.9614C25.0303 28.3707 23.4593 29.842 23.4593 31.6505V55.7202C23.4594 56.2205 23.581 56.7133 23.8136 57.1562H1.84375V1.84375ZM55.498 57.1562H26.9614C26.047 57.1562 25.303 56.5121 25.303 55.7203V36.8646H57.1562V55.7202C57.1562 56.512 56.4124 57.1562 55.498 57.1562ZM34.7893 39.6889H30.0607C29.8162 39.6889 29.5818 39.786 29.4089 39.9589C29.236 40.1318 29.1389 40.3663 29.1389 40.6108V45.3392C29.1389 45.5837 29.236 45.8182 29.4089 45.9911C29.5818 46.1639 29.8162 46.2611 30.0607 46.2611H34.7893C35.0338 46.2611 35.2682 46.1639 35.4411 45.9911C35.614 45.8182 35.7111 45.5837 35.7111 45.3392V40.6108C35.7111 40.3663 35.614 40.1318 35.4411 39.9589C35.2682 39.786 35.0338 39.6889 34.7893 39.6889ZM33.8674 44.4173H30.9826V41.5327H33.8674V44.4173ZM43.5125 39.6889H38.7839C38.5394 39.6889 38.3049 39.786 38.132 39.9589C37.9591 40.1318 37.862 40.3663 37.862 40.6108V45.3392C37.862 45.5837 37.9591 45.8182 38.132 45.9911C38.3049 46.1639 38.5394 46.2611 38.7839 46.2611H43.5125C43.757 46.2611 43.9915 46.1639 44.1644 45.9911C44.3372 45.8182 44.4344 45.5837 44.4344 45.3392V40.6108C44.4344 40.3663 44.3372 40.1318 44.1644 39.9589C43.9915 39.786 43.757 39.6889 43.5125 39.6889ZM42.5906 44.4173H39.7057V41.5327H42.5906V44.4173ZM34.7893 47.7598H30.0607C29.8162 47.7598 29.5818 47.8569 29.4089 48.0298C29.236 48.2027 29.1389 48.4372 29.1389 48.6817V53.4101C29.1389 53.6546 29.236 53.8891 29.4089 54.062C29.5818 54.2348 29.8162 54.332 30.0607 54.332H34.7893C35.0338 54.332 35.2682 54.2348 35.4411 54.062C35.614 53.8891 35.7111 53.6546 35.7111 53.4101V48.6817C35.7111 48.4372 35.614 48.2027 35.4411 48.0298C35.2682 47.8569 35.0338 47.7598 34.7893 47.7598ZM33.8674 52.4882H30.9826V49.6036H33.8674V52.4882ZM43.5125 47.7598H38.7839C38.5394 47.7598 38.3049 47.8569 38.132 48.0298C37.9591 48.2027 37.862 48.4372 37.862 48.6817V53.4101C37.862 53.6546 37.9591 53.8891 38.132 54.062C38.3049 54.2348 38.5394 54.332 38.7839 54.332H43.5125C43.757 54.332 43.9915 54.2348 44.1644 54.062C44.3372 53.8891 44.4344 53.6546 44.4344 53.4101V48.6817C44.4344 48.4372 44.3372 48.2027 44.1644 48.0298C43.9915 47.8569 43.757 47.7598 43.5125 47.7598ZM42.5906 52.4882H39.7057V49.6036H42.5906V52.4882ZM52.3987 39.6889H47.6702C47.4257 39.6889 47.1912 39.786 47.0183 39.9589C46.8454 40.1318 46.7483 40.3663 46.7483 40.6108V45.3392C46.7483 45.5837 46.8454 45.8182 47.0183 45.9911C47.1912 46.1639 47.4257 46.2611 47.6702 46.2611H52.3986C52.6431 46.2611 52.8775 46.1639 53.0504 45.9911C53.2233 45.8182 53.3204 45.5837 53.3204 45.3392V40.6108C53.3204 40.3663 53.2233 40.1318 53.0504 39.9589C52.8775 39.786 52.6432 39.6889 52.3987 39.6889ZM51.4768 44.4173H48.592V41.5327H51.4767L51.4768 44.4173ZM52.3987 47.7598H47.6702C47.4257 47.7598 47.1912 47.8569 47.0183 48.0298C46.8454 48.2027 46.7483 48.4372 46.7483 48.6817V53.4101C46.7483 53.6546 46.8454 53.8891 47.0183 54.062C47.1912 54.2348 47.4257 54.332 47.6702 54.332H52.3986C52.6431 54.332 52.8775 54.2348 53.0504 54.062C53.2233 53.8891 53.3204 53.6546 53.3204 53.4101V48.6817C53.3204 48.4372 53.2233 48.2027 53.0504 48.0298C52.8775 47.8569 52.6432 47.7598 52.3987 47.7598ZM51.4768 52.4882H48.592V49.6036H51.4767L51.4768 52.4882ZM19.8088 31.3296C19.8088 31.5741 19.7117 31.8086 19.5388 31.9814C19.3659 32.1543 19.1314 32.2515 18.8869 32.2515H6.41567C6.17118 32.2515 5.93669 32.1543 5.76381 31.9814C5.59092 31.8086 5.4938 31.5741 5.4938 31.3296C5.4938 31.0851 5.59092 30.8506 5.76381 30.6777C5.93669 30.5048 6.17118 30.4077 6.41567 30.4077H18.8869C19.1314 30.4077 19.3659 30.5048 19.5388 30.6777C19.7117 30.8506 19.8088 31.0851 19.8088 31.3296ZM26.1582 12.0189C26.1582 11.7744 26.2553 11.54 26.4282 11.3671C26.6011 11.1942 26.8356 11.0971 27.0801 11.0971H35.7803C36.0248 11.0971 36.2593 11.1942 36.4321 11.3671C36.605 11.54 36.7021 11.7744 36.7021 12.0189C36.7021 12.2634 36.605 12.4979 36.4321 12.6708C36.2593 12.8437 36.0248 12.9408 35.7803 12.9408H27.0801C26.8356 12.9408 26.6011 12.8437 26.4282 12.6708C26.2553 12.4979 26.1582 12.2634 26.1582 12.0189ZM26.1582 17.5502C26.1582 17.3057 26.2553 17.0712 26.4282 16.8983C26.6011 16.7254 26.8356 16.6283 27.0801 16.6283H35.7803C36.0248 16.6283 36.2593 16.7254 36.4321 16.8983C36.605 17.0712 36.7021 17.3057 36.7021 17.5502C36.7021 17.7947 36.605 18.0292 36.4321 18.2021C36.2593 18.3749 36.0248 18.4721 35.7803 18.4721H27.0801C26.8356 18.4721 26.6011 18.3749 26.4282 18.2021C26.2553 18.0292 26.1582 17.7947 26.1582 17.5502ZM19.8088 37.5523C19.8088 37.7968 19.7117 38.0313 19.5388 38.2042C19.3659 38.3771 19.1314 38.4742 18.8869 38.4742H6.41567C6.17118 38.4742 5.93669 38.3771 5.76381 38.2042C5.59092 38.0313 5.4938 37.7968 5.4938 37.5523C5.4938 37.3078 5.59092 37.0734 5.76381 36.9005C5.93669 36.7276 6.17118 36.6305 6.41567 36.6305H18.8869C19.1314 36.6305 19.3659 36.7276 19.5388 36.9005C19.7117 37.0734 19.8088 37.3078 19.8088 37.5523ZM19.8088 43.775C19.8088 44.0195 19.7117 44.254 19.5388 44.4269C19.3659 44.5998 19.1314 44.6969 18.8869 44.6969H6.41567C6.17118 44.6969 5.93669 44.5998 5.76381 44.4269C5.59092 44.254 5.4938 44.0195 5.4938 43.775C5.4938 43.5305 5.59092 43.296 5.76381 43.1231C5.93669 42.9503 6.17118 42.8531 6.41567 42.8531H18.8869C19.008 42.8531 19.1279 42.877 19.2397 42.9233C19.3516 42.9696 19.4532 43.0376 19.5388 43.1232C19.6244 43.2088 19.6923 43.3104 19.7386 43.4223C19.785 43.5342 19.8088 43.6539 19.8088 43.775ZM19.8088 49.9977C19.8088 50.2422 19.7117 50.4766 19.5388 50.6495C19.3659 50.8224 19.1314 50.9195 18.8869 50.9195H6.41567C6.17118 50.9195 5.93669 50.8224 5.76381 50.6495C5.59092 50.4766 5.4938 50.2422 5.4938 49.9977C5.4938 49.7532 5.59092 49.5187 5.76381 49.3458C5.93669 49.1729 6.17118 49.0758 6.41567 49.0758H18.8869C19.008 49.0758 19.1279 49.0996 19.2398 49.146C19.3516 49.1923 19.4533 49.2603 19.5389 49.3459C19.6245 49.4315 19.6924 49.5332 19.7387 49.645C19.785 49.7569 19.8088 49.8766 19.8088 49.9977Z" fill="#273B98"/>
</g>
<defs>
<clipPath id="clip0_605_13">
<rect width="59" height="59" fill="white"/>
</clipPath>
</defs>
</svg>
