<svg width="66" height="56" viewBox="0 0 66 56" fill="none" xmlns="http://www.w3.org/2000/svg">
<path d="M56.4386 39.5112C56.3634 39.5115 56.2884 39.5022 56.2155 39.4836C56.0984 39.4544 55.9883 39.4024 55.8913 39.3306C55.7944 39.2589 55.7125 39.1687 55.6504 39.0652C55.5884 38.9618 55.5473 38.8471 55.5295 38.7278C55.5118 38.6085 55.5177 38.4868 55.547 38.3698L56.1989 35.762C56.2595 35.5273 56.4105 35.3261 56.6188 35.2022C56.8272 35.0783 57.0761 35.0419 57.3112 35.1008C57.5463 35.1597 57.7486 35.3092 57.874 35.5166C57.9993 35.7241 58.0376 35.9727 57.9803 36.2083L57.3284 38.8151C57.2789 39.0137 57.1644 39.1901 57.0032 39.3162C56.842 39.4423 56.6433 39.5109 56.4386 39.5112Z" fill="#273B98"/>
<path d="M53.2242 52.3015C53.149 52.3015 53.0741 52.2922 53.0011 52.2739L20.8259 44.2026C20.5897 44.1434 20.3867 43.9928 20.2615 43.7839C20.1363 43.5751 20.0992 43.325 20.1584 43.0888L28.8734 8.33335C28.9024 8.21621 28.9543 8.10599 29.0262 8.00906C29.0981 7.91213 29.1885 7.83041 29.2921 7.76863L40.5672 1.01956C40.6705 0.957295 40.7851 0.916144 40.9045 0.898491C41.0238 0.880837 41.1454 0.887033 41.2623 0.916718L64.4295 6.72918C64.6658 6.78837 64.8688 6.93896 64.994 7.14784C65.1192 7.35673 65.1563 7.60678 65.0971 7.84301L61.7914 21.0115C61.7649 21.1313 61.7145 21.2446 61.6434 21.3447C61.5723 21.4447 61.4819 21.5295 61.3775 21.594C61.273 21.6585 61.1567 21.7014 61.0354 21.7202C60.9142 21.739 60.7903 21.7332 60.6713 21.7033C60.5522 21.6734 60.4404 21.62 60.3424 21.5461C60.2443 21.4722 60.1621 21.3795 60.1006 21.2733C60.039 21.1671 59.9993 21.0496 59.984 20.9279C59.9686 20.8061 59.9778 20.6825 60.011 20.5643L63.0917 8.28652L41.1843 2.79085L30.5611 9.14875L22.1629 42.6443L52.5567 50.2657L53.9689 44.6369C53.995 44.5167 54.045 44.4029 54.1159 44.3023C54.1869 44.2018 54.2773 44.1165 54.3818 44.0516C54.4864 43.9866 54.6029 43.9434 54.7244 43.9244C54.846 43.9054 54.9702 43.911 55.0895 43.9409C55.2089 43.9708 55.321 44.0244 55.4193 44.0985C55.5175 44.1726 55.5999 44.2657 55.6614 44.3723C55.723 44.4788 55.7625 44.5967 55.7776 44.7188C55.7927 44.8409 55.7831 44.9648 55.7494 45.0832L54.1149 51.6027C54.0652 51.8013 53.9505 51.9775 53.7891 52.1035C53.6278 52.2294 53.4289 52.2978 53.2242 52.2978V52.3015Z" fill="#273B98"/>
<path d="M58.6616 30.6406C58.5858 30.6404 58.5102 30.6312 58.4366 30.613C58.3196 30.5836 58.2096 30.5315 58.1128 30.4595C58.016 30.3876 57.9343 30.2973 57.8724 30.1937C57.8104 30.0902 57.7695 29.9755 57.752 29.8562C57.7344 29.7369 57.7405 29.6152 57.77 29.4983L58.4412 26.8354C58.4683 26.716 58.519 26.6033 58.5903 26.5039C58.6616 26.4044 58.7521 26.3202 58.8564 26.2562C58.9607 26.1922 59.0767 26.1497 59.1977 26.1312C59.3186 26.1127 59.4421 26.1185 59.5607 26.1484C59.6794 26.1782 59.7909 26.2315 59.8887 26.3051C59.9865 26.3787 60.0686 26.471 60.1301 26.5768C60.1917 26.6825 60.2315 26.7995 60.2473 26.9209C60.263 27.0422 60.2543 27.1655 60.2217 27.2835L59.5514 29.9464C59.5015 30.1446 59.3869 30.3205 59.2257 30.4463C59.0645 30.572 58.866 30.6404 58.6616 30.6406Z" fill="#273B98"/>
<path d="M38.7771 11.7346C38.7015 11.7349 38.6263 11.7257 38.553 11.707L29.5433 9.44724C29.4256 9.41865 29.3147 9.36704 29.217 9.2954C29.1193 9.22376 29.0368 9.1335 28.9741 9.02981C28.9115 8.92613 28.87 8.81108 28.852 8.69129C28.834 8.57149 28.8399 8.44932 28.8693 8.33182C28.8988 8.21431 28.9512 8.10379 29.0235 8.00662C29.0958 7.90946 29.1867 7.82756 29.2908 7.76566C29.3949 7.70376 29.5103 7.66307 29.6302 7.64594C29.7501 7.62881 29.8722 7.63558 29.9895 7.66586L38.1095 9.70251L40.148 1.58343C40.1741 1.46317 40.2241 1.34938 40.295 1.24883C40.366 1.14827 40.4564 1.063 40.5609 0.998074C40.6655 0.933148 40.782 0.889896 40.9035 0.870886C41.0251 0.851876 41.1493 0.857497 41.2686 0.887415C41.388 0.917333 41.5001 0.970936 41.5984 1.04504C41.6966 1.11915 41.779 1.21224 41.8405 1.3188C41.9021 1.42535 41.9416 1.54319 41.9567 1.66531C41.9718 1.78743 41.9622 1.91135 41.9285 2.02969L39.6687 11.0395C39.619 11.2379 39.5045 11.414 39.3433 11.5399C39.1821 11.6659 38.9835 11.7344 38.7789 11.7346H38.7771Z" fill="#273B98"/>
<path d="M49.9075 43.2581C49.8319 43.2585 49.7566 43.2492 49.6834 43.2306L28.0276 37.7937C27.7929 37.7331 27.5917 37.5822 27.4678 37.3738C27.3439 37.1654 27.3075 36.9166 27.3664 36.6814C27.4253 36.4463 27.5748 36.244 27.7823 36.1187C27.9897 35.9933 28.2383 35.9551 28.4739 36.0123L50.1297 41.4501C50.3461 41.5053 50.535 41.6374 50.661 41.8218C50.787 42.0062 50.8415 42.2302 50.8142 42.4519C50.787 42.6736 50.6799 42.8777 50.513 43.0261C50.3461 43.1745 50.1308 43.257 49.9075 43.2581Z" fill="#273B98"/>
<path d="M51.6832 36.1785C51.6076 36.1789 51.5323 36.1696 51.4591 36.151L29.7987 30.7178C29.5685 30.6531 29.3727 30.5012 29.2527 30.2943C29.1328 30.0875 29.0983 29.842 29.1566 29.6101C29.2148 29.3782 29.3612 29.1782 29.5646 29.0525C29.7681 28.9269 30.0125 28.8855 30.2459 28.9373L51.9026 34.3705C52.1191 34.4257 52.3081 34.5579 52.4341 34.7424C52.5601 34.9269 52.6145 35.151 52.5871 35.3728C52.5597 35.5945 52.4525 35.7987 52.2854 35.947C52.1183 36.0953 51.9029 36.1776 51.6795 36.1785H51.6832Z" fill="#273B98"/>
<path d="M53.4623 29.0982C53.3867 29.0985 53.3114 29.0893 53.2382 29.0706L31.5742 23.6374C31.4539 23.6113 31.3401 23.5613 31.2395 23.4904C31.139 23.4194 31.0537 23.329 30.9888 23.2245C30.9239 23.12 30.8806 23.0034 30.8616 22.8819C30.8426 22.7603 30.8482 22.6361 30.8781 22.5168C30.9081 22.3974 30.9617 22.2853 31.0358 22.187C31.1099 22.0888 31.203 22.0065 31.3095 21.9449C31.4161 21.8834 31.5339 21.8438 31.656 21.8287C31.7782 21.8136 31.9021 21.8232 32.0204 21.8569L53.6799 27.2901C53.8963 27.3453 54.0852 27.4775 54.2112 27.6619C54.3372 27.8463 54.3917 28.0703 54.3644 28.2919C54.3372 28.5136 54.2301 28.7178 54.0632 28.8662C53.8963 29.0146 53.681 29.097 53.4577 29.0982H53.4623Z" fill="#273B98"/>
<path d="M55.234 22.0201C55.1585 22.02 55.0833 22.0107 55.01 21.9925L33.3533 16.5584C33.2334 16.5318 33.1202 16.4815 33.0201 16.4104C32.9201 16.3393 32.8353 16.2488 32.7708 16.1444C32.7063 16.04 32.6634 15.9237 32.6446 15.8024C32.6258 15.6811 32.6315 15.5573 32.6614 15.4382C32.6913 15.3192 32.7448 15.2073 32.8187 15.1093C32.8925 15.0113 32.9853 14.9291 33.0915 14.8675C33.1977 14.8059 33.3151 14.7663 33.4369 14.7509C33.5587 14.7355 33.6823 14.7447 33.8005 14.7779L55.4608 20.2111C55.6782 20.2656 55.8681 20.3976 55.9948 20.5824C56.1216 20.7672 56.1764 20.9919 56.1489 21.2142C56.1215 21.4366 56.0137 21.6413 55.8459 21.7897C55.6781 21.9381 55.4618 22.02 55.2377 22.0201H55.234Z" fill="#273B98"/>
<path d="M57.0106 14.9406C56.9351 14.9405 56.8599 14.9313 56.7866 14.9131L44.0258 11.7158C43.7896 11.6565 43.5866 11.5058 43.4615 11.2968C43.3364 11.0878 43.2994 10.8377 43.3587 10.6015C43.418 10.3653 43.5687 10.1623 43.7777 10.0372C43.9866 9.91205 44.2367 9.87508 44.473 9.93438L57.2365 13.1354C57.4538 13.1898 57.6436 13.3218 57.7704 13.5064C57.8971 13.6911 57.952 13.9157 57.9247 14.138C57.8974 14.3603 57.7898 14.565 57.6221 14.7135C57.4544 14.862 57.2383 14.9441 57.0143 14.9443L57.0106 14.9406Z" fill="#273B98"/>
<path d="M24.3892 50.4087H9.46414C9.22061 50.4087 8.98705 50.312 8.81484 50.1398C8.64264 49.9676 8.5459 49.734 8.5459 49.4905C8.5459 49.247 8.64264 49.0134 8.81484 48.8412C8.98705 48.669 9.22061 48.5723 9.46414 48.5723H24.3892C24.6328 48.5723 24.8663 48.669 25.0385 48.8412C25.2107 49.0134 25.3075 49.247 25.3075 49.4905C25.3075 49.734 25.2107 49.9676 25.0385 50.1398C24.8663 50.312 24.6328 50.4087 24.3892 50.4087Z" fill="#273B98"/>
<path d="M4.2879 50.4087H2.00515C1.76162 50.4087 1.52806 50.312 1.35586 50.1398C1.18366 49.9676 1.08691 49.734 1.08691 49.4905C1.08691 49.247 1.18366 49.0134 1.35586 48.8412C1.52806 48.669 1.76162 48.5723 2.00515 48.5723H4.2879C4.53143 48.5723 4.76499 48.669 4.9372 48.8412C5.1094 49.0134 5.20614 49.247 5.20614 49.4905C5.20614 49.734 5.1094 49.9676 4.9372 50.1398C4.76499 50.312 4.53143 50.4087 4.2879 50.4087Z" fill="#273B98"/>
<path d="M31.9295 55.9664H17.0081C16.7646 55.9664 16.531 55.8696 16.3588 55.6974C16.1866 55.5252 16.0898 55.2917 16.0898 55.0481C16.0898 54.8046 16.1866 54.571 16.3588 54.3988C16.531 54.2266 16.7646 54.1299 17.0081 54.1299H31.9295C32.173 54.1299 32.4066 54.2266 32.5788 54.3988C32.751 54.571 32.8477 54.8046 32.8477 55.0481C32.8477 55.2917 32.751 55.5252 32.5788 55.6974C32.4066 55.8696 32.173 55.9664 31.9295 55.9664Z" fill="#273B98"/>
<path d="M11.8289 55.9664H9.54617C9.30264 55.9664 9.06908 55.8696 8.89688 55.6974C8.72467 55.5252 8.62793 55.2917 8.62793 55.0481C8.62793 54.8046 8.72467 54.571 8.89688 54.3988C9.06908 54.2266 9.30264 54.1299 9.54617 54.1299H11.8289C12.0725 54.1299 12.306 54.2266 12.4782 54.3988C12.6504 54.571 12.7472 54.8046 12.7472 55.0481C12.7472 55.2917 12.6504 55.5252 12.4782 55.6974C12.306 55.8696 12.0725 55.9664 11.8289 55.9664Z" fill="#273B98"/>
<path d="M17.6626 39.2378H8.01004C7.76651 39.2378 7.53295 39.1411 7.36074 38.9689C7.18854 38.7967 7.0918 38.5631 7.0918 38.3196C7.0918 38.0761 7.18854 37.8425 7.36074 37.6703C7.53295 37.4981 7.76651 37.4014 8.01004 37.4014H17.6626C17.9061 37.4014 18.1397 37.4981 18.3119 37.6703C18.4841 37.8425 18.5808 38.0761 18.5808 38.3196C18.5808 38.5631 18.4841 38.7967 18.3119 38.9689C18.1397 39.1411 17.9061 39.2378 17.6626 39.2378Z" fill="#273B98"/>
<path d="M3.38751 39.2378H1.7659C1.52236 39.2378 1.28881 39.1411 1.1166 38.9689C0.944399 38.7967 0.847656 38.5631 0.847656 38.3196C0.847656 38.0761 0.944399 37.8425 1.1166 37.6703C1.28881 37.4981 1.52236 37.4014 1.7659 37.4014H3.38751C3.63104 37.4014 3.8646 37.4981 4.0368 37.6703C4.20901 37.8425 4.30575 38.0761 4.30575 38.3196C4.30575 38.5631 4.20901 38.7967 4.0368 38.9689C3.8646 39.1411 3.63104 39.2378 3.38751 39.2378Z" fill="#273B98"/>
</svg>
