<svg width="69" height="60" viewBox="0 0 69 60" fill="none" xmlns="http://www.w3.org/2000/svg">
<path d="M31.2532 29.7305C24.4332 29.7305 18.8848 35.2791 18.8848 42.0993C18.8848 48.9216 24.4332 54.4718 31.2532 54.4718C38.0754 54.4718 43.6256 48.9215 43.6256 42.0993C43.6256 35.2791 38.0752 29.7305 31.2532 29.7305ZM31.2532 51.7773C25.919 51.7773 21.5792 47.4357 21.5792 42.0993C21.5792 36.7649 25.919 32.4249 31.2532 32.4249C36.5896 32.4249 40.9311 36.7648 40.9311 42.0993C40.9311 47.4359 36.5896 51.7773 31.2532 51.7773Z" fill="#273B98"/>
<path d="M35.1296 40.7524H32.6007V36.524C32.6007 35.7799 31.9974 35.1768 31.2535 35.1768C30.5095 35.1768 29.9062 35.7799 29.9062 36.524V42.0997C29.9062 42.8438 30.5095 43.4469 31.2535 43.4469H35.1296C35.8736 43.4469 36.4769 42.8438 36.4769 42.0997C36.4769 41.3556 35.8737 40.7524 35.1296 40.7524Z" fill="#273B98"/>
<path d="M65.0077 0H27.2048C25.0152 0 23.2339 1.78132 23.2339 3.97098V26.1864C21.6277 26.999 20.1613 28.0488 18.8788 29.2879H13.4188C12.6748 29.2879 12.0715 29.891 12.0715 30.6351C12.0715 31.3792 12.6748 31.9823 13.4188 31.9823H16.5912C15.9335 32.9324 15.3662 33.949 14.9007 35.0201H8.49609C7.75214 35.0201 7.14885 35.6233 7.14885 36.3673C7.14885 37.1114 7.75214 37.7146 8.49609 37.7146H13.9771C13.7274 38.6974 13.5604 39.7127 13.4822 40.7523H1.34724C0.603293 40.7523 0 41.3555 0 42.0996C0 42.8436 0.603293 43.4468 1.34724 43.4468H13.4815C13.5595 44.4866 13.7275 45.5016 13.9771 46.4846H8.49609C7.75214 46.4846 7.14885 47.0877 7.14885 47.8318C7.14885 48.5759 7.75214 49.179 8.49609 49.179H14.8982C15.3634 50.2501 15.9307 51.2667 16.5879 52.2168H13.4188C12.6748 52.2168 12.0715 52.8199 12.0715 53.564C12.0715 54.3081 12.6748 54.9113 13.4188 54.9113H18.8745C22.0828 58.0135 26.4486 59.9255 31.2528 59.9255C39.8339 59.9255 47.0178 53.8302 48.7037 45.7418H65.0077C67.1973 45.7418 68.9786 43.9605 68.9786 41.771V3.97098C68.9786 1.78132 67.1973 0 65.0077 0ZM41.2115 2.69448H51.0009V14.9096L46.8743 12.0349C46.4114 11.7123 45.7966 11.7125 45.3337 12.035L41.2113 14.9087V2.69448H41.2115ZM31.2528 57.2312C22.9115 57.2312 16.1255 50.4431 16.1255 42.0996C16.1255 33.758 22.9115 26.9717 31.2528 26.9717C39.5963 26.9717 46.3839 33.758 46.3839 42.0996C46.3839 50.4431 39.5961 57.2312 31.2528 57.2312ZM66.2841 41.7711C66.2841 42.4749 65.7115 43.0475 65.0077 43.0475H49.0532C49.0698 42.7336 49.0785 42.4175 49.0785 42.0996C49.0785 32.2723 41.082 24.2772 31.253 24.2772C29.3992 24.2772 27.6107 24.5622 25.9285 25.0897V3.97098C25.9285 3.26719 26.5011 2.69448 27.2049 2.69448H38.5173V17.4901C38.5173 17.992 38.7961 18.4523 39.2411 18.6844C39.686 18.9167 40.223 18.8823 40.635 18.5952L46.1049 14.7823L51.5785 18.5955C51.8087 18.756 52.078 18.8373 52.3487 18.8373C52.5619 18.8373 52.776 18.7868 52.972 18.6844C53.4169 18.4522 53.6958 17.992 53.6958 17.4901V2.69448H65.0081C65.7119 2.69448 66.2845 3.26705 66.2845 3.97098V41.7711H66.2841Z" fill="#273B98"/>
<path d="M5.61286 31.9826H7.90802C8.65196 31.9826 9.25525 31.3794 9.25525 30.6353C9.25525 29.8912 8.65196 29.2881 7.90802 29.2881H5.61286C4.86892 29.2881 4.26562 29.8912 4.26562 30.6353C4.26562 31.3794 4.86892 31.9826 5.61286 31.9826Z" fill="#273B98"/>
<path d="M7.90802 52.2168H5.61286C4.86892 52.2168 4.26562 52.82 4.26562 53.564C4.26562 54.3081 4.86892 54.9113 5.61286 54.9113H7.90802C8.65196 54.9113 9.25525 54.3081 9.25525 53.564C9.25525 52.82 8.6521 52.2168 7.90802 52.2168Z" fill="#273B98"/>
</svg>
