<svg width="49" height="49" viewBox="0 0 49 49" fill="none" xmlns="http://www.w3.org/2000/svg">
<mask id="mask0_515_133" style="mask-type:luminance" maskUnits="userSpaceOnUse" x="0" y="0" width="49" height="49">
<path d="M0 -0.00012207H48.6666V48.6665H0V-0.00012207Z" fill="white"/>
</mask>
<g mask="url(#mask0_515_133)">
<path d="M0.960938 47.7158H19.8264V41.1097H20.4945C22.0573 41.1097 23.3242 39.8422 23.3242 38.2785C23.3242 36.7149 22.0573 35.4474 20.4945 35.4474H19.8264V28.8412H13.2235V29.5097C13.2235 31.0734 11.9566 32.3409 10.3936 32.3409C8.83077 32.3409 7.56382 31.0734 7.56382 29.5097V28.8412H0.960938V47.7158Z" stroke="#273B98" stroke-width="2.67" stroke-miterlimit="10" stroke-linecap="round" stroke-linejoin="round"/>
<path d="M0.960938 29.1528V10.2783H19.8264H19.8271V16.8844H19.159C17.5963 16.8844 16.3293 18.1519 16.3293 19.7155C16.3293 21.2792 17.5963 22.5467 19.159 22.5467H19.8271V29.1528H19.8264" stroke="#273B98" stroke-width="2.67" stroke-miterlimit="10" stroke-linecap="round" stroke-linejoin="round"/>
<path d="M19.7207 47.7158H38.5861V41.1097H39.2542C40.817 41.1097 42.084 39.8422 42.084 38.2785C42.084 36.7149 40.817 35.4474 39.2542 35.4474H38.5861V28.8412H31.9832V28.1727C31.9832 26.6091 30.7162 25.3415 29.1533 25.3415C27.5904 25.3415 26.3236 26.6091 26.3236 28.1727V28.8412H19.7207" stroke="#273B98" stroke-width="2.67" stroke-miterlimit="10" stroke-linecap="round" stroke-linejoin="round"/>
<path d="M28.8378 19.8248V13.2187H28.1696C26.6068 13.2187 25.3398 11.9512 25.3398 10.3875C25.3398 8.82389 26.6068 7.55637 28.1696 7.55637H28.8378V0.950256H47.7032V19.8248V19.8257H41.1003V19.1573C41.1003 17.5936 39.8334 16.3261 38.2704 16.3261C36.7076 16.3261 35.4406 17.5936 35.4406 19.1573V19.8257H28.8378V19.8248Z" stroke="#273B98" stroke-width="2.67" stroke-miterlimit="10" stroke-linecap="round" stroke-linejoin="round"/>
</g>
</svg>
