<svg width="83" height="82" viewBox="0 0 83 82" fill="none" xmlns="http://www.w3.org/2000/svg">
<path d="M46.4951 17.9375H31.1201V20.5H46.4951V17.9375Z" fill="#F47805"/>
<path d="M46.4951 23.0625H25.9951V25.625H46.4951V23.0625Z" fill="#F47805"/>
<path d="M74.6826 14.0938H65.7139V2.5625C65.7139 2.22269 65.5789 1.8968 65.3386 1.65652C65.0983 1.41624 64.7724 1.28125 64.4326 1.28125H18.3076C17.9678 1.28125 17.6419 1.41624 17.4016 1.65652C17.1614 1.8968 17.0264 2.22269 17.0264 2.5625V12.7882L7.24659 20.7896C7.09965 20.9097 6.98124 21.061 6.89992 21.2325C6.8186 21.404 6.7764 21.5914 6.77637 21.7812V28.6359C5.27896 29.1653 3.98229 30.1456 3.06458 31.4418C2.14687 32.7381 1.65318 34.2868 1.65137 35.875V74.3125C1.6534 76.0109 2.329 77.6392 3.52996 78.8402C4.73093 80.0411 6.3592 80.7167 8.05762 80.7188H74.6826C76.381 80.7167 78.0093 80.0411 79.2103 78.8402C80.4112 77.6392 81.0868 76.0109 81.0889 74.3125V20.5C81.0889 18.801 80.4139 17.1715 79.2125 15.9701C78.0111 14.7687 76.3817 14.0938 74.6826 14.0938ZM19.5889 3.84375H63.1514V37.1562H52.9014V34.5938H59.3076V32.0312H52.9014V29.4688H59.3076V26.9062H52.9014V24.3438H59.3076V21.7812H52.9014V19.2188H59.3076V16.6562H52.9014V10.25C52.9014 9.91019 52.7664 9.5843 52.5261 9.34402C52.2858 9.10374 51.9599 8.96875 51.6201 8.96875H22.1514C21.8557 8.9688 21.5692 9.07111 21.3403 9.25831L19.5889 10.6908V3.84375ZM20.8701 12.9534V20.5H11.6451L20.8701 12.9534ZM9.33887 23.0625H22.1514C22.4912 23.0625 22.8171 22.9275 23.0573 22.6872C23.2976 22.447 23.4326 22.1211 23.4326 21.7812V11.5312H50.3389V37.1562H47.7764C47.3166 37.1543 46.8699 37.0035 46.5031 36.7263C46.1363 36.4491 45.8691 36.0605 45.7417 35.6187L44.5886 31.5777C44.3058 30.6021 43.7145 29.7445 42.9033 29.1333C42.092 28.5221 41.1046 28.1903 40.0889 28.1875H9.33887V23.0625ZM8.05762 78.1562C7.03819 78.1562 6.06052 77.7513 5.33968 77.0304C4.61883 76.3096 4.21387 75.3319 4.21387 74.3125V35.875C4.21387 34.5158 4.75382 33.2122 5.71494 32.2511C6.67607 31.29 7.97963 30.75 9.33887 30.75H40.0889C40.5486 30.7519 40.9954 30.9028 41.3622 31.18C41.729 31.4572 41.9961 31.8457 42.1235 32.2875L43.2766 36.3286C43.5594 37.3041 44.1507 38.1617 44.962 38.7729C45.7732 39.3841 46.7607 39.716 47.7764 39.7188H64.4326C65.452 39.7188 66.4297 40.1237 67.1506 40.8446C67.8714 41.5654 68.2764 42.5431 68.2764 43.5625V74.3125C68.2745 75.6989 68.7243 77.0482 69.5576 78.1562H8.05762ZM78.5264 74.3125C78.5264 75.3319 78.1214 76.3096 77.4006 77.0304C76.6797 77.7513 75.702 78.1562 74.6826 78.1562C73.6632 78.1562 72.6855 77.7513 71.9647 77.0304C71.2438 76.3096 70.8389 75.3319 70.8389 74.3125V43.5625C70.837 42.0862 70.3262 40.6558 69.3927 39.5121C68.4591 38.3685 67.1599 37.5817 65.7139 37.2844V16.6562H74.6826C75.702 16.6562 76.6797 17.0612 77.4006 17.7821C78.1214 18.5029 78.5264 19.4806 78.5264 20.5V74.3125Z" fill="#F47805"/>
<path d="M40.0889 52.5312H37.8428C37.7724 52.3506 37.7006 52.1738 37.625 52.0021L39.2138 50.4133C39.454 50.1731 39.5889 49.8472 39.5889 49.5075C39.5889 49.1678 39.454 48.8419 39.2138 48.6017L33.7685 43.1563C33.5282 42.9161 33.2024 42.7812 32.8626 42.7812C32.5229 42.7812 32.197 42.9161 31.9568 43.1563L30.368 44.7451C30.1963 44.6695 30.0195 44.5977 29.8389 44.5273V42.2812C29.8389 41.9414 29.7039 41.6155 29.4636 41.3753C29.2233 41.135 28.8974 41 28.5576 41H20.8701C20.5303 41 20.2044 41.135 19.9641 41.3753C19.7239 41.6155 19.5889 41.9414 19.5889 42.2812V44.5273C19.4082 44.5977 19.2314 44.6695 19.0597 44.7451L17.471 43.1563C17.2307 42.9161 16.9049 42.7812 16.5651 42.7812C16.2254 42.7812 15.8995 42.9161 15.6593 43.1563L10.214 48.6017C9.97376 48.8419 9.83883 49.1678 9.83883 49.5075C9.83883 49.8472 9.97376 50.1731 10.214 50.4133L11.8027 52.0021C11.7271 52.1738 11.6554 52.3506 11.5849 52.5312H9.33887C8.99906 52.5312 8.67317 52.6662 8.43289 52.9065C8.19261 53.1468 8.05762 53.4727 8.05762 53.8125V61.5C8.05762 61.8398 8.19261 62.1657 8.43289 62.406C8.67317 62.6463 8.99906 62.7812 9.33887 62.7812H11.5849C11.6554 62.9619 11.7271 63.1387 11.8027 63.3104L10.214 64.8992C9.97376 65.1394 9.83883 65.4653 9.83883 65.805C9.83883 66.1447 9.97376 66.4706 10.214 66.7108L15.6593 72.1562C15.8995 72.3964 16.2254 72.5313 16.5651 72.5313C16.9049 72.5313 17.2307 72.3964 17.471 72.1562L19.0597 70.5674C19.2314 70.643 19.4082 70.7148 19.5889 70.7852V73.0312C19.5889 73.3711 19.7239 73.6969 19.9641 73.9372C20.2044 74.1775 20.5303 74.3125 20.8701 74.3125H28.5576C28.8974 74.3125 29.2233 74.1775 29.4636 73.9372C29.7039 73.6969 29.8389 73.3711 29.8389 73.0312V70.7852C30.0195 70.7148 30.1963 70.643 30.368 70.5674L31.9568 72.1562C32.197 72.3964 32.5229 72.5313 32.8626 72.5313C33.2024 72.5313 33.5282 72.3964 33.7685 72.1562L39.2138 66.7108C39.454 66.4706 39.5889 66.1447 39.5889 65.805C39.5889 65.4653 39.454 65.1394 39.2138 64.8992L37.625 63.3104C37.7006 63.1387 37.7724 62.9619 37.8428 62.7812H40.0889C40.4287 62.7812 40.7546 62.6463 40.9949 62.406C41.2351 62.1657 41.3701 61.8398 41.3701 61.5V53.8125C41.3701 53.4727 41.2351 53.1468 40.9949 52.9065C40.7546 52.6662 40.4287 52.5312 40.0889 52.5312ZM38.8076 60.2188H36.937C36.6657 60.2188 36.4015 60.3049 36.1823 60.4647C35.9631 60.6244 35.8002 60.8497 35.7172 61.1079C35.5157 61.7518 35.2585 62.3768 34.9485 62.976C34.8203 63.2182 34.7732 63.4951 34.814 63.7661C34.8548 64.037 34.9815 64.2878 35.1753 64.4815L36.5014 65.805L32.8626 69.4438L31.5391 68.1202C31.3454 67.9264 31.0946 67.7998 30.8237 67.759C30.5527 67.7182 30.2758 67.7653 30.0336 67.8934C29.4344 68.2034 28.8094 68.4607 28.1656 68.6622C27.9077 68.7451 27.6828 68.9075 27.523 69.1262C27.3633 69.3449 27.2769 69.6086 27.2764 69.8794V71.75H22.1514V69.8794C22.1514 69.6081 22.0653 69.3439 21.9055 69.1247C21.7457 68.9055 21.5204 68.7426 21.2622 68.6596C20.6184 68.4581 19.9933 68.2009 19.3941 67.8909C19.1519 67.7627 18.875 67.7156 18.604 67.7564C18.3331 67.7972 18.0824 67.9238 17.8886 68.1177L16.5651 69.4438L12.9264 65.805L14.2499 64.4815C14.4437 64.2878 14.5703 64.037 14.6111 63.7661C14.652 63.4951 14.6048 63.2182 14.4767 62.976C14.1667 62.3768 13.9095 61.7518 13.7079 61.1079C13.6251 60.8501 13.4626 60.6252 13.2439 60.4654C13.0252 60.3057 12.7616 60.2193 12.4907 60.2188H10.6201V55.0938H12.4907C12.762 55.0937 13.0263 55.0076 13.2455 54.8478C13.4647 54.6881 13.6275 54.4628 13.7105 54.2046C13.912 53.5607 14.1692 52.9357 14.4792 52.3365C14.6074 52.0943 14.6545 51.8174 14.6137 51.5464C14.5729 51.2755 14.4463 51.0247 14.2525 50.831L12.9264 49.5075L16.5651 45.8687L17.8886 47.1923C18.0824 47.3861 18.3331 47.5127 18.604 47.5535C18.875 47.5943 19.1519 47.5472 19.3941 47.4191C19.9933 47.1091 20.6184 46.8518 21.2622 46.6503C21.52 46.5674 21.745 46.405 21.9047 46.1863C22.0645 45.9676 22.1508 45.7039 22.1514 45.4331V43.5625H27.2764V45.4331C27.2764 45.7044 27.3625 45.9686 27.5223 46.1878C27.6821 46.407 27.9073 46.5699 28.1656 46.6529C28.8094 46.8544 29.4344 47.1116 30.0336 47.4216C30.2758 47.5498 30.5527 47.5969 30.8237 47.5561C31.0946 47.5153 31.3454 47.3887 31.5391 47.1948L32.8626 45.8687L36.5014 49.5075L35.1778 50.831C34.984 51.0247 34.8574 51.2755 34.8166 51.5464C34.7758 51.8174 34.8229 52.0943 34.9511 52.3365C35.2611 52.9357 35.5183 53.5607 35.7198 54.2046C35.8027 54.4624 35.9651 54.6873 36.1838 54.8471C36.4025 55.0068 36.6662 55.0932 36.937 55.0938H38.8076V60.2188Z" fill="#F47805"/>
<path d="M24.7139 49.9688C23.1934 49.9688 21.7071 50.4196 20.4429 51.2643C19.1787 52.109 18.1934 53.3097 17.6115 54.7144C17.0297 56.1191 16.8775 57.6648 17.1741 59.156C17.4707 60.6472 18.2029 62.017 19.278 63.0921C20.3531 64.1672 21.7229 64.8994 23.2141 65.196C24.7053 65.4927 26.251 65.3404 27.6557 64.7586C29.0605 64.1767 30.2611 63.1914 31.1058 61.9272C31.9505 60.663 32.4014 59.1767 32.4014 57.6562C32.3993 55.618 31.5888 53.6639 30.1475 52.2226C28.7063 50.7814 26.7521 49.9708 24.7139 49.9688ZM24.7139 62.7812C23.7002 62.7812 22.7094 62.4807 21.8666 61.9175C21.0238 61.3544 20.3669 60.554 19.979 59.6175C19.5911 58.681 19.4896 57.6506 19.6873 56.6564C19.8851 55.6623 20.3732 54.7491 21.0899 54.0323C21.8067 53.3156 22.7199 52.8275 23.714 52.6297C24.7082 52.432 25.7387 52.5335 26.6751 52.9214C27.6116 53.3093 28.412 53.9661 28.9752 54.809C29.5383 55.6518 29.8389 56.6426 29.8389 57.6562C29.8389 59.0155 29.2989 60.319 28.3378 61.2802C27.3767 62.2413 26.0731 62.7812 24.7139 62.7812Z" fill="#F47805"/>
</svg>
