<svg width="100" height="100" viewBox="0 0 100 100" fill="none" xmlns="http://www.w3.org/2000/svg">
<g clip-path="url(#clip0_155_9062)">
<path d="M45.4033 5.61887C45.2908 4.78665 44.5262 4.20286 43.6926 4.31556C33.6526 5.67337 24.1878 10.413 17.0417 17.6608C10.8927 23.8977 6.62889 31.8262 4.78437 40.3283L2.83457 36.9842C2.41172 36.2588 1.48047 36.0135 0.75489 36.4363C0.0295025 36.8594 -0.215809 37.7904 0.207236 38.516L4.26777 45.4802C4.48261 45.8488 4.84276 46.1103 5.25995 46.2004C5.29354 46.2078 5.32753 46.2117 5.36151 46.2168C5.37558 46.2189 5.38905 46.2222 5.40331 46.224C5.40468 46.2242 5.40604 46.224 5.40741 46.2242C5.46542 46.2308 5.52343 46.2347 5.58143 46.2347C5.58143 46.2347 5.58182 46.2347 5.58222 46.2347C5.58358 46.2347 5.58495 46.2349 5.58632 46.2349C5.66034 46.2349 5.733 46.2281 5.80448 46.2175C5.80995 46.2168 5.81542 46.2162 5.82069 46.2152C5.89589 46.2035 5.96913 46.1861 6.04061 46.1636C6.041 46.1634 6.04139 46.1634 6.04178 46.1632C6.20917 46.1103 6.36522 46.0295 6.50331 45.9246L13.0371 41.2914C13.7222 40.8055 13.8837 39.8564 13.398 39.1715C12.9123 38.4861 11.963 38.3248 11.2779 38.8105L7.67029 41.3687C9.34451 33.277 13.3666 25.7206 19.2076 19.7962C25.8833 13.0251 34.7237 8.59777 44.1002 7.32961C44.9325 7.21691 45.5158 6.4511 45.4033 5.61887Z" fill="#F47805"/>
<path d="M45.9546 93.5393L41.2913 86.963C40.8056 86.2776 39.8564 86.1163 39.1712 86.602C38.4861 87.088 38.3245 88.037 38.8103 88.7219L41.4261 92.411C33.1878 90.7719 25.7021 86.8011 19.6426 80.8278C12.9401 74.2202 8.6602 65.8341 7.26626 56.5758C7.14106 55.7453 6.36782 55.1721 5.53618 55.2986C4.70572 55.4236 4.13385 56.1982 4.25885 57.0287C5.75161 66.9423 10.333 75.9208 17.5078 82.9935C23.8478 89.2434 31.6484 93.445 40.2347 95.27L36.9839 97.1653C36.2583 97.5883 36.013 98.5194 36.4361 99.2449C36.7187 99.7297 37.2279 100 37.7511 100C38.0113 100 38.2747 99.9332 38.5155 99.793L45.48 95.7327C45.8487 95.5176 46.11 95.1577 46.2005 94.7405C46.2907 94.3233 46.2015 93.8875 45.9546 93.5393Z" fill="#F47805"/>
<path d="M99.7926 61.4847L95.7321 54.5203C95.5172 54.1516 95.1573 53.89 94.7401 53.8C94.3227 53.7092 93.887 53.799 93.5389 54.0457L86.9628 58.7088C86.2776 59.1947 86.1161 60.1437 86.6018 60.8287C87.0876 61.514 88.0368 61.6754 88.722 61.1896L92.2405 58.6945C90.5466 67.1123 86.4259 74.7282 80.2384 80.8278C73.5294 87.4413 65.0722 91.6012 55.7809 92.8581C54.9486 92.9708 54.3653 93.7366 54.4778 94.5688C54.5809 95.3319 55.2334 95.886 55.9828 95.886C56.0506 95.886 56.1193 95.8815 56.1885 95.8721C66.1373 94.5264 75.1919 90.0733 82.3733 82.9936C88.9264 76.5337 93.3147 68.4833 95.1635 59.5834L97.1651 63.0166C97.4477 63.5013 97.9569 63.7716 98.4801 63.7716C98.7403 63.7716 99.0037 63.7049 99.2446 63.5646C99.9703 63.1412 100.216 62.2101 99.7926 61.4847Z" fill="#F47805"/>
<path d="M95.807 44.5329C94.5978 34.4591 89.9927 24.916 82.8398 17.6609C76.4828 11.2133 68.2905 6.75316 59.4909 4.89028L63.0167 2.83462C63.7422 2.41157 63.9876 1.48052 63.5645 0.75494C63.1417 0.0293571 62.2102 -0.215369 61.485 0.207091L54.52 4.26801C54.1513 4.48305 53.8899 4.84301 53.7995 5.2602C53.7093 5.67738 53.7985 6.11312 54.0454 6.46136L58.7085 13.0375C59.0052 13.4557 59.4741 13.6787 59.9505 13.6787C60.2546 13.6787 60.5618 13.5877 60.8288 13.3983C61.5139 12.9123 61.6755 11.9633 61.1897 11.2783L58.754 7.84319C67.0143 9.56897 74.7086 13.7459 80.674 19.7963C87.3562 26.5736 91.6582 35.4874 92.7872 44.8954C92.88 45.6679 93.5363 46.235 94.2953 46.235C94.3556 46.235 94.4167 46.2315 94.4783 46.2239C95.3122 46.1239 95.907 45.3667 95.807 44.5329Z" fill="#F47805"/>
<path d="M56.1325 59.9426C55.4524 59.4697 54.5179 59.6371 54.0446 60.3172L47.7446 69.3724L52.9147 54.3967C53.0731 53.9385 52.9999 53.4318 52.7184 53.0369C52.437 52.642 51.9819 52.4074 51.497 52.4074H37.1029L41.3202 46.3457C41.7933 45.6657 41.6257 44.7311 40.9456 44.2581C40.2658 43.7852 39.3308 43.9528 38.8578 44.6327L33.0009 53.0508C32.6822 53.509 32.6443 54.1068 32.9029 54.6018C33.1615 55.0969 33.6738 55.4072 34.2322 55.4072H49.3923L41.3771 78.6235C41.1326 79.3312 41.4478 80.1108 42.1154 80.4501C42.332 80.5603 42.5644 80.613 42.7939 80.613C43.2716 80.613 43.7372 80.3849 44.0263 79.9694L56.5071 62.0302C56.9801 61.3502 56.8126 60.4156 56.1325 59.9426Z" fill="#F47805"/>
<path d="M67.0974 45.3987C66.8388 44.9035 66.3265 44.5932 65.7681 44.5932H50.608L58.6232 21.3769C58.8678 20.6693 58.5525 19.8896 57.885 19.5503C57.2174 19.2109 56.402 19.4161 55.9742 20.031L42.8997 38.8235C42.4266 39.5036 42.5942 40.4381 43.2743 40.9112C43.9544 41.3842 44.8891 41.2165 45.3622 40.5366L52.2559 30.6278L47.0858 45.6035C46.9274 46.0617 47.0006 46.5684 47.2821 46.9633C47.5635 47.3582 48.0186 47.5928 48.5036 47.5928H62.8976L58.1443 54.4246C57.6713 55.1047 57.8389 56.0392 58.5189 56.5123C58.7801 56.6939 59.0785 56.7812 59.3742 56.7812C59.8484 56.7812 60.3152 56.5566 60.6068 56.1379L66.9994 46.9496C67.3181 46.4914 67.356 45.8936 67.0974 45.3987Z" fill="#F47805"/>
</g>
<defs>
<clipPath id="clip0_155_9062">
<rect width="100" height="100" fill="white"/>
</clipPath>
</defs>
</svg>
