<svg width="78" height="70" viewBox="0 0 78 70" fill="none" xmlns="http://www.w3.org/2000/svg">
<path d="M0.981919 33.3438C0.981919 32.6348 1.54522 32.06 2.23998 32.06H8.18607C8.88083 32.06 9.44413 32.6348 9.44413 33.3438C9.44413 34.0527 8.88083 34.6275 8.18607 34.6275H2.23998C1.54506 34.6275 0.981919 34.0527 0.981919 33.3438ZM12.9527 34.6275H18.8988C19.5936 34.6275 20.1569 34.0527 20.1569 33.3438C20.1569 32.6348 19.5936 32.06 18.8988 32.06H12.9527C12.258 32.06 11.6947 32.6348 11.6947 33.3438C11.6947 34.0527 12.2578 34.6275 12.9527 34.6275ZM7.55798 37.8997C6.86321 37.8997 6.29992 38.4745 6.29992 39.1835C6.29992 39.8924 6.86321 40.4672 7.55798 40.4672H13.5041C14.1988 40.4672 14.7621 39.8924 14.7621 39.1835C14.7621 38.4745 14.1988 37.8997 13.5041 37.8997H7.55798ZM8.12568 45.023C8.12568 44.314 7.56238 43.7392 6.86762 43.7392H1.25806C0.563298 43.7392 0 44.314 0 45.023C0 45.7319 0.563298 46.3067 1.25806 46.3067H6.86762C7.56238 46.3067 8.12568 45.7319 8.12568 45.023ZM18.8384 45.023C18.8384 44.314 18.2751 43.7392 17.5804 43.7392H11.6343C10.9395 43.7392 10.3762 44.314 10.3762 45.023C10.3762 45.7319 10.9395 46.3067 11.6343 46.3067H17.5804C18.2751 46.3067 18.8384 45.7319 18.8384 45.023ZM13.5039 49.5789H7.55798C6.86321 49.5789 6.29992 50.1537 6.29992 50.8626C6.29992 51.5716 6.86321 52.1464 7.55798 52.1464H13.5041C14.1988 52.1464 14.7621 51.5716 14.7621 50.8626C14.7621 50.1537 14.1988 49.5789 13.5039 49.5789ZM47.2263 28.6167C47.9211 28.6167 48.4844 28.0418 48.4844 27.3329V25.5372C48.4844 24.8283 47.9211 24.2535 47.2263 24.2535C46.5316 24.2535 45.9683 24.8283 45.9683 25.5372V27.3329C45.9683 28.0418 46.5314 28.6167 47.2263 28.6167ZM57.4613 32.9428C57.7832 32.9428 58.1053 32.8174 58.3509 32.5666L59.5953 31.2968C60.0866 30.7955 60.0866 29.9827 59.5953 29.4814C59.104 28.9803 58.3075 28.9801 57.8161 29.4816L56.5717 30.7514C56.0804 31.2527 56.0804 32.0655 56.5717 32.5668C56.8173 32.8174 57.1394 32.9428 57.4613 32.9428ZM58.3509 51.6396C57.8596 51.1383 57.0631 51.1382 56.5717 51.6395C56.0804 52.1408 56.0803 52.9536 56.5717 53.4549L57.8161 54.7247C58.0617 54.9753 58.3836 55.1008 58.7057 55.1008C59.0276 55.1008 59.3497 54.9755 59.5953 54.7248C60.0866 54.2235 60.0867 53.4107 59.5953 52.9094L58.3509 51.6396ZM36.1014 51.6396L34.857 52.9094C34.3658 53.4107 34.3658 54.2235 34.857 54.7248C35.1027 54.9755 35.4246 55.1008 35.7466 55.1008C36.0687 55.1008 36.3906 54.9755 36.6363 54.7247L37.8806 53.4549C38.3719 52.9536 38.3719 52.1408 37.8806 51.6395C37.3894 51.1383 36.5928 51.1382 36.1014 51.6396ZM36.6364 29.4816C36.1451 28.9803 35.3486 28.9803 34.8572 29.4814C34.3659 29.9827 34.3658 30.7955 34.8572 31.2968L36.1016 32.5666C36.3472 32.8173 36.6691 32.9428 36.9912 32.9428C37.3131 32.9428 37.6352 32.8174 37.8808 32.5668C38.3721 32.0655 38.3722 31.2527 37.8808 30.7514L36.6364 29.4816ZM61.7008 43.3868H63.4605C64.1553 43.3868 64.7186 42.812 64.7186 42.1031C64.7186 41.3941 64.1553 40.8193 63.4605 40.8193H61.7008C61.0061 40.8193 60.4428 41.3941 60.4428 42.1031C60.4428 42.812 61.0061 43.3868 61.7008 43.3868ZM47.2263 55.5896C46.5316 55.5896 45.9683 56.1644 45.9683 56.8734V58.669C45.9683 59.378 46.5316 59.9528 47.2263 59.9528C47.9211 59.9528 48.4844 59.378 48.4844 58.669V56.8734C48.4844 56.1644 47.9211 55.5896 47.2263 55.5896ZM32.7517 40.8193H30.9919C30.2972 40.8193 29.7339 41.3941 29.7339 42.1031C29.7339 42.812 30.2972 43.3868 30.9919 43.3868H32.7517C33.4464 43.3868 34.0097 42.812 34.0097 42.1031C34.0097 41.3941 33.4466 40.8193 32.7517 40.8193ZM51.0782 40.8195H56.7799C57.4747 40.8195 58.038 41.3943 58.038 42.1032C58.038 42.8122 57.4747 43.387 56.7799 43.387H51.0782C50.5476 45.0406 49.0219 46.2388 47.2262 46.2388C44.9914 46.2388 43.1733 44.3835 43.1733 42.1032C43.1733 40.271 44.3476 38.7139 45.9681 38.1725V32.3543C45.9681 31.6454 46.5314 31.0706 47.2262 31.0706C47.9209 31.0706 48.4842 31.6454 48.4842 32.3543V38.1725C49.7086 38.5815 50.6774 39.5702 51.0782 40.8195ZM48.7631 42.1032C48.7631 41.2384 48.0736 40.5351 47.2263 40.5351C46.3789 40.5351 45.6896 41.2386 45.6896 42.1032C45.6896 42.9678 46.379 43.6713 47.2263 43.6713C48.0736 43.6715 48.7631 42.968 48.7631 42.1032ZM78 4.46541V20.4121C78 22.8745 76.0368 24.8777 73.6238 24.8777H68.7318C72.5103 29.7749 74.5647 35.7916 74.5647 42.1032C74.5647 57.4854 62.3008 70 47.2263 70C35.6201 70 25.6812 62.5807 21.7217 52.1464H19.4501C18.7554 52.1464 18.1921 51.5716 18.1921 50.8626C18.1921 50.1537 18.7554 49.5789 19.4501 49.5789H20.8864C20.2368 47.1986 19.8881 44.6918 19.8881 42.1032C19.8881 36.1071 21.7519 30.5468 24.9191 25.9936L23.5093 24.555C22.5345 23.5604 22.5345 21.9419 23.5093 20.9471L26.4939 17.9016C26.9654 17.4205 27.5933 17.1556 28.2618 17.1556C28.9301 17.1556 29.5581 17.4205 30.0297 17.9016L31.4395 19.3402C34.7086 16.9725 38.5076 15.3203 42.616 14.6052V12.1181H42.4694C41.0907 12.1181 39.9693 10.8916 39.9693 9.3843V7.13483C39.9693 5.62737 41.0909 4.40122 42.4694 4.40122H46.4117C46.4457 1.96865 48.3944 0 50.7863 0H73.6241C76.0368 0 78 2.00331 78 4.46541ZM52.1664 30.0753V24.8777H50.786C49.1452 24.8777 47.713 23.9508 46.9642 22.5838C36.5353 22.7276 28.0943 31.4276 28.0943 42.1032C28.0943 52.868 36.677 61.6259 47.2263 61.6259C57.7757 61.6259 66.3583 52.868 66.3583 42.1032C66.3583 35.8837 63.4815 30.0968 58.6142 26.4158L54.3319 30.9647C54.0899 31.2217 53.7604 31.3591 53.4243 31.3591C53.2665 31.3591 53.1072 31.3289 52.9549 31.2662C52.4784 31.0706 52.1664 30.5993 52.1664 30.0753ZM42.5286 9.55055H46.4098V6.96874H42.5286C42.51 6.99682 42.4851 7.05202 42.4851 7.13483V9.3843C42.4851 9.46726 42.51 9.52246 42.5286 9.55055ZM45.1318 14.2875C45.5551 14.2546 45.9815 14.2327 46.4098 14.2199V12.1181H45.1318V14.2875ZM26.4802 23.9561C27.3909 22.8736 28.3813 21.8629 29.4422 20.9335L28.2613 19.7285L25.2994 22.751L26.4802 23.9561ZM65.4239 24.8777H60.7815C65.8826 29.0557 68.8745 35.3548 68.8745 42.1032C68.8745 54.2837 59.1632 64.1934 47.2263 64.1934C35.2895 64.1934 25.578 54.2837 25.578 42.1032C25.578 30.2016 34.8498 20.4699 46.4098 20.0302V16.789C33.0994 17.2303 22.4039 28.4154 22.4039 42.1032C22.4039 56.0697 33.5392 67.4325 47.2262 67.4325C60.9131 67.4325 72.0486 56.0697 72.0486 42.1032C72.0486 35.6714 69.6996 29.5763 65.4239 24.8777ZM75.4839 4.46541C75.4839 3.41898 74.6495 2.56752 73.6238 2.56752H50.786C49.7604 2.56752 48.926 3.41898 48.926 4.46541V20.4121C48.926 21.4587 49.7604 22.3102 50.786 22.3102H53.4245C54.1193 22.3102 54.6826 22.885 54.6826 23.5939V26.886L58.6189 22.7046C58.856 22.4527 59.1838 22.3102 59.5261 22.3102H73.6238C74.6495 22.3102 75.4839 21.4587 75.4839 20.4121V4.46541ZM70.0786 11.1551H54.3312C53.6365 11.1551 53.0732 11.7299 53.0732 12.4388C53.0732 13.1478 53.6365 13.7226 54.3312 13.7226H70.0788C70.7735 13.7226 71.3368 13.1478 71.3368 12.4388C71.3368 11.7299 70.7735 11.1551 70.0786 11.1551ZM70.0786 16.8858H54.3312C53.6365 16.8858 53.0732 17.4606 53.0732 18.1696C53.0732 18.8785 53.6365 19.4533 54.3312 19.4533H70.0788C70.7735 19.4533 71.3368 18.8785 71.3368 18.1696C71.3368 17.4606 70.7735 16.8858 70.0786 16.8858ZM70.0786 5.42438H54.3312C53.6365 5.42438 53.0732 5.99918 53.0732 6.70814C53.0732 7.41709 53.6365 7.9919 54.3312 7.9919H70.0788C70.7735 7.9919 71.3368 7.41709 71.3368 6.70814C71.3368 5.99918 70.7735 5.42438 70.0786 5.42438Z" fill="#273B98"/>
</svg>
