<?xml version="1.0" encoding="utf-8"?>
<!-- Generator: Adobe Illustrator 16.0.0, SVG Export Plug-In . SVG Version: 6.00 Build 0)  -->
<!DOCTYPE svg PUBLIC "-//W3C//DTD SVG 1.1//EN" "http://www.w3.org/Graphics/SVG/1.1/DTD/svg11.dtd">
<svg version="1.1" id="Layer_1" xmlns="http://www.w3.org/2000/svg" xmlns:xlink="http://www.w3.org/1999/xlink" x="0px" y="0px"
	 width="200px" height="200px" viewBox="0 0 200 200" enable-background="new 0 0 200 200" xml:space="preserve">
<g id="XMLID_538_">
	<path id="XMLID_539_" display="none" fill="#FFFFFF" d="M191.04,136.932c-60.875,8.929-121.206,8.929-182.08,0
		c0-35.202,0-70.404,0-105.606c60.874,8.928,121.205,8.928,182.08,0C191.04,66.527,191.04,101.729,191.04,136.932z"/>
	<path id="XMLID_540_" display="none" fill="#F58B27" d="M191.04,61.368c0-10.014,0-20.029,0-30.043C132,34,69.5,33.5,8.96,31.325
		c0,10.014,0,20.029,0,30.043C69.834,70.296,130.165,70.296,191.04,61.368z"/>
	<path id="XMLID_541_" display="none" fill="#449B45" d="M191.04,136.932c0-10.015,0-20.029,0-30.043
		c-60.875,8.928-121.206,8.928-182.08,0c0,10.014,0,20.028,0,30.043C69.834,145.86,130.165,145.86,191.04,136.932z"/>
</g>
<rect x="9.46" y="50.325" fill="#F58B27" width="180.706" height="32.793"/>
<rect x="9.46" y="82.932" fill="#FFFFFF" width="180.706" height="32.794"/>
<rect x="9.46" y="115.539" fill="#449B45" width="180.706" height="32.794"/>
<g id="XMLID_542_">
	<path id="XMLID_543_" fill="#3462AE" stroke="#3462AE" stroke-width="0.1951" stroke-miterlimit="10" d="M110.932,99.145
		c-1.479-0.102-4.35-0.305-5.643-0.288c-1.348,0.018-2.529,0.23-3.025,0.333c-0.01-0.135-0.031-0.266-0.063-0.394
		c0.504-0.061,1.691-0.238,2.971-0.669c1.23-0.415,3.881-1.594,5.244-2.219c0.102-0.046,0.051-0.197-0.057-0.171
		c-1.449,0.357-4.26,1.047-5.49,1.46c-1.281,0.431-2.342,0.996-2.783,1.246c-0.051-0.124-0.109-0.242-0.18-0.354
		c0.459-0.212,1.535-0.746,2.627-1.548c1.045-0.77,3.217-2.695,4.328-3.701c0.082-0.074-0.012-0.203-0.107-0.144
		c-1.279,0.779-3.754,2.291-4.799,3.058c-1.092,0.801-1.926,1.663-2.27,2.036c-0.086-0.101-0.18-0.195-0.281-0.281
		c0.371-0.341,1.232-1.178,2.025-2.272c0.76-1.05,2.238-3.535,2.992-4.823c0.057-0.096-0.074-0.188-0.146-0.104
		c-0.984,1.125-2.881,3.309-3.643,4.357c-0.791,1.093-1.32,2.167-1.529,2.625c-0.113-0.069-0.232-0.129-0.357-0.18
		c0.249-0.44,0.81-1.498,1.226-2.777c0.4-1.229,1.041-4.035,1.361-5.484c0.025-0.108-0.127-0.156-0.172-0.054
		c-0.592,1.363-1.727,4.011-2.125,5.238c-0.416,1.28-0.586,2.463-0.644,2.963c-0.127-0.031-0.26-0.051-0.395-0.062
		c0.1-0.494,0.306-1.672,0.306-3.016c0-1.289-0.259-4.151-0.401-5.625c-0.01-0.11-0.17-0.11-0.182,0
		c-0.141,1.474-0.4,4.336-0.4,5.625c0,1.344,0.205,2.522,0.306,3.016c-0.134,0.01-0.267,0.031-0.396,0.062
		c-0.057-0.5-0.227-1.684-0.643-2.963c-0.4-1.228-1.534-3.875-2.125-5.238c-0.044-0.102-0.197-0.054-0.173,0.054
		c0.322,1.449,0.963,4.255,1.363,5.484c0.416,1.28,0.977,2.337,1.225,2.777c-0.124,0.05-0.242,0.111-0.355,0.18
		c-0.21-0.458-0.738-1.533-1.53-2.625c-0.76-1.048-2.657-3.232-3.642-4.357c-0.073-0.083-0.203,0.009-0.147,0.104
		c0.754,1.288,2.233,3.773,2.992,4.823c0.793,1.094,1.654,1.932,2.026,2.272c-0.102,0.086-0.196,0.181-0.282,0.281
		c-0.343-0.373-1.177-1.234-2.268-2.036c-1.046-0.768-3.521-2.279-4.801-3.058c-0.095-0.059-0.19,0.07-0.106,0.144
		c1.112,1.006,3.284,2.932,4.329,3.701c1.09,0.802,2.167,1.335,2.626,1.548c-0.069,0.111-0.131,0.229-0.182,0.354
		c-0.44-0.25-1.5-0.815-2.781-1.246c-1.23-0.414-4.04-1.103-5.491-1.46c-0.108-0.026-0.157,0.125-0.056,0.171
		c1.362,0.625,4.013,1.804,5.243,2.219c1.282,0.431,2.469,0.608,2.971,0.669c-0.031,0.127-0.052,0.258-0.063,0.394
		c-0.495-0.103-1.676-0.316-3.025-0.333c-1.293-0.017-4.164,0.186-5.642,0.288c-0.11,0.008-0.11,0.168,0,0.181
		c1.479,0.181,4.349,0.494,5.642,0.511c1.349,0.018,2.53-0.179,3.025-0.276c0.011,0.135,0.031,0.266,0.063,0.394
		c-0.502,0.055-1.689,0.216-2.971,0.615c-1.23,0.383-3.88,1.462-5.243,2.019c-0.101,0.042-0.052,0.195,0.056,0.174
		c1.451-0.285,4.261-0.873,5.491-1.257c1.282-0.399,2.341-0.952,2.781-1.197c0.051,0.124,0.112,0.243,0.182,0.355
		c-0.459,0.207-1.536,0.727-2.626,1.505c-1.045,0.745-3.217,2.601-4.329,3.559c-0.083,0.071,0.012,0.203,0.106,0.149
		c1.28-0.725,3.755-2.162,4.801-2.908c1.09-0.78,1.925-1.635,2.268-2.004c0.087,0.102,0.181,0.196,0.282,0.282
		c-0.372,0.339-1.233,1.168-2.026,2.249c-0.759,1.035-2.238,3.485-2.992,4.75c-0.056,0.094,0.074,0.189,0.147,0.108
		c0.984-1.095,2.881-3.239,3.642-4.276c0.792-1.082,1.32-2.153,1.53-2.611c0.113,0.07,0.231,0.131,0.355,0.182
		c-0.248,0.439-0.809,1.494-1.225,2.77c-0.4,1.224-1.041,4.021-1.363,5.465c-0.024,0.107,0.129,0.158,0.173,0.057
		c0.592-1.354,1.725-3.99,2.125-5.215c0.416-1.277,0.586-2.46,0.643-2.961c0.129,0.031,0.262,0.053,0.396,0.063
		c-0.101,0.494-0.306,1.671-0.306,3.016c0,1.289,0.26,4.151,0.4,5.626c0.012,0.11,0.172,0.11,0.182,0
		c0.143-1.475,0.401-4.337,0.401-5.626c0-1.345-0.206-2.521-0.306-3.016c0.135-0.01,0.268-0.031,0.395-0.063
		c0.058,0.501,0.229,1.684,0.644,2.961c0.398,1.225,1.533,3.861,2.125,5.215c0.045,0.102,0.197,0.051,0.174-0.057
		c-0.322-1.443-0.963-4.241-1.363-5.465c-0.416-1.275-0.977-2.33-1.226-2.77c0.125-0.051,0.244-0.111,0.357-0.182
		c0.209,0.458,0.738,1.529,1.529,2.611c0.762,1.037,2.658,3.182,3.643,4.276c0.072,0.081,0.203-0.015,0.146-0.108
		c-0.754-1.265-2.232-3.715-2.992-4.75c-0.793-1.081-1.654-1.91-2.025-2.249c0.102-0.086,0.195-0.181,0.281-0.282
		c0.344,0.369,1.178,1.223,2.27,2.004c1.045,0.746,3.52,2.184,4.799,2.908c0.096,0.054,0.189-0.078,0.107-0.149
		c-1.111-0.958-3.283-2.813-4.328-3.559c-1.092-0.778-2.168-1.298-2.627-1.505c0.07-0.113,0.129-0.232,0.18-0.355
		c0.441,0.245,1.502,0.797,2.783,1.197c1.23,0.384,4.041,0.972,5.49,1.257c0.107,0.021,0.158-0.132,0.057-0.174
		c-1.363-0.557-4.014-1.636-5.244-2.019c-1.279-0.399-2.467-0.56-2.971-0.615c0.031-0.128,0.053-0.259,0.063-0.394
		c0.496,0.098,1.678,0.294,3.025,0.276c1.293-0.017,4.164-0.33,5.643-0.511C111.043,99.313,111.043,99.152,110.932,99.145z"/>
	<path id="XMLID_544_" fill="#3462AE" stroke="#3462AE" stroke-width="0.1951" stroke-miterlimit="10" d="M99.813,85.556
		c-7.495,0-13.884,6.069-13.868,13.598c0.016,7.539,6.306,14.056,13.868,14.056c7.56,0,13.851-6.517,13.869-14.056
		C113.697,91.625,107.307,85.556,99.813,85.556z M112.018,102.084c-0.158,0.676-0.371,1.332-0.633,1.963
		c-0.416-0.066-0.854,0.145-1.055,0.547c-0.203,0.4-0.109,0.867,0.199,1.15c-0.357,0.594-0.762,1.156-1.207,1.682
		c-0.373-0.191-0.848-0.125-1.162,0.194c-0.316,0.321-0.373,0.795-0.17,1.162c-0.52,0.454-1.072,0.868-1.66,1.232
		c-0.291-0.302-0.762-0.39-1.158-0.183c-0.398,0.207-0.598,0.645-0.52,1.061c-0.627,0.27-1.279,0.486-1.951,0.648
		c-0.184-0.381-0.602-0.611-1.043-0.54c-0.439,0.071-0.763,0.423-0.82,0.841c-0.338,0.028-0.681,0.043-1.025,0.043
		c-0.346,0-0.688-0.015-1.025-0.043c-0.057-0.418-0.381-0.77-0.822-0.841c-0.439-0.071-0.858,0.159-1.041,0.54
		c-0.673-0.162-1.324-0.379-1.951-0.648c0.077-0.416-0.123-0.854-0.521-1.061c-0.397-0.207-0.868-0.119-1.159,0.183
		c-0.586-0.364-1.141-0.778-1.659-1.232c0.202-0.367,0.145-0.841-0.169-1.162c-0.315-0.319-0.79-0.386-1.163-0.194
		c-0.445-0.525-0.85-1.088-1.208-1.682c0.308-0.283,0.402-0.75,0.199-1.15c-0.203-0.402-0.639-0.613-1.056-0.547
		c-0.262-0.631-0.475-1.287-0.633-1.963c0.383-0.17,0.618-0.582,0.548-1.023c-0.07-0.439-0.421-0.773-0.841-0.841
		c-0.027-0.338-0.042-0.68-0.042-1.024c0-0.344,0.015-0.684,0.042-1.021c0.419-0.043,0.771-0.357,0.841-0.794
		c0.069-0.438-0.165-0.861-0.548-1.054c0.158-0.666,0.371-1.31,0.633-1.927c0.417,0.089,0.854-0.099,1.056-0.491
		s0.108-0.862-0.199-1.161c0.358-0.575,0.762-1.118,1.208-1.625c0.373,0.209,0.848,0.164,1.163-0.144
		c0.314-0.308,0.371-0.781,0.169-1.156c0.519-0.434,1.073-0.828,1.659-1.174c0.291,0.311,0.761,0.411,1.159,0.214
		c0.398-0.196,0.598-0.629,0.521-1.046c0.626-0.254,1.278-0.459,1.951-0.613c0.183,0.383,0.601,0.62,1.041,0.553
		c0.441-0.068,0.766-0.417,0.822-0.836c0.338-0.026,0.68-0.041,1.025-0.041c0.345,0,0.688,0.015,1.025,0.041
		c0.057,0.418,0.38,0.768,0.82,0.836c0.441,0.067,0.859-0.169,1.043-0.553c0.672,0.154,1.324,0.359,1.951,0.613
		c-0.078,0.417,0.121,0.85,0.52,1.046c0.396,0.197,0.867,0.097,1.158-0.214c0.588,0.347,1.141,0.74,1.66,1.174
		c-0.203,0.375-0.146,0.848,0.17,1.156c0.314,0.308,0.789,0.354,1.162,0.144c0.445,0.507,0.85,1.049,1.207,1.625
		c-0.309,0.299-0.402,0.77-0.199,1.161c0.201,0.392,0.639,0.58,1.055,0.491c0.262,0.617,0.475,1.261,0.633,1.927
		c-0.383,0.193-0.617,0.616-0.547,1.054c0.068,0.437,0.42,0.751,0.84,0.794c0.027,0.336,0.043,0.677,0.043,1.021
		c0,0.345-0.016,0.686-0.043,1.024c-0.42,0.068-0.771,0.402-0.84,0.841C111.4,101.502,111.635,101.914,112.018,102.084z"/>
</g>
</svg>
