<svg width="63" height="63" viewBox="0 0 63 63" fill="none" xmlns="http://www.w3.org/2000/svg">
<mask id="mask0_515_154" style="mask-type:luminance" maskUnits="userSpaceOnUse" x="0" y="0" width="63" height="63">
<path d="M0 62.6666H62.6666V0H0V62.6666Z" fill="white"/>
</mask>
<g mask="url(#mask0_515_154)">
<path d="M54.4147 50.8332C52.8851 49.3036 50.4053 49.3036 48.8757 50.8332C47.3461 52.3628 47.3461 54.8427 48.8757 56.3722C50.4053 57.9018 52.8851 57.9018 54.4147 56.3722C55.9443 54.8427 55.9443 52.3628 54.4147 50.8332Z" stroke="#273B98" stroke-width="2.67" stroke-miterlimit="10" stroke-linecap="round" stroke-linejoin="round"/>
<path d="M13.7917 6.29367C12.2621 4.76409 9.78223 4.76409 8.25265 6.29367C6.72307 7.82325 6.72307 10.3031 8.25265 11.8327C9.78223 13.3623 12.2621 13.3623 13.7917 11.8327C15.3213 10.3031 15.3213 7.82325 13.7917 6.29367Z" stroke="#273B98" stroke-width="2.67" stroke-miterlimit="10" stroke-linecap="round" stroke-linejoin="round"/>
<path d="M25.3965 1.80905C27.3161 1.4251 29.3016 1.22363 31.3343 1.22363C47.9632 1.22363 61.4436 14.7041 61.4436 31.333C61.4436 38.5922 58.8743 45.251 54.596 50.4507" stroke="#273B98" stroke-width="2.67" stroke-miterlimit="10" stroke-linecap="round" stroke-linejoin="round"/>
<path d="M37.3289 60.8455C35.3915 61.2369 33.3868 61.4424 31.334 61.4424C14.705 61.4424 1.22461 47.962 1.22461 31.3331C1.22461 24.0739 3.79394 17.4151 8.07229 12.2153" stroke="#273B98" stroke-width="2.67" stroke-miterlimit="10" stroke-linecap="round" stroke-linejoin="round"/>
<path d="M31.3334 22.4432C26.4239 22.4432 22.4438 26.4232 22.4438 31.3328C22.4438 36.2424 26.4239 40.2223 31.3334 40.2223C36.243 40.2223 40.2231 36.2424 40.2231 31.3328C40.2231 26.4232 36.243 22.4432 31.3334 22.4432ZM49.0606 35.1703C48.5943 37.3406 47.7404 39.3669 46.5736 41.1723L48.9187 43.5176L43.5052 48.9271L41.1619 46.5838C39.3565 47.7506 37.3304 48.6046 35.16 49.0708V52.3849H27.5069V49.0708C25.3365 48.6046 23.3104 47.7506 21.5049 46.5838L19.1617 48.9271L13.7482 43.5176L16.0933 41.1723C14.9265 39.3669 14.0726 37.3406 13.6063 35.1703H10.2835L10.2793 27.5173H13.6061C14.0725 25.3469 14.9264 23.3207 16.0932 21.5151L13.7392 19.1611L19.1487 13.7475L21.5047 16.1036C23.3103 14.9367 25.3365 14.0827 27.5069 13.6164V10.2808H35.16V13.6164C37.3304 14.0827 39.3566 14.9367 41.1622 16.1036L43.5182 13.7475L48.9277 19.1611L46.5737 21.5151C47.7405 23.3207 48.5944 25.3469 49.0608 27.5173H52.3876V35.1703H49.0606Z" stroke="#273B98" stroke-width="2.67" stroke-miterlimit="10" stroke-linecap="round" stroke-linejoin="round"/>
</g>
</svg>
