<svg width="138" height="23" viewBox="0 0 138 23" fill="none" xmlns="http://www.w3.org/2000/svg">
<path d="M11.6 22L7.22 14.05H5.99V22H0.86V0.939999H9.47C11.13 0.939999 12.54 1.23 13.7 1.81C14.88 2.39 15.76 3.19 16.34 4.21C16.92 5.21 17.21 6.33 17.21 7.57C17.21 8.97 16.81 10.22 16.01 11.32C15.23 12.42 14.07 13.2 12.53 13.66L17.39 22H11.6ZM5.99 10.42H9.17C10.11 10.42 10.81 10.19 11.27 9.73C11.75 9.27 11.99 8.62 11.99 7.78C11.99 6.98 11.75 6.35 11.27 5.89C10.81 5.43 10.11 5.2 9.17 5.2H5.99V10.42ZM25.5603 5.05V9.31H32.4303V13.27H25.5603V17.89H33.3303V22H20.4303V0.939999H33.3303V5.05H25.5603ZM50.6408 7.6C50.2608 6.9 49.7108 6.37 48.9908 6.01C48.2908 5.63 47.4608 5.44 46.5008 5.44C44.8408 5.44 43.5108 5.99 42.5108 7.09C41.5108 8.17 41.0108 9.62 41.0108 11.44C41.0108 13.38 41.5308 14.9 42.5708 16C43.6308 17.08 45.0808 17.62 46.9208 17.62C48.1808 17.62 49.2408 17.3 50.1008 16.66C50.9808 16.02 51.6208 15.1 52.0208 13.9H45.5108V10.12H56.6708V14.89C56.2908 16.17 55.6408 17.36 54.7208 18.46C53.8208 19.56 52.6708 20.45 51.2708 21.13C49.8708 21.81 48.2908 22.15 46.5308 22.15C44.4508 22.15 42.5908 21.7 40.9508 20.8C39.3308 19.88 38.0608 18.61 37.1408 16.99C36.2408 15.37 35.7908 13.52 35.7908 11.44C35.7908 9.36 36.2408 7.51 37.1408 5.89C38.0608 4.25 39.3308 2.98 40.9508 2.08C42.5708 1.16 44.4208 0.699999 46.5008 0.699999C49.0208 0.699999 51.1408 1.31 52.8608 2.53C54.6008 3.75 55.7508 5.44 56.3108 7.6H50.6408ZM64.6423 0.939999V22H59.5123V0.939999H64.6423ZM75.98 22.21C74.44 22.21 73.06 21.96 71.84 21.46C70.62 20.96 69.64 20.22 68.9 19.24C68.18 18.26 67.8 17.08 67.76 15.7H73.22C73.3 16.48 73.57 17.08 74.03 17.5C74.49 17.9 75.09 18.1 75.83 18.1C76.59 18.1 77.19 17.93 77.63 17.59C78.07 17.23 78.29 16.74 78.29 16.12C78.29 15.6 78.11 15.17 77.75 14.83C77.41 14.49 76.98 14.21 76.46 13.99C75.96 13.77 75.24 13.52 74.3 13.24C72.94 12.82 71.83 12.4 70.97 11.98C70.11 11.56 69.37 10.94 68.75 10.12C68.13 9.3 67.82 8.23 67.82 6.91C67.82 4.95 68.53 3.42 69.95 2.32C71.37 1.2 73.22 0.64 75.5 0.64C77.82 0.64 79.69 1.2 81.11 2.32C82.53 3.42 83.29 4.96 83.39 6.94H77.84C77.8 6.26 77.55 5.73 77.09 5.35C76.63 4.95 76.04 4.75 75.32 4.75C74.7 4.75 74.2 4.92 73.82 5.26C73.44 5.58 73.25 6.05 73.25 6.67C73.25 7.35 73.57 7.88 74.21 8.26C74.85 8.64 75.85 9.05 77.21 9.49C78.57 9.95 79.67 10.39 80.51 10.81C81.37 11.23 82.11 11.84 82.73 12.64C83.35 13.44 83.66 14.47 83.66 15.73C83.66 16.93 83.35 18.02 82.73 19C82.13 19.98 81.25 20.76 80.09 21.34C78.93 21.92 77.56 22.21 75.98 22.21ZM101.967 0.939999V5.05H96.387V22H91.257V5.05H85.677V0.939999H101.967ZM109.672 5.05V9.31H116.542V13.27H109.672V17.89H117.442V22H104.542V0.939999H117.442V5.05H109.672ZM131.512 22L127.132 14.05H125.902V22H120.772V0.939999H129.382C131.042 0.939999 132.452 1.23 133.612 1.81C134.792 2.39 135.672 3.19 136.252 4.21C136.832 5.21 137.122 6.33 137.122 7.57C137.122 8.97 136.722 10.22 135.922 11.32C135.142 12.42 133.982 13.2 132.442 13.66L137.302 22H131.512ZM125.902 10.42H129.082C130.022 10.42 130.722 10.19 131.182 9.73C131.662 9.27 131.902 8.62 131.902 7.78C131.902 6.98 131.662 6.35 131.182 5.89C130.722 5.43 130.022 5.2 129.082 5.2H125.902V10.42Z" fill="white"/>
</svg>
