<svg width="164" height="163" viewBox="0 0 164 163" fill="none" xmlns="http://www.w3.org/2000/svg">
<g filter="url(#filter0_d_160_2191)">
<path d="M146 90.4134V64.355L133.294 60.6324C132.353 58.3058 131.412 55.9791 130 53.6525L136.588 42.0193L117.765 23.4062L106 29.9208C103.647 28.5248 101.294 27.5941 98.4706 27.1288L95.1765 14.0996H68.8235L65.0588 26.6635C62.7059 27.5941 59.8823 28.5248 57.5294 29.4554L45.7647 23.4062L26.9412 42.0193L33.5294 53.6525C32.5882 55.9791 31.1765 58.3058 30.7059 60.6324L18 64.355V90.4134L30.7059 94.136C31.6471 96.4626 32.5882 99.2546 33.5294 101.581L26.9412 113.214L45.7647 131.828L57.5294 125.313C59.8823 126.709 62.2353 127.64 65.0588 128.105L68.8235 140.669H95.1765L98.9412 128.105C101.294 127.174 104.118 126.244 106.471 125.313L118.235 131.828L137.059 113.214L130 101.581C131.412 99.2546 132.353 96.928 132.824 94.136L146 90.4134ZM110.706 77.3842C110.706 93.2053 97.5294 105.769 82 105.769C66 105.769 53.2941 92.74 53.2941 77.3842C53.2941 62.0284 66.4706 48.9992 82 48.9992C98 48.9992 110.706 61.563 110.706 77.3842Z" fill="url(#paint0_linear_160_2191)"/>
<path d="M132.367 61.0074L132.549 61.456L133.013 61.592L145 65.1041V89.6567L132.552 93.1737L131.943 93.3457L131.837 93.9698C131.39 96.622 130.5 98.8302 129.145 101.062L128.83 101.581L129.145 102.1L135.794 113.058L118.065 130.59L106.955 124.438L106.542 124.209L106.103 124.383C104.944 124.841 103.665 125.301 102.368 125.768L102.359 125.771C101.071 126.234 99.7644 126.704 98.5734 127.175L98.1224 127.353L97.9833 127.818L94.4322 139.669H69.5678L66.0167 127.818L65.8375 127.22L65.2214 127.118C62.5348 126.675 60.2986 125.793 58.0396 124.453L57.5466 124.16L57.045 124.438L45.9354 130.59L28.1884 113.041L34.3996 102.074L34.6375 101.654L34.4564 101.206C33.993 100.06 33.528 98.7965 33.0562 97.5135L33.0529 97.5044C32.5846 96.2311 32.1095 94.9391 31.6329 93.761L31.4514 93.3124L30.9871 93.1763L19 89.6643V65.1041L30.9871 61.592L31.5664 61.4223L31.686 60.8306C31.8978 59.7834 32.3287 58.7051 32.8514 57.5566C33.0154 57.1962 33.1917 56.8226 33.3713 56.4417C33.7445 55.6507 34.1325 54.8284 34.4564 54.0275L34.6375 53.5798L34.3996 53.1597L28.1884 42.1923L45.9522 24.6271L57.0721 30.3448L57.4755 30.5522L57.8972 30.3853C59.0563 29.9269 60.335 29.467 61.6325 29.0005L61.6412 28.9973C62.9291 28.5342 64.2355 28.0645 65.4266 27.5934L65.8776 27.415L66.0167 26.9505L69.5678 15.0996H94.3978L97.5011 27.3739L97.6617 28.009L98.308 28.1155C100.995 28.5583 103.231 29.4406 105.49 30.7808L105.983 31.0733L106.484 30.7956L117.594 24.6438L135.341 42.1923L129.13 53.1597L128.841 53.6699L129.145 54.1712C130.509 56.4189 131.423 58.6726 132.367 61.0074ZM82 106.769C98.0603 106.769 111.706 93.7787 111.706 77.3842C111.706 61.0002 98.5416 47.9992 82 47.9992C65.9289 47.9992 52.2941 61.4655 52.2941 77.3842C52.2941 93.2922 65.4477 106.769 82 106.769Z" stroke="white" stroke-width="2"/>
</g>
<defs>
<filter id="filter0_d_160_2191" x="0" y="0.0996246" width="164" height="162.569" filterUnits="userSpaceOnUse" color-interpolation-filters="sRGB">
<feFlood flood-opacity="0" result="BackgroundImageFix"/>
<feColorMatrix in="SourceAlpha" type="matrix" values="0 0 0 0 0 0 0 0 0 0 0 0 0 0 0 0 0 0 127 0" result="hardAlpha"/>
<feOffset dy="4"/>
<feGaussianBlur stdDeviation="9"/>
<feComposite in2="hardAlpha" operator="out"/>
<feColorMatrix type="matrix" values="0 0 0 0 0 0 0 0 0 0 0 0 0 0 0 0 0 0 0.25 0"/>
<feBlend mode="normal" in2="BackgroundImageFix" result="effect1_dropShadow_160_2191"/>
<feBlend mode="normal" in="SourceGraphic" in2="effect1_dropShadow_160_2191" result="shape"/>
</filter>
<linearGradient id="paint0_linear_160_2191" x1="82" y1="14.0996" x2="82" y2="140.669" gradientUnits="userSpaceOnUse">
<stop stop-color="#9EF0BF"/>
<stop offset="1" stop-color="#01C2FF"/>
</linearGradient>
</defs>
</svg>
