<svg width="67" height="66" viewBox="0 0 67 66" fill="none" xmlns="http://www.w3.org/2000/svg">
<path d="M66.3767 39.6256V26.1588L59.7878 24.2349C59.2997 23.0325 58.8117 21.8302 58.0796 20.6278L61.496 14.6158L51.7347 4.99665L45.6339 8.36335C44.4138 7.64191 43.1936 7.16095 41.7294 6.92048L40.0212 0.187073H26.3554L24.4032 6.68C23.183 7.16095 21.7188 7.64191 20.4987 8.12287L14.3979 4.99665L4.6366 14.6158L8.05305 20.6278C7.56498 21.8302 6.83289 23.0325 6.58886 24.2349L0 26.1588V39.6256L6.58886 41.5494C7.07692 42.7518 7.56498 44.1947 8.05305 45.3971L4.6366 51.409L14.3979 61.0282L20.4987 57.6615C21.7188 58.3829 22.939 58.8639 24.4032 59.1044L26.3554 65.5973H40.0212L41.9735 59.1044C43.1936 58.6234 44.6578 58.1424 45.878 57.6615L51.9788 61.0282L61.74 51.409L58.0796 45.3971C58.8117 44.1947 59.2997 42.9923 59.5438 41.5494L66.3767 39.6256ZM48.0743 32.8922C48.0743 41.0684 41.2414 47.5614 33.1883 47.5614C24.8912 47.5614 18.3024 40.828 18.3024 32.8922C18.3024 24.9564 25.1353 18.223 33.1883 18.223C41.4854 18.223 48.0743 24.7159 48.0743 32.8922Z" fill="url(#paint0_linear_160_2225)"/>
<defs>
<linearGradient id="paint0_linear_160_2225" x1="33.1883" y1="0.187073" x2="33.1883" y2="65.5973" gradientUnits="userSpaceOnUse">
<stop stop-color="#9EF0BF"/>
<stop offset="1" stop-color="#01C2FF"/>
</linearGradient>
</defs>
</svg>
