<svg width="242" height="267" viewBox="0 0 242 267" fill="none" xmlns="http://www.w3.org/2000/svg">
<path d="M111.274 3.41276C117.321 0.0472918 124.679 0.0472984 130.726 3.41277L181.03 31.4086L230.605 60.0303C236.743 63.5741 240.547 70.1017 240.604 77.189L241.06 133.5L240.604 189.811C240.547 196.898 236.743 203.426 230.605 206.97L181.03 235.591L130.726 263.587C124.679 266.953 117.321 266.953 111.274 263.587L60.97 235.591L11.3953 206.97C5.25731 203.426 1.45326 196.898 1.39589 189.811L0.940002 133.5L1.39589 77.189C1.45326 70.1017 5.2573 63.5741 11.3953 60.0304L60.97 31.4086L111.274 3.41276Z" fill="url(#paint0_linear_148_7215)"/>
<defs>
<linearGradient id="paint0_linear_148_7215" x1="23.5" y1="30" x2="177.264" y2="250.243" gradientUnits="userSpaceOnUse">
<stop stop-color="#12951F"/>
<stop offset="1" stop-color="#12A4AD"/>
</linearGradient>
</defs>
</svg>
