<svg width="264" height="291" viewBox="0 0 264 291" fill="none" xmlns="http://www.w3.org/2000/svg">
<path d="M127.122 1.98037L126.997 1.49625C130.277 0.648998 133.723 0.648998 137.003 1.49625L136.878 1.98037C138.452 2.38703 139.987 2.99389 141.445 3.80105L146.112 6.38468L146.354 5.94725L155.687 11.1145L155.445 11.552L164.778 16.7192L165.02 16.2818L174.353 21.4491L174.111 21.8865L183.443 27.0538L183.686 26.6164L193.019 31.7836L192.776 32.2211L197.436 34.8009L197.443 34.8047L202.031 37.4401L202.28 37.0065L211.47 42.285L211.221 42.7185L220.411 47.997L220.66 47.5634L229.85 52.8419L229.601 53.2754L238.791 58.5539L239.04 58.1203L248.23 63.3988L247.981 63.8323L252.576 66.4716C254.065 67.3269 255.414 68.3621 256.601 69.5409L256.954 69.186C259.43 71.6442 261.222 74.7115 262.148 78.0757L261.666 78.2084C262.11 79.8216 262.349 81.5049 262.363 83.2222L262.405 88.4123L262.905 88.4083L262.99 98.7886L262.49 98.7926L262.574 109.173L263.074 109.169L263.159 119.549L262.659 119.553L262.743 129.934L263.243 129.93L263.328 140.31L262.828 140.314L262.87 145.496V145.504L262.828 150.686L263.328 150.69L263.243 161.07L262.743 161.066L262.659 171.447L263.159 171.451L263.074 181.831L262.574 181.827L262.49 192.207L262.99 192.211L262.905 202.592L262.405 202.588L262.363 207.778C262.349 209.495 262.11 211.178 261.666 212.792L262.148 212.924C261.222 216.288 259.43 219.356 256.954 221.814L256.601 221.459C255.414 222.638 254.065 223.673 252.576 224.528L247.981 227.168L248.23 227.601L239.04 232.88L238.791 232.446L229.601 237.725L229.85 238.158L220.66 243.437L220.411 243.003L211.221 248.281L211.47 248.715L202.28 253.993L202.031 253.56L197.443 256.195L197.436 256.199L192.776 258.779L193.019 259.216L183.686 264.384L183.443 263.946L174.111 269.113L174.353 269.551L165.02 274.718L164.778 274.281L155.445 279.448L155.687 279.885L146.354 285.053L146.112 284.615L141.445 287.199C139.987 288.006 138.452 288.613 136.878 289.02L137.003 289.504C133.723 290.351 130.277 290.351 126.997 289.504L127.122 289.02C125.548 288.613 124.013 288.006 122.555 287.199L117.888 284.615L117.646 285.053L108.313 279.885L108.555 279.448L99.2224 274.281L98.9802 274.718L89.6473 269.551L89.8895 269.113L80.5566 263.946L80.3144 264.384L70.9815 259.216L71.2236 258.779L66.564 256.199L66.5572 256.195L61.969 253.56L61.72 253.993L52.53 248.715L52.779 248.281L43.589 243.003L43.34 243.437L34.15 238.158L34.399 237.725L25.209 232.446L24.96 232.88L15.77 227.601L16.019 227.168L11.424 224.528C9.93485 223.673 8.58603 222.638 7.39857 221.459L7.04632 221.814C4.57007 219.356 2.77785 216.288 1.85216 212.924L2.33424 212.792C1.89034 211.178 1.6508 209.495 1.63682 207.778L1.59459 202.588L1.0946 202.592L1.01013 192.211L1.51011 192.207L1.42564 181.827L0.925657 181.831L0.841187 171.451L1.34117 171.447L1.2567 161.066L0.756714 161.07L0.672241 150.69L1.17222 150.686L1.12999 145.504V145.496L1.17222 140.314L0.672241 140.31L0.756714 129.93L1.2567 129.934L1.34117 119.553L0.841187 119.549L0.925657 109.169L1.42564 109.173L1.51011 98.7926L1.01013 98.7886L1.0946 88.4083L1.59459 88.4123L1.63682 83.2222C1.6508 81.5049 1.89034 79.8216 2.33425 78.2084L1.85216 78.0757C2.77786 74.7116 4.57007 71.6442 7.04632 69.186L7.39858 69.5409C8.58603 68.3621 9.93485 67.3269 11.424 66.4716L16.019 63.8324L15.77 63.3988L24.96 58.1203L25.209 58.5539L34.399 53.2754L34.15 52.8419L43.34 47.5634L43.589 47.997L52.779 42.7185L52.53 42.285L61.72 37.0065L61.969 37.4401L66.5572 34.8047L66.564 34.8009L71.2236 32.2211L70.9815 31.7836L80.3144 26.6164L80.5566 27.0538L89.8895 21.8865L89.6473 21.4491L98.9802 16.2818L99.2224 16.7192L108.555 11.552L108.313 11.1145L117.646 5.94726L117.888 6.38469L122.555 3.80105C124.012 2.9939 125.548 2.38703 127.122 1.98037Z" stroke="#3CA693" stroke-dasharray="11 11"/>
</svg>
