<?xml version="1.0" encoding="utf-8"?>
<!-- Generator: Adobe Illustrator 16.0.0, SVG Export Plug-In . SVG Version: 6.00 Build 0)  -->
<!DOCTYPE svg PUBLIC "-//W3C//DTD SVG 1.1//EN" "http://www.w3.org/Graphics/SVG/1.1/DTD/svg11.dtd">
<svg version="1.1" id="Layer_1" xmlns="http://www.w3.org/2000/svg" xmlns:xlink="http://www.w3.org/1999/xlink" x="0px" y="0px"
	 width="200px" height="200px" viewBox="0 0 200 200" enable-background="new 0 0 200 200" xml:space="preserve">
<g>
	<rect x="9.503" y="49.354" fill="#FFFFFF" width="180.901" height="94.743"/>
	<rect x="9.505" y="48.998" fill="#B22435" width="180.75" height="7.494"/>
	<rect x="9.505" y="63.657" fill="#B22435" width="180.75" height="7.495"/>
	<rect x="9.505" y="78.316" fill="#B22435" width="180.75" height="7.495"/>
	<rect x="9.505" y="92.976" fill="#B22435" width="180.75" height="7.495"/>
	<rect x="9.505" y="107.635" fill="#B22435" width="180.75" height="7.494"/>
	<rect x="9.505" y="122.295" fill="#B22435" width="180.75" height="7.494"/>
	<rect x="9.505" y="136.954" fill="#B22435" width="180.75" height="7.495"/>
	<rect x="9.5" y="48.997" fill="#3D3C6F" width="72.19" height="51.476"/>
	<g>
		<polygon fill="#FFFFFF" points="15.64,50.968 16.315,53.069 18.502,53.069 16.733,54.368 17.409,56.469 15.64,55.17 
			13.871,56.469 14.547,54.368 12.778,53.069 14.964,53.069 		"/>
		<polygon fill="#FFFFFF" points="21.59,56.25 22.266,58.351 24.452,58.351 22.683,59.649 23.359,61.75 21.59,60.452 19.821,61.75 
			20.497,59.649 18.728,58.351 20.914,58.351 		"/>
		<polygon fill="#FFFFFF" points="21.59,66.569 22.266,68.67 24.452,68.67 22.683,69.969 23.359,72.071 21.59,70.772 19.821,72.071 
			20.497,69.969 18.728,68.67 20.914,68.67 		"/>
		<polygon fill="#FFFFFF" points="21.59,76.889 22.266,78.99 24.452,78.99 22.683,80.289 23.359,82.39 21.59,81.092 19.821,82.39 
			20.497,80.289 18.728,78.99 20.914,78.99 		"/>
		<polygon fill="#FFFFFF" points="21.59,87.209 22.266,89.311 24.452,89.311 22.683,90.609 23.359,92.71 21.59,91.412 19.821,92.71 
			20.497,90.609 18.728,89.311 20.914,89.311 		"/>
		<polygon fill="#FFFFFF" points="33.651,56.25 34.326,58.351 36.512,58.351 34.744,59.649 35.419,61.75 33.651,60.452 
			31.882,61.75 32.558,59.649 30.789,58.351 32.975,58.351 		"/>
		<polygon fill="#FFFFFF" points="33.651,66.569 34.326,68.67 36.512,68.67 34.744,69.969 35.419,72.071 33.651,70.772 
			31.882,72.071 32.558,69.969 30.789,68.67 32.975,68.67 		"/>
		<polygon fill="#FFFFFF" points="33.651,76.889 34.326,78.99 36.512,78.99 34.744,80.289 35.419,82.39 33.651,81.092 31.882,82.39 
			32.558,80.289 30.789,78.99 32.975,78.99 		"/>
		<polygon fill="#FFFFFF" points="33.651,87.209 34.326,89.311 36.512,89.311 34.744,90.609 35.419,92.71 33.651,91.412 
			31.882,92.71 32.558,90.609 30.789,89.311 32.975,89.311 		"/>
		<polygon fill="#FFFFFF" points="45.711,56.25 46.387,58.351 48.573,58.351 46.805,59.649 47.479,61.75 45.711,60.452 
			43.942,61.75 44.618,59.649 42.85,58.351 45.036,58.351 		"/>
		<polygon fill="#FFFFFF" points="45.711,66.569 46.387,68.67 48.573,68.67 46.805,69.969 47.479,72.071 45.711,70.772 
			43.942,72.071 44.618,69.969 42.85,68.67 45.036,68.67 		"/>
		<polygon fill="#FFFFFF" points="45.711,76.889 46.387,78.99 48.573,78.99 46.805,80.289 47.479,82.39 45.711,81.092 43.942,82.39 
			44.618,80.289 42.85,78.99 45.036,78.99 		"/>
		<polygon fill="#FFFFFF" points="45.711,87.209 46.387,89.311 48.573,89.311 46.805,90.609 47.479,92.71 45.711,91.412 
			43.942,92.71 44.618,90.609 42.85,89.311 45.036,89.311 		"/>
		<polygon fill="#FFFFFF" points="57.772,56.25 58.448,58.351 60.633,58.351 58.865,59.649 59.541,61.75 57.772,60.452 
			56.003,61.75 56.679,59.649 54.91,58.351 57.096,58.351 		"/>
		<polygon fill="#FFFFFF" points="57.772,66.569 58.448,68.67 60.633,68.67 58.865,69.969 59.541,72.071 57.772,70.772 
			56.003,72.071 56.679,69.969 54.91,68.67 57.096,68.67 		"/>
		<polygon fill="#FFFFFF" points="57.772,76.889 58.448,78.99 60.633,78.99 58.865,80.289 59.541,82.39 57.772,81.092 56.003,82.39 
			56.679,80.289 54.91,78.99 57.096,78.99 		"/>
		<polygon fill="#FFFFFF" points="57.772,87.209 58.448,89.311 60.633,89.311 58.865,90.609 59.541,92.71 57.772,91.412 
			56.003,92.71 56.679,90.609 54.91,89.311 57.096,89.311 		"/>
		<polygon fill="#FFFFFF" points="69.833,56.25 70.508,58.351 72.694,58.351 70.926,59.649 71.601,61.75 69.833,60.452 
			68.064,61.75 68.74,59.649 66.971,58.351 69.157,58.351 		"/>
		<polygon fill="#FFFFFF" points="69.833,66.569 70.508,68.67 72.694,68.67 70.926,69.969 71.601,72.071 69.833,70.772 
			68.064,72.071 68.74,69.969 66.971,68.67 69.157,68.67 		"/>
		<polygon fill="#FFFFFF" points="69.833,76.889 70.508,78.99 72.694,78.99 70.926,80.289 71.601,82.39 69.833,81.092 68.064,82.39 
			68.74,80.289 66.971,78.99 69.157,78.99 		"/>
		<polygon fill="#FFFFFF" points="69.833,87.209 70.508,89.311 72.694,89.311 70.926,90.609 71.601,92.71 69.833,91.412 
			68.064,92.71 68.74,90.609 66.971,89.311 69.157,89.311 		"/>
		<polygon fill="#FFFFFF" points="15.64,61.288 16.315,63.389 18.502,63.389 16.733,64.688 17.409,66.789 15.64,65.49 
			13.871,66.789 14.547,64.688 12.778,63.389 14.964,63.389 		"/>
		<polygon fill="#FFFFFF" points="15.64,71.607 16.315,73.708 18.502,73.708 16.733,75.007 17.409,77.108 15.64,75.81 
			13.871,77.108 14.547,75.007 12.778,73.708 14.964,73.708 		"/>
		<polygon fill="#FFFFFF" points="15.64,81.927 16.315,84.028 18.502,84.028 16.733,85.327 17.409,87.428 15.64,86.13 
			13.871,87.428 14.547,85.327 12.778,84.028 14.964,84.028 		"/>
		<polygon fill="#FFFFFF" points="15.64,92.247 16.315,94.348 18.502,94.348 16.733,95.647 17.409,97.748 15.64,96.45 
			13.871,97.748 14.547,95.647 12.778,94.348 14.964,94.348 		"/>
		<polygon fill="#FFFFFF" points="27.54,50.968 28.215,53.069 30.402,53.069 28.633,54.368 29.309,56.469 27.54,55.17 
			25.771,56.469 26.447,54.368 24.678,53.069 26.864,53.069 		"/>
		<polygon fill="#FFFFFF" points="27.54,61.288 28.215,63.389 30.402,63.389 28.633,64.688 29.309,66.789 27.54,65.49 
			25.771,66.789 26.447,64.688 24.678,63.389 26.864,63.389 		"/>
		<polygon fill="#FFFFFF" points="27.54,71.607 28.215,73.708 30.402,73.708 28.633,75.007 29.309,77.108 27.54,75.81 
			25.771,77.108 26.447,75.007 24.678,73.708 26.864,73.708 		"/>
		<polygon fill="#FFFFFF" points="27.54,81.927 28.215,84.028 30.402,84.028 28.633,85.327 29.309,87.428 27.54,86.13 
			25.771,87.428 26.447,85.327 24.678,84.028 26.864,84.028 		"/>
		<polygon fill="#FFFFFF" points="27.54,92.247 28.215,94.348 30.402,94.348 28.633,95.647 29.309,97.748 27.54,96.45 
			25.771,97.748 26.447,95.647 24.678,94.348 26.864,94.348 		"/>
		<polygon fill="#FFFFFF" points="39.761,50.968 40.437,53.069 42.623,53.069 40.855,54.368 41.53,56.469 39.761,55.17 
			37.993,56.469 38.668,54.368 36.899,53.069 39.085,53.069 		"/>
		<polygon fill="#FFFFFF" points="39.761,61.288 40.437,63.389 42.623,63.389 40.855,64.688 41.53,66.789 39.761,65.49 
			37.993,66.789 38.668,64.688 36.899,63.389 39.085,63.389 		"/>
		<polygon fill="#FFFFFF" points="39.761,71.607 40.437,73.708 42.623,73.708 40.855,75.007 41.53,77.108 39.761,75.81 
			37.993,77.108 38.668,75.007 36.899,73.708 39.085,73.708 		"/>
		<polygon fill="#FFFFFF" points="39.761,81.927 40.437,84.028 42.623,84.028 40.855,85.327 41.53,87.428 39.761,86.13 
			37.993,87.428 38.668,85.327 36.899,84.028 39.085,84.028 		"/>
		<polygon fill="#FFFFFF" points="39.761,92.247 40.437,94.348 42.623,94.348 40.855,95.647 41.53,97.748 39.761,96.45 
			37.993,97.748 38.668,95.647 36.899,94.348 39.085,94.348 		"/>
		<polygon fill="#FFFFFF" points="51.742,50.968 52.417,53.069 54.604,53.069 52.834,54.368 53.51,56.469 51.742,55.17 
			49.973,56.469 50.648,54.368 48.88,53.069 51.066,53.069 		"/>
		<polygon fill="#FFFFFF" points="51.742,61.288 52.417,63.389 54.604,63.389 52.834,64.688 53.51,66.789 51.742,65.49 
			49.973,66.789 50.648,64.688 48.88,63.389 51.066,63.389 		"/>
		<polygon fill="#FFFFFF" points="51.742,71.607 52.417,73.708 54.604,73.708 52.834,75.007 53.51,77.108 51.742,75.81 
			49.973,77.108 50.648,75.007 48.88,73.708 51.066,73.708 		"/>
		<polygon fill="#FFFFFF" points="51.742,81.927 52.417,84.028 54.604,84.028 52.834,85.327 53.51,87.428 51.742,86.13 
			49.973,87.428 50.648,85.327 48.88,84.028 51.066,84.028 		"/>
		<polygon fill="#FFFFFF" points="51.742,92.247 52.417,94.348 54.604,94.348 52.834,95.647 53.51,97.748 51.742,96.45 
			49.973,97.748 50.648,95.647 48.88,94.348 51.066,94.348 		"/>
		<polygon fill="#FFFFFF" points="63.722,50.968 64.397,53.069 66.583,53.069 64.815,54.368 65.491,56.469 63.722,55.17 
			61.953,56.469 62.629,54.368 60.86,53.069 63.046,53.069 		"/>
		<polygon fill="#FFFFFF" points="63.722,61.288 64.397,63.389 66.583,63.389 64.815,64.688 65.491,66.789 63.722,65.49 
			61.953,66.789 62.629,64.688 60.86,63.389 63.046,63.389 		"/>
		<polygon fill="#FFFFFF" points="63.722,71.607 64.397,73.708 66.583,73.708 64.815,75.007 65.491,77.108 63.722,75.81 
			61.953,77.108 62.629,75.007 60.86,73.708 63.046,73.708 		"/>
		<polygon fill="#FFFFFF" points="63.722,81.927 64.397,84.028 66.583,84.028 64.815,85.327 65.491,87.428 63.722,86.13 
			61.953,87.428 62.629,85.327 60.86,84.028 63.046,84.028 		"/>
		<polygon fill="#FFFFFF" points="63.722,92.247 64.397,94.348 66.583,94.348 64.815,95.647 65.491,97.748 63.722,96.45 
			61.953,97.748 62.629,95.647 60.86,94.348 63.046,94.348 		"/>
		<polygon fill="#FFFFFF" points="75.943,50.968 76.619,53.069 78.805,53.069 77.036,54.368 77.711,56.469 75.943,55.17 
			74.174,56.469 74.85,54.368 73.082,53.069 75.268,53.069 		"/>
		<polygon fill="#FFFFFF" points="75.943,61.288 76.619,63.389 78.805,63.389 77.036,64.688 77.711,66.789 75.943,65.49 
			74.174,66.789 74.85,64.688 73.082,63.389 75.268,63.389 		"/>
		<polygon fill="#FFFFFF" points="75.943,71.607 76.619,73.708 78.805,73.708 77.036,75.007 77.711,77.108 75.943,75.81 
			74.174,77.108 74.85,75.007 73.082,73.708 75.268,73.708 		"/>
		<polygon fill="#FFFFFF" points="75.943,81.927 76.619,84.028 78.805,84.028 77.036,85.327 77.711,87.428 75.943,86.13 
			74.174,87.428 74.85,85.327 73.082,84.028 75.268,84.028 		"/>
		<polygon fill="#FFFFFF" points="75.943,92.247 76.619,94.348 78.805,94.348 77.036,95.647 77.711,97.748 75.943,96.45 
			74.174,97.748 74.85,95.647 73.082,94.348 75.268,94.348 		"/>
	</g>
</g>
</svg>
