<svg width="84" height="88" viewBox="0 0 84 88" fill="none" xmlns="http://www.w3.org/2000/svg">
<path d="M7.16326 69.459H20.9718C21.6513 69.459 22.2022 68.9081 22.2022 68.2285V49.2731C22.2022 48.5935 21.6513 48.0427 20.9718 48.0427H7.16326C6.48369 48.0427 5.93279 48.5935 5.93279 49.2731V68.2285C5.93279 68.9081 6.48369 69.459 7.16326 69.459ZM8.39373 50.5036H19.7413V66.998H8.39373V50.5036ZM28.8802 34.2342C28.2006 34.2342 27.6497 34.7851 27.6497 35.4646V68.2285C27.6497 68.9081 28.2006 69.459 28.8802 69.459H42.6886C43.3682 69.459 43.9191 68.9081 43.9191 68.2285V35.4646C43.9191 34.7851 43.3682 34.2342 42.6886 34.2342H28.8802ZM41.4582 66.998H30.1106V36.6951H41.4582V66.998ZM12.5269 41.7353L24.2012 26.5458C24.4341 26.2428 24.7946 26.0652 25.1768 26.0652H38.3368L52.5918 5.24642L46.7381 8.35511C46.1384 8.67398 45.393 8.44581 45.0743 7.84552C44.7557 7.2454 44.9836 6.50044 45.5838 6.18175L55.8569 0.725854C55.8584 0.725151 55.8598 0.724799 55.8608 0.724096C55.9051 0.700717 55.9506 0.680327 55.9972 0.662749C56.0074 0.658881 56.0174 0.655893 56.0278 0.652202C56.0638 0.639721 56.1002 0.628823 56.1371 0.619506C56.151 0.615991 56.1647 0.612475 56.1788 0.609663C56.2205 0.600874 56.2626 0.593842 56.3048 0.589448C56.3103 0.58892 56.3156 0.58769 56.321 0.587338C56.3685 0.582944 56.4165 0.581889 56.4643 0.58312C56.4766 0.583471 56.4891 0.584526 56.5014 0.585229C56.539 0.587338 56.5762 0.59103 56.6137 0.596479C56.6258 0.598237 56.6381 0.599995 56.6502 0.602104C56.7457 0.619155 56.8397 0.64728 56.9308 0.68771C56.942 0.692807 56.9535 0.698608 56.9647 0.704057C56.9983 0.720229 57.0313 0.737807 57.0637 0.757319C57.0711 0.761713 57.079 0.764878 57.0864 0.769448C57.0918 0.772963 57.0966 0.777182 57.102 0.780698C57.111 0.786499 57.1203 0.791245 57.1291 0.797221C57.1549 0.814975 57.1792 0.834311 57.2033 0.853823C57.2094 0.858745 57.2161 0.863139 57.2221 0.868237C57.2609 0.900581 57.2969 0.934858 57.3309 0.970893C57.3365 0.977221 57.3419 0.983725 57.3476 0.990053C57.3755 1.02099 57.4015 1.05316 57.4256 1.08621C57.4325 1.09535 57.439 1.10449 57.4455 1.1138C57.4699 1.14931 57.4926 1.18587 57.5132 1.22349C57.5161 1.22894 57.5193 1.23404 57.5223 1.23931C57.5452 1.2829 57.5654 1.32755 57.5828 1.37343C57.5865 1.38257 57.5889 1.39189 57.5923 1.40103C57.6051 1.43759 57.6163 1.47451 57.6258 1.51212C57.6294 1.52566 57.6323 1.53919 57.6355 1.5529C57.6445 1.59421 57.6513 1.63587 57.6561 1.67771C57.6568 1.68386 57.658 1.69001 57.6585 1.69617C57.6633 1.74539 57.6643 1.79496 57.6631 1.84453C57.6629 1.84822 57.6636 1.85191 57.6635 1.85578L57.2518 13.4809C57.2282 14.1452 56.6824 14.6676 56.0231 14.6678C56.0083 14.6678 55.9935 14.6676 55.9786 14.6671C55.2995 14.643 54.7683 14.0729 54.7926 13.3937L55.0543 6.00492L40.0002 27.9906C39.7709 28.3256 39.391 28.5258 38.9851 28.5258H25.7825L14.4775 43.2347C14.2353 43.5499 13.8702 43.7153 13.5011 43.7153C13.2393 43.7153 12.9756 43.6321 12.752 43.4604C12.2138 43.0466 12.1127 42.274 12.5269 41.7353ZM83.5465 66.8628C83.5077 66.3142 83.1095 65.8579 82.5711 65.7452L80.3547 65.2813C80.1998 64.4395 79.9784 63.6116 79.6924 62.8058L81.382 61.2941C81.7919 60.9274 81.9086 60.3331 81.668 59.8385C81.2695 59.0204 80.8093 58.2244 80.2997 57.4731C79.9915 57.0186 79.4188 56.8235 78.8975 56.9948L76.741 57.7029C76.1861 57.0532 75.5807 56.448 74.9315 55.8934L75.6395 53.7367C75.8109 53.215 75.6156 52.6428 75.1611 52.3345C74.4094 51.8248 73.6135 51.3646 72.7958 50.9666C72.3013 50.7256 71.7071 50.8427 71.3405 51.2524L69.8286 52.942C69.0221 52.656 68.1943 52.4345 67.3529 52.2797L66.8892 50.0631C66.7765 49.5247 66.32 49.1262 65.771 49.0877C65.7257 49.0845 65.6812 49.0835 65.636 49.0805V21.6561C65.636 20.9766 65.0851 20.4257 64.4055 20.4257H50.5974C49.9178 20.4257 49.3669 20.9766 49.3669 21.6561V56.947C49.0277 56.9927 48.7132 57.1764 48.5118 57.4735C48.0023 58.2253 47.5421 59.0211 47.1442 59.8385C46.9035 60.3329 47.0202 60.9272 47.4302 61.2941L49.1198 62.8058C48.8336 63.6123 48.6119 64.4402 48.4573 65.2813L46.2407 65.7452C45.7021 65.8581 45.3036 66.3148 45.2652 66.8639C45.2327 67.3259 45.2166 67.785 45.2166 68.2285C45.2166 68.672 45.2329 69.1311 45.2652 69.5931C45.3036 70.1422 45.7019 70.5989 46.2407 70.7118L48.4574 71.1756C48.6123 72.0178 48.8338 72.8457 49.1196 73.6512L47.4302 75.1629C47.0202 75.5296 46.9035 76.1239 47.1442 76.6185C47.5421 77.4357 48.0022 78.2313 48.5118 78.9835C48.8197 79.4384 49.3926 79.6337 49.9143 79.4623L52.0711 78.7541C52.6261 79.404 53.2315 80.009 53.8806 80.5636L53.1726 82.7203C53.0012 83.242 53.1965 83.8141 53.6511 84.1225C54.4024 84.6319 55.1981 85.0922 56.016 85.4904C56.511 85.7316 57.1048 85.6145 57.4717 85.2046L58.9836 83.5148C59.7901 83.8008 60.6178 84.0224 61.4593 84.1771L61.923 86.3937C62.0357 86.9323 62.4922 87.3306 63.0411 87.3691C63.5024 87.4017 63.9617 87.418 64.4062 87.418C64.8508 87.418 65.3105 87.4015 65.7717 87.3691C66.3207 87.3306 66.7774 86.9323 66.8899 86.3937L67.3536 84.1771C68.1954 84.0223 69.0233 83.8008 69.8293 83.515L71.3412 85.2046C71.7082 85.6145 72.3023 85.7314 72.797 85.4902C73.6158 85.0914 74.4115 84.6312 75.1618 84.1223C75.6163 83.814 75.8115 83.2418 75.6403 82.7201L74.9322 80.5634C75.5817 80.0085 76.1871 79.4033 76.7415 78.7541L78.898 79.4623C79.4204 79.6339 79.9922 79.4384 80.3006 78.9838C80.8103 78.2317 81.2709 77.4359 81.6687 76.6184C81.9093 76.1239 81.7926 75.5296 81.3827 75.1629L79.6931 73.6512C79.9792 72.8447 80.2009 72.0168 80.3556 71.1756L82.5718 70.7118C83.1102 70.5991 83.5084 70.1427 83.5472 69.5941C83.5799 69.1336 83.5963 68.6743 83.5963 68.2285C83.5963 67.7827 83.5791 67.3234 83.5465 66.8628ZM63.1754 22.8866V49.0808C63.1304 49.0836 63.0861 49.0847 63.0408 49.088C62.4918 49.1265 62.0351 49.5248 61.9226 50.0634L61.4589 52.28C60.6169 52.4349 59.789 52.6564 58.9832 52.9422L57.4713 51.2526C57.1048 50.843 56.5109 50.726 56.0157 50.9669C55.1972 51.3654 54.4013 51.8256 53.6507 52.3347C53.1961 52.643 53.001 53.2152 53.1722 53.7369L53.8803 55.8936C53.2304 56.4485 52.6252 57.0537 52.0706 57.7031L51.8277 57.6233V22.8866H63.1754ZM81.1324 68.4987L79.0184 68.9411C78.5051 69.0485 78.1163 69.4695 78.0499 69.9896C77.8946 71.2053 77.5763 72.3956 77.1033 73.5274C76.9013 74.0108 77.0277 74.5693 77.4183 74.9187L79.0286 76.3594C78.9411 76.5166 78.8509 76.6723 78.7584 76.8265L76.7025 76.1511C76.205 75.9878 75.6589 76.1569 75.3409 76.5728C74.5968 77.5465 73.7251 78.418 72.7504 79.1633C72.3347 79.4813 72.1656 80.0275 72.3289 80.5246L73.0041 82.5809C72.8501 82.6733 72.6943 82.7633 72.5372 82.8509L71.0965 81.2405C70.7472 80.8501 70.1887 80.7239 69.705 80.9257C68.5749 81.398 67.3847 81.7164 66.1672 81.8719C65.6471 81.9384 65.2263 82.3272 65.1189 82.8405L64.6766 84.9546C64.4952 84.9576 64.3175 84.9576 64.1361 84.9546L63.6936 82.8405C63.5862 82.3272 63.1652 81.9384 62.6451 81.8719C61.429 81.7167 60.2388 81.3982 59.1073 80.9255C58.6241 80.7237 58.0656 80.8501 57.716 81.2405L56.2751 82.8509C56.118 82.7633 55.9624 82.6733 55.8084 82.5809L56.4836 80.5246C56.6471 80.0273 56.4776 79.481 56.0617 79.1631C55.0883 78.4191 54.2167 77.5475 53.4714 76.5727C53.1536 76.1568 52.6073 75.9877 52.1102 76.151L50.0541 76.8261C49.9616 76.672 49.8714 76.5162 49.7839 76.3591L51.3942 74.9184C51.785 74.5689 51.9112 74.0103 51.709 73.5267C51.2369 72.3977 50.9186 71.2073 50.7626 69.9891C50.696 69.4692 50.3074 69.0482 49.7941 68.9409L47.6801 68.4985C47.6786 68.4078 47.6778 68.3176 47.6778 68.2283C47.6778 68.139 47.6786 68.0489 47.6801 67.9581L49.7941 67.5157C50.3074 67.4083 50.6962 66.9873 50.7626 66.4672C50.9178 65.2515 51.2362 64.0611 51.7092 62.9294C51.9112 62.446 51.7848 61.8875 51.3942 61.5381L49.7839 60.0974C49.8714 59.9402 49.9616 59.7847 50.0539 59.6305L52.1102 60.3057C52.6073 60.4688 53.1538 60.2997 53.4718 59.8838C54.2155 58.9103 55.0869 58.0388 56.0619 57.2935C56.4778 56.9757 56.6469 56.4294 56.4836 55.9321L55.8084 53.8758C55.9624 53.7835 56.1182 53.6933 56.2751 53.6058L57.716 55.2161C58.0656 55.6067 58.6237 55.7329 59.1077 55.5309C60.2374 55.0586 61.4275 54.7403 62.6453 54.5847C63.1654 54.5183 63.5862 54.1294 63.6936 53.6161L64.1361 51.502C64.3175 51.499 64.4954 51.499 64.6764 51.502L65.1189 53.6161C65.2263 54.1294 65.6473 54.5183 66.1674 54.5847C67.3834 54.7399 68.5737 55.0584 69.7052 55.5311C70.1887 55.7331 70.7472 55.6069 71.0965 55.2163L72.5374 53.6058C72.6945 53.6933 72.8501 53.7833 73.0041 53.8758L72.3289 55.9321C72.1654 56.4294 72.3349 56.9757 72.7508 57.2935C73.7242 58.0376 74.5958 58.9091 75.3411 59.884C75.6591 60.2999 76.2054 60.469 76.7023 60.3057L78.7584 59.6305C78.8509 59.7847 78.9411 59.9404 79.0286 60.0976L77.4183 61.5383C77.0277 61.8877 76.9013 62.4462 77.1033 62.9297C77.5758 64.0602 77.8941 65.2506 78.0499 66.4677C78.1165 66.9877 78.5051 67.4085 79.0184 67.5159L81.1324 67.9583C81.1339 68.049 81.1346 68.139 81.1346 68.2285C81.1346 68.318 81.1339 68.408 81.1324 68.4987ZM64.4059 57.3642C58.4154 57.3642 53.5417 62.2379 53.5417 68.2285C53.5417 74.2189 58.4154 79.0927 64.4059 79.0927C70.3963 79.0927 75.2701 74.2189 75.2701 68.2285C75.2701 62.2379 70.3963 57.3642 64.4059 57.3642ZM64.4059 76.6317C59.7725 76.6317 56.0027 72.8621 56.0027 68.2285C56.0027 63.5949 59.7723 59.8251 64.4059 59.8251C69.0395 59.8251 72.8091 63.5947 72.8091 68.2285C72.8091 72.8621 69.0393 76.6317 64.4059 76.6317ZM43.9195 73.9428C43.9195 74.6224 43.3686 75.1733 42.689 75.1733H7.16326C6.48369 75.1733 5.93279 74.6224 5.93279 73.9428C5.93279 73.2632 6.48369 72.7123 7.16326 72.7123H42.689C43.3686 72.7123 43.9195 73.2632 43.9195 73.9428ZM43.9195 79.0276C43.9195 79.7072 43.3686 80.2581 42.689 80.2581H1.63477C0.955195 80.2581 0.404297 79.7072 0.404297 79.0276C0.404297 78.348 0.955195 77.7971 1.63477 77.7971H42.689C43.3686 77.7971 43.9195 78.348 43.9195 79.0276Z" fill="#F47805"/>
</svg>
