<svg width="76" height="82" viewBox="0 0 76 82" fill="none" xmlns="http://www.w3.org/2000/svg">
<path d="M65.9063 54.4375C66.2627 54.4375 66.6045 54.2959 66.8565 54.0439C67.1085 53.7919 67.25 53.4501 67.25 53.0938V49.0625H71.2813C71.6377 49.0625 71.9795 48.9209 72.2315 48.6689C72.4835 48.4169 72.625 48.0751 72.625 47.7188V32.6903C73.5216 32.3733 74.2773 31.7495 74.7584 30.9293C75.2396 30.1091 75.4153 29.1451 75.2545 28.2079C75.0937 27.2706 74.6067 26.4204 73.8796 25.8074C73.1526 25.1945 72.2322 24.8583 71.2813 24.8583C70.3303 24.8583 69.41 25.1945 68.6829 25.8074C67.9559 26.4204 67.4689 27.2706 67.3081 28.2079C67.1473 29.1451 67.323 30.1091 67.8042 30.9293C68.2853 31.7495 69.041 32.3733 69.9375 32.6903V46.375H67.25V42.3438C67.25 41.9874 67.1085 41.6456 66.8565 41.3936C66.6045 41.1416 66.2627 41 65.9063 41H60.7181C60.4842 40.3296 60.215 39.6721 59.9118 39.0301L63.5749 35.367C63.8268 35.115 63.9683 34.7733 63.9683 34.417C63.9683 34.0607 63.8268 33.7189 63.5749 33.4669L60.5044 30.3951C60.5161 30.3473 60.525 30.2988 60.5313 30.25V6.06251H67.4973C67.8143 6.95908 68.438 7.71472 69.2582 8.19589C70.0785 8.67705 71.0424 8.85276 71.9797 8.69195C72.9169 8.53114 73.7672 8.04418 74.3801 7.31711C74.9931 6.59005 75.3292 5.66971 75.3292 4.71876C75.3292 3.7678 74.9931 2.84746 74.3801 2.1204C73.7672 1.39334 72.9169 0.906372 71.9797 0.745564C71.0424 0.584756 70.0785 0.760462 69.2582 1.24163C68.438 1.72279 67.8143 2.47844 67.4973 3.37501H59.1875C58.8312 3.37501 58.4894 3.51658 58.2374 3.76858C57.9854 4.02059 57.8438 4.36237 57.8438 4.71876V27.7372L55.9706 25.8654C55.7186 25.6134 55.3769 25.4719 55.0206 25.4719C54.6642 25.4719 54.3225 25.6134 54.0705 25.8654L50.4061 29.5284C49.7647 29.225 49.1076 28.9558 48.4375 28.7222V12.7813C48.4375 12.4249 48.296 12.0831 48.044 11.8311C47.792 11.5791 47.4502 11.4375 47.0938 11.4375C37.9899 11.4113 29.2636 7.79627 22.8082 1.37685L22.5126 1.08123C22.2606 0.829313 21.9188 0.687795 21.5625 0.687795C21.2062 0.687795 20.8645 0.829313 20.6125 1.08123L20.3169 1.37685C17.5208 4.17841 14.2594 6.47314 10.6782 8.15876C10.515 8.23165 10.3679 8.33637 10.2457 8.46678C10.1235 8.59719 10.0285 8.75068 9.96634 8.91825C9.90417 9.08583 9.87605 9.26412 9.88363 9.44269C9.89121 9.62127 9.93435 9.79654 10.0105 9.95824C10.0867 10.1199 10.1943 10.2648 10.3272 10.3844C10.46 10.504 10.6154 10.5959 10.7841 10.6547C10.9529 10.7134 11.1318 10.738 11.3101 10.7268C11.4885 10.7156 11.6629 10.669 11.823 10.5896C15.4078 8.90273 18.6967 6.648 21.5625 3.91251C28.1265 10.123 36.7206 13.7416 45.75 14.0968V22.1875H36.3438C35.9874 22.1875 35.6456 22.3291 35.3936 22.5811C35.1416 22.8331 35 23.1749 35 23.5313V28.7195C34.33 28.9532 33.6729 29.2223 33.0314 29.5257L31.7562 28.2505C31.2523 26.7134 30.4077 25.3099 29.2853 24.145C28.163 22.9801 26.7919 22.0838 25.2746 21.5231C23.7572 20.9624 22.1328 20.7517 20.5226 20.9069C18.9124 21.0621 17.3581 21.579 15.9758 22.4191C14.5934 23.2592 13.4187 24.4008 12.5395 25.7586C11.6602 27.1164 11.099 28.6553 10.8979 30.2604C10.6968 31.8655 10.861 33.4953 11.3781 35.028C11.8952 36.5607 12.752 37.9568 13.8843 39.112C14.0072 39.241 14.1544 39.3442 14.3175 39.4157C14.4806 39.4872 14.6563 39.5256 14.8343 39.5287C15.0124 39.5317 15.1893 39.4993 15.3547 39.4334C15.5201 39.3675 15.6708 39.2693 15.7979 39.1447C15.9251 39.02 16.0262 38.8713 16.0954 38.7072C16.1646 38.5431 16.2005 38.3669 16.201 38.1888C16.2015 38.0107 16.1665 37.8343 16.0983 37.6699C16.03 37.5054 15.9297 37.3562 15.8032 37.2308C14.3141 35.7026 13.493 33.6455 13.5206 31.5119C13.5482 29.3783 14.4222 27.3431 15.9504 25.8539C17.4785 24.3648 19.5357 23.5437 21.6693 23.5713C23.8028 23.5989 25.8381 24.4729 27.3272 26.0011L19.8654 33.4629C19.6135 33.7149 19.4719 34.0566 19.4719 34.4129C19.4719 34.7693 19.6135 35.111 19.8654 35.363L23.5284 39.026C23.2252 39.668 22.9561 40.3256 22.7222 40.996H17.5313C17.1749 40.996 16.8331 41.1376 16.5811 41.3896C16.3291 41.6416 16.1875 41.9833 16.1875 42.3397V50.5366L14.7013 49.2842C11.1031 46.2584 8.18143 42.5096 6.12616 38.2812C4.07089 34.0528 2.92794 29.4394 2.77153 24.7406C4.28422 24.4247 5.64208 23.5977 6.61696 22.3987C7.59185 21.1996 8.12436 19.7016 8.12504 18.1563C8.12504 18.0219 8.12504 17.8875 8.11025 17.7531C10.9762 16.9061 13.7428 15.7533 16.3622 14.3145C16.9866 15.0937 17.7781 15.7227 18.6782 16.1549C19.5783 16.5871 20.564 16.8115 21.5625 16.8115C22.561 16.8115 23.5468 16.5871 24.4469 16.1549C25.347 15.7227 26.1385 15.0937 26.7628 14.3145C29.3823 15.7533 32.1488 16.9061 35.0148 17.7531C35 17.8875 35 18.0219 35 18.1563C35 18.5126 35.1416 18.8544 35.3936 19.1064C35.6456 19.3584 35.9874 19.5 36.3438 19.5C36.7002 19.5 37.042 19.3584 37.294 19.1064C37.546 18.8544 37.6875 18.5126 37.6875 18.1563C37.6937 17.8118 37.7457 17.4698 37.8421 17.139C37.8887 16.9678 37.901 16.789 37.8781 16.6129C37.8552 16.4369 37.7977 16.2671 37.7089 16.1135C37.6201 15.9598 37.5017 15.8252 37.3605 15.7176C37.2194 15.6099 37.0583 15.5313 36.8867 15.4862C33.4222 14.5734 30.1001 13.1875 27.0141 11.3676C26.8567 11.2739 26.6817 11.2133 26.5 11.1897C26.3183 11.166 26.1336 11.1798 25.9574 11.2301C25.7812 11.2805 25.6172 11.3663 25.4754 11.4824C25.3336 11.5985 25.217 11.7423 25.1329 11.9051C24.802 12.5705 24.292 13.1302 23.6603 13.5216C23.0286 13.9129 22.3002 14.1202 21.5572 14.1202C20.8141 14.1202 20.0857 13.9129 19.4541 13.5216C18.8224 13.1302 18.3124 12.5705 17.9814 11.9051C17.8973 11.7423 17.7807 11.5985 17.6389 11.4824C17.4971 11.3663 17.3331 11.2805 17.1569 11.2301C16.9807 11.1798 16.7961 11.166 16.6143 11.1897C16.4326 11.2133 16.2576 11.2739 16.1002 11.3676C13.0192 13.1862 9.70264 14.572 6.24379 15.4862C6.0721 15.5313 5.91103 15.6099 5.76991 15.7176C5.62878 15.8252 5.51038 15.9598 5.42154 16.1135C5.33271 16.2671 5.2752 16.4369 5.25235 16.6129C5.22949 16.789 5.24174 16.9678 5.28838 17.139C5.38293 17.47 5.43309 17.8121 5.43754 18.1563C5.43754 19.2254 5.01282 20.2508 4.25681 21.0068C3.5008 21.7628 2.47544 22.1875 1.40629 22.1875C1.04447 22.1997 0.701693 22.3526 0.450775 22.6135C0.199858 22.8745 0.0605796 23.223 0.0625353 23.585C0.0551443 28.8744 1.2069 34.1011 3.43677 38.8975C5.66663 43.6938 8.92044 47.9433 12.9693 51.3469L16.1284 54.0075C16.368 54.2086 16.6702 54.3198 16.983 54.3219C17.1556 54.3988 17.3424 54.4382 17.5313 54.4375H22.7195C22.9532 55.1075 23.2223 55.7647 23.5258 56.4061L19.8627 60.0705C19.6108 60.3225 19.4693 60.6642 19.4693 61.0205C19.4693 61.3769 19.6108 61.7186 19.8627 61.9706L27.4643 69.5722C27.7163 69.8241 28.058 69.9656 28.4143 69.9656C28.7706 69.9656 29.1124 69.8241 29.3643 69.5722L33.0288 65.9091C33.6702 66.2125 34.3273 66.4817 34.9973 66.7154V71.9063C34.9973 72.2626 35.1389 72.6044 35.3909 72.8564C35.6429 73.1084 35.9847 73.25 36.3411 73.25H47.0911C47.4475 73.25 47.7893 73.1084 48.0413 72.8564C48.2933 72.6044 48.4348 72.2626 48.4348 71.9063V68.43C48.4348 68.0736 48.2933 67.7318 48.0413 67.4798C47.7893 67.2278 47.4475 67.0862 47.0911 67.0862C46.7347 67.0862 46.3929 67.2278 46.1409 67.4798C45.8889 67.7318 45.7473 68.0736 45.7473 68.43V70.5625H37.6875V65.7425C37.6877 65.4528 37.5942 65.1709 37.4211 64.9387C37.2479 64.7064 37.0044 64.5364 36.7268 64.4538C35.5769 64.1139 34.4651 63.6564 33.409 63.0886C33.1545 62.9508 32.8623 62.8988 32.5759 62.9405C32.2894 62.9821 32.0241 63.1151 31.8194 63.3197L28.4157 66.7221L22.7155 61.0219L26.1178 57.6195C26.3227 57.4149 26.4559 57.1497 26.4978 56.8633C26.5397 56.5768 26.488 56.2845 26.3503 56.0299C25.7814 54.9741 25.3235 53.8623 24.9837 52.7121C24.9014 52.4342 24.7315 52.1904 24.4992 52.017C24.267 51.8436 23.9849 51.75 23.6951 51.75H18.875V43.6875H23.6951C23.9847 43.6876 24.2667 43.5942 24.4989 43.421C24.7311 43.2479 24.9012 43.0044 24.9837 42.7267C25.3235 41.5766 25.7814 40.4648 26.3503 39.409C26.488 39.1543 26.5397 38.862 26.4978 38.5756C26.4559 38.2892 26.3227 38.0239 26.1178 37.8194L22.7155 34.4156L28.4157 28.7154L31.818 32.1178C32.0226 32.3226 32.2879 32.4559 32.5743 32.4978C32.8607 32.5397 33.153 32.4879 33.4077 32.3503C34.4634 31.7814 35.5753 31.3234 36.7254 30.9837C37.0033 30.9014 37.2471 30.7314 37.4205 30.4992C37.5939 30.2669 37.6876 29.9849 37.6875 29.695V24.875H45.75V29.695C45.7499 29.9847 45.8434 30.2666 46.0165 30.4989C46.1896 30.7311 46.4332 30.9011 46.7108 30.9837C47.8609 31.3234 48.9728 31.7814 50.0285 32.3503C50.2832 32.4879 50.5755 32.5397 50.8619 32.4978C51.1484 32.4559 51.4136 32.3226 51.6182 32.1178L55.0219 28.7154L60.7221 34.4156L57.3197 37.8194C57.1151 38.0241 56.9821 38.2894 56.9405 38.5758C56.8988 38.8623 56.9508 39.1545 57.0886 39.409C57.6565 40.4651 58.114 41.5768 58.4538 42.7267C58.5364 43.0044 58.7065 43.2479 58.9387 43.421C59.1709 43.5942 59.4528 43.6876 59.7425 43.6875H64.5625V51.75H59.7425C59.4528 51.7499 59.1709 51.8433 58.9387 52.0165C58.7065 52.1896 58.5364 52.4331 58.4538 52.7108C58.2859 53.2765 58.0883 53.8301 57.8693 54.3676L55.0112 51.5095C55.5871 49.3678 55.6232 47.1168 55.1162 44.9578C54.6092 42.7987 53.575 40.799 52.106 39.1376C51.9889 39.0052 51.8469 38.8972 51.6881 38.8198C51.5292 38.7423 51.3567 38.6969 51.1804 38.6861C51.004 38.6753 50.8272 38.6993 50.6601 38.7569C50.493 38.8144 50.3389 38.9043 50.2066 39.0213C50.0742 39.1384 49.9662 39.2804 49.8888 39.4392C49.8113 39.5981 49.7659 39.7706 49.7551 39.947C49.7443 40.1233 49.7683 40.3001 49.8259 40.4672C49.8834 40.6343 49.9733 40.7884 50.0903 40.9207C51.9268 43.0151 52.8786 45.7406 52.7452 48.5229C52.6118 51.3053 51.4036 53.9272 49.3752 55.8363C47.3468 57.7453 44.6565 58.7925 41.8712 58.7572C39.0859 58.7219 36.4231 57.6068 34.4437 55.6469L31.5923 52.7968C30.4993 51.7004 29.8175 50.2609 29.6618 48.7206C29.5062 47.1803 29.8861 45.6335 30.7377 44.3406L37.2938 50.8967C38.3184 51.8731 39.6793 52.4177 41.0946 52.4177C42.5099 52.4177 43.8709 51.8731 44.8954 50.8967C45.3946 50.3976 45.7905 49.8051 46.0606 49.1529C46.3308 48.5008 46.4698 47.8018 46.4698 47.0959C46.4698 46.3901 46.3308 45.6911 46.0606 45.0389C45.7905 44.3868 45.3946 43.7943 44.8954 43.2951L38.3393 36.739C39.6322 35.8877 41.179 35.5079 42.7192 35.6635C44.2594 35.8192 45.699 36.5008 46.7955 37.5936C47.0489 37.8384 47.3883 37.9738 47.7407 37.9708C48.093 37.9677 48.43 37.8264 48.6792 37.5772C48.9283 37.3281 49.0696 36.9911 49.0727 36.6387C49.0758 36.2864 48.9403 35.947 48.6955 35.6935C46.9301 33.9319 44.538 32.9426 42.044 32.9426C39.55 32.9426 37.1578 33.9319 35.3924 35.6935C35.1405 35.9455 34.999 36.2873 34.999 36.6436C34.999 36.9999 35.1405 37.3416 35.3924 37.5936L42.994 45.1952C43.2437 45.4448 43.4417 45.7411 43.5769 46.0672C43.712 46.3934 43.7815 46.7429 43.7815 47.0959C43.7815 47.449 43.712 47.7985 43.5769 48.1246C43.4417 48.4508 43.2437 48.7471 42.994 48.9967C42.482 49.4857 41.8013 49.7585 41.0933 49.7585C40.3853 49.7585 39.7045 49.4857 39.1925 48.9967L31.5909 41.3951C31.339 41.1432 30.9972 41.0016 30.6409 41.0016C30.2846 41.0016 29.9429 41.1432 29.6909 41.3951C27.9293 43.1605 26.94 45.5526 26.94 48.0466C26.94 50.5406 27.9293 52.9328 29.6909 54.6982L32.5423 57.5483C34.2059 59.2207 36.2825 60.4231 38.5612 61.0332C40.8399 61.6433 43.2395 61.6394 45.5162 61.0219L63.8423 79.3506C65.1025 80.6108 66.8116 81.3188 68.5938 81.3188C70.3759 81.3188 72.0851 80.6108 73.3453 79.3506C74.6055 78.0905 75.3134 76.3813 75.3134 74.5991C75.3134 72.817 74.6055 71.1078 73.3453 69.8476L67.8547 64.353C67.6013 64.1083 67.2619 63.9728 66.9095 63.9759C66.5572 63.979 66.2202 64.1203 65.971 64.3694C65.7219 64.6186 65.5806 64.9556 65.5775 65.3079C65.5744 65.6602 65.7099 65.9997 65.9547 66.2531L71.4452 71.7423C72.2015 72.4986 72.6263 73.5243 72.6263 74.5938C72.6263 75.6633 72.2015 76.6889 71.4452 77.4452C70.689 78.2014 69.6633 78.6263 68.5938 78.6263C67.5243 78.6263 66.4986 78.2014 65.7423 77.4452L48.2588 59.9603C50.6985 58.6879 52.687 56.6948 53.9536 54.2521L62.1505 62.449C62.4039 62.6937 62.7434 62.8292 63.0957 62.8261C63.448 62.823 63.7851 62.6817 64.0342 62.4326C64.2833 62.1834 64.4247 61.8464 64.4277 61.4941C64.4308 61.1418 64.2953 60.8023 64.0506 60.5489L59.8957 56.394C60.2042 55.7568 60.4787 55.1037 60.7181 54.4375H65.9063ZM71.2813 27.5625C71.5471 27.5625 71.8069 27.6413 72.0278 27.789C72.2488 27.9366 72.421 28.1465 72.5227 28.392C72.6245 28.6376 72.6511 28.9077 72.5992 29.1684C72.5474 29.4291 72.4194 29.6685 72.2315 29.8564C72.0435 30.0444 71.8041 30.1723 71.5434 30.2242C71.2828 30.276 71.0126 30.2494 70.7671 30.1477C70.5215 30.046 70.3117 29.8738 70.164 29.6528C70.0163 29.4318 69.9375 29.172 69.9375 28.9063C69.9375 28.5499 70.0791 28.2081 70.3311 27.9561C70.5831 27.7041 70.9249 27.5625 71.2813 27.5625ZM71.2813 3.37501C71.5471 3.37501 71.8069 3.45382 72.0278 3.60147C72.2488 3.74912 72.421 3.95899 72.5227 4.20453C72.6245 4.45007 72.6511 4.72025 72.5992 4.98091C72.5474 5.24157 72.4194 5.48101 72.2315 5.66893C72.0435 5.85686 71.8041 5.98484 71.5434 6.03669C71.2828 6.08854 71.0126 6.06193 70.7671 5.96022C70.5215 5.85852 70.3117 5.68628 70.164 5.46531C70.0163 5.24433 69.9375 4.98453 69.9375 4.71876C69.9375 4.36237 70.0791 4.02059 70.3311 3.76858C70.5831 3.51658 70.9249 3.37501 71.2813 3.37501Z" fill="#F47805"/>
</svg>
