<svg width="613" height="772" viewBox="0 0 613 772" fill="none" xmlns="http://www.w3.org/2000/svg">
<path d="M215.473 7.34358C156.673 -19.4564 40.3061 33.5102 -10.5272 63.3436C-47.8605 212.344 -100.127 540.444 -10.5272 660.844C101.473 811.344 257.973 773.344 356.973 745.344C455.973 717.344 429.473 594.344 429.473 561.844C429.473 529.344 556.473 442.344 588.973 418.844C621.473 395.344 616.973 321.344 597.473 262.344C577.973 203.344 460.473 207.844 429.473 157.844C398.473 107.844 347.973 104.344 319.973 89.8436C291.973 75.3436 288.973 40.8436 215.473 7.34358Z" fill="url(#paint0_linear_148_7191)"/>
<defs>
<linearGradient id="paint0_linear_148_7191" x1="58.5" y1="-68.5" x2="931" y2="496.5" gradientUnits="userSpaceOnUse">
<stop stop-color="#4DFFD4"/>
<stop offset="1" stop-color="#D9D9D9" stop-opacity="0"/>
</linearGradient>
</defs>
</svg>
