<svg width="36" height="36" viewBox="0 0 36 36" fill="none" xmlns="http://www.w3.org/2000/svg">
<path d="M17.6671 35.3337C27.4088 35.3337 35.334 27.4085 35.334 17.6668C35.334 7.92522 27.4088 0 17.6671 0C7.92553 0 0.000304123 7.92522 0.000304123 17.6668C0.000304123 27.4085 7.92553 35.3337 17.6671 35.3337ZM17.6671 2.52376C26.0169 2.52376 32.8102 9.31704 32.8102 17.6668C32.8102 26.0166 26.0169 32.8099 17.6671 32.8099C9.31734 32.8099 2.52406 26.0166 2.52406 17.6668C2.52406 9.31704 9.31734 2.52376 17.6671 2.52376Z" fill="white"/>
<path d="M11.3571 25.2386C11.6801 25.2386 12.003 25.1154 12.2494 24.8688L24.8685 12.2497C25.3615 11.7567 25.3615 10.9582 24.8685 10.4654C24.3757 9.97261 23.577 9.97234 23.0842 10.4654L10.4651 23.0844C9.97207 23.5775 9.97207 24.376 10.4651 24.8688C10.7115 25.1154 11.0342 25.2386 11.3571 25.2386Z" fill="white"/>
<path d="M23.9765 25.2387C24.2994 25.2387 24.6221 25.1155 24.8685 24.8689C25.3615 24.3761 25.3615 23.5773 24.8685 23.0845L12.2494 10.4655C11.7564 9.97244 10.9579 9.97244 10.4651 10.4655C9.97234 10.9583 9.97207 11.757 10.4651 12.2498L23.0842 24.8689C23.3306 25.1155 23.6535 25.2387 23.9765 25.2387Z" fill="white"/>
</svg>
