<svg width="115" height="107" viewBox="0 0 115 107" fill="none" xmlns="http://www.w3.org/2000/svg">
<g clip-path="url(#clip0_160_3110)">
<path d="M42.6999 70.134C42.6999 70.134 28.7815 63.8844 17.2563 64.8313C6.80175 65.652 5.16429 67.1039 0 66.4726C1.32256 69.8183 6.99069 80.7393 18.5789 84.7794C30.167 88.7564 41.4403 86.7995 45.7859 83.4537C50.0685 80.108 45.345 71.4596 42.6999 70.134Z" fill="#218498"/>
<path d="M4.4082 68.6189C4.4082 68.6189 24.3096 77.3304 42.1957 75.626" stroke="white" stroke-width="1.2258" stroke-miterlimit="10"/>
<path d="M9.13184 75.626L16.2485 72.7222" stroke="white" stroke-width="1.2258" stroke-miterlimit="10"/>
<path d="M20.7197 68.9346C20.7197 69.124 24.2466 74.4897 24.2466 74.4897" stroke="white" stroke-width="1.2258" stroke-miterlimit="10"/>
<path d="M67.2622 71.0808C67.2622 71.0808 71.5448 60.0336 78.3465 54.2891C84.5185 49.0495 86.2819 48.9864 88.7381 45.8301C89.8087 48.3552 92.6428 57.4454 88.4862 65.9675C84.2666 74.4897 77.024 79.5398 72.8044 80.0448C68.6477 80.5498 66.5064 73.2271 67.2622 71.0808Z" fill="#218498"/>
<path d="M87.4785 49.3652C87.4785 49.3652 81.3066 65.0207 70.5371 73.7953" stroke="white" stroke-width="0.9477" stroke-miterlimit="10"/>
<path d="M88.6755 55.741L83.1963 58.0767" stroke="white" stroke-width="0.9477" stroke-miterlimit="10"/>
<path d="M78.6611 58.4554C78.7871 58.5817 79.7318 63.4425 79.7318 63.4425" stroke="white" stroke-width="0.9477" stroke-miterlimit="10"/>
<path d="M50.0685 73.7953C50.0685 73.7953 46.7306 55.8673 35.1424 47.5345C23.5542 39.2018 15.5559 39.2018 8.62818 34.9092C8.62818 34.9092 7.93541 41.9163 12.5959 52.5216C17.2563 63.1269 22.8615 71.7753 33.505 76.4466C44.0855 81.0549 50.0685 73.7953 50.0685 73.7953Z" fill="#8182EE"/>
<path d="M11.5879 38.8862C11.5879 38.8862 30.7965 61.8013 42.7626 72.0909" stroke="white" stroke-width="1.2258" stroke-miterlimit="10"/>
<path d="M14.1074 50.3752L22.2317 51.3221" stroke="white" stroke-width="1.2258" stroke-miterlimit="10"/>
<path d="M30.1667 48.1658L28.0254 57.3192" stroke="white" stroke-width="1.2258" stroke-miterlimit="10"/>
<path d="M25.6953 66.157L35.835 65.652" stroke="white" stroke-width="1.2258" stroke-miterlimit="10"/>
<path d="M73.3711 77.7722C73.3711 77.7722 80.4877 64.8312 91.4461 61.4224C102.467 58.0135 108.576 60.0336 115 58.5186C115 58.5186 113.741 64.0106 107.506 71.0177C101.271 77.9616 94.721 83.2012 85.4001 84.0218C76.0792 84.8425 73.3711 77.7722 73.3711 77.7722Z" fill="#8182EE"/>
<path d="M111.663 60.7911C111.663 60.7911 91.0686 73.4796 79.3545 78.3404" stroke="white" stroke-width="0.9906" stroke-miterlimit="10"/>
<path d="M106.876 68.9344L100.389 67.6088" stroke="white" stroke-width="0.9906" stroke-miterlimit="10"/>
<path d="M95.099 63.1899L94.4062 70.7652" stroke="white" stroke-width="0.9906" stroke-miterlimit="10"/>
<path d="M93.9652 78.0879L86.3447 75.121" stroke="white" stroke-width="0.9906" stroke-miterlimit="10"/>
<path d="M83.385 88.8826C86.8488 90.9027 86.8489 94.1221 83.448 96.1422L67.3253 105.548C63.8614 107.568 58.3193 107.568 54.8554 105.548L38.6068 96.1422C35.1429 94.1221 35.1429 90.9027 38.5438 88.8826L54.6665 79.4767C58.1303 77.4567 63.6725 77.4567 67.1364 79.4767L83.385 88.8826Z" fill="url(#paint0_linear_160_3110)"/>
<path d="M83.385 84.5269C86.8488 86.547 86.8489 89.7664 83.448 91.7865L67.3253 101.192C63.8614 103.212 58.3193 103.212 54.8554 101.192L38.6068 91.7865C35.1429 89.7664 35.1429 86.547 38.5438 84.5269L54.6665 75.121C58.1303 73.1009 63.6725 73.1009 67.1364 75.121L83.385 84.5269Z" stroke="#94C3FF" stroke-width="0.9256" stroke-miterlimit="10"/>
<path d="M89.1789 78.7192L68.9626 90.5239C64.68 93.049 57.6263 93.049 53.3438 90.5239L33.0015 78.7192C30.7972 77.4567 29.7266 75.8154 29.7266 74.1741V76.5098C29.7266 78.1511 30.7972 79.7924 33.0015 81.0549L53.3438 92.8596C57.6893 95.3847 64.68 95.3847 68.9626 92.8596L89.1789 81.0549C91.3202 79.7924 92.3909 78.1511 92.3909 76.5729V74.2372C92.3909 75.8785 91.3202 77.5198 89.1789 78.7192Z" fill="#A6D0F4"/>
<path d="M89.1159 69.6921C93.4615 72.2171 93.4615 76.2572 89.1789 78.7823L68.9626 90.587C64.68 93.1121 57.6263 93.1121 53.3437 90.587L33.0015 78.7823C28.6559 76.2572 28.6559 72.2171 32.9385 69.6921L53.1548 57.8873C57.4374 55.3623 64.4911 55.3623 68.7736 57.8873L89.1159 69.6921Z" fill="url(#paint1_linear_160_3110)"/>
<path d="M92.9575 13.5092L70.474 0.505037C69.5293 -0.0631051 68.6476 -0.126232 67.9548 0.252529L66.0654 1.32569C66.6952 0.946924 67.5769 1.01005 68.5846 1.57819L91.0682 14.5823C93.0205 15.7186 94.532 18.4331 94.532 20.6425V28.4071C94.532 29.5434 94.1541 30.3009 93.5244 30.6797L95.4137 29.6065C96.0435 29.2278 96.4214 28.4702 96.4214 27.3339V19.5693C96.4214 17.2968 94.8469 14.6454 92.9575 13.5092Z" fill="#C7D8F2"/>
<path d="M91.068 14.5823C93.0204 15.7186 94.5319 18.433 94.5319 20.6425V28.4071C94.5319 30.6165 92.9574 31.5003 91.005 30.4271L68.5215 17.423C66.5691 16.2867 65.0576 13.5722 65.0576 11.3628V3.5982C65.0576 1.38876 66.6321 0.504987 68.5845 1.57814L91.068 14.5823Z" fill="#EAF1F7"/>
<path d="M92.9575 34.1516L70.474 21.1475C69.5293 20.5794 68.6476 20.5162 67.9548 20.895L66.0654 21.9681C66.6952 21.5894 67.5769 21.6525 68.5846 22.2207L91.0682 35.2248C93.0205 36.3611 94.532 39.0755 94.532 41.285V49.0496C94.532 50.1858 94.1541 50.9434 93.5244 51.3221L95.4137 50.249C96.0435 49.8702 96.4214 49.1127 96.4214 47.9764V40.2118C96.4214 38.0024 94.8469 35.2879 92.9575 34.1516Z" fill="#94C3FF"/>
<path d="M91.068 35.2247C93.0204 36.361 94.5319 39.0755 94.5319 41.2849V49.0495C94.5319 51.2589 92.9574 52.1427 91.005 51.0696L68.5215 38.0654C66.5691 36.9292 65.0576 34.2147 65.0576 32.0053V24.2407C65.0576 22.0312 66.6321 21.1474 68.5845 22.2206L91.068 35.2247Z" fill="#8182EE"/>
<path d="M87.352 26.8921H87.2891C87.2891 26.8289 87.352 26.8921 87.352 26.8921Z" fill="#A6D0F4"/>
<path d="M83.9517 23.6726C83.9517 23.6726 83.9517 23.6095 83.8887 23.6095C83.8887 23.6726 83.8887 23.6726 83.9517 23.6726Z" fill="#A6D0F4"/>
<path d="M83.5102 23.0414C83.4472 22.9151 83.3843 22.7889 83.3213 22.6626C83.3843 22.7257 83.4472 22.9151 83.5102 23.0414Z" fill="#A6D0F4"/>
<path d="M84.2031 24.1145C84.1401 23.9882 84.0142 23.862 83.9512 23.7357C84.0771 23.862 84.1401 23.9882 84.2031 24.1145Z" fill="#A6D0F4"/>
<path d="M84.2661 24.1776C84.2661 24.1776 84.2661 24.1145 84.2031 24.1145C84.2661 24.1776 84.2661 24.1776 84.2661 24.1776Z" fill="#A6D0F4"/>
<path d="M84.5806 24.6195L84.5176 24.5564C84.5176 24.5564 84.5806 24.5564 84.5806 24.6195Z" fill="#A6D0F4"/>
<path d="M86.9746 26.7027C86.9116 26.7027 86.9116 26.6396 86.9116 26.6396C86.9116 26.6396 86.8486 26.6396 86.8486 26.5764C86.8486 26.5764 86.8486 26.5764 86.7856 26.5764C86.7856 26.5764 86.7856 26.5764 86.7226 26.5764C86.7226 26.5764 86.7227 26.5764 86.6597 26.5764C86.6597 26.5764 86.6597 26.5764 86.5967 26.5764C86.5967 26.5764 86.5967 26.5764 86.5337 26.5764C86.5337 26.5764 86.5337 26.5764 86.4707 26.5133C86.4078 26.5133 86.4077 26.4502 86.4077 26.4502C86.4077 26.4502 86.3448 26.4502 86.3448 26.387C86.3448 26.387 86.3448 26.387 86.2818 26.387C86.2818 26.387 86.2818 26.387 86.2188 26.387C86.2188 26.387 86.2188 26.387 86.1558 26.387C86.1558 26.387 86.1558 26.387 86.0929 26.387C86.0929 26.387 86.0929 26.387 86.0299 26.3239C86.0299 26.3239 85.9669 26.3239 85.9669 26.2608L85.9039 26.1977L85.8409 26.1345L85.778 26.0714C85.778 26.0714 85.778 26.0714 85.715 26.0083C85.715 26.0083 85.715 26.0083 85.652 25.9452C85.652 25.9452 85.652 25.9452 85.589 25.882C85.526 25.882 85.526 25.8189 85.526 25.8189C85.4631 25.7558 85.4631 25.7558 85.4001 25.6927L85.3371 25.6295L85.2741 25.5664L85.2111 25.5033L85.1482 25.4401L85.0852 25.377C85.0222 25.3139 84.9592 25.2508 84.8963 25.1876L84.8333 25.1245L84.7703 25.0614L84.7073 24.9983L84.6443 24.9351L84.5814 24.872C84.5184 24.8089 84.4554 24.6826 84.3924 24.6195L84.3294 24.5564L84.2665 24.4932L84.2035 24.4301C84.1405 24.3039 84.0145 24.1776 83.9516 24.0514L83.8886 23.9882L83.8256 23.9251C83.6996 23.7988 83.6367 23.6095 83.5737 23.4832C83.5737 23.4832 83.5737 23.4201 83.5107 23.4201C83.5107 23.4201 83.5107 23.357 83.4477 23.357C83.3847 23.2307 83.3218 23.1045 83.2588 22.9782C84.0145 22.8519 85.589 22.7888 85.652 22.7888C85.652 22.7888 85.652 22.8519 85.715 22.9151C85.9039 23.1676 86.3448 23.7357 86.9116 24.1145C87.2895 24.3039 87.6673 24.4301 88.1082 24.3039H88.1712C88.2341 24.367 89.6197 26.0083 90.4384 27.0814L90.3754 27.1446C90.3754 27.1446 90.3754 27.1446 90.3125 27.1446C90.3125 27.1446 90.3125 27.1446 90.2495 27.1446C90.2495 27.1446 90.2495 27.1446 90.1865 27.1446H90.1235C90.0605 27.1446 90.0605 27.2077 89.9976 27.2077H89.9346H89.8716H89.8086C89.7457 27.2077 89.6827 27.2708 89.6827 27.2708H89.6197H89.5567H89.4937C89.4308 27.2708 89.3678 27.2708 89.3678 27.334H89.3048H89.2418H89.1788H89.1159C89.0529 27.334 89.0529 27.334 88.9899 27.334H88.9269H88.8639H88.801H88.738C88.675 27.334 88.675 27.334 88.612 27.334H88.549H88.4861H88.4231H88.3601H88.2971C88.2341 27.334 88.2341 27.334 88.1712 27.334H88.1082C88.1082 27.334 88.1082 27.334 88.0452 27.334C88.0452 27.334 88.0452 27.334 87.9822 27.334H87.9193C87.8563 27.334 87.8563 27.334 87.7933 27.2708H87.7303C87.7303 27.2708 87.7303 27.2708 87.6673 27.2708C87.6673 27.2708 87.6673 27.2708 87.6044 27.2708C87.6044 27.2708 87.6044 27.2708 87.5414 27.2708H87.4784H87.4154H87.3524C87.3524 27.2708 87.3524 27.2708 87.2895 27.2708C87.2895 27.2708 87.2895 27.2708 87.2265 27.2708C87.2265 27.2708 87.2265 27.2708 87.1635 27.2708C87.1635 27.2708 87.1635 27.2708 87.1005 27.2708C87.0375 27.2708 87.0375 27.2708 87.0375 27.2077H86.9746C86.9746 27.2077 86.9746 27.2077 86.9116 27.2077C86.9116 27.2077 86.9116 27.2077 86.8486 27.2077C86.8486 27.2077 86.8486 27.2077 86.7856 27.2077C87.0375 26.7027 87.0375 26.7027 86.9746 26.7027Z" fill="#4B5CC0"/>
<path d="M84.5185 24.4932C84.4556 24.4301 84.4556 24.367 84.3926 24.3038C84.4556 24.4301 84.4556 24.4301 84.5185 24.4932Z" fill="#A6D0F4"/>
<path d="M85.0219 25.1244C84.959 25.0613 84.896 24.9982 84.833 24.9351C84.959 24.9982 84.959 25.0613 85.0219 25.1244Z" fill="#A6D0F4"/>
<path d="M85.4628 19.3168L85.5258 19.8849C85.5258 19.948 85.5258 20.0112 85.5258 20.1374C85.5258 20.1374 85.5258 20.1374 85.4628 20.1374C85.0849 19.8849 84.896 18.8749 85.1479 18.8749C85.2109 18.8749 85.2109 18.8749 85.2739 18.8749C85.3368 18.8749 85.3368 18.938 85.3368 18.938C85.3998 19.1905 85.3998 19.3799 85.4628 19.3168Z" fill="#CBDCEB"/>
<path d="M87.9816 23.6094C88.0446 23.7357 88.1076 23.8619 88.1706 23.925C87.7297 24.0513 87.2888 23.925 86.974 23.7357C86.4071 23.42 85.9663 22.7888 85.7773 22.5363C85.8403 22.5363 85.9033 22.4731 85.9663 22.41C86.0293 22.2206 86.0922 21.8419 86.1552 21.5894L86.6591 22.2837C86.722 22.41 86.848 22.5363 86.974 22.5994C87.0999 22.6625 87.1629 22.6625 87.2888 22.6625L87.7927 22.5363C87.8557 22.8519 87.9186 23.2938 87.9816 23.6094Z" fill="#CBDCEB"/>
<path d="M88.1075 20.3269C88.2965 20.4531 88.3595 20.4531 88.3595 20.4531L88.4854 21.3369V21.6525C88.4854 21.7157 88.4854 21.7788 88.4854 21.8419C88.4224 22.2207 88.1705 22.4732 87.8556 22.5994L87.3518 22.7257C87.2888 22.7257 87.1628 22.7257 87.0369 22.6626C86.9109 22.5994 86.8479 22.4732 86.722 22.3469L86.2182 21.6525C85.9033 21.2106 85.6513 20.6425 85.5884 20.2006C85.5884 20.1375 85.5884 20.0744 85.5884 19.9481L85.5254 19.38L85.9662 18.0543C85.9662 18.0543 86.0292 17.9912 86.2182 18.0543C86.2811 18.1174 86.4071 18.1806 86.5331 18.4331C86.9109 19.0012 86.9739 19.5062 87.6667 20.0112C87.8556 20.1375 87.9816 20.2637 88.1075 20.3269Z" fill="#CBDCEB"/>
<path d="M88.8632 21.0213C89.1151 21.3369 88.9262 22.0313 88.5483 21.9051L88.4854 21.8419C88.4854 21.7788 88.4854 21.7157 88.4854 21.6526V21.3369V21.4001C88.4854 21.4001 88.5483 21.2107 88.6743 20.8319H88.7373C88.7373 20.9582 88.8003 20.9582 88.8632 21.0213Z" fill="#CBDCEB"/>
<path d="M87.5407 17.2968C88.2964 17.928 88.6743 18.8118 88.8003 19.6324C88.8632 20.0743 88.8003 20.5162 88.6743 20.895C88.6113 21.2106 88.4854 21.4 88.4854 21.4631V21.4L88.3594 20.5162C88.3594 20.5162 88.2964 20.5162 88.1075 20.39C87.9815 20.3268 87.7926 20.2006 87.5407 20.0112C86.8479 19.5062 86.7849 19.0012 86.407 18.433C86.2811 18.2437 86.1551 18.1174 86.0922 18.0543C85.9662 17.9911 85.9032 18.0543 85.8402 18.0543L85.3994 19.3799V19.4431C85.3994 19.4431 85.3364 19.2537 85.3364 19.0643C85.2734 18.8118 85.2104 18.4962 85.2104 18.3068C85.1475 17.928 85.3364 17.1074 85.5883 16.8549C85.8402 16.6655 86.407 16.6655 87.0368 17.0442C87.1628 17.0442 87.3517 17.1705 87.5407 17.2968Z" fill="#8182EE"/>
<path d="M85.7773 22.5363C85.7144 22.4732 85.7144 22.41 85.7144 22.41C85.6514 22.41 84.0769 22.4732 83.3211 22.5994C82.6914 21.3369 82.3135 19.885 82.3135 18.6224C82.3135 15.7186 84.3918 14.5192 86.911 15.9711C89.4301 17.423 91.5084 21.0213 91.5084 23.9251C91.5084 25.1876 91.1306 26.1345 90.4378 26.7027L90.5008 26.6395C89.682 25.5664 88.2965 23.9251 88.2335 23.862H88.1705C88.1076 23.7357 88.0446 23.6726 87.9816 23.5463C87.8556 23.2307 87.8556 22.7888 87.7927 22.5363C88.1076 22.41 88.2965 22.1575 88.4225 21.7788L88.4854 21.8419C88.8633 21.9682 89.0523 21.2738 88.8003 20.9581C88.7374 20.895 88.7374 20.895 88.6744 20.8319H88.6114C88.6744 20.4531 88.8003 20.0112 88.7374 19.5693C88.6114 18.7487 88.2335 17.8649 87.4778 17.2336C87.2888 17.1074 87.1629 16.9811 86.9739 16.8549C86.3442 16.4761 85.7773 16.4761 85.5254 16.6655C85.2105 16.918 85.0216 17.7387 85.1475 18.1174C85.2105 18.3068 85.2735 18.6224 85.2735 18.8749L85.2105 18.8118C85.1475 18.8118 85.1475 18.8118 85.0846 18.8118C84.8326 18.8118 85.0216 19.7587 85.3995 20.0743C85.4624 20.0743 85.4624 20.1375 85.4624 20.1375C85.5254 20.6425 85.7773 21.1475 86.0922 21.5894C86.0922 21.8419 86.0292 22.2207 85.9033 22.41C85.9033 22.5363 85.8403 22.5363 85.7773 22.5363Z" fill="#25437F"/>
<path d="M85.0844 38.1918C85.0844 38.4443 85.1474 38.6968 85.2734 38.823C85.2734 38.823 85.2734 38.823 85.3364 38.7599L85.3993 39.2018C85.3993 39.2649 85.3993 39.328 85.3993 39.4543H85.3364C85.0844 39.2649 84.8955 38.7599 84.8955 38.4443C84.8955 38.318 84.9585 38.1918 85.0215 38.1918C85.0215 38.1286 85.0215 38.1286 85.0844 38.1918Z" fill="#CBDCEB"/>
<path d="M87.4148 41.9162C87.4148 42.1056 87.4778 42.5474 87.6038 42.9893C87.6038 43.0525 87.6038 43.0525 87.6038 43.1156C87.3519 43.1787 87.0999 43.1787 86.848 43.0525C86.848 43.0525 86.848 43.0525 86.785 43.0525C86.3442 42.8 86.0923 42.2949 86.0293 42.2318C86.1553 41.9793 86.2182 41.5374 86.2182 41.2849L86.5331 41.7268C86.5961 41.8531 86.7221 41.9793 86.848 42.0424C86.974 42.1056 87.037 42.1056 87.1629 42.1056L87.4148 41.9162Z" fill="#CBDCEB"/>
<path d="M89.3049 45.0094C89.1789 44.82 88.99 44.6306 88.801 44.3781C88.801 44.5044 88.7381 44.6938 88.6751 44.82C88.2972 45.6407 87.6674 45.5775 87.6044 45.5775C87.6044 45.5775 87.7304 45.0725 87.7304 44.5675C87.7304 44.3781 87.7304 44.2519 87.6674 44.1256C87.6044 43.9994 87.6044 43.81 87.6044 43.6837C87.6044 43.4944 87.5414 43.305 87.5414 43.0525C87.2895 43.1156 87.0376 43.1156 86.7857 42.9893C86.7857 42.9893 86.7857 42.9893 86.7227 42.9893C86.2819 42.7368 86.0299 42.2318 85.967 42.1687C85.904 42.1687 84.7704 42.0424 84.2665 42.1056C84.0776 42.1056 83.8887 42.4843 83.7627 42.8631C84.5814 44.1888 85.6521 45.325 86.8487 46.0194C87.9823 46.6507 88.99 46.777 89.8087 46.4613C89.6827 45.8301 89.4938 45.2619 89.3049 45.0094Z" fill="#4B5CC0"/>
<path d="M88.2338 42.2319C88.1078 41.9793 88.0448 41.7268 88.0448 41.6006C87.9189 41.7268 87.7929 41.8531 87.667 41.8531C87.667 41.8531 87.667 41.8531 87.604 41.8531L87.415 41.9162C87.415 42.1056 87.478 42.5475 87.604 42.9894C87.604 43.0525 87.604 43.0525 87.604 43.1156C87.604 43.305 87.604 43.4944 87.667 43.7469C87.667 43.8732 87.7299 44.0625 87.7299 44.1888C87.7929 44.315 87.7929 44.5044 87.7929 44.6307C87.7929 45.1357 87.667 45.6407 87.667 45.6407C87.7299 45.6407 88.3597 45.7038 88.7376 44.8832C88.8006 44.7569 88.8636 44.5675 88.8636 44.4413C88.8636 44.3782 88.8636 44.2519 88.8636 44.1888C88.8636 43.4944 88.5487 42.8631 88.2338 42.2319Z" fill="#8182EE"/>
<path d="M88.1705 40.8431L87.9815 39.9593C86.2181 38.8861 85.7143 37.4342 85.6513 37.3711C85.6513 37.4342 85.6513 37.5605 85.6513 37.6236C85.6513 38.1286 85.4624 38.5074 85.3364 38.6968C85.2734 38.7599 85.2734 38.823 85.2734 38.823L85.3364 39.2649C85.3364 39.328 85.3364 39.3912 85.3364 39.5174C85.3994 40.0224 85.6513 40.5274 85.9662 40.9693L86.2181 41.285C86.2181 41.2218 86.2181 41.2218 86.2181 41.285L86.533 41.7268C86.596 41.8531 86.722 41.9794 86.8479 42.0425C86.9739 42.1056 87.0369 42.1056 87.1628 42.1056L87.4777 42.0425L87.6666 41.9794C87.6666 41.9794 87.6667 41.9794 87.7296 41.9794C87.8556 41.9162 87.9815 41.8531 88.1075 41.7268C88.2335 41.6006 88.2964 41.4112 88.2964 41.2218C88.2335 41.0325 88.1705 40.9062 88.1705 40.8431Z" fill="#CBDCEB"/>
<path d="M88.1709 40.843L88.2339 41.0955C88.2339 41.0324 88.1709 40.9061 88.1709 40.843Z" fill="#FF8D68"/>
<path d="M88.5488 40.2118C88.6118 40.2118 88.6118 40.2749 88.6748 40.338C88.7377 40.4012 88.8007 40.5905 88.8007 40.7168C88.8007 41.0324 88.6118 41.3481 88.3599 41.2218C88.3599 41.2218 88.2969 41.2218 88.2969 41.1587C88.2969 41.0324 88.4228 40.6537 88.5488 40.2118C88.5488 40.1486 88.5488 40.1486 88.5488 40.2118Z" fill="#CBDCEB"/>
<path d="M86.9109 35.4141C89.4301 36.866 91.5084 40.4643 91.5084 43.3681C91.5084 45.0094 90.8786 46.0825 89.871 46.4613C89.745 45.83 89.5561 45.2619 89.3671 45.0094C89.2412 44.82 89.0522 44.6306 88.8633 44.3781C88.8633 44.315 88.8633 44.1887 88.8633 44.1256C88.8633 43.4943 88.5484 42.7999 88.2965 42.1687C88.1705 41.9162 88.1075 41.6637 88.1075 41.5374C88.2335 41.4112 88.2965 41.2218 88.2965 41.0324C88.2965 41.0955 88.3595 41.0955 88.3595 41.0955C88.6744 41.2218 88.8003 40.9061 88.8003 40.5905C88.8003 40.4643 88.8003 40.338 88.6744 40.2117C88.6114 40.1486 88.6114 40.1486 88.5484 40.0855C88.5484 39.7699 88.6114 39.4542 88.6114 39.1386C88.6114 39.0755 88.6114 38.9492 88.6114 38.8861C88.5484 38.0654 87.9816 37.0554 86.9109 36.2979C86.9109 36.2979 86.848 36.2979 86.848 36.2348C86.785 36.1716 86.722 36.1085 86.596 36.1085C85.7773 35.6666 85.2105 35.9191 85.0845 36.4873C85.0845 36.5504 85.0845 36.5504 85.0216 36.6135C84.9586 36.866 84.9586 37.2448 84.9586 37.5604C84.9586 37.7498 84.9586 37.9392 84.9586 38.1286C84.8956 38.1286 84.8956 38.1286 84.8326 38.1286C84.7696 38.1286 84.7067 38.2548 84.7067 38.3811C84.7067 38.6967 84.8956 39.2017 85.1475 39.3911C85.2105 39.3911 85.2105 39.3911 85.2105 39.4542C85.2735 39.9592 85.5254 40.4643 85.8403 40.9061L86.0922 41.2218C86.0922 41.4743 86.0292 41.853 85.9033 42.1687C85.8403 42.1687 84.7067 42.0424 84.2028 42.1056C84.0139 42.1056 83.825 42.4843 83.699 42.8631C82.7543 41.348 82.1875 39.5805 82.1875 38.0654C82.3135 35.0985 84.3918 33.9622 86.9109 35.4141Z" fill="#25437F"/>
<path d="M88.6118 39.0124C88.5488 38.1917 87.982 37.1817 86.9113 36.4242C86.9113 36.4242 86.8484 36.4242 86.8484 36.3611C86.7854 36.2979 86.7224 36.2348 86.5964 36.2348C85.7777 35.7929 85.2739 36.0454 85.085 36.6136C85.085 36.6767 85.0849 36.6767 85.022 36.7398C84.959 36.9923 84.959 37.3711 84.959 37.6867C84.959 37.8761 84.959 38.0655 85.022 38.2549C85.022 38.5074 85.0849 38.7599 85.2109 38.8861C85.2109 38.8861 85.2109 38.8861 85.2739 38.823C85.2739 38.823 85.3369 38.7599 85.3369 38.6967C85.4628 38.5074 85.6518 38.1286 85.6518 37.6236C85.6518 37.5605 85.6518 37.4973 85.6518 37.3711C85.6518 37.4342 86.2186 38.8861 87.982 39.9593L88.1709 40.8431L88.2339 41.0956C88.2339 41.0324 88.4228 40.6537 88.4858 40.1487C88.5488 39.833 88.6118 39.5174 88.6118 39.2018C88.6748 39.1386 88.6118 39.0755 88.6118 39.0124Z" fill="#8182EE"/>
<path d="M80.4874 15.5923C80.6763 15.7186 80.8023 15.9079 80.8023 16.1604C80.8023 16.4129 80.6763 16.4129 80.4874 16.3498L67.7026 8.96398C67.5137 8.83773 67.3877 8.64835 67.3877 8.39584C67.3877 8.14333 67.5137 8.14333 67.7026 8.20646L80.4874 15.5923Z" fill="#79AEF5"/>
<path d="M76.7721 15.3398C76.961 15.466 77.087 15.6554 77.087 15.9079C77.087 16.0973 76.961 16.1604 76.7721 16.0973L67.6401 10.7315C67.4512 10.6053 67.3252 10.4159 67.3252 10.1634C67.3252 9.97399 67.4512 9.91086 67.6401 9.97399L76.7721 15.3398Z" fill="#79AEF5"/>
<path d="M80.4874 36.298C80.6763 36.4242 80.8023 36.6136 80.8023 36.8661C80.8023 37.1186 80.6763 37.1186 80.4874 37.0555L67.7026 29.6697C67.5137 29.5434 67.3877 29.354 67.3877 29.1015C67.3877 28.849 67.5137 28.849 67.7026 28.9121L80.4874 36.298Z" fill="#254DA1"/>
<path d="M76.7721 35.9823C76.961 36.1086 77.087 36.298 77.087 36.5505C77.087 36.7399 76.961 36.803 76.7721 36.7399L67.6401 31.4372C67.4512 31.3109 67.3252 31.1216 67.3252 30.8691C67.3252 30.6797 67.4512 30.6166 67.6401 30.6797L76.7721 35.9823Z" fill="#254DA1"/>
<path d="M76.7714 40.1487C77.3382 39.8331 78.094 39.8962 78.9127 40.3381C80.5501 41.285 81.8727 43.6207 81.8727 45.5145C81.8727 46.4614 81.5578 47.0926 80.991 47.4083L80.3612 47.787C80.928 47.4714 81.2429 46.8401 81.2429 45.8932C81.2429 43.9994 79.9204 41.6637 78.2829 40.7168C77.4642 40.2118 76.7084 40.2118 76.1416 40.5274L76.7714 40.1487Z" fill="#86E563"/>
<path d="M78.2198 40.7169C79.8572 41.6638 81.1798 43.9995 81.1798 45.8933C81.1798 47.7871 79.8572 48.5446 78.2198 47.5977C76.5823 46.6508 75.2598 44.3151 75.2598 42.4213C75.2598 40.5275 76.5823 39.77 78.2198 40.7169Z" fill="#2AB774"/>
<path d="M79.2906 43.2419L79.9204 44.3151L77.4642 45.7039L76.2676 43.6838L76.9603 43.3051L77.4642 44.252L79.2906 43.2419Z" fill="white"/>
<path d="M63.6091 29.859C63.2942 28.849 62.3496 27.9652 60.8381 28.0283C59.3895 28.0915 58.3819 28.7227 58.004 29.7959C57.815 30.4272 57.8151 31.5003 58.1929 32.321C58.3819 32.6997 58.7597 33.0785 59.1376 33.3941L58.6968 34.846C59.0746 35.2879 60.5861 35.8561 61.7198 35.7929C61.7198 35.7929 61.8457 35.2879 61.9717 34.7198C62.6644 34.9092 63.2313 34.341 63.4832 33.5204C63.7981 32.9522 63.8611 30.6797 63.6091 29.859Z" fill="#FF8E54"/>
<path d="M63.6089 29.859C63.294 28.849 62.3493 27.9652 60.8378 28.0283H60.7749L57.9408 30.0484C57.8148 30.6797 57.8778 31.6266 58.2557 32.321C58.4446 32.6997 58.8225 33.0785 59.2004 33.3941L58.7595 34.846C59.1374 35.2879 60.6489 35.8561 61.7825 35.7929C61.7825 35.7929 61.9085 35.2879 62.0344 34.7198C62.2864 34.7829 62.5383 34.7829 62.7272 34.6567C62.5383 34.5935 62.3493 34.341 62.1604 34.0254C61.9085 33.5204 62.7902 33.2047 62.7902 32.7628C62.8532 32.2578 62.5383 31.4372 63.1051 31.0584C63.42 30.869 63.5459 30.4903 63.5459 30.1746C63.6719 30.0484 63.6089 29.9853 63.6089 29.859Z" fill="#FF5F4D"/>
<path d="M61.216 81.4968C67.8943 81.4968 73.308 78.0488 73.308 73.7954C73.308 69.5419 67.8943 66.0939 61.216 66.0939C54.5378 66.0939 49.124 69.5419 49.124 73.7954C49.124 78.0488 54.5378 81.4968 61.216 81.4968Z" fill="#CBDCEB"/>
<path d="M66.7578 34.2148L67.2616 33.836L67.9544 32.4472C67.9544 32.4472 68.3323 32.321 68.3953 32.2579C68.4582 32.2579 69.214 32.3841 69.214 32.3841C69.214 32.3841 69.5289 32.0054 69.6549 31.9422C69.7178 31.8791 70.0957 31.5003 70.2846 31.5635C70.4106 31.6266 70.4106 31.816 70.2846 31.9422C70.2217 32.0685 69.9068 32.3841 69.9068 32.3841L69.5919 33.2048V33.5204C69.5919 33.5204 69.7808 33.5204 69.8438 33.7098C69.9068 33.8992 69.9068 34.0885 69.7178 34.1517C69.5289 34.2148 69.34 34.2779 69.34 34.2779C69.34 34.2779 68.8991 34.5936 68.6472 34.6567C68.3953 34.7198 68.1434 34.7829 68.1434 34.7829L68.0174 35.1617L66.7578 34.2148Z" fill="#FF8E54"/>
<path d="M69.8438 33.6466C69.7178 33.6466 69.5289 33.6466 69.4659 33.7097C69.277 33.7729 69.0251 34.1516 68.9621 34.2147C68.8361 34.2779 68.2693 34.5304 68.0174 34.341C67.8285 34.1516 67.3876 34.0885 67.1357 34.0254L66.7578 34.2779L67.8914 35.2248L68.0174 34.846C68.0174 34.846 68.2693 34.7829 68.5212 34.7198C68.7731 34.6566 69.214 34.341 69.214 34.341C69.214 34.341 69.4029 34.2779 69.5919 34.2147C69.9068 34.0254 69.9068 33.836 69.8438 33.6466Z" fill="#FF5F4D"/>
<path d="M66.1904 34.4673L66.8202 33.9623C66.8202 33.9623 67.8909 34.2148 68.0168 35.0986L67.513 35.6667L66.1904 34.4673Z" fill="#F9FBFC"/>
<path d="M62.6641 37.3711L66.1909 34.0885C66.1909 34.0885 67.7654 34.1516 67.9543 35.5404L64.4275 39.6437C64.4275 39.6437 62.6641 39.2649 62.6641 37.3711Z" fill="#253C72"/>
<path d="M64.4272 39.6437L67.954 35.5405C67.891 35.1617 67.7651 34.9092 67.5761 34.7198C66.3795 36.4243 64.1752 38.255 64.1752 38.255L63.8604 39.4544C64.1752 39.5806 64.4272 39.6437 64.4272 39.6437Z" fill="#252F4C"/>
<path d="M55.9258 72.2803L55.7998 73.7953C55.7998 74.0478 55.9258 74.2372 56.1147 74.3635C56.3036 74.4266 56.6185 74.4897 56.9964 74.4266C57.8781 74.3004 58.256 73.8585 58.382 73.5428C58.5079 73.2903 60.2084 72.0909 60.0194 71.5228C59.7045 70.9546 59.0747 71.5228 58.5079 71.5228C57.9411 71.5228 56.6815 71.2071 55.9258 72.2803Z" fill="#171E26"/>
<path d="M56.3035 49.4284C56.3035 49.4284 55.9256 59.4656 56.1145 62.622C56.1145 62.622 55.3588 70.5128 55.7367 72.4066C55.7367 72.4066 57.1222 73.4166 58.3188 72.596C58.6337 72.4697 58.6337 72.091 58.6337 72.091C58.6337 72.091 59.3895 64.7051 59.6414 62.4326C59.8303 60.16 61.4048 53.3423 61.0899 51.8904C60.712 50.4385 58.8856 48.3553 56.3035 49.4284Z" fill="#171E26"/>
<path d="M62.664 74.3635C62.664 74.3635 62.0971 76.0679 62.538 76.4467C62.9159 76.8255 63.4197 76.9517 63.7976 76.8255C64.1755 76.6992 64.4903 76.573 64.4903 76.573L64.6163 76.2573L64.7423 76.5098C64.7423 76.5098 64.9312 76.4467 65.1831 76.3205C65.435 76.1942 66.1908 75.8786 66.5057 75.6892C66.8206 75.4998 67.3874 75.121 67.4504 74.7423C67.5133 74.3004 65.9389 74.4898 65.561 74.4898C65.1201 74.4898 64.8682 74.3635 64.7423 74.3635C64.6163 74.3635 62.9788 74.5529 62.9788 74.5529" fill="#171E26"/>
<path d="M65.1209 49.239C65.1209 49.239 65.5617 50.7541 65.5617 53.7842C65.5617 56.8143 65.3098 64.4526 65.3098 64.4526C65.3098 64.4526 65.1839 72.2172 65.0579 74.1741C65.0579 74.1741 64.1132 75.3736 62.5387 74.4266C61.783 73.4797 62.0349 72.8485 62.0349 72.8485C62.0349 72.8485 60.9643 68.114 61.4051 63.7582C61.4051 63.7582 59.9566 54.9205 59.7047 53.9104C59.4528 52.8373 54.8553 52.3954 56.6817 47.2821L65.1209 49.239Z" fill="#1F2F3F"/>
<path d="M62.6645 53.9104C62.6645 53.9104 64.8058 54.8573 64.4909 57.8874C64.239 60.9174 63.6721 62.9375 63.987 64.7682C64.2389 66.5989 64.6168 67.672 64.3649 69.9446C64.176 71.7753 63.4202 73.5428 63.987 74.7422C64.6798 74.616 65.0577 74.1741 65.0577 74.1741C65.1836 72.2172 65.3096 64.4526 65.3096 64.4526C65.3096 64.4526 65.5615 56.8142 65.5615 53.7841C65.5615 52.4585 65.4985 51.4484 65.3726 50.754L62.0977 52.2059L62.6645 53.9104Z" fill="#25437F"/>
<path d="M66.065 39.5805C66.065 38.9493 65.7501 38.318 65.2463 37.9392C64.0497 37.1186 62.4122 36.1086 61.3416 35.5404C60.019 34.846 58.6964 34.0885 57.9407 34.0254C55.9254 33.836 54.6658 35.7298 54.9177 38.1918C55.0436 39.7068 55.4215 41.3481 55.9883 43.1157C56.2402 43.8732 56.3662 45.1357 56.4292 46.3351C56.4292 46.9033 56.3662 47.5977 56.2403 47.9764C55.9254 48.7339 55.6105 51.8903 55.6105 51.8903C55.6105 51.8903 57.8147 54.1628 60.7118 54.4154C63.6088 54.6047 64.7424 54.0366 64.7424 54.0366L64.9314 52.7109L65.3092 53.9103C65.3092 53.9103 65.8131 53.721 65.8761 53.2159C65.939 52.7109 65.4352 48.6708 65.3092 47.9133C65.4982 46.272 65.8131 43.8732 65.8761 42.7369C65.939 41.6637 66.002 40.5275 66.065 39.5805Z" fill="#25437F"/>
<path d="M58.8861 34.0254C58.8861 34.0254 59.8308 34.846 62.0981 35.1617L62.413 35.9823C62.413 35.9823 61.5313 36.2348 60.4606 36.1086C59.327 35.9823 58.4453 35.0985 58.3193 34.9092C58.1934 34.7198 58.1934 34.7198 58.1934 34.7198L58.8861 34.0254Z" fill="#F9FBFC"/>
<path d="M57.5636 29.7959C57.5636 29.7959 57.5636 28.2809 59.2011 27.839C60.8386 27.3971 61.0275 27.5865 61.5313 27.2708C61.9722 26.9552 62.602 26.8921 63.4207 27.1446C64.3024 27.3971 64.4284 28.2809 64.1765 29.0384C63.9245 29.859 63.7986 30.3009 63.1058 30.6166C62.476 30.9322 62.602 31.7528 62.602 31.7528C62.602 31.7528 62.7279 32.6366 62.2871 32.9522L61.9092 31.9422C61.9092 31.9422 61.5943 33.0785 61.2794 33.4573C60.9645 33.836 60.2088 34.0254 59.516 34.0254C58.8232 34.0254 57.8785 32.2579 57.6266 31.6266C57.3747 31.0584 57.8785 30.4903 57.8785 30.4903C57.8785 30.4903 57.4377 30.2378 57.5636 29.7959Z" fill="#25437F"/>
<path d="M63.4203 39.5805C62.7905 38.0024 60.3973 38.3811 57.1853 37.1817C55.6738 36.6136 55.4219 35.7298 55.6738 34.9723C55.044 35.7298 54.7921 36.8661 54.8551 38.1918C54.981 39.7068 55.3589 41.3481 55.9257 43.1157C56.1777 43.8732 56.3036 45.1357 56.3666 46.3351C56.3666 46.9033 56.3036 47.5977 56.1776 47.9764C55.8628 48.7339 55.5479 51.8903 55.5479 51.8903C55.5479 51.8903 57.7521 54.1628 60.6492 54.4154C62.2866 54.5416 63.2943 54.4154 63.9241 54.226C64.3649 50.8803 62.3496 49.3021 61.8458 47.787C61.3419 46.2089 64.113 41.1587 63.4203 39.5805Z" fill="#252F4C"/>
<path d="M62.8535 27.6496C62.5386 27.0815 61.9717 27.0815 61.5309 27.2077C61.09 27.5233 60.9011 27.334 59.2007 27.7759C57.5632 28.2177 57.5632 29.7328 57.5632 29.7328C57.4372 30.1747 57.7521 30.4903 57.7521 30.4903C57.7521 30.4903 57.2483 30.9953 57.5002 31.6266C57.6892 32.0053 58.13 32.9523 58.6968 33.5204C59.7045 33.331 60.1453 32.5104 59.9564 31.9422C59.7045 31.1216 60.5862 31.8791 60.8381 31.311C61.09 30.8059 59.9564 30.4272 61.09 29.354C62.2237 28.4071 63.4203 28.6596 62.8535 27.6496Z" fill="#252F4C"/>
<path d="M75.6387 45.1988L76.2055 45.0725C76.2055 45.0725 77.1502 44.315 77.2761 44.315C77.4021 44.2519 78.5357 43.4312 78.6617 43.6206C78.7876 43.81 78.6617 43.9994 78.4727 44.0625C78.2838 44.1887 77.9689 44.315 77.9689 44.315L77.717 44.6937C77.717 44.6937 77.9059 45.0094 77.9059 45.1356C77.9059 45.325 77.9059 45.5144 77.9059 45.5144C77.9059 45.5144 78.0319 45.83 77.8429 46.0825C77.717 46.335 77.3391 46.5244 77.0872 46.5244C76.8353 46.5244 76.3314 46.4613 76.3314 46.4613L75.9536 46.5244L75.6387 45.1988Z" fill="#FF8E54"/>
<path d="M77.78 46.2088C77.8429 46.0826 77.8429 45.8932 77.8429 45.767C77.717 45.8932 77.5281 46.0826 77.3391 46.1457C77.0872 46.2088 76.7723 46.3982 76.5204 46.0195C76.2685 45.6407 75.8276 45.3882 75.8276 45.3882L75.6387 45.3251L75.8906 46.5876L76.2685 46.5245C76.2685 46.5245 76.7723 46.5876 77.0242 46.5876C77.2761 46.6507 77.654 46.4614 77.78 46.2088Z" fill="#FF5F4D"/>
<path d="M75.0713 45.1357L75.7641 45.0094C75.7641 45.0094 76.2679 45.325 76.3309 46.0194C76.3309 46.6507 76.079 46.9032 76.079 46.9032L75.5121 46.9663L75.0713 45.1357Z" fill="#CBDCEB"/>
<path d="M65.184 38.0023C65.184 38.0023 65.8768 38.1286 66.4436 39.3911C67.0104 40.5905 68.8368 44.82 69.2777 45.1988C69.7185 45.5776 75.1347 44.9463 75.1347 44.9463C75.1347 44.9463 76.2054 45.6407 75.9535 46.5245C75.7015 47.3451 75.3237 47.2189 75.3237 47.2189C75.3237 47.2189 70.0334 48.4814 68.9628 48.5445C67.8921 48.6708 67.4513 48.2289 67.1994 48.0395C66.9474 47.8501 64.7432 43.6838 64.3023 42.9262C63.8615 42.2318 62.6649 39.7699 63.5466 38.8861C64.3653 37.9392 65.184 38.0023 65.184 38.0023Z" fill="#25437F"/>
<path d="M75.2607 47.1557C75.2607 47.1557 75.6386 47.2188 75.8905 46.4613C75.9535 46.2719 75.9535 46.0825 75.8905 45.9563C75.2607 46.1456 74.379 46.3982 73.4973 46.5875C71.8598 46.9663 69.6555 47.3451 68.207 46.84C66.6955 46.335 65.184 42.6737 64.6172 40.5905C64.3023 39.5805 64.4283 38.6967 64.5542 38.1285C64.2393 38.2548 63.9244 38.4442 63.5466 38.8229C62.6649 39.7067 63.8615 42.1687 64.3023 42.8631C64.7432 43.5574 66.9474 47.7869 67.1994 47.9763C67.4513 48.1657 67.8921 48.6076 68.9628 48.4813C69.9704 48.3551 75.2607 47.1557 75.2607 47.1557Z" fill="#252F4C"/>
<path d="M25.3809 24.4933L25.4438 62.4325L47.0457 49.9334L46.9197 11.9941L25.3809 24.4933Z" fill="#CBDCEB"/>
<path d="M28.2147 26.0714L27.459 25.6295L27.522 63.5687L28.2777 64.0106L28.2147 26.0714Z" fill="#BDC5CB"/>
<path d="M49.7536 13.5723L48.9979 13.1304L27.459 25.6295L28.2147 26.0714L49.7536 13.5723Z" fill="white"/>
<path d="M28.2148 26.0714L28.2778 64.0106L49.8797 51.5115L49.7537 13.5723L28.2148 26.0714Z" fill="#EAF1F7"/>
<path d="M45.1559 21.7157V22.2838L32.623 29.5434V28.9753L45.1559 21.7157Z" fill="#A6D0F4"/>
<path d="M39.7397 27.0183V27.5865L32.623 31.6897V31.1847L39.7397 27.0183Z" fill="#A6D0F4"/>
<path d="M44.1482 35.1617V35.6668L32.623 42.3582V41.7901L44.1482 35.1617Z" fill="#A6D0F4"/>
<path d="M39.7397 35.288V35.793L32.623 39.9593V39.3912L39.7397 35.288Z" fill="#A6D0F4"/>
<path d="M41.6291 32.0054V32.5735L32.623 37.7499V37.2449L41.6291 32.0054Z" fill="#A6D0F4"/>
<path d="M35.898 31.6897V32.1947L32.623 34.0885V33.5835L35.898 31.6897Z" fill="#A6D0F4"/>
<path d="M36.0877 43.9994C38.103 42.8631 39.9924 43.1156 40.7481 44.9463C41.7558 47.2189 40.6222 51.0696 38.2289 53.7209L37.6621 52.4584C39.2366 50.5646 39.9924 47.9764 39.2996 46.3982C38.7328 45.1357 37.4102 44.8832 36.0247 45.7038C35.7098 45.8932 35.3319 46.1457 35.017 46.4613L34.4502 45.1988C35.017 44.6938 35.5838 44.2519 36.0877 43.9994Z" fill="#4385FF"/>
<path d="M34.5131 45.1989L35.0799 46.4614C35.0169 46.5245 34.891 46.6508 34.828 46.7139C33.0016 48.6077 32.1199 51.4484 32.8756 53.1528C32.8756 53.216 32.9386 53.2791 32.9386 53.3422C32.9386 53.3422 32.9386 53.4053 33.0016 53.4053C33.5054 54.3522 34.5131 54.5416 35.6467 54.0997C35.8357 54.0366 36.0246 53.9735 36.1506 53.8472C36.2135 53.8472 36.2765 53.7841 36.2765 53.7841C36.3395 53.721 36.4025 53.6579 36.4655 53.6579C36.5914 53.5316 36.7804 53.4685 36.9063 53.3422C36.9063 53.3422 36.9693 53.3422 36.9693 53.2791C37.0323 53.216 37.0953 53.216 37.1582 53.1528L37.2212 53.0897C37.2842 53.0266 37.3472 52.9635 37.4102 52.9003C37.5361 52.7741 37.5991 52.6478 37.725 52.5216L38.2919 53.7841C38.1659 53.9104 38.1029 54.0366 37.977 54.0997C37.851 54.226 37.788 54.2891 37.6621 54.4154L37.5991 54.4785C37.5361 54.5416 37.4731 54.6048 37.3472 54.6679L37.2842 54.731C37.0953 54.9204 36.9063 55.0466 36.6544 55.236C36.6544 55.236 36.5914 55.236 36.5914 55.2991C36.5284 55.3623 36.4025 55.4254 36.3395 55.4885H36.2765C36.2135 55.5517 36.1506 55.5517 36.0876 55.6148C35.9616 55.6779 35.7727 55.8042 35.6467 55.8673C35.5208 55.9304 35.4578 55.9935 35.3318 55.9935C33.6314 56.6879 32.1199 56.246 31.4271 54.6679C30.4195 52.2691 31.679 48.1658 34.2612 45.5145C34.3242 45.3251 34.4501 45.262 34.5131 45.1989Z" fill="#94C3FF"/>
<path d="M46.29 45.5145V45.767C46.29 45.9564 46.479 46.0195 46.6049 45.9564L47.9275 45.1989C47.9905 45.1358 48.0535 45.0726 48.0535 45.0095V44.757C48.0535 44.5676 47.8645 44.5045 47.7386 44.5676L46.416 45.3251C46.353 45.3883 46.29 45.4514 46.29 45.5145Z" fill="#94C3FF"/>
<path d="M42.1963 49.239V49.4915C42.1963 49.6809 42.3852 49.744 42.5112 49.6809L47.9274 46.5877C47.9904 46.5246 48.0534 46.4614 48.0534 46.3983V46.1458C48.0534 45.9564 47.8644 45.8933 47.7385 45.9564L42.3222 49.0496C42.1963 49.1128 42.1963 49.1759 42.1963 49.239Z" fill="#94C3FF"/>
<g opacity="0.53">
<path d="M44.4004 50.691V50.9435C44.4004 51.1328 44.5893 51.196 44.7153 51.1328L47.8642 49.3022C47.9272 49.239 47.9902 49.1759 47.9902 49.1128V48.8603C47.9902 48.6709 47.8013 48.6078 47.6753 48.6709L44.5263 50.5016C44.4634 50.5647 44.4004 50.6278 44.4004 50.691Z" fill="#94C3FF"/>
</g>
<path d="M43.0146 50.1228V50.3753C43.0146 50.5647 43.2036 50.6278 43.3295 50.5647L47.927 47.9134C47.99 47.8502 48.053 47.7871 48.053 47.724V47.4715C48.053 47.2821 47.864 47.219 47.7381 47.2821L43.1406 49.9334C43.0776 49.9965 43.0146 50.0597 43.0146 50.1228Z" fill="#94C3FF"/>
</g>
<defs>
<linearGradient id="paint0_linear_160_3110" x1="36.032" y1="92.4974" x2="86.0093" y2="92.4974" gradientUnits="userSpaceOnUse">
<stop stop-color="white"/>
<stop offset="1" stop-color="#CBDCEB"/>
</linearGradient>
<linearGradient id="paint1_linear_160_3110" x1="55.1824" y1="58.0777" x2="76.8009" y2="117.515" gradientUnits="userSpaceOnUse">
<stop stop-color="white"/>
<stop offset="1" stop-color="#CBDCEB"/>
</linearGradient>
<clipPath id="clip0_160_3110">
<rect width="115" height="107" fill="white"/>
</clipPath>
</defs>
</svg>
