<svg width="82" height="82" viewBox="0 0 82 82" fill="none" xmlns="http://www.w3.org/2000/svg">
<path d="M46.125 17.9375H30.75V20.5H46.125V17.9375Z" fill="#F47805"/>
<path d="M46.125 23.0625H25.625V25.625H46.125V23.0625Z" fill="#F47805"/>
<path d="M74.3125 14.0938H65.3438V2.5625C65.3438 2.22269 65.2088 1.8968 64.9685 1.65652C64.7282 1.41624 64.4023 1.28125 64.0625 1.28125H17.9375C17.5977 1.28125 17.2718 1.41624 17.0315 1.65652C16.7912 1.8968 16.6562 2.22269 16.6562 2.5625V12.7882L6.87647 20.7896C6.72953 20.9097 6.61112 21.061 6.5298 21.2325C6.44848 21.404 6.40628 21.5914 6.40625 21.7812V28.6359C4.90885 29.1653 3.61217 30.1456 2.69447 31.4418C1.77676 32.7381 1.28306 34.2868 1.28125 35.875V74.3125C1.28328 76.0109 1.95888 77.6392 3.15984 78.8402C4.36081 80.0411 5.98908 80.7167 7.6875 80.7188H74.3125C76.0109 80.7167 77.6392 80.0411 78.8402 78.8402C80.0411 77.6392 80.7167 76.0109 80.7188 74.3125V20.5C80.7188 18.801 80.0438 17.1715 78.8424 15.9701C77.641 14.7687 76.0115 14.0938 74.3125 14.0938ZM19.2188 3.84375H62.7812V37.1562H52.5312V34.5938H58.9375V32.0312H52.5312V29.4688H58.9375V26.9062H52.5312V24.3438H58.9375V21.7812H52.5312V19.2188H58.9375V16.6562H52.5312V10.25C52.5312 9.91019 52.3963 9.5843 52.156 9.34402C51.9157 9.10374 51.5898 8.96875 51.25 8.96875H21.7812C21.4856 8.9688 21.1991 9.07111 20.9702 9.25831L19.2188 10.6908V3.84375ZM20.5 12.9534V20.5H11.275L20.5 12.9534ZM8.96875 23.0625H21.7812C22.1211 23.0625 22.447 22.9275 22.6872 22.6872C22.9275 22.447 23.0625 22.1211 23.0625 21.7812V11.5312H49.9688V37.1562H47.4062C46.9465 37.1543 46.4997 37.0035 46.1329 36.7263C45.7661 36.4491 45.499 36.0605 45.3716 35.6187L44.2185 31.5777C43.9357 30.6021 43.3444 29.7445 42.5331 29.1333C41.7219 28.5221 40.7345 28.1903 39.7188 28.1875H8.96875V23.0625ZM7.6875 78.1562C6.66807 78.1562 5.6904 77.7513 4.96956 77.0304C4.24872 76.3096 3.84375 75.3319 3.84375 74.3125V35.875C3.84375 34.5158 4.3837 33.2122 5.34483 32.2511C6.30595 31.29 7.60952 30.75 8.96875 30.75H39.7188C40.1785 30.7519 40.6253 30.9028 40.9921 31.18C41.3589 31.4572 41.626 31.8457 41.7534 32.2875L42.9065 36.3286C43.1893 37.3041 43.7806 38.1617 44.5919 38.7729C45.4031 39.3841 46.3905 39.716 47.4062 39.7188H64.0625C65.0819 39.7188 66.0596 40.1237 66.7804 40.8446C67.5013 41.5654 67.9062 42.5431 67.9062 43.5625V74.3125C67.9044 75.6989 68.3542 77.0482 69.1875 78.1562H7.6875ZM78.1562 74.3125C78.1562 75.3319 77.7513 76.3096 77.0304 77.0304C76.3096 77.7513 75.3319 78.1562 74.3125 78.1562C73.2931 78.1562 72.3154 77.7513 71.5946 77.0304C70.8737 76.3096 70.4688 75.3319 70.4688 74.3125V43.5625C70.4669 42.0862 69.9561 40.6558 69.0226 39.5121C68.089 38.3685 66.7897 37.5817 65.3438 37.2844V16.6562H74.3125C75.3319 16.6562 76.3096 17.0612 77.0304 17.7821C77.7513 18.5029 78.1562 19.4806 78.1562 20.5V74.3125Z" fill="#F47805"/>
<path d="M39.7188 52.5312H37.4727C37.4023 52.3506 37.3305 52.1738 37.2549 52.0021L38.8437 50.4133C39.0839 50.1731 39.2188 49.8472 39.2188 49.5075C39.2188 49.1678 39.0839 48.8419 38.8437 48.6017L33.3983 43.1563C33.1581 42.9161 32.8322 42.7812 32.4925 42.7812C32.1528 42.7812 31.8269 42.9161 31.5867 43.1563L29.9979 44.7451C29.8262 44.6695 29.6494 44.5977 29.4688 44.5273V42.2812C29.4688 41.9414 29.3338 41.6155 29.0935 41.3753C28.8532 41.135 28.5273 41 28.1875 41H20.5C20.1602 41 19.8343 41.135 19.594 41.3753C19.3537 41.6155 19.2188 41.9414 19.2188 42.2812V44.5273C19.0381 44.5977 18.8613 44.6695 18.6896 44.7451L17.1008 43.1563C16.8606 42.9161 16.5347 42.7812 16.195 42.7812C15.8553 42.7812 15.5294 42.9161 15.2892 43.1563L9.84384 48.6017C9.60365 48.8419 9.46871 49.1678 9.46871 49.5075C9.46871 49.8472 9.60365 50.1731 9.84384 50.4133L11.4326 52.0021C11.357 52.1738 11.2853 52.3506 11.2148 52.5312H8.96875C8.62894 52.5312 8.30305 52.6662 8.06277 52.9065C7.82249 53.1468 7.6875 53.4727 7.6875 53.8125V61.5C7.6875 61.8398 7.82249 62.1657 8.06277 62.406C8.30305 62.6463 8.62894 62.7812 8.96875 62.7812H11.2148C11.2853 62.9619 11.357 63.1387 11.4326 63.3104L9.84384 64.8992C9.60365 65.1394 9.46871 65.4653 9.46871 65.805C9.46871 66.1447 9.60365 66.4706 9.84384 66.7108L15.2892 72.1562C15.5294 72.3964 15.8553 72.5313 16.195 72.5313C16.5347 72.5313 16.8606 72.3964 17.1008 72.1562L18.6896 70.5674C18.8613 70.643 19.0381 70.7148 19.2188 70.7852V73.0312C19.2188 73.3711 19.3537 73.6969 19.594 73.9372C19.8343 74.1775 20.1602 74.3125 20.5 74.3125H28.1875C28.5273 74.3125 28.8532 74.1775 29.0935 73.9372C29.3338 73.6969 29.4688 73.3711 29.4688 73.0312V70.7852C29.6494 70.7148 29.8262 70.643 29.9979 70.5674L31.5867 72.1562C31.8269 72.3964 32.1528 72.5313 32.4925 72.5313C32.8322 72.5313 33.1581 72.3964 33.3983 72.1562L38.8437 66.7108C39.0839 66.4706 39.2188 66.1447 39.2188 65.805C39.2188 65.4653 39.0839 65.1394 38.8437 64.8992L37.2549 63.3104C37.3305 63.1387 37.4023 62.9619 37.4727 62.7812H39.7188C40.0586 62.7812 40.3844 62.6463 40.6247 62.406C40.865 62.1657 41 61.8398 41 61.5V53.8125C41 53.4727 40.865 53.1468 40.6247 52.9065C40.3844 52.6662 40.0586 52.5312 39.7188 52.5312ZM38.4375 60.2188H36.5669C36.2956 60.2188 36.0314 60.3049 35.8122 60.4647C35.593 60.6244 35.4301 60.8497 35.3471 61.1079C35.1456 61.7518 34.8884 62.3768 34.5784 62.976C34.4502 63.2182 34.4031 63.4951 34.4439 63.7661C34.4847 64.037 34.6113 64.2878 34.8052 64.4815L36.1313 65.805L32.4925 69.4438L31.169 68.1202C30.9753 67.9264 30.7245 67.7998 30.4536 67.759C30.1826 67.7182 29.9057 67.7653 29.6635 67.8934C29.0643 68.2034 28.4393 68.4607 27.7954 68.6622C27.5376 68.7451 27.3127 68.9075 27.1529 69.1262C26.9932 69.3449 26.9068 69.6086 26.9062 69.8794V71.75H21.7812V69.8794C21.7812 69.6081 21.6951 69.3439 21.5353 69.1247C21.3756 68.9055 21.1503 68.7426 20.8921 68.6596C20.2482 68.4581 19.6232 68.2009 19.024 67.8909C18.7818 67.7627 18.5049 67.7156 18.2339 67.7564C17.963 67.7972 17.7122 67.9238 17.5185 68.1177L16.195 69.4438L12.5563 65.805L13.8798 64.4815C14.0736 64.2878 14.2002 64.037 14.241 63.7661C14.2818 63.4951 14.2347 63.2182 14.1066 62.976C13.7966 62.3768 13.5393 61.7518 13.3378 61.1079C13.2549 60.8501 13.0925 60.6252 12.8738 60.4654C12.6551 60.3057 12.3914 60.2193 12.1206 60.2188H10.25V55.0938H12.1206C12.3919 55.0937 12.6561 55.0076 12.8753 54.8478C13.0945 54.6881 13.2574 54.4628 13.3404 54.2046C13.5419 53.5607 13.7991 52.9357 14.1091 52.3365C14.2373 52.0943 14.2844 51.8174 14.2436 51.5464C14.2028 51.2755 14.0762 51.0247 13.8823 50.831L12.5563 49.5075L16.195 45.8687L17.5185 47.1923C17.7122 47.3861 17.963 47.5127 18.2339 47.5535C18.5049 47.5943 18.7818 47.5472 19.024 47.4191C19.6232 47.1091 20.2482 46.8518 20.8921 46.6503C21.1499 46.5674 21.3748 46.405 21.5346 46.1863C21.6943 45.9676 21.7807 45.7039 21.7812 45.4331V43.5625H26.9062V45.4331C26.9063 45.7044 26.9924 45.9686 27.1522 46.1878C27.3119 46.407 27.5372 46.5699 27.7954 46.6529C28.4393 46.8544 29.0643 47.1116 29.6635 47.4216C29.9057 47.5498 30.1826 47.5969 30.4536 47.5561C30.7245 47.5153 30.9753 47.3887 31.169 47.1948L32.4925 45.8687L36.1313 49.5075L34.8077 50.831C34.6139 51.0247 34.4873 51.2755 34.4465 51.5464C34.4057 51.8174 34.4528 52.0943 34.5809 52.3365C34.8909 52.9357 35.1482 53.5607 35.3497 54.2046C35.4326 54.4624 35.595 54.6873 35.8137 54.8471C36.0324 55.0068 36.2961 55.0932 36.5669 55.0938H38.4375V60.2188Z" fill="#F47805"/>
<path d="M24.3438 49.9688C22.8233 49.9688 21.337 50.4196 20.0728 51.2643C18.8086 52.109 17.8233 53.3097 17.2414 54.7144C16.6596 56.1191 16.5073 57.6648 16.804 59.156C17.1006 60.6472 17.8328 62.017 18.9079 63.0921C19.983 64.1672 21.3528 64.8994 22.844 65.196C24.3352 65.4927 25.8809 65.3404 27.2856 64.7586C28.6903 64.1767 29.891 63.1914 30.7357 61.9272C31.5804 60.663 32.0313 59.1767 32.0313 57.6562C32.0292 55.618 31.2186 53.6639 29.7774 52.2226C28.3361 50.7814 26.382 49.9708 24.3438 49.9688ZM24.3438 62.7812C23.3301 62.7812 22.3393 62.4807 21.4965 61.9175C20.6537 61.3544 19.9968 60.554 19.6089 59.6175C19.221 58.681 19.1195 57.6506 19.3172 56.6564C19.515 55.6623 20.0031 54.7491 20.7198 54.0323C21.4366 53.3156 22.3498 52.8275 23.3439 52.6297C24.3381 52.432 25.3685 52.5335 26.305 52.9214C27.2415 53.3093 28.0419 53.9661 28.605 54.809C29.1682 55.6518 29.4688 56.6426 29.4688 57.6562C29.4688 59.0155 28.9288 60.319 27.9677 61.2802C27.0065 62.2413 25.703 62.7812 24.3438 62.7812Z" fill="#F47805"/>
</svg>
