<svg width="46" height="46" viewBox="0 0 46 46" fill="none" xmlns="http://www.w3.org/2000/svg">
<g clip-path="url(#clip0_171_91)">
<path d="M17.4074 0C18.4587 0.587591 18.6909 1.30709 18.1164 2.18248C18.0797 2.24244 18.0308 2.3024 17.933 2.45829C18.422 2.36236 18.8254 2.27841 19.2288 2.20647C26.5878 0.935349 33.0789 2.74609 38.641 7.60271C42.6261 11.0803 44.912 15.5172 45.7311 20.6736C47.2347 30.0271 42.076 39.6324 33.3356 43.7336C32.5533 44.0933 31.7709 43.8775 31.4164 43.194C31.0497 42.4984 31.3431 41.719 32.1499 41.3233C36.2695 39.3206 39.3133 36.2748 41.3181 32.2216C45.181 24.403 43.0662 14.6898 36.2695 9.11366C32.2721 5.83994 27.6636 4.29301 22.456 4.52085C21.3314 4.56882 20.2068 4.77268 19.0821 4.91658C19.0821 4.96455 19.0821 5.01251 19.0821 5.06048C19.1555 5.08446 19.2288 5.12044 19.3144 5.14442C20.0601 5.40824 20.4512 6.07977 20.2679 6.7633C20.0601 7.49479 19.4122 7.89051 18.6054 7.73462C17.7863 7.56674 16.9795 7.36288 16.1605 7.17101C15.4393 7.00313 14.7058 6.83525 13.9846 6.65537C12.7622 6.36757 12.3832 5.36027 13.1044 4.37696C13.9724 3.20177 14.8281 2.02659 15.7327 0.875391C16.0016 0.539625 16.405 0.311783 16.7473 0.0239833C16.9795 0 17.1874 0 17.4074 0Z" fill="white"/>
<path d="M19.0205 18.0235C20.0596 18.1914 20.5852 18.6711 20.573 19.4266C20.5608 20.182 20.0229 20.6497 18.9594 20.7936C18.9594 21.5251 18.9716 22.2686 18.9594 23.0121C18.9472 23.5877 18.5804 24.0553 18.0548 24.2352C17.5414 24.4031 16.9179 24.2832 16.6123 23.8515C16.4167 23.5637 16.2823 23.18 16.2578 22.8202C16.2089 22.1607 16.2456 21.4771 16.2456 20.7576C16.0622 20.7576 15.9033 20.7576 15.7444 20.7576C14.3753 20.7576 13.0062 20.7576 11.6248 20.7576C10.4146 20.7457 9.77894 19.7144 10.3657 18.6831C11.8082 16.1768 13.2751 13.6706 14.742 11.1763C14.9376 10.8405 15.1821 10.5168 15.451 10.2529C16.0256 9.68934 16.7346 9.44951 17.5414 9.71333C18.3604 9.97714 18.8005 10.5887 18.9472 11.3922C19.0205 11.7999 19.0205 12.2196 19.0205 12.6393C19.0205 14.2702 19.0205 15.901 19.0205 17.5319C19.0205 17.6638 19.0205 17.8317 19.0205 18.0235ZM13.8496 18.0235C14.7053 18.0235 15.4755 18.0235 16.27 18.0235C16.27 16.6565 16.27 15.3254 16.27 13.9943C16.2456 13.9824 16.2211 13.9824 16.1967 13.9704C15.4266 15.3134 14.6442 16.6445 13.8496 18.0235Z" fill="white"/>
<path d="M4.43716 21.8248C5.64737 21.8248 6.80868 21.8248 7.95776 21.8248C8.66677 21.8248 9.16796 22.1486 9.37578 22.7482C9.66916 23.5756 9.07017 24.4869 8.15335 24.4989C6.06299 24.5229 3.97264 24.5349 1.88229 24.4869C0.623184 24.463 -0.000254288 23.2638 0.720979 22.2205C1.56445 20.9974 2.50573 19.8342 3.3981 18.635C4.09488 17.6877 4.77944 16.7403 5.43956 15.769C5.70849 15.3733 5.9163 14.9296 6.07522 14.4859C6.39305 13.5625 5.94075 12.6872 5.0117 12.3634C4.13156 12.0636 3.14139 12.4953 2.78688 13.3587C2.75021 13.4546 2.72576 13.5625 2.68909 13.6585C2.4446 14.4739 1.74782 14.9056 0.989913 14.7018C0.244232 14.4979 -0.15917 13.7664 0.0608672 12.963C0.476493 11.3921 1.46666 10.3008 3.03137 9.80916C4.75499 9.26953 6.34415 9.62928 7.61548 10.9004C8.8868 12.1715 9.30243 13.7184 8.61787 15.3973C8.23892 16.3326 7.70105 17.22 7.13873 18.0594C6.3686 19.2106 5.5129 20.3019 4.69387 21.4171C4.62053 21.537 4.54718 21.6569 4.43716 21.8248Z" fill="white"/>
<path d="M33.0301 26.1897C31.5388 26.1897 30.1207 26.1897 28.7027 26.1897C28.4705 26.1897 28.2382 26.1777 28.0304 26.1177C27.4069 25.9618 26.9669 25.3383 27.0402 24.7267C27.1136 24.0672 27.6392 23.5275 28.2993 23.5155C30.6219 23.4916 32.9323 23.4916 35.2549 23.5155C36.1962 23.5275 36.7707 24.4869 36.404 25.3743C36.074 26.1777 35.695 26.9572 35.3405 27.7606C33.9225 30.9264 32.5045 34.1042 31.0742 37.27C30.7686 37.9535 30.2063 38.3013 29.5829 38.2053C28.6416 38.0614 28.1526 37.1621 28.5438 36.2627C29.1672 34.8357 29.8151 33.4207 30.4508 31.9936C31.2454 30.2189 32.0399 28.4441 32.8467 26.6574C32.8956 26.5374 32.9445 26.3935 33.0301 26.1897Z" fill="white"/>
<path d="M20.9279 30.6267C19.9255 30.6147 19.3143 29.6794 19.7054 28.708C20.4878 26.7534 21.2824 24.7987 22.0769 22.8441C22.8837 20.8535 23.6905 18.8509 24.5096 16.8603C24.7785 16.2007 25.3408 15.853 25.9643 15.9369C26.8811 16.0568 27.4067 16.9202 27.0645 17.8076C26.4532 19.3665 25.8054 20.9135 25.1819 22.4724C24.204 24.8707 23.2383 27.269 22.2603 29.6674C21.9914 30.3149 21.5513 30.6267 20.9279 30.6267Z" fill="white"/>
<path d="M3.88718 33.3967C3.45933 33.3847 2.9948 33.1449 2.79922 32.6173C2.39581 31.574 2.00464 30.5187 1.68681 29.4515C1.46677 28.708 1.93129 27.9885 2.65252 27.8206C3.39821 27.6407 4.05832 28.0365 4.31503 28.7919C4.63286 29.7153 4.95069 30.6267 5.28075 31.538C5.62303 32.4854 5.01181 33.3967 3.88718 33.3967Z" fill="white"/>
<path d="M17.9204 45.2686C17.847 45.2566 17.6759 45.2446 17.517 45.1967C16.5146 44.8609 15.5 44.5251 14.5098 44.1534C13.7763 43.8776 13.4585 43.1101 13.7274 42.4266C14.0086 41.7191 14.7787 41.4193 15.5488 41.6831C16.4901 42.0189 17.4436 42.3426 18.3849 42.6544C19.0572 42.8823 19.4484 43.4818 19.3384 44.1534C19.2528 44.7889 18.7027 45.2566 17.9204 45.2686Z" fill="white"/>
<path d="M24.583 46C23.6417 45.988 23.0061 45.4843 22.9694 44.6809C22.9327 43.8654 23.5195 43.3258 24.4363 43.2539C25.3409 43.1819 26.2455 43.062 27.1501 42.9421C27.9447 42.8342 28.6415 43.2539 28.8126 43.9854C28.9715 44.7049 28.4826 45.4364 27.688 45.5683C26.6611 45.7481 25.6221 45.8561 24.583 46Z" fill="white"/>
<path d="M7.56658 36.011C7.76217 36.1189 8.1289 36.2388 8.39784 36.4787C9.13129 37.1502 9.81585 37.8697 10.5371 38.5652C11.1116 39.1168 11.1728 39.8963 10.6716 40.4599C10.1581 41.0355 9.32688 41.1074 8.71567 40.5558C7.90887 39.8123 7.12651 39.0329 6.3686 38.2414C5.9652 37.8217 5.92853 37.2941 6.18524 36.7785C6.40528 36.2748 6.84535 36.059 7.56658 36.011Z" fill="white"/>
</g>
<defs>
<clipPath id="clip0_171_91">
<rect width="46" height="46" fill="white"/>
</clipPath>
</defs>
</svg>
