<svg width="47" height="47" viewBox="0 0 47 47" fill="none" xmlns="http://www.w3.org/2000/svg">
<g clip-path="url(#clip0_171_84)">
<path d="M42.4533 46.8234C41.2164 46.635 40.3094 45.9168 39.4613 45.0574C37.4235 42.9734 35.3503 40.9248 33.2889 38.8645C33.1711 38.7467 33.0768 38.6054 32.9119 38.4053C32.4408 38.9351 32.0403 39.406 31.628 39.877C31.2157 39.4414 30.8741 39.0999 30.4971 38.6996C30.933 38.2993 31.3806 37.899 31.9225 37.3928C31.4395 36.9454 31.0037 36.5215 30.5443 36.133C30.4618 36.0624 30.238 36.0977 30.1084 36.1565C28.6478 36.9101 27.1164 37.4163 25.5027 37.6282C22.1102 38.0874 18.9415 37.4399 16.032 35.6385C12.7926 33.637 10.6959 30.7525 9.69464 27.0791C9.63574 26.8437 9.58862 26.6082 9.54151 26.3727C9.49439 26.1373 9.43549 25.9018 9.36481 25.631C6.43173 26.6435 4.88862 28.6686 4.67659 31.7415C4.19364 31.7415 3.71068 31.7415 3.19238 31.7415C3.19238 30.3286 3.54577 29.0336 4.24075 27.8327C5.3009 26.0195 6.84401 24.8186 8.8583 24.2299C9.16456 24.1475 9.22346 24.0063 9.21168 23.7237C9.05855 17.4719 13.3109 11.644 19.3302 9.86622C19.9781 9.67784 20.6495 9.53656 21.3327 9.35996C20.9558 7.98245 20.2137 6.86397 19.0946 6.01627C17.9874 5.16857 16.7034 4.72118 15.2663 4.72118C15.2663 4.20314 15.2663 3.7322 15.2663 3.20239C17.0686 3.21417 18.6824 3.76752 20.0959 4.87424C21.5212 5.99272 22.4164 7.45264 22.8758 9.2069C26.5039 9.12449 29.755 10.1488 32.5468 12.4564C35.3385 14.764 36.9994 17.7309 37.6237 21.3572C40.5921 20.3447 42.1117 18.3079 42.3355 15.2467C42.4297 15.235 42.5004 15.2232 42.5711 15.2232C42.9598 15.2232 43.3603 15.2232 43.8904 15.2232C43.7608 15.9767 43.7137 16.6949 43.5134 17.3777C42.6889 20.121 40.8748 21.9223 38.1302 22.7583C37.8593 22.8407 37.7886 22.9584 37.7886 23.2292C37.8357 25.6075 37.3174 27.868 36.222 29.9754C36.0335 30.3286 36.0806 30.5288 36.3633 30.776C36.7285 31.0939 37.0465 31.4589 37.4235 31.8357C37.8593 31.3529 38.2834 30.9055 38.7192 30.4346C39.1315 30.8702 39.4613 31.2117 39.8382 31.612C39.4024 32.0005 38.9548 32.4126 38.4836 32.8482C38.6367 33.013 38.7428 33.1425 38.8606 33.2485C40.9102 35.2971 42.948 37.3575 45.0212 39.3943C45.9047 40.2655 46.6703 41.1721 46.847 42.4436C46.847 42.7497 46.847 43.0558 46.847 43.3502C46.5997 44.4216 46.1874 45.4106 45.2215 46.011C44.656 46.3642 43.9964 46.5526 43.3839 46.8116C43.054 46.8234 42.7478 46.8234 42.4533 46.8234ZM33.2653 23.5118C33.2771 18.1312 28.9305 13.775 23.5237 13.7397C18.1405 13.7044 13.735 18.0959 13.7232 23.5C13.7114 28.8805 18.058 33.2367 23.4648 33.272C28.8598 33.3074 33.2535 28.9158 33.2653 23.5118ZM34.0192 37.4281C34.0545 37.4752 34.0899 37.5341 34.1488 37.5811C36.4693 39.9005 38.7899 42.2199 41.1104 44.5393C41.1929 44.6217 41.2871 44.7041 41.3814 44.7748C42.3944 45.5872 43.9022 45.4341 44.7385 44.4451C45.5984 43.4208 45.5159 42.0551 44.5029 41.0426C42.2295 38.7585 39.956 36.4862 37.6826 34.2139C37.6002 34.1315 37.5059 34.0609 37.447 34.0138C36.2809 35.1676 35.15 36.2978 34.0192 37.4281ZM34.8202 23.394C34.7613 30.1285 29.3428 34.4965 24.1009 34.7908C19.4362 35.0498 13.4169 31.8828 12.3097 25.1483C11.8385 25.2307 11.3791 25.3013 10.8372 25.3955C11.7678 30.152 14.324 33.6135 18.8119 35.3795C23.453 37.1926 27.8468 36.4627 31.6986 33.2956C34.8438 30.7054 36.3044 27.2793 36.2809 23.1586C35.739 23.2292 35.2796 23.3116 34.8202 23.394ZM36.0924 21.6515C35.2325 14.764 28.6124 10.2665 23.1585 10.8199C23.241 11.279 23.3235 11.7382 23.3941 12.1856C29.0247 12.1738 33.8425 16.3652 34.6906 21.8752C35.1382 21.8046 35.5976 21.7222 36.0924 21.6515ZM10.7783 23.8532C11.0611 23.8061 11.3438 23.7119 11.6265 23.7237C12.133 23.7237 12.2037 23.4764 12.239 23.029C12.6159 18.1548 15.0896 14.7993 19.6012 12.9627C20.3079 12.6801 21.0736 12.527 21.8628 12.3033C21.7921 11.8559 21.7097 11.385 21.6272 10.9258C14.9601 11.7853 10.3543 18.0488 10.7783 23.8532ZM35.2325 31.8474C34.0899 32.9895 32.959 34.1197 31.84 35.2264C32.158 35.5561 32.5232 35.9328 32.8766 36.2978C34.0192 35.1558 35.15 34.0255 36.2926 32.8835C35.9393 32.5303 35.5623 32.1653 35.2325 31.8474Z" fill="white"/>
<path d="M6.18432 46.8233C5.46578 46.5996 4.71189 46.4583 4.02869 46.1405C1.24874 44.8454 -0.270813 41.8196 0.282821 38.7938C0.836455 35.8033 3.38082 33.5428 6.44347 33.3073C10.0126 33.0365 13.2402 35.662 13.6407 39.1705C14.0648 42.8792 11.5911 46.1875 7.9748 46.7291C7.89234 46.7409 7.80989 46.788 7.72743 46.8115C7.22092 46.8233 6.70262 46.8233 6.18432 46.8233ZM3.15701 43.5974C3.51039 41.9137 3.78132 41.6312 4.80613 40.6775C3.40437 39.0292 3.93445 37.275 4.87681 36.3802C5.96052 35.3441 7.64498 35.2735 8.78758 36.18C9.38833 36.651 9.77706 37.2632 9.89485 38.0049C10.0715 39.0175 9.77706 39.924 9.11741 40.6187C9.50613 41.1014 9.93019 41.5134 10.2011 42.0079C10.472 42.4907 10.5898 43.0676 10.7665 43.5856C12.4274 42.0433 12.9339 38.676 10.6841 36.3566C8.55199 34.1668 4.9946 34.2727 2.95676 36.6039C0.895352 38.9939 1.62568 42.3258 3.15701 43.5974ZM6.93821 45.3987C6.94999 45.3752 6.94999 45.3516 6.96177 45.3281C7.32693 45.281 7.68032 45.2574 8.04548 45.1868C9.18808 44.9631 9.25876 44.8807 9.19986 43.7269C9.19986 43.7151 9.19986 43.6916 9.19986 43.6798C9.10563 42.1963 7.64498 41.2073 6.24322 41.6783C5.07706 42.0668 4.34673 43.515 4.72367 44.6805C4.75901 44.7865 4.90036 44.8807 5.01816 44.916C5.64247 45.0926 6.29034 45.2457 6.93821 45.3987ZM6.97355 37.0513C6.12543 37.0395 5.46578 37.687 5.454 38.5347C5.454 39.3707 6.12543 40.0535 6.94999 40.0535C7.75099 40.0535 8.4342 39.3824 8.45776 38.5818C8.48132 37.7577 7.79811 37.063 6.97355 37.0513Z" fill="white"/>
<path d="M46.8234 7.7469C46.6113 8.41799 46.4817 9.12441 46.1873 9.77195C44.8915 12.6211 41.8878 14.1753 38.8604 13.6101C35.786 13.045 33.5597 10.5608 33.3123 7.41724C33.0296 3.79099 35.7271 0.612132 39.4259 0.211832C42.889 -0.164922 46.2344 2.43703 46.7291 5.89845C46.7409 6.00442 46.788 6.0986 46.8234 6.19279C46.8234 6.71083 46.8234 7.22887 46.8234 7.7469ZM43.8078 10.5608C45.2449 9.33633 45.7043 6.87566 44.9033 4.93302C44.0316 2.79024 41.8878 1.53047 39.4612 1.73062C37.3291 1.90722 35.4326 3.60261 34.9143 5.79249C34.4785 7.61739 35.2324 9.76018 36.3043 10.5137C36.3868 9.28924 36.964 8.33558 37.9181 7.60562C36.4928 5.88668 37.07 4.15597 37.9652 3.30827C39.0489 2.2722 40.7098 2.17801 41.876 3.08458C42.465 3.54375 42.8419 4.13242 42.995 4.85061C43.2071 5.89845 42.889 6.81679 42.1705 7.61739C43.1717 8.33558 43.7018 9.31278 43.8078 10.5608ZM40.0031 12.3033C40.0148 12.2797 40.0266 12.2562 40.0266 12.2326C40.4036 12.1855 40.7805 12.162 41.1457 12.0913C42.2647 11.8676 42.3589 11.7381 42.2765 10.6079C42.2765 10.5608 42.2647 10.5137 42.2647 10.4666C42.1351 9.11263 40.7923 8.18252 39.473 8.53573C38.2126 8.87716 37.3645 10.4313 37.8003 11.6086C37.8356 11.7028 37.9652 11.7852 38.0712 11.8088C38.7191 11.9972 39.367 12.1502 40.0031 12.3033ZM41.5462 5.47461C41.5579 4.63869 40.8865 3.95582 40.0619 3.94405C39.2492 3.93227 38.5424 4.63868 38.5424 5.45106C38.5424 6.26343 39.202 6.92275 40.0148 6.93453C40.863 6.95807 41.5344 6.31053 41.5462 5.47461Z" fill="white"/>
<path d="M6.94997 13.7279C3.23945 13.7397 0.165012 10.6668 0.176792 6.94638C0.176792 3.23772 3.20411 0.200142 6.91464 0.188369C10.6369 0.164822 13.6878 3.19062 13.7232 6.93461C13.7585 10.6315 10.6841 13.7162 6.94997 13.7279ZM4.80611 7.61748C3.65173 5.80435 3.69885 4.27379 4.95925 3.2024C6.16075 2.1781 7.79809 2.20165 8.97604 3.24949C10.1893 4.33266 10.2364 5.86322 9.08205 7.61748C10.0715 8.33566 10.6016 9.32464 10.7194 10.5726C12.7572 8.64178 12.6748 5.14503 10.5898 3.16708C8.37529 1.05961 4.92391 1.23621 2.93318 3.5556C0.930676 5.89854 1.59033 9.18336 3.18055 10.5491C3.29834 9.32464 3.82842 8.33566 4.80611 7.61748ZM9.19985 11.0083C9.19985 10.9023 9.19985 10.7963 9.19985 10.6904C9.15273 9.72494 8.69333 9.00676 7.79809 8.64178C6.92641 8.28857 6.12541 8.4534 5.41865 9.06562C4.6412 9.74849 4.65298 10.6668 4.71188 11.5852C4.72366 11.6794 4.91213 11.7971 5.02992 11.8442C6.14897 12.2916 7.30336 12.3387 8.45774 11.9855C9.19985 11.7618 9.19985 11.7618 9.19985 11.0083ZM5.45398 5.4276C5.4422 6.27529 6.09007 6.93461 6.93819 6.94638C7.77453 6.94638 8.45774 6.28707 8.45774 5.46292C8.45774 4.66232 7.79809 3.97945 6.98531 3.9559C6.17253 3.92058 5.46576 4.60345 5.45398 5.4276Z" fill="white"/>
<path d="M19.7546 22.04C19.7546 23.2762 19.7546 24.5007 19.7546 25.7487C20.2494 25.7487 20.7088 25.7487 21.2153 25.7487C21.2153 22.511 21.2153 19.2732 21.2153 16.012C22.7584 16.012 24.2308 16.012 25.7622 16.012C25.7622 19.2615 25.7622 22.4874 25.7622 25.7487C26.2687 25.7487 26.7281 25.7487 27.2464 25.7487C27.2464 23.5117 27.2464 21.2865 27.2464 19.026C28.7777 19.026 30.2501 19.026 31.7579 19.026C31.7579 21.7575 31.7579 24.4889 31.7579 27.2322C26.2569 27.2322 20.7677 27.2322 15.2549 27.2322C15.2549 25.5014 15.2549 23.7943 15.2549 22.04C16.7273 22.04 18.2115 22.04 19.7546 22.04ZM22.7819 17.5072C22.7819 20.274 22.7819 22.9937 22.7819 25.7487C23.2649 25.7487 23.7361 25.7487 24.2073 25.7487C24.2073 22.9937 24.2073 20.2622 24.2073 17.5072C23.7243 17.5072 23.2767 17.5072 22.7819 17.5072ZM30.2501 20.5212C29.7436 20.5212 29.2724 20.5212 28.813 20.5212C28.813 22.2755 28.813 24.0062 28.813 25.7251C29.3195 25.7251 29.7789 25.7251 30.2501 25.7251C30.2501 23.9827 30.2501 22.2755 30.2501 20.5212ZM18.2115 23.5353C17.7286 23.5353 17.2456 23.5353 16.7744 23.5353C16.7744 24.2888 16.7744 25.007 16.7744 25.7369C17.2692 25.7369 17.7286 25.7369 18.2115 25.7369C18.2115 24.9952 18.2115 24.2888 18.2115 23.5353Z" fill="white"/>
</g>
<defs>
<clipPath id="clip0_171_84">
<rect width="47" height="47" fill="white"/>
</clipPath>
</defs>
</svg>
