<svg width="398" height="263" viewBox="0 0 398 263" fill="none" xmlns="http://www.w3.org/2000/svg">
<g clip-path="url(#clip0_71_2467)">
<path d="M278.489 263H102.804C97.7555 263 93.625 258.872 93.625 253.827V123.198C93.625 118.153 97.7555 114.025 102.804 114.025H278.489C283.538 114.025 287.668 118.153 287.668 123.198V253.827C287.668 258.872 283.538 263 278.489 263Z" fill="url(#paint0_linear_71_2467)"/>
<path d="M199 245.387H23.3147C18.2663 245.387 14.1357 241.259 14.1357 236.214V105.585C14.1357 100.54 18.2663 96.4119 23.3147 96.4119H199C204.049 96.4119 208.179 100.54 208.179 105.585V236.214C208.179 241.259 204.049 245.387 199 245.387Z" fill="url(#paint1_linear_71_2467)"/>
<path d="M384.507 245.387H254.716C249.668 245.387 245.537 241.259 245.537 236.214V140.811C245.537 135.766 249.668 131.638 254.716 131.638H384.507C389.555 131.638 393.686 135.766 393.686 140.811V236.122C393.686 241.259 389.555 245.387 384.507 245.387Z" fill="url(#paint2_linear_71_2467)"/>
<path d="M326.404 156.956H150.719C145.671 156.956 141.54 152.828 141.54 147.783V17.2459C141.54 12.2005 145.671 8.07251 150.719 8.07251H326.404C331.453 8.07251 335.583 12.2005 335.583 17.2459V147.874C335.583 152.828 331.453 156.956 326.404 156.956Z" fill="url(#paint3_linear_71_2467)"/>
<path d="M287.486 232.086H52.7796C47.7311 232.086 43.6006 227.958 43.6006 222.912V47.0593C43.6006 42.014 47.7311 37.886 52.7796 37.886H287.577C292.626 37.886 296.756 42.014 296.756 47.0593V222.912C296.665 227.958 292.534 232.086 287.486 232.086Z" fill="url(#paint4_linear_71_2467)"/>
<path d="M379.825 239.7H204.048C199 239.7 194.869 235.572 194.869 230.526V99.9895C194.869 94.9442 199 90.8162 204.048 90.8162H379.734C384.782 90.8162 388.913 94.9442 388.913 99.9895V230.618C389.004 235.572 384.874 239.7 379.825 239.7Z" fill="url(#paint5_linear_71_2467)"/>
<path d="M305.384 148.975H129.698C124.65 148.975 120.52 144.847 120.52 139.802V9.17335C120.52 4.12801 124.65 0 129.698 0H305.384C310.432 0 314.563 4.12801 314.563 9.17335V139.802C314.563 144.847 310.432 148.975 305.384 148.975Z" fill="url(#paint6_linear_71_2467)"/>
<path d="M272.891 162.368H97.2053C92.1569 162.368 88.0264 158.24 88.0264 153.195V22.6582C88.0264 17.6129 92.1569 13.4849 97.2053 13.4849H272.891C277.939 13.4849 282.07 17.6129 282.07 22.6582V153.195C282.07 158.24 277.939 162.368 272.891 162.368Z" fill="url(#paint7_linear_71_2467)"/>
<path d="M235.165 210.62H59.4798C54.4313 210.62 50.3008 206.492 50.3008 201.447V70.9099C50.3008 65.8646 54.4313 61.7366 59.4798 61.7366H235.165C240.214 61.7366 244.344 65.8646 244.344 70.9099V201.538C244.344 206.492 240.214 210.62 235.165 210.62Z" fill="url(#paint8_linear_71_2467)"/>
<path d="M9.08718 245.387H388.821C393.869 245.387 397.908 241.351 397.908 236.306V235.021C397.908 229.976 393.869 225.94 388.821 225.94H9.08718C4.03875 225.94 0 229.976 0 235.021V236.306C0 241.259 4.03875 245.387 9.08718 245.387Z" fill="url(#paint9_linear_71_2467)"/>
<path d="M351.738 212.914C351.738 214.29 350.637 215.482 349.168 215.482H190.005C188.628 215.482 187.435 214.381 187.435 212.914V105.127C187.435 103.751 188.536 102.558 190.005 102.558H349.168C350.545 102.558 351.738 103.659 351.738 105.127V212.914Z" fill="url(#paint10_linear_71_2467)"/>
<path d="M343.66 207.318H195.604V110.722H343.66V207.318Z" fill="url(#paint11_linear_71_2467)"/>
<path d="M318.51 110.722H281.978L337.602 207.318H343.66V154.388L318.51 110.722Z" fill="#171C40"/>
<path d="M259.03 110.722H236.267L291.891 207.318H314.563L259.03 110.722Z" fill="#171C40"/>
<path d="M255.175 207.318H265.823L210.198 110.722H199.643L255.175 207.318Z" fill="#171C40"/>
<path d="M343.66 114.575H195.604V110.722H343.66V114.575Z" fill="url(#paint12_linear_71_2467)"/>
<path d="M300.428 189.155H204.049C203.223 189.155 202.58 188.512 202.58 187.687V125.216C202.58 124.391 203.223 123.749 204.049 123.749H300.428C301.254 123.749 301.896 124.391 301.896 125.216V187.687C301.988 188.421 301.254 189.155 300.428 189.155Z" fill="#F8FAFB"/>
<path d="M209.555 127.693C209.555 128.61 208.821 129.344 207.903 129.344C206.985 129.344 206.251 128.61 206.251 127.693C206.251 126.776 206.985 126.042 207.903 126.042C208.821 125.95 209.555 126.776 209.555 127.693Z" fill="url(#paint13_linear_71_2467)"/>
<path d="M216.716 127.693C216.716 128.61 215.981 129.344 215.063 129.344C214.145 129.344 213.411 128.61 213.411 127.693C213.411 126.776 214.145 126.042 215.063 126.042C215.981 125.95 216.716 126.776 216.716 127.693Z" fill="url(#paint14_linear_71_2467)"/>
<path d="M223.876 127.693C223.876 128.61 223.141 129.344 222.224 129.344C221.306 129.344 220.571 128.61 220.571 127.693C220.571 126.776 221.306 126.042 222.224 126.042C223.141 125.95 223.876 126.776 223.876 127.693Z" fill="url(#paint15_linear_71_2467)"/>
<path d="M296.206 135.215H242.692V183.467H296.206V135.215Z" fill="url(#paint16_linear_71_2467)"/>
<path d="M229.199 135.215H210.29V136.408H229.199V135.215Z" fill="#BABCBE"/>
<path d="M238.561 141.361H210.29V142.554H238.561V141.361Z" fill="#BABCBE"/>
<path d="M238.561 145.398H210.29V146.59H238.561V145.398Z" fill="#BABCBE"/>
<path d="M238.561 149.342H210.29V150.535H238.561V149.342Z" fill="#BABCBE"/>
<path d="M238.561 153.378H210.29V154.571H238.561V153.378Z" fill="#BABCBE"/>
<path d="M238.561 157.415H210.29V158.607H238.561V157.415Z" fill="#BABCBE"/>
<path d="M238.561 161.359H210.29V162.552H238.561V161.359Z" fill="#BABCBE"/>
<path d="M238.561 165.396H210.29V166.588H238.561V165.396Z" fill="#BABCBE"/>
<path d="M228.923 169.432H210.29V170.624H228.923V169.432Z" fill="#BABCBE"/>
<path d="M378.54 223.28C378.54 224.656 377.347 225.848 375.97 225.848H163.294C161.825 225.848 160.724 224.747 160.724 223.28V218.051C160.724 216.675 161.917 215.482 163.294 215.482H375.97C377.439 215.482 378.54 216.583 378.54 218.051V223.28Z" fill="url(#paint17_linear_71_2467)"/>
<path d="M282.895 215.482V217.959C282.895 219.335 281.794 220.528 280.325 220.528H259.03C257.653 220.528 256.46 219.427 256.46 217.959V215.482" fill="url(#paint18_linear_71_2467)"/>
<path d="M269.586 178.514C258.847 178.514 250.035 169.799 250.035 158.974C250.035 148.241 258.755 139.435 269.586 139.435C280.326 139.435 289.138 148.15 289.138 158.974C289.138 169.799 280.418 178.514 269.586 178.514ZM269.586 140.444C259.306 140.444 250.953 148.792 250.953 159.066C250.953 169.34 259.306 177.688 269.586 177.688C279.867 177.688 288.22 169.34 288.22 159.066C288.22 148.792 279.867 140.444 269.586 140.444Z" fill="#8FFFFF"/>
<path d="M270.046 126.959H269.128V147.966H270.046V126.959Z" fill="#8FFFFF"/>
<path d="M283.079 127.418H256.185V85.5874H257.102V126.501H282.161V96.045H290.33V66.5068H291.248V96.9624H283.079V127.418Z" fill="#8FFFFF"/>
<path d="M328.332 159.524H280.693V158.607H327.414V145.489H335.125V88.2476H336.043V146.407H328.332V159.524Z" fill="#8FFFFF"/>
<path d="M258.572 159.525H203.682V74.4878H204.6V158.607H258.572V159.525Z" fill="#8FFFFF"/>
<path d="M270.045 197.319H203.681V185.669H174.217V98.4302H175.135V184.751H204.599V196.402H269.127V170.074H270.045V197.319Z" fill="#8FFFFF"/>
<path d="M367.984 185.669H269.586V184.751H367.067V116.868H383.038V78.0652H383.956V117.786H367.984V185.669Z" fill="#8FFFFF"/>
<path d="M290.79 66.9655C280.876 66.9655 272.891 58.893 272.891 49.0775C272.891 39.262 280.968 31.1895 290.79 31.1895C300.611 31.1895 308.689 39.262 308.689 49.0775C308.689 58.893 300.611 66.9655 290.79 66.9655ZM290.79 32.0151C281.427 32.0151 273.809 39.6289 273.809 48.9858C273.809 58.3426 281.427 65.9565 290.79 65.9565C300.152 65.9565 307.771 58.3426 307.771 48.9858C307.771 39.6289 300.152 32.0151 290.79 32.0151Z" fill="#8FFFFF"/>
<path d="M204.141 74.9463C196.43 74.9463 190.188 68.7084 190.188 61.0028C190.188 53.2972 196.43 47.0593 204.141 47.0593C211.851 47.0593 218.093 53.2972 218.093 61.0028C218.093 68.7084 211.759 74.9463 204.141 74.9463ZM204.141 48.0684C196.981 48.0684 191.106 53.9393 191.106 61.0946C191.106 68.2498 196.981 74.1207 204.141 74.1207C211.3 74.1207 217.175 68.2498 217.175 61.0946C217.175 53.9393 211.3 48.0684 204.141 48.0684Z" fill="#8FFFFF"/>
<path d="M335.583 88.7064C329.158 88.7064 324.018 83.4776 324.018 77.148C324.018 70.7267 329.25 65.5896 335.583 65.5896C341.917 65.5896 347.149 70.8184 347.149 77.148C347.149 83.4776 342.008 88.7064 335.583 88.7064ZM335.583 66.4152C329.709 66.4152 324.935 71.1853 324.935 77.0563C324.935 82.9272 329.709 87.6974 335.583 87.6974C341.458 87.6974 346.231 82.9272 346.231 77.0563C346.231 71.2771 341.458 66.4152 335.583 66.4152Z" fill="#8FFFFF"/>
<path d="M256.644 86.046C250.218 86.046 245.078 80.8172 245.078 74.4876C245.078 68.0663 250.31 62.9292 256.644 62.9292C263.069 62.9292 268.209 68.158 268.209 74.4876C268.301 80.8172 263.069 86.046 256.644 86.046ZM256.644 63.7548C250.769 63.7548 245.996 68.5249 245.996 74.3959C245.996 80.2668 250.769 85.037 256.644 85.037C262.518 85.037 267.291 80.2668 267.291 74.3959C267.291 68.5249 262.61 63.7548 256.644 63.7548Z" fill="#8FFFFF"/>
<path d="M300.519 48.4353C300.427 46.9675 299.968 45.4998 299.326 44.2155L300.519 43.5734C299.876 42.4726 299.142 41.4635 298.132 40.6379L297.214 41.647C296.113 40.7297 294.828 39.9958 293.359 39.5371L293.726 38.2529C292.717 37.9777 291.707 37.7942 290.697 37.7942C290.514 37.7942 290.238 37.7942 290.055 37.7942L290.147 39.1702C288.678 39.2619 287.209 39.7206 285.924 40.3627L285.282 39.1702C284.18 39.8123 283.171 40.5462 282.345 41.5553L283.354 42.4726C282.436 43.5734 281.702 44.8577 281.243 46.3254L279.958 45.9585C279.683 46.9675 279.499 47.9766 279.499 48.9857C279.499 49.1691 279.499 49.4443 279.499 49.6278L280.876 49.5361C280.968 51.0038 281.427 52.4715 282.069 53.7558L280.876 54.398C281.518 55.4988 282.253 56.5078 283.171 57.3334L284.089 56.3244C285.19 57.2417 286.475 57.9756 287.944 58.4342L287.577 59.7185C288.586 59.9937 289.596 60.1772 290.606 60.1772C290.789 60.1772 291.065 60.1772 291.248 60.1772L291.156 58.8012C292.625 58.7094 294.094 58.2508 295.379 57.6086L296.021 58.8012C297.123 58.159 298.132 57.4252 298.958 56.4161L297.949 55.4988C298.867 54.398 299.601 53.1137 300.06 51.6459L301.345 52.0129C301.62 51.0038 301.804 49.9947 301.804 48.9857C301.804 48.8022 301.804 48.527 301.804 48.3435L300.519 48.4353ZM296.48 50.6369C295.746 53.2054 293.359 54.9484 290.789 54.9484C290.238 54.9484 289.688 54.8566 289.137 54.7649C286.567 54.031 284.823 51.6459 284.823 49.0774C284.823 48.527 284.915 47.9766 285.006 47.4262C285.741 44.8577 288.127 43.1147 290.697 43.1147C291.248 43.1147 291.799 43.2065 292.35 43.2982C294.92 44.0321 296.664 46.4171 296.664 48.9857C296.664 49.5361 296.572 50.0865 296.48 50.6369Z" fill="url(#paint19_linear_71_2467)"/>
<path d="M388.362 73.2034C388.362 75.8637 386.159 78.0653 383.497 78.0653C380.835 78.0653 378.632 75.8637 378.632 73.2034C378.632 70.5432 380.835 68.3416 383.497 68.3416C386.159 68.3416 388.362 70.5432 388.362 73.2034Z" fill="url(#paint20_linear_71_2467)"/>
<path d="M179.54 93.5683C179.54 96.2285 177.337 98.4301 174.675 98.4301C172.014 98.4301 169.811 96.2285 169.811 93.5683C169.811 90.908 172.014 88.7064 174.675 88.7064C177.337 88.6146 179.54 90.8163 179.54 93.5683Z" fill="url(#paint21_linear_71_2467)"/>
<path d="M213.503 62.9293C213.227 62.6541 212.86 62.3789 212.493 62.1954C212.401 62.1954 212.401 62.1954 212.309 62.1037C212.126 61.4616 211.667 60.9112 211.024 60.7277C211.024 57.7005 208.546 55.3154 205.517 55.3154C203.13 55.3154 201.111 56.7832 200.377 58.893C200.009 58.7096 199.551 58.6178 199.092 58.6178C197.256 58.6178 195.695 60.0856 195.695 62.012C195.695 62.1954 195.695 62.2872 195.695 62.4706C195.512 62.4706 195.42 62.5624 195.236 62.6541C195.053 62.7458 194.961 62.8376 194.777 62.9293C193.492 64.3053 194.502 66.5987 196.338 66.5987H199.183H199.734H207.536H207.72H211.208C212.952 66.5987 214.145 64.8557 213.411 63.2045C213.686 63.1128 213.594 63.021 213.503 62.9293Z" fill="url(#paint22_linear_71_2467)"/>
<path d="M343.293 63.9383C343.293 68.158 335.582 80.4503 335.582 80.4503C335.582 80.4503 327.872 68.158 327.872 63.9383C327.872 59.7185 331.268 56.2327 335.582 56.2327C339.805 56.2327 343.293 59.6268 343.293 63.9383Z" fill="url(#paint23_linear_71_2467)"/>
<path d="M339.713 63.9383C339.713 66.2316 337.877 68.0663 335.583 68.0663C333.288 68.0663 331.452 66.2316 331.452 63.9383C331.452 61.6449 333.288 59.8103 335.583 59.8103C337.877 59.7185 339.713 61.6449 339.713 63.9383Z" fill="#F9F8F7"/>
<path d="M256.644 66.5986V69.2589C258.112 69.2589 259.397 69.8093 260.315 70.8184C261.233 71.7357 261.876 73.1117 261.876 74.4877C261.876 75.9554 261.325 77.2397 260.315 78.1571L262.243 79.9917C263.711 78.524 264.537 76.5976 264.537 74.396C264.537 70.0845 261.049 66.5986 256.644 66.5986Z" fill="url(#paint24_linear_71_2467)"/>
<path d="M260.407 78.157L262.335 79.9917C260.866 81.4594 258.939 82.285 256.736 82.285C252.33 82.285 248.842 78.7991 248.842 74.3959C248.842 70.0844 252.33 66.5068 256.736 66.5068V69.1671C255.267 69.1671 253.982 69.7175 253.064 70.7266C252.146 71.6439 251.504 73.0199 251.504 74.3959C251.504 75.8637 252.054 77.1479 253.064 78.0653C253.982 78.9826 255.359 79.6247 256.736 79.6247C258.113 79.7165 259.398 79.0743 260.407 78.157Z" fill="url(#paint25_linear_71_2467)"/>
<path d="M267.658 163.102H262.885L261.692 165.304H258.479L265.364 152.645H268.944L271.33 165.304H268.026L267.658 163.102ZM266.557 156.13L264.17 160.809H267.291L266.557 156.13Z" fill="white"/>
<path d="M275.002 152.645H278.123L275.92 165.304H272.799L275.002 152.645Z" fill="white"/>
<path d="M155.124 202.272H84.7217V235.297H155.124V202.272Z" fill="url(#paint26_linear_71_2467)"/>
<path d="M155.124 205.391H84.7217V208.51H155.124V205.391Z" fill="url(#paint27_linear_71_2467)"/>
<path d="M155.124 211.905H84.7217V215.023H155.124V211.905Z" fill="url(#paint28_linear_71_2467)"/>
<path d="M155.124 218.417H84.7217V221.536H155.124V218.417Z" fill="url(#paint29_linear_71_2467)"/>
<path d="M155.124 224.931H84.7217V228.05H155.124V224.931Z" fill="url(#paint30_linear_71_2467)"/>
<path d="M212.401 251.992C212.125 251.992 211.942 251.9 211.758 251.809C211.116 251.442 210.84 250.616 211.299 249.974L217.541 239.058L211.666 228.875H199.917L194.043 239.058L200.284 249.974C200.652 250.616 200.468 251.442 199.825 251.809C199.183 252.176 198.357 251.992 197.99 251.35L190.922 239.058L198.357 226.123H213.319L220.754 239.058L213.686 251.35C213.319 251.717 212.86 251.992 212.401 251.992Z" fill="#2A2277"/>
<path d="M208.178 232.086H203.221C200.927 232.086 198.999 230.251 198.999 227.866V227.407H212.4V227.866C212.4 230.251 210.565 232.086 208.178 232.086Z" fill="#2A2277"/>
<path d="M215.338 142.004H196.246V227.408H215.338V142.004Z" fill="url(#paint31_linear_71_2467)"/>
<path d="M201.662 142.004H196.246V227.408H201.662V142.004Z" fill="#CFD1D2"/>
<path d="M217.541 181.357H193.951C193.033 181.357 192.299 180.623 192.299 179.706V178.33C192.299 177.413 193.033 176.679 193.951 176.679H217.541C218.459 176.679 219.193 177.413 219.193 178.33V179.706C219.193 180.623 218.459 181.357 217.541 181.357Z" fill="url(#paint32_linear_71_2467)"/>
<path d="M217.541 191.815H193.951C193.033 191.815 192.299 191.081 192.299 190.164V188.788C192.299 187.87 193.033 187.136 193.951 187.136H217.541C218.459 187.136 219.193 187.87 219.193 188.788V190.164C219.193 191.081 218.459 191.815 217.541 191.815Z" fill="url(#paint33_linear_71_2467)"/>
<path d="M217.541 202.272H193.951C193.033 202.272 192.299 201.539 192.299 200.621V199.245C192.299 198.328 193.033 197.594 193.951 197.594H217.541C218.459 197.594 219.193 198.328 219.193 199.245V200.621C219.193 201.539 218.459 202.272 217.541 202.272Z" fill="url(#paint34_linear_71_2467)"/>
<path d="M217.541 212.73H193.951C193.033 212.73 192.299 211.996 192.299 211.079V209.703C192.299 208.786 193.033 208.052 193.951 208.052H217.541C218.459 208.052 219.193 208.786 219.193 209.703V211.079C219.193 211.996 218.459 212.73 217.541 212.73Z" fill="url(#paint35_linear_71_2467)"/>
<path d="M215.063 145.856L196.43 164.478C194.318 166.588 190.83 166.588 188.719 164.478L176.695 152.461L144.752 120.538L171.096 94.2104L187.251 110.356L215.063 138.151C217.174 140.261 217.174 143.747 215.063 145.856Z" fill="url(#paint36_linear_71_2467)"/>
<path d="M195.144 118.336L187.158 110.356L173.206 96.4121C171.462 96.4121 169.718 96.5956 168.158 97.0542L152.186 113.016C151.819 114.667 151.544 116.41 151.544 118.245C151.544 130.262 161.274 139.986 173.298 139.986C185.414 139.986 195.144 130.262 195.144 118.336Z" fill="#F0F1F1"/>
<path d="M211.317 134.557L185.03 160.827L185.744 161.54L212.031 135.27L211.317 134.557Z" fill="#F0F1F1"/>
<path d="M187.159 110.356L182.845 158.516L144.752 120.446L171.004 94.2104L187.159 110.356Z" fill="#F0F1F1"/>
<path d="M171.922 135.857C183.937 135.857 193.676 126.124 193.676 114.117C193.676 102.109 183.937 92.3757 171.922 92.3757C159.908 92.3757 150.168 102.109 150.168 114.117C150.168 126.124 159.908 135.857 171.922 135.857Z" fill="url(#paint37_linear_71_2467)"/>
<path d="M40.7542 251.992C40.4788 251.992 40.2952 251.9 40.1116 251.809C39.4691 251.442 39.1937 250.616 39.6527 249.974L45.8944 239.058L40.0198 228.875H28.179L22.3044 239.058L28.5461 249.974C28.9133 250.616 28.7297 251.442 28.0872 251.809C27.4447 252.176 26.6186 251.992 26.2514 251.35L19.1836 239.058L26.6186 226.123H41.5803L49.0152 239.058L41.9474 251.35C41.6721 251.717 41.2131 251.992 40.7542 251.992Z" fill="#2A2277"/>
<path d="M31.5749 232.086H36.5315C38.8262 232.086 40.7538 230.251 40.7538 227.866V227.407H27.3525V227.866C27.3525 230.251 29.2801 232.086 31.5749 232.086Z" fill="#2A2277"/>
<path d="M43.6001 142.004H24.5078V227.408H43.6001V142.004Z" fill="url(#paint38_linear_71_2467)"/>
<path d="M43.5992 142.004H38.1836V227.408H43.5992V142.004Z" fill="#CFD1D2"/>
<path d="M22.2128 181.357H45.8945C46.8124 181.357 47.5467 180.623 47.5467 179.706V178.33C47.5467 177.413 46.8124 176.679 45.8945 176.679H22.2128C21.2949 176.679 20.5605 177.413 20.5605 178.33V179.706C20.5605 180.623 21.2949 181.357 22.2128 181.357Z" fill="url(#paint39_linear_71_2467)"/>
<path d="M22.2128 191.815H45.8945C46.8124 191.815 47.5467 191.081 47.5467 190.164V188.788C47.5467 187.87 46.8124 187.136 45.8945 187.136H22.2128C21.2949 187.136 20.5605 187.87 20.5605 188.788V190.164C20.5605 191.081 21.2949 191.815 22.2128 191.815Z" fill="url(#paint40_linear_71_2467)"/>
<path d="M22.2128 202.272H45.8945C46.8124 202.272 47.5467 201.539 47.5467 200.621V199.245C47.5467 198.328 46.8124 197.594 45.8945 197.594H22.2128C21.2949 197.594 20.5605 198.328 20.5605 199.245V200.621C20.5605 201.539 21.2949 202.272 22.2128 202.272Z" fill="url(#paint41_linear_71_2467)"/>
<path d="M22.2128 212.73H45.8945C46.8124 212.73 47.5467 211.996 47.5467 211.079V209.703C47.5467 208.786 46.8124 208.052 45.8945 208.052H22.2128C21.2949 208.052 20.5605 208.786 20.5605 209.703V211.079C20.5605 211.996 21.2949 212.73 22.2128 212.73Z" fill="url(#paint42_linear_71_2467)"/>
<path d="M24.7831 145.856L43.4164 164.478C45.5275 166.588 49.0155 166.588 51.1267 164.478L63.1512 152.461L95.094 120.538L68.7503 94.2104L52.5953 110.356L24.7831 138.151C22.5801 140.261 22.5801 143.747 24.7831 145.856Z" fill="url(#paint43_linear_71_2467)"/>
<path d="M44.6094 118.336L52.5951 110.356L66.5471 96.4121C68.2911 96.4121 70.0351 96.5956 71.5955 97.0542L87.5669 113.016C87.9341 114.667 88.2095 116.41 88.2095 118.245C88.2095 130.262 78.4798 139.986 66.4553 139.986C54.4309 139.986 44.7012 130.262 44.6094 118.336Z" fill="#F0F1F1"/>
<path d="M28.4161 134.422L27.7021 135.135L53.9885 161.405L54.7024 160.692L28.4161 134.422Z" fill="#F0F1F1"/>
<path d="M52.5947 110.356L57.0006 158.516L95.0016 120.446L68.7497 94.2104L52.5947 110.356Z" fill="#F0F1F1"/>
<path d="M67.8323 135.857C79.8468 135.857 89.5864 126.124 89.5864 114.117C89.5864 102.109 79.8468 92.3757 67.8323 92.3757C55.8178 92.3757 46.0781 102.109 46.0781 114.117C46.0781 126.124 55.8178 135.857 67.8323 135.857Z" fill="url(#paint44_linear_71_2467)"/>
<path d="M180.825 109.622C174.4 102.466 166.69 96.5038 158.062 91.9171C146.68 85.9544 133.646 82.5603 119.877 82.5603C106.109 82.5603 93.1663 85.9544 81.6925 91.9171C73.0643 96.4121 65.354 102.466 58.9287 109.622C57.0929 111.64 56.3586 114.575 57.0929 117.236L57.6437 119.437L57.919 120.538L64.6197 147.599L65.6294 151.544L69.4845 167.139L70.3106 170.533L77.562 199.796C77.9292 201.263 79.306 202.364 80.8664 202.364H158.888C160.448 202.364 161.733 201.355 162.192 199.796L169.443 170.533L170.27 167.139L174.125 151.636L175.134 147.691L181.835 120.63L182.11 119.529L182.661 117.327C183.396 114.484 182.661 111.64 180.825 109.622Z" fill="url(#paint45_linear_71_2467)"/>
<path d="M182.11 119.437L181.835 120.538C176.144 114.85 169.902 109.989 163.11 105.952C150.168 98.2466 135.481 93.9352 119.877 93.9352C104.273 93.9352 89.5864 98.2466 76.644 105.952C71.0449 109.255 65.7211 113.291 60.8562 117.786C59.8465 118.703 58.9286 119.621 58.0107 120.538L57.7354 119.437C63.3345 113.841 69.4844 109.071 76.1851 105.127C89.2192 97.421 104.181 93.0178 119.969 93.0178C135.757 93.0178 150.626 97.421 163.752 105.127C170.361 109.071 176.511 113.933 182.11 119.437Z" fill="#F0F1F1"/>
<path d="M158.061 91.9171C148.974 102.833 135.298 109.897 119.877 109.897C104.548 109.897 90.7796 102.925 81.6924 91.9171C93.0743 85.9544 106.108 82.5603 119.877 82.5603C133.645 82.5603 146.679 85.9544 158.061 91.9171Z" fill="#F0F1F1"/>
<path d="M159.622 245.387H80.1324C77.1033 245.387 74.625 242.91 74.625 239.883V235.388C74.625 232.361 77.1033 229.884 80.1324 229.884H159.622C162.651 229.884 165.13 232.361 165.13 235.388V239.883C165.13 242.91 162.651 245.387 159.622 245.387Z" fill="url(#paint46_linear_71_2467)"/>
<path d="M157.419 240.525H82.4271C79.0309 240.525 76.0936 238.324 75.084 235.205C74.8086 235.939 74.7168 236.764 74.7168 237.59C74.7168 241.901 78.2048 245.296 82.4271 245.296H157.419C161.733 245.296 165.13 241.81 165.13 237.59C165.13 236.764 164.946 235.939 164.762 235.205C163.753 238.324 160.815 240.525 157.419 240.525Z" fill="#F0F1F1"/>
<path d="M119.877 93.5683C145.934 93.5683 167.057 80.7953 167.057 65.0391C167.057 49.2829 145.934 36.51 119.877 36.51C93.8204 36.51 72.6973 49.2829 72.6973 65.0391C72.6973 80.7953 93.8204 93.5683 119.877 93.5683Z" fill="url(#paint47_linear_71_2467)"/>
<path d="M119.877 102.283C143.044 102.283 161.824 83.5137 161.824 60.3607C161.824 37.2077 143.044 18.4385 119.877 18.4385C96.7094 18.4385 77.9287 37.2077 77.9287 60.3607C77.9287 83.5137 96.7094 102.283 119.877 102.283Z" fill="url(#paint48_linear_71_2467)"/>
<path d="M143.008 85.6793H96.7458C94.6346 85.6793 92.8906 83.9364 92.8906 81.8265V56.1411C92.8906 54.0313 94.6346 52.2883 96.7458 52.2883H143.008C145.119 52.2883 146.863 54.0313 146.863 56.1411V81.8265C146.863 83.9364 145.119 85.6793 143.008 85.6793Z" fill="#171C40"/>
<path d="M143.008 85.6793H96.7458C94.6346 85.6793 92.8906 83.9364 92.8906 81.8265V56.1411C92.8906 54.0313 94.6346 52.2883 96.7458 52.2883H143.008C145.119 52.2883 146.863 54.0313 146.863 56.1411V81.8265C146.863 83.9364 145.119 85.6793 143.008 85.6793Z" fill="#171C40"/>
<path d="M143.008 86.1379H96.7458C94.3592 86.1379 92.4316 84.2115 92.4316 81.8264V56.1411C92.4316 53.756 94.3592 51.8296 96.7458 51.8296H143.008C145.394 51.8296 147.322 53.756 147.322 56.1411V81.8264C147.322 84.2115 145.394 86.1379 143.008 86.1379ZM96.7458 52.7469C94.8182 52.7469 93.3495 54.3064 93.3495 56.1411V81.8264C93.3495 83.7528 94.91 85.2206 96.7458 85.2206H143.008C144.935 85.2206 146.404 83.6611 146.404 81.8264V56.1411C146.404 54.2147 144.844 52.7469 143.008 52.7469H96.7458Z" fill="url(#paint49_linear_71_2467)"/>
<path d="M143.008 85.6791H96.7458C94.6346 85.6791 92.8906 83.9361 92.8906 81.8263V56.1409C92.8906 54.031 94.6346 52.2881 96.7458 52.2881H143.008C145.119 52.2881 146.863 54.031 146.863 56.1409V81.8263C146.863 83.9361 145.119 85.6791 143.008 85.6791Z" fill="#171C40"/>
<path d="M145.486 56.1409V81.8262C145.486 83.2023 144.385 84.3031 143.008 84.3031H96.7459C95.3691 84.3031 94.2676 83.2023 94.2676 81.8262V56.1409C94.2676 54.7649 95.3691 53.6641 96.7459 53.6641H143.008C144.385 53.6641 145.486 54.7649 145.486 56.1409Z" fill="#171C40"/>
<path d="M109.321 53.6641L126.945 84.3031H132.636L115.012 53.6641H109.321ZM139.795 53.6641H123.916L141.539 84.3031H143.008C144.385 84.3031 145.486 83.2023 145.486 81.8262V63.5713L139.795 53.6641Z" fill="#171C40"/>
<path d="M153.196 193.558H86.5569C83.4361 193.558 80.866 191.173 80.6824 188.054L76.5519 127.693C76.4601 126.042 77.0108 124.482 78.1123 123.198C79.2138 122.006 80.7742 121.272 82.4264 121.272H157.327C158.979 121.272 160.539 121.914 161.641 123.198C162.742 124.391 163.293 125.95 163.201 127.693L159.071 188.054C158.887 191.081 156.317 193.558 153.196 193.558ZM82.4264 122.281C81.0496 122.281 79.7645 122.831 78.7548 123.84C77.8369 124.849 77.2862 126.225 77.378 127.601L81.5085 187.962C81.6921 190.622 83.895 192.64 86.4651 192.64H153.013C155.675 192.64 157.786 190.622 157.969 187.962L162.1 127.601C162.192 126.225 161.733 124.849 160.723 123.84C159.805 122.831 158.428 122.281 157.051 122.281H82.4264Z" fill="#F0F1F1"/>
<path d="M141.08 143.563H151.085C152.37 143.563 153.471 142.462 153.471 141.178V131.179C153.471 129.895 152.37 128.794 151.085 128.794H141.08C139.795 128.794 138.693 129.895 138.693 131.179V141.178C138.693 142.462 139.795 143.563 141.08 143.563Z" fill="#171C40"/>
<path d="M151.085 144.022H141.08C139.519 144.022 138.234 142.737 138.234 141.178V131.179C138.234 129.619 139.519 128.335 141.08 128.335H151.085C152.645 128.335 153.93 129.619 153.93 131.179V141.178C154.022 142.737 152.737 144.022 151.085 144.022ZM141.08 129.161C139.978 129.161 139.152 129.986 139.152 131.087V141.086C139.152 142.187 139.978 143.013 141.08 143.013H151.085C152.186 143.013 153.013 142.187 153.013 141.086V131.087C153.013 129.986 152.186 129.161 151.085 129.161H141.08Z" fill="url(#paint50_linear_71_2467)"/>
<path d="M110.882 69.8093H99.5918C99.7754 70.4515 100.143 71.0936 100.601 71.644H109.964C110.331 71.0936 110.607 70.4515 110.882 69.8093Z" fill="#8FFFFF"/>
<path d="M111.157 67.9747C111.157 67.6995 111.157 67.3326 111.065 67.0574H99.3164C99.3164 67.3326 99.2246 67.6078 99.2246 67.9747C99.2246 68.2499 99.2246 68.6168 99.3164 68.892H111.065C111.157 68.5251 111.157 68.2499 111.157 67.9747Z" fill="#8FFFFF"/>
<path d="M128.598 67.9747C128.598 68.2499 128.598 68.6168 128.689 68.892H140.439C140.439 68.6168 140.53 68.3416 140.53 67.9747C140.53 67.6995 140.53 67.3326 140.439 67.0574H128.689C128.689 67.3326 128.598 67.6078 128.598 67.9747Z" fill="#8FFFFF"/>
<path d="M128.873 69.8093C129.057 70.4515 129.424 71.0936 129.883 71.644H139.245C139.704 71.0936 139.98 70.5432 140.255 69.8093H128.873Z" fill="#8FFFFF"/>
<path d="M110.882 66.0483C110.698 65.4062 110.331 64.764 109.872 64.2136H100.51C100.051 64.764 99.7754 65.3144 99.5 66.0483H110.882Z" fill="#8FFFFF"/>
<path d="M101.52 72.5613C102.529 73.3869 103.814 73.8455 105.283 73.8455C106.66 73.8455 108.037 73.3869 109.046 72.5613H101.52Z" fill="#8FFFFF"/>
<path d="M130.8 72.5613C131.809 73.3869 133.095 73.8455 134.563 73.8455C135.94 73.8455 137.317 73.3869 138.327 72.5613H130.8Z" fill="#8FFFFF"/>
<path d="M138.327 63.2962C137.317 62.4706 136.032 62.012 134.563 62.012C133.186 62.012 131.809 62.4706 130.8 63.2962H138.327Z" fill="#8FFFFF"/>
<path d="M108.954 63.2962C107.945 62.4706 106.66 62.012 105.191 62.012C103.814 62.012 102.437 62.4706 101.428 63.2962H108.954Z" fill="#8FFFFF"/>
<path d="M129.883 64.3054C129.424 64.8558 129.148 65.4062 128.873 66.1401H140.163C139.98 65.498 139.612 64.8558 139.154 64.3054H129.883Z" fill="#8FFFFF"/>
<path d="M132.452 46.2338H107.302C106.017 46.2338 104.915 45.133 104.915 43.8487V43.4818C104.915 42.1975 106.017 41.0967 107.302 41.0967H132.452C133.737 41.0967 134.838 42.1975 134.838 43.4818V43.8487C134.838 45.133 133.737 46.2338 132.452 46.2338Z" fill="url(#paint51_linear_71_2467)"/>
<path d="M132.452 46.6924H107.302C105.741 46.6924 104.456 45.4081 104.456 43.8486V43.4817C104.456 41.9222 105.741 40.6379 107.302 40.6379H132.452C134.012 40.6379 135.297 41.9222 135.297 43.4817V43.8486C135.297 45.4081 134.012 46.6924 132.452 46.6924ZM107.302 41.5553C106.2 41.5553 105.374 42.3809 105.374 43.4817V43.8486C105.374 44.9494 106.2 45.775 107.302 45.775H132.452C133.553 45.775 134.379 44.9494 134.379 43.8486V43.4817C134.379 42.3809 133.553 41.5553 132.452 41.5553H107.302Z" fill="url(#paint52_linear_71_2467)"/>
<path d="M131.167 43.665C131.167 44.4906 130.524 45.1327 129.698 45.1327C128.872 45.1327 128.229 44.4906 128.229 43.665C128.229 42.8394 128.872 42.1973 129.698 42.1973C130.524 42.1973 131.167 42.8394 131.167 43.665Z" fill="#171C40"/>
<path d="M129.698 45.3163C128.78 45.3163 128.046 44.5825 128.046 43.6651C128.046 42.7478 128.78 42.0139 129.698 42.0139C130.616 42.0139 131.35 42.7478 131.35 43.6651C131.35 44.5825 130.616 45.3163 129.698 45.3163ZM129.698 42.4726C129.056 42.4726 128.505 43.023 128.505 43.6651C128.505 44.3073 129.056 44.8577 129.698 44.8577C130.341 44.8577 130.891 44.3073 130.891 43.6651C130.891 43.023 130.341 42.4726 129.698 42.4726Z" fill="url(#paint53_linear_71_2467)"/>
<path d="M130.341 43.6651C130.341 44.032 130.065 44.3072 129.698 44.3072C129.331 44.3072 129.056 44.032 129.056 43.6651C129.056 43.2981 129.331 43.0229 129.698 43.0229C130.065 43.0229 130.341 43.2981 130.341 43.6651Z" fill="#DA00F9"/>
<path d="M123.549 44.3072H108.862C108.495 44.3072 108.22 44.032 108.22 43.665V43.5733C108.22 43.2064 108.495 42.9312 108.862 42.9312H123.549C123.916 42.9312 124.191 43.2064 124.191 43.5733V43.665C124.191 44.032 123.824 44.3072 123.549 44.3072Z" fill="#171C40"/>
<path d="M123.549 44.5824H108.862C108.403 44.5824 107.944 44.2155 107.944 43.6651V43.5733C107.944 43.1147 108.311 42.656 108.862 42.656H123.549C124.008 42.656 124.466 43.0229 124.466 43.5733V43.6651C124.375 44.1237 124.008 44.5824 123.549 44.5824ZM108.77 43.2064C108.495 43.2064 108.311 43.3899 108.311 43.6651V43.7568C108.311 43.9403 108.495 44.2155 108.77 44.2155H123.457C123.732 44.2155 123.916 44.032 123.916 43.7568V43.6651C123.916 43.4816 123.732 43.2064 123.457 43.2064H108.77Z" fill="url(#paint54_linear_71_2467)"/>
<path d="M128.23 89.5319H111.433C111.065 89.5319 110.79 89.2567 110.79 88.8897V88.6145C110.79 88.2476 111.065 87.9724 111.433 87.9724H128.23C128.597 87.9724 128.873 88.2476 128.873 88.6145V88.8897C128.873 89.1649 128.597 89.5319 128.23 89.5319Z" fill="#171C40"/>
<path d="M128.23 89.7153H111.433C110.974 89.7153 110.515 89.3484 110.515 88.798V88.5228C110.515 88.0641 110.882 87.6055 111.433 87.6055H128.23C128.689 87.6055 129.148 87.9724 129.148 88.5228V88.798C129.148 89.3484 128.781 89.7153 128.23 89.7153ZM111.524 88.1559C111.341 88.1559 111.065 88.3393 111.065 88.6145V88.8897C111.065 89.1649 111.249 89.3484 111.524 89.3484H128.322C128.505 89.3484 128.781 89.1649 128.781 88.8897V88.6145C128.781 88.3393 128.597 88.1559 128.322 88.1559H111.524Z" fill="url(#paint55_linear_71_2467)"/>
<path d="M128.23 92.3756H111.433C111.065 92.3756 110.79 92.1004 110.79 91.7335V91.4583C110.79 91.0914 111.065 90.8162 111.433 90.8162H128.23C128.597 90.8162 128.873 91.0914 128.873 91.4583V91.7335C128.873 92.1004 128.597 92.3756 128.23 92.3756Z" fill="#171C40"/>
<path d="M128.23 92.5591H111.433C110.974 92.5591 110.515 92.1922 110.515 91.6418V91.3666C110.515 90.9079 110.882 90.4492 111.433 90.4492H128.23C128.689 90.4492 129.148 90.8162 129.148 91.3666V91.6418C129.148 92.1922 128.781 92.5591 128.23 92.5591ZM111.524 90.9996C111.341 90.9996 111.065 91.1831 111.065 91.4583V91.7335C111.065 91.917 111.249 92.1922 111.524 92.1922H128.322C128.505 92.1922 128.781 92.0087 128.781 91.7335V91.4583C128.781 91.1831 128.597 90.9996 128.322 90.9996H111.524Z" fill="url(#paint56_linear_71_2467)"/>
<path d="M128.23 95.2194H111.433C111.065 95.2194 110.79 94.9442 110.79 94.5772V94.3021C110.79 93.9351 111.065 93.6599 111.433 93.6599H128.23C128.597 93.6599 128.873 93.9351 128.873 94.3021V94.5772C128.873 94.9442 128.597 95.2194 128.23 95.2194Z" fill="#171C40"/>
<path d="M128.23 95.4028H111.433C110.974 95.4028 110.515 95.0359 110.515 94.4855V94.2103C110.515 93.7516 110.882 93.293 111.433 93.293H128.23C128.689 93.293 129.148 93.6599 129.148 94.2103V94.4855C129.148 95.0359 128.781 95.4028 128.23 95.4028ZM111.524 93.8434C111.341 93.8434 111.065 94.0268 111.065 94.302V94.5772C111.065 94.7607 111.249 95.0359 111.524 95.0359H128.322C128.505 95.0359 128.781 94.8524 128.781 94.5772V94.302C128.781 94.0268 128.597 93.8434 128.322 93.8434H111.524Z" fill="url(#paint57_linear_71_2467)"/>
<path d="M143.467 133.564H141.906C141.539 133.564 141.264 133.289 141.264 132.922V131.362C141.264 130.995 141.539 130.72 141.906 130.72H143.467C143.834 130.72 144.109 130.995 144.109 131.362V132.922C144.109 133.289 143.834 133.564 143.467 133.564Z" fill="#DA00F9"/>
<path d="M143.467 137.509H141.906C141.539 137.509 141.264 137.233 141.264 136.866V135.307C141.264 134.94 141.539 134.665 141.906 134.665H143.467C143.834 134.665 144.109 134.94 144.109 135.307V136.866C144.109 137.233 143.834 137.509 143.467 137.509Z" fill="#8FFFFF"/>
<path d="M143.467 141.453H141.906C141.539 141.453 141.264 141.178 141.264 140.811V139.252C141.264 138.885 141.539 138.609 141.906 138.609H143.467C143.834 138.609 144.109 138.885 144.109 139.252V140.811C144.109 141.178 143.834 141.453 143.467 141.453Z" fill="#29346D"/>
<path d="M148.056 133.564H146.496C146.129 133.564 145.854 133.289 145.854 132.922V131.363C145.854 130.996 146.129 130.72 146.496 130.72H148.056C148.424 130.72 148.699 130.996 148.699 131.363V132.922C148.699 133.289 148.424 133.564 148.056 133.564Z" fill="#DA00F9"/>
<path d="M150.535 141.453H150.076C149.709 141.453 149.434 141.178 149.434 140.811V131.271C149.434 130.904 149.709 130.629 150.076 130.629H150.535C150.902 130.629 151.178 130.904 151.178 131.271V140.811C151.178 141.178 150.902 141.453 150.535 141.453Z" fill="#29346D"/>
<path d="M148.056 137.509H146.496C146.129 137.509 145.854 137.234 145.854 136.867V135.307C145.854 134.94 146.129 134.665 146.496 134.665H148.056C148.424 134.665 148.699 134.94 148.699 135.307V136.867C148.699 137.234 148.424 137.509 148.056 137.509Z" fill="#29346D"/>
<path d="M148.056 141.453H146.496C146.129 141.453 145.854 141.178 145.854 140.811V139.252C145.854 138.885 146.129 138.609 146.496 138.609H148.056C148.424 138.609 148.699 138.885 148.699 139.252V140.811C148.699 141.178 148.424 141.453 148.056 141.453Z" fill="#29346D"/>
<path d="M296.664 24.4929C293.359 24.4929 290.605 21.8326 290.605 18.4384C290.605 15.136 293.267 12.384 296.664 12.384C299.968 12.384 302.722 15.0443 302.722 18.4384C302.722 21.7409 299.968 24.4929 296.664 24.4929ZM296.664 13.8518C294.093 13.8518 291.982 15.9616 291.982 18.5302C291.982 21.0987 294.093 23.2086 296.664 23.2086C299.234 23.2086 301.345 21.0987 301.345 18.5302C301.345 15.9616 299.234 13.8518 296.664 13.8518Z" fill="#424E57"/>
<path d="M217.909 62.8374H209.831V54.7649H217.909V62.8374ZM211.116 61.4614H216.44V56.1409H211.116V61.4614Z" fill="#131214"/>
<path d="M190.464 25.502C191.123 25.502 191.657 24.9681 191.657 24.3095C191.657 23.6509 191.123 23.1169 190.464 23.1169C189.805 23.1169 189.271 23.6509 189.271 24.3095C189.271 24.9681 189.805 25.502 190.464 25.502Z" fill="#424E57"/>
<path d="M202.396 24.3095C202.396 24.9516 201.846 25.502 201.203 25.502C200.561 25.502 200.01 24.9516 200.01 24.3095C200.01 23.6673 200.561 23.1169 201.203 23.1169C201.846 23.1169 202.396 23.5756 202.396 24.3095Z" fill="#424E57"/>
<path d="M211.942 25.502C212.601 25.502 213.136 24.9681 213.136 24.3095C213.136 23.6509 212.601 23.1169 211.942 23.1169C211.283 23.1169 210.749 23.6509 210.749 24.3095C210.749 24.9681 211.283 25.502 211.942 25.502Z" fill="#424E57"/>
<path d="M222.683 25.502C223.342 25.502 223.876 24.9681 223.876 24.3095C223.876 23.6509 223.342 23.1169 222.683 23.1169C222.024 23.1169 221.489 23.6509 221.489 24.3095C221.489 24.9681 222.024 25.502 222.683 25.502Z" fill="#424E57"/>
<path d="M233.514 25.502C234.173 25.502 234.707 24.9681 234.707 24.3095C234.707 23.6509 234.173 23.1169 233.514 23.1169C232.855 23.1169 232.32 23.6509 232.32 24.3095C232.32 24.9681 232.855 25.502 233.514 25.502Z" fill="#424E57"/>
<path d="M195.604 30.1805C196.263 30.1805 196.798 29.6466 196.798 28.9879C196.798 28.3293 196.263 27.7954 195.604 27.7954C194.945 27.7954 194.411 28.3293 194.411 28.9879C194.411 29.6466 194.945 30.1805 195.604 30.1805Z" fill="#424E57"/>
<path d="M206.344 30.1805C207.003 30.1805 207.537 29.6466 207.537 28.9879C207.537 28.3293 207.003 27.7954 206.344 27.7954C205.685 27.7954 205.15 28.3293 205.15 28.9879C205.15 29.6466 205.685 30.1805 206.344 30.1805Z" fill="#424E57"/>
<path d="M217.083 30.1805C217.742 30.1805 218.276 29.6466 218.276 28.9879C218.276 28.3293 217.742 27.7954 217.083 27.7954C216.424 27.7954 215.89 28.3293 215.89 28.9879C215.89 29.6466 216.424 30.1805 217.083 30.1805Z" fill="#424E57"/>
<path d="M229.016 28.9879C229.016 29.6301 228.466 30.1805 227.823 30.1805C227.181 30.1805 226.63 29.6301 226.63 28.9879C226.63 28.3458 227.181 27.7954 227.823 27.7954C228.466 27.7954 229.016 28.3458 229.016 28.9879Z" fill="#424E57"/>
<path d="M238.561 30.1805C239.22 30.1805 239.755 29.6466 239.755 28.9879C239.755 28.3293 239.22 27.7954 238.561 27.7954C237.902 27.7954 237.368 28.3293 237.368 28.9879C237.368 29.6466 237.902 30.1805 238.561 30.1805Z" fill="#424E57"/>
<path d="M134.197 8.80632V5.87085H132.545V8.80632H129.607V10.3658H132.545V13.3013H134.197V10.3658H137.134V8.80632H134.197Z" fill="#424E57"/>
<path d="M189.178 85.0371C187.802 85.0371 187.067 84.2115 186.517 83.5693C185.966 82.9272 185.507 82.3768 184.589 82.3768C183.671 82.3768 183.212 82.9272 182.661 83.5693C182.019 84.3032 181.376 85.0371 179.999 85.0371C178.623 85.0371 177.888 84.2115 177.338 83.5693C176.787 82.9272 176.328 82.3768 175.41 82.3768C174.492 82.3768 174.033 82.9272 173.482 83.5693C172.84 84.3032 172.197 85.0371 170.821 85.0371C169.444 85.0371 168.709 84.2115 168.159 83.5693C167.608 82.9272 167.149 82.3768 166.231 82.3768C165.313 82.3768 164.854 82.9272 164.303 83.5693C163.661 84.3032 163.018 85.0371 161.642 85.0371C161.366 85.0371 161.183 84.8536 161.183 84.5784C161.183 84.3032 161.366 84.1197 161.642 84.1197C162.559 84.1197 163.018 83.5693 163.569 82.9272C164.212 82.1933 164.854 81.4595 166.231 81.4595C167.608 81.4595 168.342 82.2851 168.893 82.9272C169.444 83.5693 169.903 84.1197 170.821 84.1197C171.738 84.1197 172.197 83.5693 172.748 82.9272C173.391 82.1933 174.033 81.4595 175.41 81.4595C176.787 81.4595 177.521 82.2851 178.072 82.9272C178.623 83.5693 179.082 84.1197 179.999 84.1197C180.917 84.1197 181.376 83.5693 181.927 82.9272C182.57 82.1933 183.212 81.4595 184.589 81.4595C185.966 81.4595 186.7 82.2851 187.251 82.9272C187.802 83.5693 188.261 84.1197 189.178 84.1197C189.454 84.1197 189.637 84.3032 189.637 84.5784C189.729 84.8536 189.454 85.0371 189.178 85.0371Z" fill="#424E57"/>
<path d="M64.8949 64.397H56.8174V56.3245H64.8949V64.397ZM58.1942 63.021H63.518V57.7005H58.1942V63.021Z" fill="#424E57"/>
<path d="M384.14 162.368H370.463V164.295H384.14V162.368Z" fill="#424E57"/>
<path d="M384.14 167.781H370.463V169.707H384.14V167.781Z" fill="#424E57"/>
<path d="M384.14 156.956H370.463V158.882H384.14V156.956Z" fill="#424E57"/>
<path d="M49.108 23.3919C46.0789 23.3919 43.5088 20.9151 43.5088 17.7962C43.5088 14.769 45.9871 12.2004 49.108 12.2004C52.137 12.2004 54.7071 14.6772 54.7071 17.7962C54.7071 20.9151 52.2288 23.3919 49.108 23.3919Z" fill="#D8ECF7"/>
<path d="M66.3638 23.3919C63.3348 23.3919 60.7646 20.9151 60.7646 17.7962C60.7646 14.769 63.243 12.2004 66.3638 12.2004C69.3929 12.2004 71.963 14.6772 71.963 17.7962C71.963 20.9151 69.4847 23.3919 66.3638 23.3919Z" fill="#D8ECF7"/>
<path d="M33.3201 79.0742C34.8805 79.0742 36.1656 77.79 36.1656 76.2305V42.0139C36.1656 40.4544 34.8805 39.1702 33.3201 39.1702C31.7597 39.1702 30.4746 40.4544 30.4746 42.0139V76.2305C30.4746 77.79 31.7597 79.0742 33.3201 79.0742Z" fill="#D8ECF7"/>
</g>
<defs>
<linearGradient id="paint0_linear_71_2467" x1="93.6239" y1="188.53" x2="287.682" y2="188.53" gradientUnits="userSpaceOnUse">
<stop stop-color="#E4EFF7"/>
<stop offset="0.6423" stop-color="#C6DFF2"/>
<stop offset="0.999" stop-color="#9BB7FC"/>
</linearGradient>
<linearGradient id="paint1_linear_71_2467" x1="111.127" y1="96.4267" x2="111.127" y2="245.38" gradientUnits="userSpaceOnUse">
<stop stop-color="#E4EFF7"/>
<stop offset="0.6423" stop-color="#C6DFF2"/>
<stop offset="0.999" stop-color="#9BB7FC"/>
</linearGradient>
<linearGradient id="paint2_linear_71_2467" x1="319.605" y1="131.68" x2="319.605" y2="245.38" gradientUnits="userSpaceOnUse">
<stop stop-color="#E4EFF7"/>
<stop offset="0.6423" stop-color="#C6DFF2"/>
<stop offset="0.999" stop-color="#9BB7FC"/>
</linearGradient>
<linearGradient id="paint3_linear_71_2467" x1="238.581" y1="8.04233" x2="238.581" y2="156.996" gradientUnits="userSpaceOnUse">
<stop stop-color="#E4EFF7"/>
<stop offset="0.6423" stop-color="#C6DFF2"/>
<stop offset="0.999" stop-color="#9BB7FC"/>
</linearGradient>
<linearGradient id="paint4_linear_71_2467" x1="98.0895" y1="10.281" x2="242.046" y2="259.773" gradientUnits="userSpaceOnUse">
<stop stop-color="#74DBFF"/>
<stop offset="0.1289" stop-color="#78CEFD"/>
<stop offset="0.3654" stop-color="#84ADF8"/>
<stop offset="0.681" stop-color="#9678F0"/>
<stop offset="0.6898" stop-color="#9776F0"/>
<stop offset="0.7642" stop-color="#8A6AF3"/>
<stop offset="0.9002" stop-color="#694AF9"/>
<stop offset="1" stop-color="#4D2FFF"/>
</linearGradient>
<linearGradient id="paint5_linear_71_2467" x1="237.095" y1="70.3268" x2="346.681" y2="260.25" gradientUnits="userSpaceOnUse">
<stop stop-color="#74DBFF"/>
<stop offset="0.1289" stop-color="#78CEFD"/>
<stop offset="0.3654" stop-color="#84ADF8"/>
<stop offset="0.681" stop-color="#9678F0"/>
<stop offset="0.6898" stop-color="#9776F0"/>
<stop offset="0.7642" stop-color="#8A6AF3"/>
<stop offset="0.9002" stop-color="#694AF9"/>
<stop offset="1" stop-color="#4D2FFF"/>
</linearGradient>
<linearGradient id="paint6_linear_71_2467" x1="162.728" y1="-20.4559" x2="272.313" y2="169.467" gradientUnits="userSpaceOnUse">
<stop stop-color="#74DBFF"/>
<stop offset="0.1289" stop-color="#78CEFD"/>
<stop offset="0.3654" stop-color="#84ADF8"/>
<stop offset="0.681" stop-color="#9678F0"/>
<stop offset="0.6898" stop-color="#9776F0"/>
<stop offset="0.7642" stop-color="#8A6AF3"/>
<stop offset="0.9002" stop-color="#694AF9"/>
<stop offset="1" stop-color="#4D2FFF"/>
</linearGradient>
<linearGradient id="paint7_linear_71_2467" x1="130.21" y1="-7.00263" x2="239.795" y2="182.921" gradientUnits="userSpaceOnUse">
<stop stop-color="#74DBFF"/>
<stop offset="0.1289" stop-color="#78CEFD"/>
<stop offset="0.3654" stop-color="#84ADF8"/>
<stop offset="0.681" stop-color="#9678F0"/>
<stop offset="0.6898" stop-color="#9776F0"/>
<stop offset="0.7642" stop-color="#8A6AF3"/>
<stop offset="0.9002" stop-color="#694AF9"/>
<stop offset="1" stop-color="#4D2FFF"/>
</linearGradient>
<linearGradient id="paint8_linear_71_2467" x1="92.4439" y1="41.2412" x2="202.029" y2="231.165" gradientUnits="userSpaceOnUse">
<stop stop-color="#DF697B"/>
<stop offset="1" stop-color="#BE2773"/>
</linearGradient>
<linearGradient id="paint9_linear_71_2467" x1="0" y1="235.614" x2="397.959" y2="235.614" gradientUnits="userSpaceOnUse">
<stop stop-color="#C6DFF2"/>
<stop offset="0.999" stop-color="#9BB7FC"/>
</linearGradient>
<linearGradient id="paint10_linear_71_2467" x1="225.096" y1="81.9484" x2="314.079" y2="236.166" gradientUnits="userSpaceOnUse">
<stop stop-color="#2A2277"/>
<stop offset="0.3028" stop-color="#2E2379"/>
<stop offset="0.5733" stop-color="#38247D"/>
<stop offset="0.8307" stop-color="#4B2786"/>
<stop offset="1" stop-color="#5B2A8D"/>
</linearGradient>
<linearGradient id="paint11_linear_71_2467" x1="230.198" y1="90.7803" x2="308.985" y2="227.326" gradientUnits="userSpaceOnUse">
<stop stop-color="#68ACFF"/>
<stop offset="0.2291" stop-color="#65A7FF"/>
<stop offset="0.4985" stop-color="#5B99FF"/>
<stop offset="0.787" stop-color="#4A81FF"/>
<stop offset="1" stop-color="#3B6BFF"/>
</linearGradient>
<linearGradient id="paint12_linear_71_2467" x1="195.579" y1="112.645" x2="343.676" y2="112.645" gradientUnits="userSpaceOnUse">
<stop stop-color="#3B6BFF"/>
<stop offset="0.213" stop-color="#4A81FF"/>
<stop offset="0.5015" stop-color="#5B99FF"/>
<stop offset="0.7709" stop-color="#65A7FF"/>
<stop offset="1" stop-color="#68ACFF"/>
</linearGradient>
<linearGradient id="paint13_linear_71_2467" x1="206.22" y1="127.648" x2="209.527" y2="127.648" gradientUnits="userSpaceOnUse">
<stop stop-color="#EFCF64"/>
<stop offset="1" stop-color="#E49174"/>
</linearGradient>
<linearGradient id="paint14_linear_71_2467" x1="213.392" y1="127.648" x2="216.699" y2="127.648" gradientUnits="userSpaceOnUse">
<stop stop-color="#DF697B"/>
<stop offset="1" stop-color="#BE2773"/>
</linearGradient>
<linearGradient id="paint15_linear_71_2467" x1="220.563" y1="127.648" x2="223.87" y2="127.648" gradientUnits="userSpaceOnUse">
<stop stop-color="#68ACFF"/>
<stop offset="0.2291" stop-color="#65A7FF"/>
<stop offset="0.4985" stop-color="#5B99FF"/>
<stop offset="0.787" stop-color="#4A81FF"/>
<stop offset="1" stop-color="#3B6BFF"/>
</linearGradient>
<linearGradient id="paint16_linear_71_2467" x1="252.272" y1="129.678" x2="286.523" y2="189.04" gradientUnits="userSpaceOnUse">
<stop stop-color="#68ACFF"/>
<stop offset="0.2291" stop-color="#65A7FF"/>
<stop offset="0.4985" stop-color="#5B99FF"/>
<stop offset="0.787" stop-color="#4A81FF"/>
<stop offset="1" stop-color="#3B6BFF"/>
</linearGradient>
<linearGradient id="paint17_linear_71_2467" x1="240.621" y1="170.463" x2="298.581" y2="270.914" gradientUnits="userSpaceOnUse">
<stop stop-color="#E5F0F8"/>
<stop offset="0.4148" stop-color="#C5DEF2"/>
<stop offset="0.999" stop-color="#9BB7FC"/>
</linearGradient>
<linearGradient id="paint18_linear_71_2467" x1="256.405" y1="218.024" x2="282.851" y2="218.024" gradientUnits="userSpaceOnUse">
<stop stop-color="#E5F0F8"/>
<stop offset="0.4148" stop-color="#C5DEF2"/>
<stop offset="0.999" stop-color="#9BB7FC"/>
</linearGradient>
<linearGradient id="paint19_linear_71_2467" x1="285.16" y1="39.3492" x2="296.341" y2="58.7268" gradientUnits="userSpaceOnUse">
<stop stop-color="#DF697B"/>
<stop offset="1" stop-color="#BE2773"/>
</linearGradient>
<linearGradient id="paint20_linear_71_2467" x1="378.577" y1="73.2069" x2="388.379" y2="73.2069" gradientUnits="userSpaceOnUse">
<stop stop-color="#EFCF64"/>
<stop offset="1" stop-color="#E49174"/>
</linearGradient>
<linearGradient id="paint21_linear_71_2467" x1="169.734" y1="93.5244" x2="179.536" y2="93.5244" gradientUnits="userSpaceOnUse">
<stop stop-color="#DF697B"/>
<stop offset="1" stop-color="#BE2773"/>
</linearGradient>
<linearGradient id="paint22_linear_71_2467" x1="200.216" y1="57.593" x2="207.115" y2="69.5498" gradientUnits="userSpaceOnUse">
<stop stop-color="#EFCF64"/>
<stop offset="1" stop-color="#E49174"/>
</linearGradient>
<linearGradient id="paint23_linear_71_2467" x1="331.461" y1="57.398" x2="342.448" y2="76.44" gradientUnits="userSpaceOnUse">
<stop stop-color="#DF697B"/>
<stop offset="1" stop-color="#BE2773"/>
</linearGradient>
<linearGradient id="paint24_linear_71_2467" x1="256.68" y1="73.3146" x2="264.577" y2="73.3146" gradientUnits="userSpaceOnUse">
<stop stop-color="#DF697B"/>
<stop offset="1" stop-color="#BE2773"/>
</linearGradient>
<linearGradient id="paint25_linear_71_2467" x1="251.021" y1="68.6231" x2="258.911" y2="82.2979" gradientUnits="userSpaceOnUse">
<stop stop-color="#EFCF64"/>
<stop offset="1" stop-color="#E49174"/>
</linearGradient>
<linearGradient id="paint26_linear_71_2467" x1="84.6862" y1="218.742" x2="155.095" y2="218.742" gradientUnits="userSpaceOnUse">
<stop stop-color="#2A2277"/>
<stop offset="0.3028" stop-color="#2E2379"/>
<stop offset="0.5733" stop-color="#38247D"/>
<stop offset="0.8307" stop-color="#4B2786"/>
<stop offset="1" stop-color="#5B2A8D"/>
</linearGradient>
<linearGradient id="paint27_linear_71_2467" x1="84.6862" y1="206.929" x2="155.095" y2="206.929" gradientUnits="userSpaceOnUse">
<stop stop-color="#5B2A8D"/>
<stop offset="0.1693" stop-color="#4B2786"/>
<stop offset="0.4267" stop-color="#38247D"/>
<stop offset="0.6972" stop-color="#2E2379"/>
<stop offset="1" stop-color="#2A2277"/>
</linearGradient>
<linearGradient id="paint28_linear_71_2467" x1="84.6862" y1="213.448" x2="155.095" y2="213.448" gradientUnits="userSpaceOnUse">
<stop stop-color="#5B2A8D"/>
<stop offset="0.1693" stop-color="#4B2786"/>
<stop offset="0.4267" stop-color="#38247D"/>
<stop offset="0.6972" stop-color="#2E2379"/>
<stop offset="1" stop-color="#2A2277"/>
</linearGradient>
<linearGradient id="paint29_linear_71_2467" x1="84.6862" y1="219.967" x2="155.095" y2="219.967" gradientUnits="userSpaceOnUse">
<stop stop-color="#5B2A8D"/>
<stop offset="0.1693" stop-color="#4B2786"/>
<stop offset="0.4267" stop-color="#38247D"/>
<stop offset="0.6972" stop-color="#2E2379"/>
<stop offset="1" stop-color="#2A2277"/>
</linearGradient>
<linearGradient id="paint30_linear_71_2467" x1="84.6862" y1="226.487" x2="155.095" y2="226.487" gradientUnits="userSpaceOnUse">
<stop stop-color="#5B2A8D"/>
<stop offset="0.1693" stop-color="#4B2786"/>
<stop offset="0.4267" stop-color="#38247D"/>
<stop offset="0.6972" stop-color="#2E2379"/>
<stop offset="1" stop-color="#2A2277"/>
</linearGradient>
<linearGradient id="paint31_linear_71_2467" x1="196.203" y1="184.725" x2="215.257" y2="184.725" gradientUnits="userSpaceOnUse">
<stop stop-color="#2A2277"/>
<stop offset="0.3028" stop-color="#2E2379"/>
<stop offset="0.5733" stop-color="#38247D"/>
<stop offset="0.8307" stop-color="#4B2786"/>
<stop offset="1" stop-color="#5B2A8D"/>
</linearGradient>
<linearGradient id="paint32_linear_71_2467" x1="205.729" y1="176.737" x2="205.729" y2="181.36" gradientUnits="userSpaceOnUse">
<stop stop-color="#5B2A8D"/>
<stop offset="0.1693" stop-color="#4B2786"/>
<stop offset="0.4267" stop-color="#38247D"/>
<stop offset="0.6972" stop-color="#2E2379"/>
<stop offset="1" stop-color="#2A2277"/>
</linearGradient>
<linearGradient id="paint33_linear_71_2467" x1="205.729" y1="187.182" x2="205.729" y2="191.806" gradientUnits="userSpaceOnUse">
<stop stop-color="#5B2A8D"/>
<stop offset="0.1693" stop-color="#4B2786"/>
<stop offset="0.4267" stop-color="#38247D"/>
<stop offset="0.6972" stop-color="#2E2379"/>
<stop offset="1" stop-color="#2A2277"/>
</linearGradient>
<linearGradient id="paint34_linear_71_2467" x1="205.729" y1="197.628" x2="205.729" y2="202.251" gradientUnits="userSpaceOnUse">
<stop stop-color="#5B2A8D"/>
<stop offset="0.1693" stop-color="#4B2786"/>
<stop offset="0.4267" stop-color="#38247D"/>
<stop offset="0.6972" stop-color="#2E2379"/>
<stop offset="1" stop-color="#2A2277"/>
</linearGradient>
<linearGradient id="paint35_linear_71_2467" x1="205.729" y1="208.073" x2="205.729" y2="212.697" gradientUnits="userSpaceOnUse">
<stop stop-color="#5B2A8D"/>
<stop offset="0.1693" stop-color="#4B2786"/>
<stop offset="0.4267" stop-color="#38247D"/>
<stop offset="0.6972" stop-color="#2E2379"/>
<stop offset="1" stop-color="#2A2277"/>
</linearGradient>
<linearGradient id="paint36_linear_71_2467" x1="144.748" y1="130.126" x2="216.626" y2="130.126" gradientUnits="userSpaceOnUse">
<stop stop-color="#C6DFF2"/>
<stop offset="0.999" stop-color="#9BB7FC"/>
</linearGradient>
<linearGradient id="paint37_linear_71_2467" x1="171.915" y1="92.3546" x2="171.915" y2="135.909" gradientUnits="userSpaceOnUse">
<stop stop-color="#C5DEF2"/>
<stop offset="0.999" stop-color="#9BB7FC"/>
</linearGradient>
<linearGradient id="paint38_linear_71_2467" x1="43.5779" y1="184.725" x2="24.5245" y2="184.725" gradientUnits="userSpaceOnUse">
<stop stop-color="#2A2277"/>
<stop offset="0.3028" stop-color="#2E2379"/>
<stop offset="0.5733" stop-color="#38247D"/>
<stop offset="0.8307" stop-color="#4B2786"/>
<stop offset="1" stop-color="#5B2A8D"/>
</linearGradient>
<linearGradient id="paint39_linear_71_2467" x1="34.051" y1="176.737" x2="34.051" y2="181.36" gradientUnits="userSpaceOnUse">
<stop stop-color="#5B2A8D"/>
<stop offset="0.1693" stop-color="#4B2786"/>
<stop offset="0.4267" stop-color="#38247D"/>
<stop offset="0.6972" stop-color="#2E2379"/>
<stop offset="1" stop-color="#2A2277"/>
</linearGradient>
<linearGradient id="paint40_linear_71_2467" x1="34.051" y1="187.182" x2="34.051" y2="191.806" gradientUnits="userSpaceOnUse">
<stop stop-color="#5B2A8D"/>
<stop offset="0.1693" stop-color="#4B2786"/>
<stop offset="0.4267" stop-color="#38247D"/>
<stop offset="0.6972" stop-color="#2E2379"/>
<stop offset="1" stop-color="#2A2277"/>
</linearGradient>
<linearGradient id="paint41_linear_71_2467" x1="34.051" y1="197.628" x2="34.051" y2="202.251" gradientUnits="userSpaceOnUse">
<stop stop-color="#5B2A8D"/>
<stop offset="0.1693" stop-color="#4B2786"/>
<stop offset="0.4267" stop-color="#38247D"/>
<stop offset="0.6972" stop-color="#2E2379"/>
<stop offset="1" stop-color="#2A2277"/>
</linearGradient>
<linearGradient id="paint42_linear_71_2467" x1="34.051" y1="208.073" x2="34.051" y2="212.697" gradientUnits="userSpaceOnUse">
<stop stop-color="#5B2A8D"/>
<stop offset="0.1693" stop-color="#4B2786"/>
<stop offset="0.4267" stop-color="#38247D"/>
<stop offset="0.6972" stop-color="#2E2379"/>
<stop offset="1" stop-color="#2A2277"/>
</linearGradient>
<linearGradient id="paint43_linear_71_2467" x1="45.138" y1="107.824" x2="71.2224" y2="153.031" gradientUnits="userSpaceOnUse">
<stop stop-color="#C5DEF2"/>
<stop offset="0.999" stop-color="#9BB7FC"/>
</linearGradient>
<linearGradient id="paint44_linear_71_2467" x1="56.9693" y1="95.2691" x2="78.7435" y2="133.006" gradientUnits="userSpaceOnUse">
<stop stop-color="#C5DEF2"/>
<stop offset="0.999" stop-color="#9BB7FC"/>
</linearGradient>
<linearGradient id="paint45_linear_71_2467" x1="56.8469" y1="142.385" x2="182.934" y2="142.385" gradientUnits="userSpaceOnUse">
<stop stop-color="#E5F0F8"/>
<stop offset="0.4148" stop-color="#C5DEF2"/>
<stop offset="0.999" stop-color="#9BB7FC"/>
</linearGradient>
<linearGradient id="paint46_linear_71_2467" x1="74.6536" y1="237.639" x2="165.12" y2="237.639" gradientUnits="userSpaceOnUse">
<stop stop-color="#C6DFF2"/>
<stop offset="0.999" stop-color="#9BB7FC"/>
</linearGradient>
<linearGradient id="paint47_linear_71_2467" x1="119.887" y1="36.4859" x2="119.887" y2="93.5169" gradientUnits="userSpaceOnUse">
<stop stop-color="#E5F0F8"/>
<stop offset="0.4148" stop-color="#C5DEF2"/>
<stop offset="0.999" stop-color="#9BB7FC"/>
</linearGradient>
<linearGradient id="paint48_linear_71_2467" x1="98.9082" y1="24.0643" x2="140.825" y2="96.7115" gradientUnits="userSpaceOnUse">
<stop stop-color="#E5F0F8"/>
<stop offset="0.4148" stop-color="#C5DEF2"/>
<stop offset="0.999" stop-color="#9BB7FC"/>
</linearGradient>
<linearGradient id="paint49_linear_71_2467" x1="119.886" y1="86.1245" x2="119.886" y2="51.7894" gradientUnits="userSpaceOnUse">
<stop stop-color="#E5F0F8"/>
<stop offset="0.4148" stop-color="#C5DEF2"/>
<stop offset="0.999" stop-color="#9BB7FC"/>
</linearGradient>
<linearGradient id="paint50_linear_71_2467" x1="146.109" y1="143.989" x2="146.109" y2="128.26" gradientUnits="userSpaceOnUse">
<stop stop-color="#E5F0F8"/>
<stop offset="0.4148" stop-color="#C5DEF2"/>
<stop offset="0.999" stop-color="#9BB7FC"/>
</linearGradient>
<linearGradient id="paint51_linear_71_2467" x1="115.478" y1="51.2706" x2="124.286" y2="36.0047" gradientUnits="userSpaceOnUse">
<stop stop-color="#E5F0F8"/>
<stop offset="0.4148" stop-color="#C5DEF2"/>
<stop offset="0.999" stop-color="#9BB7FC"/>
</linearGradient>
<linearGradient id="paint52_linear_71_2467" x1="119.886" y1="46.6485" x2="119.886" y2="40.6316" gradientUnits="userSpaceOnUse">
<stop stop-color="#E5F0F8"/>
<stop offset="0.4148" stop-color="#C5DEF2"/>
<stop offset="0.999" stop-color="#9BB7FC"/>
</linearGradient>
<linearGradient id="paint53_linear_71_2467" x1="128.034" y1="43.64" x2="131.378" y2="43.64" gradientUnits="userSpaceOnUse">
<stop stop-color="#E5F0F8"/>
<stop offset="0.4148" stop-color="#C5DEF2"/>
<stop offset="0.999" stop-color="#9BB7FC"/>
</linearGradient>
<linearGradient id="paint54_linear_71_2467" x1="107.925" y1="43.6398" x2="124.383" y2="43.6398" gradientUnits="userSpaceOnUse">
<stop stop-color="#E5F0F8"/>
<stop offset="0.4148" stop-color="#C5DEF2"/>
<stop offset="0.999" stop-color="#9BB7FC"/>
</linearGradient>
<linearGradient id="paint55_linear_71_2467" x1="119.887" y1="89.7219" x2="119.887" y2="87.7005" gradientUnits="userSpaceOnUse">
<stop stop-color="#E5F0F8"/>
<stop offset="0.4148" stop-color="#C5DEF2"/>
<stop offset="0.999" stop-color="#9BB7FC"/>
</linearGradient>
<linearGradient id="paint56_linear_71_2467" x1="119.887" y1="92.5838" x2="119.887" y2="90.5622" gradientUnits="userSpaceOnUse">
<stop stop-color="#E5F0F8"/>
<stop offset="0.4148" stop-color="#C5DEF2"/>
<stop offset="0.999" stop-color="#9BB7FC"/>
</linearGradient>
<linearGradient id="paint57_linear_71_2467" x1="119.887" y1="95.4455" x2="119.887" y2="93.4241" gradientUnits="userSpaceOnUse">
<stop stop-color="#E5F0F8"/>
<stop offset="0.4148" stop-color="#C5DEF2"/>
<stop offset="0.999" stop-color="#9BB7FC"/>
</linearGradient>
<clipPath id="clip0_71_2467">
<rect width="398" height="263" fill="white"/>
</clipPath>
</defs>
</svg>
