<svg width="43" height="34" viewBox="0 0 43 34" fill="none" xmlns="http://www.w3.org/2000/svg">
<g clip-path="url(#clip0_171_77)">
<path d="M43 33.0336C42.6635 33.7904 42.0913 34 41.306 34C32.2528 33.9767 23.1996 33.9884 14.1464 33.9884C13.047 33.9884 12.5982 33.511 12.5982 32.3699C12.5982 31.9507 12.6094 31.5315 12.587 31.1123C12.5758 30.9959 12.4748 30.8096 12.3739 30.7747C11.4652 30.3788 10.534 30.0062 9.53561 29.5986C9.21028 29.9479 8.82885 30.3788 8.43621 30.7863C7.83042 31.4034 7.11245 31.4034 6.50665 30.7863C5.36238 29.6103 4.22932 28.4342 3.09627 27.2466C2.5017 26.6178 2.5017 25.8726 3.09627 25.2438C3.46648 24.8479 3.8479 24.4637 4.21811 24.0678C4.24054 24.0445 4.24054 24.0212 4.21811 24.0562C3.83668 23.0548 3.47769 22.1 3.09627 21.1452C3.0514 21.0404 2.88312 20.9356 2.77094 20.924C2.29977 20.9007 1.81738 20.9123 1.3462 20.9123C0.527263 20.9007 0 20.3651 0 19.5267C0 17.85 0 16.1616 0 14.4733C0 13.6 0.527263 13.076 1.36864 13.076C1.81738 13.076 2.26611 13.0644 2.71485 13.076C2.93921 13.0877 3.0514 13.0178 3.14114 12.7849C3.45526 11.9349 3.80303 11.0966 4.16201 10.2582C4.25176 10.0486 4.25176 9.93219 4.0947 9.78082C3.73572 9.43151 3.38795 9.07055 3.0514 8.70959C2.52413 8.1274 2.52413 7.37055 3.06261 6.8C4.21811 5.5774 5.38482 4.36644 6.56274 3.16712C7.11245 2.60822 7.84164 2.61986 8.40256 3.17877C8.61571 3.38836 8.81764 3.60959 9.03079 3.83082C9.2215 4.04041 9.41221 4.25 9.55805 4.41301C10.5565 4.00548 11.4876 3.63288 12.4187 3.23699C12.5085 3.20205 12.5982 3.0274 12.6094 2.9226C12.6319 2.41027 12.6094 1.90959 12.6207 1.39726C12.6319 0.582192 13.1479 0.0349315 13.9444 0.0349315C20.6418 0 27.3504 0 34.0702 0C34.4965 0 34.8555 0.15137 35.1584 0.465753C37.6152 3.0274 40.0832 5.58904 42.5401 8.15069C42.7195 8.33699 42.8429 8.59315 43 8.81438C43 16.8836 43 24.9527 43 33.0336ZM40.4422 31.3568C40.4422 24.3705 40.4422 17.4192 40.4422 10.4562C38.4229 10.4562 36.4373 10.4562 34.4516 10.4562C33.3746 10.4562 32.9147 9.97877 32.9147 8.8726C32.9147 6.93973 32.9147 5.00685 32.9147 3.07397C32.9147 2.9226 32.9147 2.77123 32.9147 2.63151C28.6293 2.63151 24.4112 2.63151 20.1706 2.63151C20.1706 12.2144 20.1706 21.774 20.1706 31.3568C26.9465 31.3568 33.6775 31.3568 40.4422 31.3568ZM7.52752 28.05C7.8192 27.7473 8.1221 27.4096 8.44743 27.0836C9.03079 26.4897 9.55805 26.4082 10.2536 26.874C11.4091 27.6425 12.6543 28.1781 13.9893 28.4925C14.7858 28.6788 15.1224 29.1212 15.1224 29.9712C15.1224 30.4253 15.1224 30.8911 15.1224 31.3452C15.9974 31.3452 16.8051 31.3452 17.6241 31.3452C17.6241 29.5753 17.6241 27.8288 17.6241 26.0705C14.999 26.3849 12.6543 25.7212 10.6687 23.9397C8.6718 22.1582 7.62849 19.876 7.58362 17.1397C7.53874 14.6945 8.33525 12.5404 9.95069 10.7589C12.0149 8.48836 14.6063 7.58014 17.6128 7.91781C17.6128 6.14795 17.6128 4.38973 17.6128 2.64315C16.7715 2.64315 15.9525 2.64315 15.1224 2.64315C15.1224 3.14384 15.1224 3.59795 15.1224 4.0637C15.1111 4.83219 14.7746 5.30959 14.0566 5.4726C12.6768 5.79863 11.3979 6.35753 10.2087 7.13767C9.55805 7.56849 9.01957 7.48699 8.46987 6.92808C8.14453 6.59041 7.83042 6.25274 7.54996 5.96164C6.92173 6.60206 6.3496 7.19589 5.72137 7.84795C5.99061 8.10411 6.2935 8.38356 6.58518 8.67466C7.2695 9.38493 7.32559 9.87397 6.80955 10.724C6.10279 11.8767 5.60918 13.111 5.30629 14.4384C5.10436 15.3582 4.71171 15.6842 3.81424 15.6842C3.38795 15.6842 2.96165 15.6842 2.54657 15.6842C2.54657 16.5925 2.54657 17.4308 2.54657 18.3041C3.01774 18.3041 3.45526 18.3041 3.90399 18.3041C4.66684 18.3158 5.12679 18.6767 5.28385 19.4336C5.57553 20.8425 6.10279 22.1349 6.8432 23.3575C7.29194 24.1027 7.23585 24.6384 6.63006 25.2671C6.31594 25.5932 5.99061 25.8959 5.71015 26.1753C6.3496 26.8274 6.92173 27.4212 7.52752 28.05ZM17.6128 13.2623C17.6128 12.3541 17.6128 11.4808 17.6128 10.6192C15.3467 9.97877 12.587 11.1432 11.1623 13.3322C9.6478 15.661 9.72632 18.7116 11.3642 20.9473C13.1704 23.4158 16.0423 23.8466 17.6016 23.3575C17.6016 22.4842 17.6016 21.611 17.6016 20.726C15.7955 21.1918 14.3034 20.7493 13.2489 19.1658C12.3514 17.8151 12.3178 16.3363 13.1704 14.939C14.2137 13.2623 15.7506 12.7849 17.6128 13.2623ZM38.5687 7.84795C37.5142 6.75343 36.4821 5.68219 35.4613 4.61096C35.4613 5.6589 35.4613 6.73014 35.4613 7.82466C35.5622 7.82466 35.6408 7.8363 35.7305 7.8363C36.6728 7.84795 37.6264 7.84795 38.5687 7.84795ZM17.6353 16.9884C17.6353 16.2781 17.0631 15.6959 16.3788 15.6842C15.6945 15.6842 15.1224 16.2664 15.1111 16.9767C15.0999 17.6986 15.6945 18.3041 16.39 18.3041C17.0744 18.2925 17.6353 17.6986 17.6353 16.9884Z" fill="white"/>
<path d="M30.3566 13.076C32.4545 13.076 34.5523 13.0643 36.6501 13.076C37.6373 13.076 38.2431 14.0657 37.8168 14.9506C37.5588 15.4862 37.1101 15.6842 36.5379 15.6842C33.5314 15.6842 30.5249 15.6842 27.5184 15.6842C26.3853 15.6842 25.2523 15.6842 24.1192 15.6842C23.233 15.6842 22.6608 15.1602 22.672 14.3684C22.6833 13.5999 23.2554 13.076 24.108 13.076C26.1946 13.076 28.2812 13.076 30.3566 13.076Z" fill="white"/>
<path d="M30.3123 20.9239C28.2145 20.9239 26.1166 20.9239 24.0188 20.9239C22.9979 20.9239 22.3697 19.9458 22.8072 19.0492C23.0652 18.5136 23.514 18.3157 24.0861 18.3157C27.1936 18.3273 30.2899 18.3157 33.3973 18.3157C34.4294 18.3157 35.4615 18.3157 36.5048 18.3157C37.3911 18.3157 37.9632 18.8396 37.9632 19.6314C37.952 20.4232 37.3799 20.9239 36.4936 20.9239C34.4294 20.9239 32.3765 20.9239 30.3123 20.9239Z" fill="white"/>
<path d="M30.323 26.1522C28.2252 26.1522 26.1274 26.1522 24.0295 26.1522C23.0087 26.1522 22.3804 25.1741 22.8179 24.2775C23.076 23.7419 23.5247 23.5439 24.0968 23.5439C27.1707 23.5556 30.2445 23.5439 33.3183 23.5439C34.3953 23.5439 35.4723 23.5439 36.5492 23.5439C37.3906 23.5439 37.974 24.0796 37.9627 24.8597C37.9515 25.6398 37.3906 26.1522 36.5268 26.1522C34.4514 26.1522 32.3872 26.1522 30.323 26.1522Z" fill="white"/>
<path d="M26.5429 7.8479C27.3618 7.8479 28.192 7.8479 29.0109 7.8479C29.8299 7.8479 30.3908 8.38352 30.402 9.14037C30.4132 9.89722 29.8411 10.4561 29.0334 10.4561C27.373 10.4561 25.7127 10.4561 24.0524 10.4561C23.2447 10.4561 22.6725 9.89722 22.6838 9.14037C22.6838 8.38352 23.2559 7.8479 24.0748 7.8479C24.8938 7.8479 25.7127 7.8479 26.5429 7.8479Z" fill="white"/>
</g>
<defs>
<clipPath id="clip0_171_77">
<rect width="43" height="34" fill="white"/>
</clipPath>
</defs>
</svg>
