<svg width="516" height="344" viewBox="0 0 516 344" fill="none" xmlns="http://www.w3.org/2000/svg">
<path d="M-104.646 156.185C-96.5461 153.006 -92.4966 144.048 -95.1001 135.669C-97.7036 127.866 -105.514 122.954 -113.614 124.399L-116.796 124.977L-117.085 121.798C-117.664 115.73 -117.664 109.373 -117.085 103.016L-116.796 99.837L-113.614 100.415C-104.935 101.86 -96.5464 96.3694 -94.5215 87.4115C-92.7858 79.3206 -97.125 71.2296 -104.936 68.3399L-107.828 67.1841L-106.382 64.2944C-103.778 58.8041 -100.596 53.3138 -97.125 48.1125L-95.3892 45.5118L-93.075 47.5345C-86.1323 53.3138 -76.2968 52.4469 -70.2219 45.8008C-64.7256 39.7325 -64.4363 30.4857 -69.6433 24.1285L-71.6682 21.8168L-69.0647 20.083C-63.8577 16.6154 -58.6507 13.4368 -52.8651 10.8361L-49.9723 9.39132L-48.8152 12.281C-45.6331 20.6609 -36.6655 24.9954 -28.2764 22.3947C-20.4658 19.794 -15.548 11.992 -16.9944 3.90101L-17.573 0.722409L-14.3909 0.433446C-8.31598 -0.144482 -1.95184 -0.144482 4.12305 0.433446L7.30505 0.722409L6.72656 3.90101C5.28015 12.5699 10.7765 20.9499 19.7441 22.9726C27.844 24.7064 35.9438 20.3719 38.8365 12.5699L39.9937 9.68029L42.8865 11.1251C48.3828 13.7258 53.8792 16.9044 59.0862 20.3719L61.4004 22.3947L59.3754 24.7064C53.5898 31.6415 54.4576 41.4663 61.1111 47.5345C67.1859 53.0249 76.4428 53.3138 82.807 48.1125L85.1213 46.0897L86.8569 48.6904C90.3283 53.8917 93.5104 59.0931 96.1139 64.8724L97.5603 67.762L94.6675 68.9179C86.2784 72.0965 81.9392 81.0543 84.5427 89.4343C87.1462 97.2363 94.9568 102.149 103.057 100.704L106.239 100.126L106.528 103.305C107.107 109.373 107.107 115.73 106.528 122.087L106.239 125.266L103.057 124.688C94.3783 123.243 85.9891 128.733 83.9641 137.691C82.2284 145.782 86.8569 153.873 94.3782 156.763L97.271 157.919L95.8246 160.808C93.2211 166.299 90.039 171.789 86.5676 176.99L84.832 179.591L82.5178 177.568C75.5751 171.789 65.4503 172.656 59.6647 179.302C54.1684 185.37 53.8792 194.617 59.0862 200.974L61.1111 203.286L58.5076 205.02C53.3005 208.487 48.0934 211.666 42.3079 214.267L39.415 215.711L38.2581 212.822C35.076 204.442 26.1082 200.107 17.7191 202.708C10.7764 205.02 6.14795 211.666 6.14795 218.89H101.61C101.61 214.267 101.321 205.309 101.61 199.818L101.899 196.64L105.082 197.218C115.785 198.952 126.199 192.016 128.513 181.325C130.538 171.5 125.042 161.386 115.785 157.919L112.892 156.763L114.339 153.873C117.521 147.227 121.281 140.87 125.331 134.802L127.067 132.201L129.381 134.224C137.77 141.159 150.209 140.292 157.441 132.201C164.095 124.688 164.384 113.418 158.02 105.616L155.995 103.305L158.598 101.571C164.673 97.2363 171.037 93.7688 177.691 90.5901L180.583 89.1453L181.741 92.035C185.501 102.149 196.783 107.639 207.197 104.171C216.743 100.993 222.818 91.457 221.083 81.3433L220.504 78.1647L223.686 77.8757C230.918 77.2978 238.439 77.2978 245.961 77.8757L249.143 78.1647L248.564 81.3433C246.829 92.035 253.771 102.438 264.475 104.749C274.31 106.772 284.435 101.282 287.906 92.035L289.063 89.1453L291.956 90.5901C298.61 93.7688 304.974 97.5253 311.049 101.571L313.652 103.305L311.627 105.616C304.684 113.996 305.552 126.422 313.652 133.646C321.173 140.292 332.455 140.581 340.266 134.224L342.58 132.201L344.316 134.802C348.366 140.87 352.126 147.227 355.308 153.873L356.755 156.763L353.862 157.919C343.737 161.675 338.241 172.945 341.712 183.348C344.894 192.883 354.441 198.952 364.565 197.218L367.747 196.64L368.037 199.818C368.615 207.332 368.615 214.556 368.037 222.069L367.747 225.247L364.565 224.669C353.862 222.936 343.448 229.871 341.134 240.562C339.109 250.387 344.605 260.501 353.862 263.968L356.755 265.124L355.308 268.014C352.126 274.66 348.366 281.017 344.316 287.086L342.58 289.686L340.266 287.663C331.877 280.728 319.438 281.595 312.206 289.686C305.552 297.199 305.263 308.469 311.627 316.271L313.652 318.583L311.049 320.316C304.974 324.362 298.61 328.118 291.956 331.297L289.063 332.742L287.906 329.852C284.146 319.738 272.864 314.248 262.45 317.716C253.771 320.605 247.986 328.985 248.275 337.943H515.422V343.722H243.068L242.779 341.411C240.754 328.696 248.275 316.271 260.425 312.225C272.864 308.18 285.881 313.959 291.667 324.94C296.295 322.628 300.635 320.027 304.974 317.427C298.61 307.602 299.767 294.599 307.577 285.93C316.256 276.394 330.43 274.66 341.134 281.306C344.027 276.972 346.63 272.637 348.655 268.014C338.241 262.813 332.745 250.965 335.059 239.406C337.662 226.692 349.234 218.023 361.962 218.89C362.251 213.978 362.251 208.776 361.962 203.575C350.391 204.153 339.398 196.64 335.927 185.37C331.877 172.945 337.662 159.941 348.655 154.162C346.341 149.539 343.737 145.204 341.134 140.87C331.298 147.227 318.281 146.071 309.602 138.269C300.056 129.6 298.32 115.441 304.974 104.749C300.635 101.86 296.295 99.2591 291.667 97.2363C286.171 107.639 274.599 113.129 263.028 110.818C250.3 108.217 241.911 96.6584 242.489 83.944C237.282 83.655 232.365 83.655 227.158 83.944C227.736 95.5025 220.215 106.483 208.933 109.951C196.494 113.996 183.476 108.217 177.691 96.9474C173.062 99.2591 168.723 101.86 164.384 104.46C170.748 114.285 169.591 127.289 161.78 135.957C153.102 145.493 138.927 147.227 128.224 140.581C125.331 144.915 122.728 149.25 120.703 153.873C131.117 159.364 136.613 170.922 134.299 182.481C131.695 195.195 120.124 203.575 107.685 202.997C107.396 210.221 107.974 221.202 107.974 221.202V224.091H1.51953L1.23022 221.78C-0.505432 210.799 5.85867 200.107 16.562 196.64C26.9761 193.172 37.9688 197.796 43.1758 207.332C46.6471 205.598 50.1185 203.575 53.5898 201.552C48.3828 193.172 49.5399 182.192 56.1934 174.968C63.4254 166.877 75.575 165.432 84.5427 170.922C86.5677 167.743 88.5927 164.276 90.3284 160.808C81.65 156.185 77.0214 146.071 79.0464 136.535C81.3606 125.844 90.9068 118.62 101.61 118.909C101.899 114.863 101.899 111.107 101.61 107.061C91.7746 107.35 82.8071 100.993 79.625 91.457C76.1537 81.0543 80.7821 70.0737 90.3284 64.8724C88.5927 61.4048 86.5677 57.9372 84.5427 54.4697C76.1536 59.671 65.1609 58.8041 57.929 51.869C49.8291 44.6449 48.3827 32.7974 53.879 23.5505C50.697 21.5278 47.2256 19.5051 43.7543 17.7713C39.1258 26.4402 29.0011 31.0636 19.4548 29.0409C8.7515 26.7291 1.51941 17.1933 1.80872 6.50169C-2.24121 6.21272 -6.00183 6.21272 -10.0518 6.50169C-9.76245 16.3265 -16.1266 25.2843 -25.6729 28.4629C-36.0869 31.9305 -47.0795 27.3071 -52.2865 17.7713C-55.7579 19.5051 -59.2293 21.5278 -62.7007 23.5505C-57.4937 31.9305 -58.6508 42.9111 -65.3042 50.1352C-72.5362 58.2262 -84.6859 59.671 -93.6536 54.1807C-95.6785 57.3593 -97.7036 60.8269 -99.4392 64.2944C-90.7608 68.9179 -86.1323 79.0316 -88.1572 88.5674C-90.4714 99.2591 -100.018 106.483 -110.721 106.194C-111.01 110.24 -111.01 113.996 -110.721 118.042C-100.885 117.753 -91.9179 124.11 -88.7358 133.646C-84.9752 145.204 -91.0501 157.341 -102.332 161.386L-102.91 161.675H-284V155.896H-104.646V156.185Z" fill="url(#paint0_linear_28_3424)"/>
<path d="M212.693 141.448C250.878 129.311 291.955 150.117 304.105 188.26C310.18 206.754 308.444 226.403 299.477 243.741C290.509 261.079 275.466 273.793 256.953 279.572C249.721 281.884 242.199 283.04 234.678 283.04C223.396 283.04 212.114 280.439 201.7 274.949C184.343 265.991 171.615 250.965 165.829 232.471C153.39 194.617 174.508 153.873 212.693 141.448ZM171.326 231.027C176.822 248.075 188.683 261.946 204.593 270.037C220.503 278.128 238.728 279.572 255.506 274.082C272.574 268.592 286.459 256.744 294.559 240.851C302.659 224.958 304.105 206.754 298.609 189.994C289.641 161.675 263.027 143.759 234.967 143.759C228.314 143.759 221.371 144.915 214.428 146.938C179.426 158.208 160.044 196.062 171.326 231.027Z" fill="url(#paint1_linear_28_3424)"/>
<path d="M-26.2516 52.4469C-10.6305 47.5345 5.8584 48.6904 20.6117 56.2034C35.0756 63.7165 46.0683 76.4309 50.986 92.0349C61.4001 124.11 43.4648 158.786 11.3547 169.188C4.99057 171.211 -1.08426 172.078 -7.44841 172.078C-33.4836 172.078 -57.4938 155.607 -65.8829 129.6C-70.8007 113.996 -69.6436 97.5253 -62.1223 82.7881C-54.6011 68.3399 -41.8727 57.6483 -26.2516 52.4469ZM-60.3866 127.866C-51.1297 157.052 -19.5982 173.234 9.61907 163.698C38.8363 154.451 55.036 122.954 45.4897 93.7687C40.8612 79.6095 31.0257 68.0509 18.0082 61.4048C4.7013 54.7586 -10.3413 53.3138 -24.516 57.9372C-38.6907 62.5606 -50.2618 72.3854 -56.9152 85.3888C-63.858 98.6811 -65.0151 113.707 -60.3866 127.866Z" fill="url(#paint2_linear_28_3424)"/>
<defs>
<linearGradient id="paint0_linear_28_3424" x1="-26.4995" y1="-74.0001" x2="514.5" y2="490.5" gradientUnits="userSpaceOnUse">
<stop stop-color="#96D9FF"/>
<stop offset="1" stop-color="white" stop-opacity="0"/>
</linearGradient>
<linearGradient id="paint1_linear_28_3424" x1="209.101" y1="106.762" x2="380.075" y2="183.666" gradientUnits="userSpaceOnUse">
<stop stop-color="#96D9FF"/>
<stop offset="1" stop-color="white" stop-opacity="0"/>
</linearGradient>
<linearGradient id="paint2_linear_28_3424" x1="-29.2951" y1="23.0899" x2="115.123" y2="87.9898" gradientUnits="userSpaceOnUse">
<stop stop-color="#96D9FF"/>
<stop offset="1" stop-color="white" stop-opacity="0"/>
</linearGradient>
</defs>
</svg>
