<svg width="37" height="43" viewBox="0 0 37 43" fill="none" xmlns="http://www.w3.org/2000/svg">
<g clip-path="url(#clip0_171_152)">
<path d="M19.1066 17.6095C19.622 17.6095 20.0761 17.6095 20.5301 17.6095C20.9105 15.6829 21.9659 14.6766 23.5612 14.6889C25.1196 14.7012 26.1872 15.7688 26.494 17.6218C27.5984 17.6218 28.7151 17.6218 29.8318 17.6218C30.6418 17.6218 30.8995 17.8549 30.8626 18.6525C30.6295 23.4138 28.4452 27.0094 24.2729 29.3287C23.598 29.7091 23.3771 30.0895 23.5734 30.838C23.7943 30.838 24.052 30.8258 24.2974 30.838C25.4755 30.8748 26.4081 31.7952 26.4449 32.9855C26.4572 33.4887 26.4572 33.9918 26.4449 34.4949C26.4204 35.7589 25.4878 36.6915 24.2238 36.716C24.0029 36.716 23.7698 36.716 23.4998 36.716C23.4998 37.4278 23.4998 38.1027 23.4998 38.7653C23.4875 40.9987 21.9168 42.5818 19.6834 42.594C18.7508 42.594 17.8182 42.6063 16.8855 42.594C14.8239 42.5695 13.2409 40.9742 13.2164 38.9003C13.2041 38.2009 13.2164 37.4891 13.2164 36.716C12.971 36.716 12.7255 36.716 12.4924 36.716C11.2284 36.6915 10.2958 35.7589 10.2835 34.4949C10.2713 34.0409 10.2835 33.5746 10.2835 33.1205C10.2958 31.7829 11.2284 30.8503 12.5783 30.838C12.7746 30.838 12.971 30.838 13.2287 30.838C13.2287 30.5067 13.2532 30.1999 13.2164 29.9054C13.1918 29.7827 13.0446 29.6354 12.9096 29.5741C9.24046 27.6966 6.97025 24.7514 6.12353 20.7264C4.7614 14.1735 9.19137 7.44877 15.7443 6.14801C16.5665 5.98848 17.4132 5.92712 18.2477 5.86576C18.8121 5.82895 19.0944 6.13573 19.0944 6.70022C19.1067 8.07461 19.0944 9.46128 19.0944 10.8357C19.0944 11.7192 18.7876 11.9646 17.9286 11.7683C17.1187 11.5965 16.3088 12.1242 16.1615 12.9095C16.0143 13.7317 16.5297 14.5171 17.3518 14.6398C17.585 14.6766 17.8427 14.6275 18.0759 14.5784C18.7262 14.4557 19.0944 14.738 19.0944 15.3884C19.1067 16.1369 19.1066 16.8609 19.1066 17.6095ZM22.0395 30.8626C22.0395 30.384 22.0641 29.9545 22.0395 29.5373C22.0027 28.9973 22.2236 28.6905 22.7267 28.4819C24.7883 27.6107 26.4204 26.224 27.6353 24.3465C28.6538 22.7635 29.2305 21.0332 29.3655 19.1066C29.1815 19.1066 29.0342 19.1066 28.8869 19.1066C27.8439 19.1066 26.8008 19.1066 25.77 19.1066C25.046 19.1066 24.776 18.7384 24.9233 18.039C25.0828 17.3272 24.8742 16.7505 24.3343 16.3823C23.8434 16.0633 23.1685 16.0633 22.6899 16.4069C22.1745 16.775 21.9659 17.3518 22.1254 18.0267C22.2849 18.7507 22.0027 19.1066 21.2541 19.1066C20.5547 19.1066 19.8552 19.1066 19.1435 19.1066C19.1435 19.622 19.1435 20.0883 19.1435 20.5546C20.8492 20.7632 21.9536 21.8186 22.0518 23.3157C22.1009 24.0274 21.9045 24.6778 21.4873 25.2546C20.9105 26.0522 20.0884 26.3958 19.1557 26.4817C19.1557 27.9665 19.1557 29.4023 19.1557 30.8748C20.0025 30.8748 20.8124 30.8748 21.6223 30.8748C21.7327 30.8626 21.8554 30.8626 22.0395 30.8626ZM17.6341 19.1311C17.1064 19.1311 16.6401 19.1311 16.1861 19.1311C15.9897 20.8123 14.9467 21.9167 13.4741 22.0272C12.7746 22.0885 12.1365 21.9045 11.5597 21.5118C10.7253 20.935 10.3449 20.1006 10.259 19.1311C9.27727 19.1311 8.33237 19.1311 7.25249 19.1311C7.53473 20.211 7.70653 21.2541 8.0624 22.2358C9.15456 25.1564 11.1671 27.2425 14.0386 28.4942C14.5049 28.7028 14.7258 28.9973 14.7012 29.5127C14.6767 29.9545 14.7012 30.384 14.7012 30.8258C15.7075 30.8258 16.6646 30.8258 17.6464 30.8258C17.6464 29.1323 17.6464 27.4634 17.6464 25.7945C17.6464 25.0337 17.99 24.7514 18.714 24.911C19.4134 25.0705 20.0025 24.8496 20.3583 24.3097C20.6774 23.8188 20.6651 23.1439 20.3338 22.6653C19.9656 22.1499 19.4012 21.9536 18.714 22.1008C18.0145 22.2603 17.6464 21.9781 17.6464 21.2664C17.6341 20.5669 17.6341 19.8674 17.6341 19.1311ZM17.6095 7.38742C11.7929 7.76783 7.60836 12.6028 7.39975 17.634C8.52872 17.634 9.65768 17.634 10.7867 17.634C11.7438 17.634 11.9647 17.904 11.7806 18.8243C11.6579 19.4011 11.9156 20.0147 12.4065 20.346C12.8851 20.6651 13.5723 20.6651 14.0508 20.3337C14.5417 19.9901 14.7871 19.4011 14.6521 18.8121C14.4681 17.9163 14.7012 17.634 15.6216 17.634C16.2842 17.634 16.9469 17.634 17.6095 17.634C17.6095 17.1064 17.6095 16.6523 17.6095 16.1983C15.8056 15.9283 14.7258 14.8484 14.689 13.3145C14.6521 11.6947 15.6707 10.6148 17.6095 10.2466C17.6095 9.30175 17.6095 8.35686 17.6095 7.38742ZM18.3704 32.3351C16.456 32.3351 14.5417 32.3351 12.6274 32.3351C12.0261 32.3351 11.7684 32.6051 11.7561 33.2064C11.7561 33.5868 11.7561 33.9672 11.7561 34.3599C11.7561 35.0226 12.0138 35.2803 12.6764 35.2803C13.6827 35.2803 14.7012 35.2803 15.7075 35.2803C18.4931 35.2803 21.2787 35.2803 24.0643 35.2803C24.7269 35.2803 24.9724 35.0226 24.9846 34.3599C24.9846 34.0041 24.9846 33.6605 24.9846 33.3046C24.9846 32.5806 24.7392 32.3474 24.0152 32.3351C22.1377 32.3229 20.2479 32.3351 18.3704 32.3351ZM17.6341 36.7651C17.6341 37.5014 17.6464 38.2009 17.6341 38.9003C17.6218 39.4157 17.2169 39.7716 16.7628 39.6612C16.3456 39.563 16.1615 39.2807 16.1615 38.8512C16.1615 38.1518 16.1615 37.4523 16.1615 36.7651C15.6461 36.7651 15.1921 36.7651 14.689 36.7651C14.689 37.5137 14.6767 38.25 14.689 38.974C14.7135 40.1766 15.6461 41.1215 16.8487 41.146C17.8427 41.1583 18.8367 41.1583 19.8307 41.146C20.9228 41.1337 21.8554 40.3974 21.9782 39.3176C22.0763 38.4831 22.0027 37.6241 22.0027 36.7651C21.5118 36.7651 21.0455 36.7651 20.5669 36.7651C20.5669 37.44 20.5669 38.0782 20.5669 38.7285C20.5669 39.3421 20.2847 39.6857 19.8184 39.6734C19.3643 39.6612 19.1066 39.3298 19.1066 38.7408C19.1066 38.0904 19.1066 37.4278 19.1066 36.7528C18.6035 36.7651 18.1495 36.7651 17.6341 36.7651Z" fill="#FFE500"/>
<path d="M23.5121 10.3205C21.6468 10.0014 20.5915 8.9338 20.5792 7.38761C20.5669 5.79233 21.5855 4.72472 23.5121 4.35658C23.5121 3.25215 23.5121 2.13546 23.5121 1.01876C23.5121 0.208848 23.7452 -0.0120374 24.5551 0.000233959C30.7276 0.0861337 36.0902 5.0315 36.6547 11.1672C36.6915 11.5599 36.7284 11.9648 36.7284 12.3575C36.7406 12.9343 36.4584 13.2165 35.9062 13.2288C34.4581 13.2411 32.9979 13.2411 31.5498 13.2288C30.9485 13.2288 30.6908 12.8606 30.7645 12.2593C30.8135 11.9157 30.8504 11.5476 30.7522 11.2286C30.5436 10.5168 29.7459 10.1241 29.0219 10.3205C28.2856 10.5168 27.8071 11.2776 27.9543 12.0139C28.1384 12.9834 27.9298 13.2288 26.9481 13.2288C26.1013 13.2288 25.2669 13.2288 24.4202 13.2288C23.7943 13.2288 23.5243 12.9711 23.5243 12.333C23.5121 11.6581 23.5121 10.9831 23.5121 10.3205ZM26.4081 11.7317C26.7517 9.82961 27.8316 8.79882 29.4269 8.81109C30.9853 8.82336 32.0652 9.90324 32.3597 11.7439C32.8261 11.7439 33.2924 11.7439 33.771 11.7439C34.2495 11.7439 34.7404 11.7439 35.219 11.7439C34.9367 6.33227 30.2736 1.68141 24.9724 1.50961C24.9724 1.65687 24.9724 1.80413 24.9724 1.95138C24.9724 2.98218 24.9724 4.00071 24.9724 5.0315C24.9724 5.84141 24.641 6.09911 23.8311 5.91504C23.2053 5.78006 22.604 6.00094 22.2604 6.51634C21.9291 6.99492 21.9291 7.66985 22.2604 8.16071C22.604 8.66383 23.2053 8.89699 23.8311 8.762C24.6533 8.57793 24.9724 8.83563 24.9724 9.68236C24.9724 10.3696 24.9724 11.0445 24.9724 11.7317C25.5 11.7317 25.9541 11.7317 26.4081 11.7317Z" fill="#FFE500"/>
<path d="M19.1072 2.20885C19.1072 2.68743 19.1195 3.15375 19.1072 3.63233C19.0949 4.09864 18.7881 4.40543 18.3709 4.40543C17.9537 4.40543 17.6469 4.09864 17.6469 3.62006C17.6346 2.67516 17.6346 1.71799 17.6469 0.773097C17.6469 0.306785 17.966 0 18.3832 0C18.8004 0 19.0949 0.306785 19.1072 0.785369C19.1072 1.25168 19.1072 1.73027 19.1072 2.20885Z" fill="#FFE500"/>
<path d="M2.22146 19.1068C1.74288 19.1068 1.27657 19.119 0.797982 19.1068C0.307127 19.0945 -0.0119295 18.7754 0.000341892 18.3459C0.0126133 17.9287 0.319398 17.6465 0.797982 17.6342C1.73061 17.6219 2.66323 17.6219 3.59586 17.6342C4.07444 17.6342 4.38123 17.9287 4.3935 18.3459C4.40577 18.7754 4.08671 19.0945 3.59586 19.0945C3.14182 19.1068 2.68778 19.1068 2.22146 19.1068Z" fill="#FFE500"/>
<path d="M34.5073 19.1067C34.0533 19.1067 33.587 19.119 33.1329 19.1067C32.6544 19.0944 32.3476 18.8122 32.3353 18.395C32.323 17.9655 32.6421 17.6464 33.1329 17.6464C34.0656 17.6341 34.9982 17.6341 35.9308 17.6464C36.4094 17.6464 36.7162 17.9409 36.7285 18.3582C36.7407 18.7876 36.4217 19.1067 35.9308 19.1067C35.4645 19.1067 34.9859 19.1067 34.5073 19.1067Z" fill="#FFE500"/>
<path d="M6.35739 10.8603C6.36966 11.523 5.85426 11.9279 5.40022 11.6825C4.4676 11.1917 3.55951 10.664 2.6637 10.1118C2.3201 9.90316 2.28329 9.52274 2.4919 9.17915C2.70052 8.83555 3.03184 8.70056 3.39998 8.8969C4.2958 9.38776 5.19161 9.89089 6.06288 10.4308C6.21013 10.529 6.29603 10.7744 6.35739 10.8603Z" fill="#FFE500"/>
<path d="M6.36973 25.8804C6.2961 25.9786 6.18566 26.2363 5.98932 26.359C5.17941 26.8621 4.33268 27.3407 3.49823 27.807C3.081 28.0402 2.67605 27.9174 2.46743 27.5616C2.25882 27.1934 2.36926 26.7885 2.77422 26.543C3.5964 26.0522 4.43085 25.5613 5.26531 25.1073C5.79298 24.8005 6.36973 25.1441 6.36973 25.8804Z" fill="#FFE500"/>
<path d="M30.9853 24.8987C31.2553 25.0091 31.4148 25.0582 31.5621 25.1441C32.3475 25.5859 33.1205 26.0277 33.9059 26.4817C34.36 26.7517 34.4949 27.1689 34.2618 27.5616C34.0409 27.9297 33.6359 28.0156 33.1819 27.7702C32.372 27.3161 31.5744 26.8376 30.7644 26.3712C30.4086 26.1626 30.249 25.8436 30.4086 25.4877C30.5313 25.2546 30.8013 25.0828 30.9853 24.8987Z" fill="#FFE500"/>
<path d="M11.8305 5.73094C11.6464 5.92728 11.4869 6.19725 11.266 6.30769C10.9347 6.46722 10.5911 6.3445 10.3947 6.01318C10.002 5.36279 9.62163 4.68787 9.24121 4.02521C9.10623 3.80433 8.95897 3.58344 8.87307 3.33802C8.72581 2.98214 8.84853 2.66309 9.17986 2.46675C9.48664 2.28268 9.86705 2.28268 10.0511 2.57719C10.6402 3.52209 11.1801 4.5038 11.7323 5.47324C11.7568 5.52232 11.7568 5.59595 11.7568 5.65731C11.7814 5.68185 11.8059 5.70639 11.8305 5.73094Z" fill="#FFE500"/>
</g>
<defs>
<clipPath id="clip0_171_152">
<rect width="36.7405" height="42.6185" fill="white"/>
</clipPath>
</defs>
</svg>
