<svg width="117" height="117" viewBox="0 0 117 117" fill="none" xmlns="http://www.w3.org/2000/svg">
<path d="M2.84774 58.4105L2.84785 58.4105L12.9232 60.1693L13.6806 60.3016L13.7474 61.0675C14.1698 65.9051 15.371 70.5735 17.243 74.924L17.5641 75.6704L16.8993 76.1375L8.17749 82.2657L8.17741 82.2658C7.16979 82.9736 6.92634 84.3668 7.63425 85.3746C7.63428 85.3747 7.63429 85.3747 7.63432 85.3747L15.9749 97.245L15.975 97.2451C16.6828 98.2527 18.076 98.4962 19.0838 97.7882C19.0839 97.7882 19.0839 97.7882 19.0839 97.7882L28.1869 91.3922L28.822 90.946L29.4118 91.4506C32.8583 94.399 36.7737 96.8533 41.0685 98.6751L41.7997 98.9852L41.6631 99.7677L39.7209 110.89C39.5091 112.106 40.3212 113.261 41.5348 113.473L41.5351 113.473L55.8275 115.967C57.0435 116.179 58.199 115.367 58.4104 114.153L58.4105 114.153L60.3527 103.031L60.4893 102.248L61.2826 102.204C65.9382 101.947 70.4531 100.965 74.6977 99.36L75.4235 99.0855L75.8696 99.7204L82.2656 108.823L82.2657 108.824C82.9735 109.831 84.3667 110.075 85.3746 109.367C85.3746 109.367 85.3746 109.367 85.3747 109.367L97.2449 101.026L97.245 101.026C98.2527 100.318 98.4961 98.925 97.7882 97.9171C97.7882 97.9171 97.7881 97.9171 97.7881 97.917L91.66 89.1953L91.1926 88.5302L91.7483 87.9368C94.9843 84.4813 97.696 80.4951 99.7351 76.0865L100.058 75.3891L100.815 75.5212L110.89 77.28C110.89 77.28 110.89 77.28 110.89 77.2801C112.106 77.4917 113.261 76.6796 113.473 75.4661L113.473 75.4658L115.967 61.1734C116.179 59.9575 115.367 58.802 114.153 58.5906L114.153 58.5905L104.729 56.945L103.921 56.8039L103.901 55.9837C103.779 50.8247 102.771 45.8214 101.003 41.1502L100.728 40.4244L101.363 39.9781L108.823 34.7354L108.823 34.7353C109.831 34.0274 110.075 32.6342 109.367 31.6264C109.367 31.6264 109.367 31.6263 109.367 31.6263L101.026 19.756L101.026 19.7559C100.318 18.7483 98.925 18.5049 97.9171 19.2127C97.9171 19.2127 97.917 19.2128 97.917 19.2128L90.8383 24.1877L90.1734 24.655L89.58 24.0996C85.7842 20.5469 81.3518 17.6229 76.4222 15.5321L75.6909 15.2219L75.8276 14.4393L77.2824 6.1137L2.84774 58.4105ZM2.84774 58.4105C1.63519 58.199 0.822136 57.0424 1.0336 55.8302L3.53068 41.5378L3.53076 41.5373C3.74216 40.3238 4.89745 39.5118 6.11324 39.7234C6.11337 39.7234 6.11349 39.7234 6.11362 39.7234L15.5372 41.3688L16.3456 41.51L16.6418 40.7446C18.5037 35.9329 21.1492 31.5669 24.397 27.7714L24.9018 27.1815L24.4554 26.5462L19.2128 19.0864C19.2127 19.0863 19.2127 19.0863 19.2126 19.0862C18.5048 18.0784 18.7483 16.6852 19.7558 15.9774L19.7559 15.9774L31.6262 7.6368C31.6263 7.63678 31.6263 7.63676 31.6263 7.63674C32.6342 6.92882 34.0274 7.17227 34.7352 8.17988L34.7353 8.18005L39.7103 15.2589L40.1775 15.9237L40.9239 15.6023C45.6996 13.5462 50.8611 12.2956 56.208 12.0006L57.0012 11.9568L57.138 11.1742L58.5928 2.84808L58.5929 2.84758M2.84774 58.4105L58.5929 2.84758M75.4685 3.53083L75.468 3.53075L61.1758 1.03371L75.4685 3.53083ZM75.4685 3.53083C76.6819 3.74222 77.494 4.89744 77.2824 6.1132L75.4685 3.53083ZM58.5929 2.84758C58.8043 1.63418 59.9595 0.822098 61.1753 1.03362L58.5929 2.84758ZM85.6872 63.2494C88.2962 48.3114 78.3033 34.0868 63.3651 31.4778C48.4271 28.8688 34.2026 38.8642 31.5935 53.7998C28.9845 68.7379 38.9774 82.9624 53.9156 85.5715C68.8536 88.1805 83.0782 78.1876 85.6872 63.2494Z" stroke="url(#paint0_linear_24_1215)" stroke-width="2"/>
<defs>
<linearGradient id="paint0_linear_24_1215" x1="58.5005" y1="117.001" x2="58.5005" y2="-2.28882e-05" gradientUnits="userSpaceOnUse">
<stop stop-color="#3DC7AE"/>
<stop offset="1" stop-color="white" stop-opacity="0"/>
</linearGradient>
</defs>
</svg>
