<svg width="171" height="171" viewBox="0 0 171 171" fill="none" xmlns="http://www.w3.org/2000/svg">
<path d="M151.368 89.2923L151.435 88.5264L152.192 88.3942L166.918 85.8236L167.09 86.8087L166.918 85.8235C168.941 85.4706 170.298 83.5412 169.945 81.5184L166.295 60.6294L166.295 60.6289C165.942 58.6037 164.014 57.2493 161.987 57.6024C161.987 57.6024 161.986 57.6024 161.986 57.6024L148.213 60.0072L147.405 60.1484L147.109 59.383C144.368 52.3008 140.475 45.8748 135.694 40.2887L135.19 39.6988L135.636 39.0636L143.298 28.1607C144.48 26.4792 144.074 24.155 142.392 22.9739L142.967 22.1556L142.392 22.9738L125.043 10.7838C123.362 9.60254 121.038 10.0085 119.857 11.6899L119.856 11.69L112.585 22.036L112.118 22.7008L111.372 22.3795C104.343 19.3534 96.7466 17.5126 88.8764 17.0785L88.0831 17.0347L87.9464 16.2521L85.8201 4.08313L85.82 4.08264C85.4672 2.05731 83.5389 0.702881 81.5112 1.05614L60.6224 4.70567L60.6219 4.70576C58.5967 5.05856 57.2424 6.98659 57.5953 9.0141C57.5953 9.01427 57.5954 9.01442 57.5954 9.01459L59.7216 21.183L59.8584 21.9656L59.127 22.2758C51.8712 25.3531 45.3477 29.6568 39.7613 34.8854L39.1679 35.4408L38.5029 34.9735L28.1572 27.7025C28.1571 27.7025 28.1571 27.7025 28.157 27.7024C26.4755 26.5213 24.1515 26.9274 22.9704 28.6086L22.1521 28.0338L22.9703 28.6087L10.7803 45.9576C10.7803 45.9576 10.7802 45.9576 10.7802 45.9577C9.59906 47.6392 10.0051 49.9633 11.6864 51.1444L11.6865 51.1445L22.5896 58.807L23.2246 59.2532L22.9499 59.9791C20.3479 66.8539 18.8648 74.2179 18.6841 81.8111L18.6646 82.6313L17.8564 82.7724L4.08304 85.1773L4.08266 85.1774C2.05744 85.5302 0.703052 87.4583 1.0561 89.4859C1.05612 89.486 1.05614 89.4861 1.05616 89.4862L4.7022 110.375L4.70226 110.375C5.05507 112.401 6.98318 113.755 9.01075 113.402C9.01087 113.402 9.01098 113.402 9.01109 113.402L23.7362 110.831L24.4932 110.699L24.8158 111.397C27.817 117.885 31.8081 123.752 36.5708 128.838L37.1264 129.431L36.6591 130.097L27.7026 142.844C27.7025 142.844 27.7025 142.844 27.7025 142.844C26.5213 144.525 26.9274 146.849 28.6087 148.031L28.6087 148.031L45.9576 160.221C45.9576 160.221 45.9577 160.221 45.9577 160.221C47.6392 161.402 49.9633 160.996 51.1444 159.315L51.1445 159.314L60.4925 146.01L60.9386 145.375L61.6644 145.65C67.9112 148.012 74.5562 149.457 81.4088 149.836L82.2021 149.879L82.3387 150.662L85.1773 166.918L85.1774 166.918C85.5302 168.943 87.4583 170.298 89.4859 169.945C89.486 169.945 89.4861 169.945 89.4862 169.945L110.375 166.299L110.376 166.299C112.401 165.946 113.755 164.018 113.402 161.99L110.563 145.734L110.427 144.952L111.158 144.642C117.479 141.96 123.242 138.348 128.314 134.009L128.904 133.504L129.539 133.95L142.844 143.298C144.525 144.48 146.849 144.074 148.031 142.392L148.849 142.967L148.031 142.392L160.221 125.043C161.402 123.362 160.996 121.038 159.315 119.857L159.889 119.038L159.314 119.856L146.567 110.9L145.902 110.433L146.224 109.686C148.979 103.284 150.747 96.4127 151.368 89.2923ZM46.2207 92.3617C42.4514 70.7804 56.8885 50.2298 78.4699 46.4605C100.051 42.6912 120.602 57.1318 124.371 78.7097C128.14 100.291 113.703 120.842 92.122 124.611C70.5406 128.38 49.9901 113.943 46.2207 92.3617Z" stroke="url(#paint0_linear_24_1213)" stroke-width="2"/>
<defs>
<linearGradient id="paint0_linear_24_1213" x1="85.5004" y1="171.001" x2="85.5004" y2="-1.52588e-05" gradientUnits="userSpaceOnUse">
<stop stop-color="#3DC7AE"/>
<stop offset="1" stop-color="white" stop-opacity="0"/>
</linearGradient>
</defs>
</svg>
