<svg width="26" height="24" viewBox="0 0 26 24" fill="none" xmlns="http://www.w3.org/2000/svg">
<path d="M20.7578 2.45001C21.1168 2.52055 21.4086 2.78153 21.5187 3.13048L23.2335 8.56802L25.0789 13.9626C25.1973 14.3088 25.1172 14.6921 24.87 14.9618L21.0184 19.1657L17.2692 23.4612C17.0286 23.7368 16.6567 23.8591 16.2994 23.7799L10.733 22.5462L5.13841 21.4471C4.77939 21.3765 4.48755 21.1155 4.3775 20.7666L2.66266 15.329L0.817285 9.93442C0.69886 9.58822 0.778963 9.20499 1.02614 8.93521L4.87776 4.73135L8.62696 0.435895C8.86756 0.160239 9.2395 0.037993 9.59672 0.117163L15.1632 1.35084L20.7578 2.45001Z" fill="url(#paint0_linear_35_3449)"/>
<defs>
<linearGradient id="paint0_linear_35_3449" x1="21.3402" y1="2.56443" x2="4.55602" y2="21.3326" gradientUnits="userSpaceOnUse">
<stop stop-color="#2C82D2"/>
<stop offset="1" stop-color="#F8E8FF"/>
</linearGradient>
</defs>
</svg>
