<svg width="43" height="42" viewBox="0 0 43 42" fill="none" xmlns="http://www.w3.org/2000/svg">
<path d="M35.668 4.47578C36.027 4.54632 36.3189 4.80731 36.4289 5.15626L39.5161 14.9453L42.8383 24.6572C42.9567 25.0034 42.8766 25.3866 42.6294 25.6564L35.6954 33.2245L28.9458 40.9575C28.7052 41.2332 28.3333 41.3554 27.9761 41.2763L17.9549 39.0553L7.88307 37.0765C7.52405 37.006 7.23221 36.745 7.12216 36.396L4.03498 26.6069L0.712782 16.8951C0.594358 16.5489 0.674458 16.1657 0.921633 15.8959L7.85563 8.32777L14.6052 0.594742C14.8458 0.319085 15.2178 0.19684 15.575 0.27601L25.5962 2.49697L35.668 4.47578Z" fill="url(#paint0_linear_35_3451)"/>
<defs>
<linearGradient id="paint0_linear_35_3451" x1="36.2504" y1="4.59021" x2="7.30068" y2="36.9621" gradientUnits="userSpaceOnUse">
<stop stop-color="#D744BF"/>
<stop offset="1" stop-color="#F8E8FF"/>
</linearGradient>
</defs>
</svg>
