<svg width="491" height="491" viewBox="0 0 491 491" fill="none" xmlns="http://www.w3.org/2000/svg">
<path d="M233.519 75.7598L232.751 75.7914L232.523 75.0571L221.195 38.5747C219.385 32.7418 213.18 29.4752 207.348 31.2855L155.595 47.3626L155.595 47.3627C149.755 49.1739 146.495 55.3764 148.307 61.219C148.307 61.2191 148.307 61.2192 148.307 61.2193L158.904 95.3425L159.147 96.1263L158.426 96.5179C141.213 105.864 126.06 117.944 113.349 132.013L112.828 132.589L112.141 132.227L82.0027 116.37C76.5944 113.525 69.8957 115.606 67.0517 121.014L66.1666 120.549L67.0516 121.014L41.825 168.97C38.9808 174.378 41.0614 181.077 46.4694 183.921L46.0039 184.806L46.4696 183.921L75.0683 198.969L75.7874 199.347L75.5641 200.129C70.1425 219.103 67.9391 239.142 69.4246 259.418L69.4826 260.21L68.7239 260.446L38.5758 269.812L38.5753 269.812C32.735 271.624 29.4758 277.826 31.2877 283.669L47.3647 335.421L47.3648 335.421C49.1761 341.262 55.3788 344.521 61.2215 342.709L91.369 333.343L92.1277 333.107L92.5289 333.793C102.794 351.339 115.955 366.606 131.17 379.17L131.797 379.687L131.418 380.406L116.371 409.005C113.526 414.413 115.607 421.112 121.015 423.956L120.55 424.841L121.015 423.956L168.971 449.182C174.379 452.027 181.078 449.946 183.922 444.538L184.804 445.002L183.922 444.538L199.78 414.399L200.141 413.712L200.896 413.892C219.339 418.28 238.665 419.645 258.147 417.602L258.963 417.517L259.206 418.3L269.803 452.424L269.803 452.424C271.614 458.264 277.817 461.524 283.66 459.712C283.66 459.712 283.66 459.712 283.66 459.712L335.413 443.644L335.413 443.644C341.254 441.832 344.513 435.63 342.701 429.787L331.373 393.305L331.145 392.571L331.796 392.162C347.404 382.345 361.094 370.201 372.532 356.341L373.049 355.714L373.769 356.093L409.005 374.628C409.005 374.628 409.005 374.628 409.005 374.628C414.413 377.472 421.111 375.391 423.956 369.983L423.956 369.983L449.182 322.027C449.182 322.027 449.182 322.027 449.182 322.027C452.026 316.619 449.946 309.921 444.538 307.076L445 306.198L444.538 307.076L407.762 287.731L407.075 287.37L407.254 286.615C411.237 269.859 412.741 252.385 411.449 234.731L411.391 233.938L412.15 233.703L452.424 221.195L452.424 221.195C458.264 219.384 461.524 213.181 459.712 207.339C459.712 207.339 459.712 207.339 459.712 207.339L443.644 155.585L443.643 155.585C441.832 149.745 435.63 146.486 429.787 148.297C429.787 148.297 429.787 148.297 429.787 148.297L389.514 160.804L388.755 161.04L388.354 160.355C379.41 145.068 368.268 131.519 355.497 119.977L354.921 119.457L355.283 118.77L374.628 81.9939C377.472 76.5857 375.391 69.887 369.983 67.0429L370.449 66.1579L369.983 67.0429L322.027 41.8162C316.619 38.9721 309.92 41.0527 307.076 46.4606L306.281 46.0427L307.076 46.4607L288.541 81.6966L288.163 82.4157L287.382 82.1926C270.097 77.2579 251.938 75.0016 233.519 75.7598ZM275.265 341.328C222.618 357.68 166.685 328.263 150.333 275.616C133.981 222.969 163.407 167.035 216.045 150.684C268.692 134.332 324.626 163.749 340.978 216.396C357.329 269.043 327.913 324.976 275.265 341.328Z" stroke="url(#paint0_linear_35_3475)" stroke-width="2"/>
<defs>
<linearGradient id="paint0_linear_35_3475" x1="462.206" y1="217.556" x2="28.7928" y2="273.442" gradientUnits="userSpaceOnUse">
<stop stop-color="#3DC7AE"/>
<stop offset="1" stop-color="white" stop-opacity="0"/>
</linearGradient>
</defs>
</svg>
