<svg width="346" height="490" viewBox="0 0 346 490" fill="none" xmlns="http://www.w3.org/2000/svg">
<path d="M232.67 74.9097L231.901 74.9413L231.673 74.207L220.346 37.7246C218.535 31.8917 212.33 28.6251 206.498 30.4354L154.746 46.5125L154.745 46.5126C148.905 48.3238 145.646 54.5263 147.458 60.3689C147.458 60.369 147.458 60.3691 147.458 60.3692L158.054 94.4924L158.298 95.2762L157.576 95.6678C140.364 105.014 125.211 117.094 112.499 131.163L111.979 131.739L111.292 131.377L81.153 115.52C75.7448 112.675 69.0461 114.756 66.2021 120.164L65.317 119.698L66.202 120.164L40.9754 168.12C38.1312 173.528 40.2118 180.227 45.6198 183.071L45.1543 183.956L45.62 183.071L74.2187 198.119L74.9378 198.497L74.7145 199.278C69.2929 218.252 67.0895 238.292 68.5749 258.568L68.633 259.36L67.8743 259.596L37.7262 268.962L37.7257 268.962C31.8854 270.773 28.6261 276.976 30.4381 282.819L46.5151 334.571L46.5152 334.571C48.3265 340.412 54.5292 343.671 60.3719 341.859L90.5194 332.493L91.2781 332.257L91.6792 332.943C101.945 350.488 115.105 365.755 130.32 378.319L130.947 378.837L130.569 379.556L115.521 408.155C112.677 413.563 114.757 420.262 120.165 423.106L119.7 423.991L120.166 423.106L168.121 448.332C173.53 451.176 180.228 449.096 183.072 443.688L183.954 444.152L183.072 443.688L198.93 413.549L199.291 412.862L200.047 413.042C218.489 417.43 237.815 418.795 257.298 416.752L258.114 416.667L258.357 417.45L268.954 451.574L268.954 451.574C270.765 457.414 276.967 460.674 282.81 458.862C282.81 458.862 282.81 458.862 282.81 458.862L334.564 442.794L334.564 442.794C340.404 440.982 343.663 434.78 341.851 428.937L330.524 392.455L330.296 391.721L330.946 391.312C346.554 381.495 360.245 369.351 371.682 355.491L372.2 354.864L372.919 355.243L408.155 373.778C408.155 373.778 408.155 373.778 408.155 373.778C413.563 376.622 420.262 374.541 423.106 369.133L423.106 369.133L448.333 321.177C448.333 321.177 448.333 321.177 448.333 321.177C451.177 315.769 449.096 309.07 443.688 306.226L444.15 305.348L443.688 306.226L406.912 286.881L406.225 286.52L406.405 285.765C410.387 269.009 411.892 251.535 410.6 233.88L410.542 233.088L411.3 232.852L451.574 220.345L451.574 220.345C457.415 218.534 460.674 212.331 458.862 206.489C458.862 206.489 458.862 206.489 458.862 206.488L442.794 154.735L442.794 154.735C440.983 148.895 434.78 145.635 428.938 147.447C428.937 147.447 428.937 147.447 428.937 147.447L388.664 159.954L387.905 160.19L387.504 159.504C378.56 144.218 367.419 130.669 354.648 119.127L354.072 118.607L354.433 117.92L373.778 81.1438C376.622 75.7356 374.542 69.0369 369.134 66.1928L369.599 65.3078L369.134 66.1928L321.178 40.9661C315.769 38.122 309.071 40.2026 306.227 45.6106L305.432 45.1926L306.227 45.6107L287.692 80.8465L287.313 81.5656L286.532 81.3425C269.247 76.4078 251.089 74.1515 232.67 74.9097ZM274.416 340.478C221.769 356.83 165.836 327.413 149.484 274.766C133.132 222.119 162.558 166.185 215.196 149.834C267.843 133.482 323.776 162.899 340.128 215.546C356.48 268.193 327.063 324.126 274.416 340.478Z" stroke="url(#paint0_linear_35_3481)" stroke-width="2"/>
<defs>
<linearGradient id="paint0_linear_35_3481" x1="461.356" y1="216.706" x2="27.9432" y2="272.592" gradientUnits="userSpaceOnUse">
<stop stop-color="#3DC7AE"/>
<stop offset="1" stop-color="white" stop-opacity="0"/>
</linearGradient>
</defs>
</svg>
