<svg width="339" height="339" viewBox="0 0 339 339" fill="none" xmlns="http://www.w3.org/2000/svg">
<path d="M136.157 74.9428L135.426 75.181L135.008 74.5357L122.757 55.6273L123.596 55.0835L122.757 55.6272C120.922 52.794 117.131 51.9833 114.299 53.8181L87.4774 71.2013L87.477 71.2016C84.6403 73.0382 83.8326 76.8259 85.6705 79.6646L97.1299 97.35L97.5761 98.0387L96.9877 98.6108C88.7389 106.63 82.0886 115.868 77.135 125.843L76.7897 126.539L76.0304 126.376L56.3882 122.179C53.0852 121.474 49.8315 123.583 49.1265 126.886L48.1485 126.677L49.1264 126.886L42.4513 158.139C41.7462 161.442 43.8548 164.696 47.1575 165.401L47.1577 165.401L65.7965 169.384L66.5912 169.554L66.5875 170.366C66.5356 181.958 68.4728 193.64 72.5335 204.87L72.8036 205.617L72.1369 206.049L56.5123 216.176L56.5119 216.176C53.6752 218.012 52.8675 221.8 54.7054 224.639L72.0884 251.46L72.0886 251.46C73.9251 254.297 77.7125 255.105 80.5513 253.267C80.5514 253.267 80.5515 253.267 80.5517 253.267L96.1758 243.14L96.8425 242.708L97.4141 243.26C106.006 251.551 115.873 258.094 126.474 262.782L127.217 263.111L127.047 263.906L123.064 282.544C122.359 285.847 124.468 289.101 127.77 289.806L127.562 290.784L127.771 289.806L159.024 296.481C162.327 297.186 165.581 295.078 166.286 291.775L166.286 291.775L170.483 272.132L170.645 271.373L171.421 271.342C182.547 270.894 193.693 268.596 204.385 264.346L205.148 264.043L205.594 264.732L217.054 282.417L217.054 282.418C218.89 285.254 222.678 286.062 225.517 284.224C225.517 284.224 225.517 284.224 225.517 284.224L252.34 266.846L252.34 266.846C255.177 265.009 255.985 261.222 254.147 258.383L241.896 239.475L241.478 238.83L241.994 238.26C249.261 230.229 255.074 221.187 259.34 211.533L259.669 210.789L260.464 210.959L283.427 215.863C283.427 215.863 283.427 215.863 283.427 215.863C286.73 216.568 289.984 214.46 290.689 211.157L290.689 211.157L297.364 179.903C297.364 179.903 297.364 179.903 297.364 179.903C298.069 176.6 295.961 173.347 292.658 172.642L292.658 172.642L268.69 167.523L267.932 167.361L267.9 166.586C267.49 156.477 265.565 146.357 262.031 136.579L261.76 135.831L262.427 135.399L283.3 121.874L283.301 121.874C286.137 120.037 286.945 116.25 285.107 113.411C285.107 113.411 285.107 113.411 285.107 113.411L267.729 86.5875L267.729 86.5872C265.892 83.7504 262.105 82.9428 259.266 84.7807L238.393 98.3058L237.726 98.7377L237.155 98.1862C229.669 90.963 221.216 85.0707 212.161 80.5721L211.465 80.2268L211.628 79.4677L216.746 55.5005C217.451 52.1975 215.343 48.9437 212.04 48.2387L212.249 47.2607L212.04 48.2387L180.786 41.5635C177.483 40.8584 174.23 42.967 173.525 46.2698L172.547 46.061L173.525 46.2699L168.62 69.2335L168.45 70.0281L167.638 70.0247C157.079 69.9797 146.452 71.5882 136.157 74.9428ZM202.314 219.032C174.839 236.837 138.133 229.001 120.328 201.525C102.523 174.049 110.364 137.342 137.835 119.539C165.311 101.733 202.016 109.57 219.822 137.046C237.627 164.521 229.79 201.227 202.314 219.032Z" stroke="url(#paint0_linear_24_1218)" stroke-width="2"/>
<defs>
<linearGradient id="paint0_linear_24_1218" x1="288.497" y1="118.592" x2="51.3133" y2="219.453" gradientUnits="userSpaceOnUse">
<stop stop-color="white"/>
<stop offset="1" stop-color="white" stop-opacity="0"/>
</linearGradient>
</defs>
</svg>
