<svg width="42" height="41" viewBox="0 0 42 41" fill="none" xmlns="http://www.w3.org/2000/svg">
<g clip-path="url(#clip0_80_3352)">
<path d="M11.0135 12.7192L10.5936 22.0984L10.1876 31.458L15.5477 32.5976L15.9704 23.2351L16.3903 13.856L11.0135 12.7192Z" fill="url(#paint0_linear_80_3352)"/>
<path d="M34.47 22.6407L20.0306 30.7165L5.58836 38.7757L10.9651 39.9125L25.3907 31.8562L39.8301 23.7803L34.47 22.6407Z" fill="url(#paint1_linear_80_3352)"/>
<path d="M26.1631 14.9091L12.4793 6.04083L7.10254 4.90405L20.7864 13.7723L34.4702 22.6406L39.8303 23.7803L26.1631 14.9091Z" fill="url(#paint2_linear_80_3352)"/>
<path d="M20.7859 13.7724L34.4698 22.6406L20.0304 30.7165L5.58815 38.7756L6.3437 21.8315L7.1021 4.90407L20.7859 13.7724ZM10.1874 31.4581L18.1742 26.9889L26.1609 22.5198L18.5802 17.6293L11.0134 12.7193L10.5935 22.0984L10.1874 31.4581Z" fill="url(#paint3_linear_80_3352)"/>
</g>
<defs>
<linearGradient id="paint0_linear_80_3352" x1="7.58431" y1="24.9191" x2="18.984" y2="20.3977" gradientUnits="userSpaceOnUse">
<stop stop-color="#F250FE"/>
<stop offset="1" stop-color="#722FBA"/>
</linearGradient>
<linearGradient id="paint1_linear_80_3352" x1="5.34221" y1="38.1595" x2="40.0736" y2="24.3841" gradientUnits="userSpaceOnUse">
<stop stop-color="#F250FE"/>
<stop offset="1" stop-color="#722FBA"/>
</linearGradient>
<linearGradient id="paint2_linear_80_3352" x1="12.564" y1="18.6594" x2="34.3725" y2="10.0096" gradientUnits="userSpaceOnUse">
<stop stop-color="#FF62FF"/>
<stop offset="1" stop-color="#A2B5FA"/>
</linearGradient>
<linearGradient id="paint3_linear_80_3352" x1="26.9297" y1="34.9432" x2="-6.04315" y2="13.9042" gradientUnits="userSpaceOnUse">
<stop stop-color="#CF65B0"/>
<stop offset="0.9946" stop-color="#FEFFB7"/>
</linearGradient>
<clipPath id="clip0_80_3352">
<rect width="36.2804" height="35.1583" fill="white" transform="translate(0 6.11938) rotate(-9.71043)"/>
</clipPath>
</defs>
</svg>
