<svg width="311" height="380" viewBox="0 0 311 380" fill="none" xmlns="http://www.w3.org/2000/svg">
<g clip-path="url(#clip0_24_1261)">
<path d="M190.133 0C189.303 0 184.476 0 161.22 0C128.249 0 138.434 16.6474 138.434 16.6474C132.53 27.8792 140.92 43.9766 140.92 43.9766H160.935H161.103H181.119C181.119 43.9766 189.508 27.8792 183.604 16.6474C183.502 16.4516 183.376 16.2885 183.264 16.1021C193.509 12.3224 190.133 0 190.133 0Z" fill="black"/>
<path d="M276.855 233.856H29.0488V289.129H276.855V233.856Z" fill="#050542"/>
<path d="M241.044 276.606V320.457H48.5093C44.606 320.457 40.7913 319.362 37.4849 317.293C22.5759 307.981 -16.3405 279.025 7.60628 242.743C12.2604 235.692 20.7618 232.187 29.0488 233.856L241.044 276.606Z" fill="#050542"/>
<path d="M48.8213 363.856L43.2578 338.582L87.2014 320.499L94.8401 355.201L48.8213 363.856Z" fill="url(#paint0_linear_24_1261)"/>
<path d="M85.9943 359.904L274.211 319.399C278.025 318.579 281.523 316.706 284.321 313.988C296.936 301.745 328.876 265.253 297.826 234.82C291.792 228.906 282.74 227.266 274.994 230.644L76.7607 317.036" fill="#050542"/>
<path d="M76.76 317.992C76.3823 317.992 76.0232 317.768 75.874 317.395C75.6781 316.906 75.9113 316.351 76.4009 316.151L216.77 259.498C217.26 259.302 217.815 259.535 218.016 260.024C218.211 260.514 217.978 261.068 217.489 261.269L77.1191 317.922C76.9978 317.968 76.8766 317.992 76.76 317.992Z" fill="#BBE0F8"/>
<path d="M32.019 376.449C32.6486 379.315 35.7777 380.802 38.4406 379.567C49.0779 374.612 55.2429 362.798 52.6174 350.867C49.9919 338.936 39.4339 330.794 27.7007 330.762C24.7674 330.752 22.5522 333.418 23.1818 336.28L32.019 376.449Z" fill="black"/>
<path d="M174.04 262.448C173.98 262.448 173.924 262.443 173.863 262.429L43.9303 237.831C43.4126 237.733 43.0722 237.234 43.1701 236.717C43.268 236.2 43.767 235.86 44.2847 235.957L174.217 260.56C174.735 260.658 175.075 261.157 174.978 261.674C174.889 262.126 174.488 262.448 174.04 262.448Z" fill="#BBE0F8"/>
<path d="M267.186 227.829L269.299 227.14C278.948 223.989 284.217 213.615 281.06 203.968L262.845 147.198L227.473 165.397L244 216.076C247.157 225.718 257.533 230.98 267.186 227.829Z" fill="url(#paint1_linear_24_1261)"/>
<path d="M183.982 254.404L273.282 225.956C280.095 223.784 283.695 216.351 281.168 209.663C277.376 199.624 253.625 197.872 243.576 201.661L178.026 238.637L183.982 254.404Z" fill="url(#paint2_linear_24_1261)"/>
<path d="M50.351 227.829L48.2384 227.14C38.5898 223.989 33.3201 213.615 36.4772 203.968L54.6926 147.198L90.0648 165.397L73.5376 216.076C70.3804 225.718 59.9996 230.98 50.351 227.829Z" fill="url(#paint3_linear_24_1261)"/>
<path d="M133.556 254.404L44.256 225.956C37.4427 223.784 33.8426 216.351 36.3701 209.663C40.1615 199.624 63.9124 197.872 73.9621 201.661L139.511 238.637L133.556 254.404Z" fill="url(#paint4_linear_24_1261)"/>
<path d="M177.472 97.3582H143.289L147.351 63.383H173.41L177.472 97.3582Z" fill="url(#paint5_linear_24_1261)"/>
<path d="M268.069 146.121L251.546 114.048C240.252 92.1244 217.76 79.7228 194.648 80.2215C192.545 79.8952 190.399 79.6808 188.198 79.6808H128.777C126.58 79.6808 124.44 79.8952 122.337 80.2215C99.5276 80.0444 77.4463 92.3947 66.296 114.048L49.7734 146.121L91.2687 167.466L94.9155 255.653C95.0228 258.295 97.2006 260.378 99.8448 260.378H217.13C219.774 260.378 221.952 258.295 222.059 255.653L225.688 167.923L268.069 146.121Z" fill="#007CF4"/>
<path d="M225.599 167.937C225.59 167.937 225.581 167.937 225.571 167.937C225.273 167.923 225.044 167.667 225.058 167.368L226.989 131.343C227.003 131.044 227.255 130.816 227.558 130.83C227.856 130.844 228.085 131.1 228.071 131.399L226.14 167.424C226.126 167.709 225.888 167.937 225.599 167.937Z" fill="#1F191A"/>
<path d="M91.1197 167.937C90.8352 167.937 90.5927 167.713 90.5787 167.424L88.6481 131.399C88.6341 131.1 88.8626 130.844 89.1611 130.83C89.4548 130.816 89.716 131.044 89.73 131.343L91.6607 167.368C91.6746 167.667 91.4461 167.923 91.1477 167.937C91.1383 167.932 91.129 167.937 91.1197 167.937Z" fill="#1F191A"/>
<path d="M179.123 40.9193L178.838 40.8168C176.931 40.127 175.719 38.2489 175.877 36.2309L176.213 31.8733C176.469 28.569 173.853 25.7447 170.538 25.7447H150.424C147.202 25.7447 144.618 28.4152 144.735 31.6356L144.921 36.9253C144.987 38.7522 143.83 40.402 142.091 40.9659C141.941 40.952 141.797 40.9193 141.643 40.9193C138.714 40.9193 136.336 43.2915 136.336 46.223C136.336 49.1498 138.71 51.5267 141.643 51.5267C141.797 51.5267 141.941 51.4941 142.091 51.4801V52.0906C142.091 62.3111 150.382 70.5975 160.609 70.5975C170.836 70.5975 179.128 62.3111 179.128 52.0906V51.522C182.056 51.522 184.435 49.1498 184.435 46.2183C184.43 43.2915 182.056 40.9193 179.123 40.9193Z" fill="url(#paint6_linear_24_1261)"/>
<path d="M218.552 264.825H97.5449C95.2692 264.825 93.3618 263.091 93.152 260.826L83.9603 161.776C83.7225 159.194 85.7558 156.962 88.3533 156.962H229.488C232.113 156.962 234.16 159.245 233.871 161.855L222.931 260.905C222.688 263.133 220.8 264.825 218.552 264.825Z" fill="#BBE0F8"/>
<path d="M158.967 223.174C165.753 223.174 171.255 217.675 171.255 210.893C171.255 204.111 165.753 198.613 158.967 198.613C152.18 198.613 146.679 204.111 146.679 210.893C146.679 217.675 152.18 223.174 158.967 223.174Z" fill="#72C4F4"/>
<path d="M227.524 159.604H90.0039V160.755H227.524V159.604Z" fill="#72C4F4"/>
</g>
<defs>
<linearGradient id="paint0_linear_24_1261" x1="-8.33656" y1="357.694" x2="87.2133" y2="338.587" gradientUnits="userSpaceOnUse">
<stop offset="0.2964" stop-color="#FFACAA"/>
<stop offset="0.5407" stop-color="#FFA9A8"/>
<stop offset="0.6877" stop-color="#FEA1A0"/>
<stop offset="0.8089" stop-color="#FD9491"/>
<stop offset="0.9154" stop-color="#FC807D"/>
<stop offset="1" stop-color="#FB6B67"/>
</linearGradient>
<linearGradient id="paint1_linear_24_1261" x1="279.878" y1="237.142" x2="238.325" y2="150.134" gradientUnits="userSpaceOnUse">
<stop offset="0.0765" stop-color="#FFACAA"/>
<stop offset="0.1697" stop-color="#FE9C9A"/>
<stop offset="0.3389" stop-color="#FD8784"/>
<stop offset="0.522" stop-color="#FB7774"/>
<stop offset="0.7272" stop-color="#FB6E6A"/>
<stop offset="1" stop-color="#FB6B67"/>
</linearGradient>
<linearGradient id="paint2_linear_24_1261" x1="171.664" y1="240.827" x2="288.107" y2="205.348" gradientUnits="userSpaceOnUse">
<stop offset="0.4644" stop-color="#FFACAA"/>
<stop offset="0.583" stop-color="#FFA7A5"/>
<stop offset="0.7273" stop-color="#FE9896"/>
<stop offset="0.8843" stop-color="#FC817E"/>
<stop offset="1" stop-color="#FB6B67"/>
</linearGradient>
<linearGradient id="paint3_linear_24_1261" x1="37.6565" y1="237.142" x2="79.2094" y2="150.134" gradientUnits="userSpaceOnUse">
<stop offset="0.0765" stop-color="#FFACAA"/>
<stop offset="0.1697" stop-color="#FE9C9A"/>
<stop offset="0.3389" stop-color="#FD8784"/>
<stop offset="0.522" stop-color="#FB7774"/>
<stop offset="0.7272" stop-color="#FB6E6A"/>
<stop offset="1" stop-color="#FB6B67"/>
</linearGradient>
<linearGradient id="paint4_linear_24_1261" x1="145.871" y1="240.827" x2="29.4275" y2="205.348" gradientUnits="userSpaceOnUse">
<stop offset="0.4644" stop-color="#FFACAA"/>
<stop offset="0.583" stop-color="#FFA7A5"/>
<stop offset="0.7273" stop-color="#FE9896"/>
<stop offset="0.8843" stop-color="#FC817E"/>
<stop offset="1" stop-color="#FB6B67"/>
</linearGradient>
<linearGradient id="paint5_linear_24_1261" x1="160.379" y1="105.255" x2="160.379" y2="63.1601" gradientUnits="userSpaceOnUse">
<stop offset="0.5075" stop-color="#FFACAA"/>
<stop offset="0.8574" stop-color="#FB6B67"/>
</linearGradient>
<linearGradient id="paint6_linear_24_1261" x1="160.101" y1="81.8824" x2="160.51" y2="29.4333" gradientUnits="userSpaceOnUse">
<stop stop-color="#FFACAA"/>
<stop offset="0.2256" stop-color="#FFA7A6"/>
<stop offset="0.4872" stop-color="#FE9A98"/>
<stop offset="0.7655" stop-color="#FC8480"/>
<stop offset="1" stop-color="#FB6B67"/>
</linearGradient>
<clipPath id="clip0_24_1261">
<rect width="311" height="380" fill="white"/>
</clipPath>
</defs>
</svg>
