<svg width="21" height="21" viewBox="0 0 21 21" fill="none" xmlns="http://www.w3.org/2000/svg">
<path d="M8.50016 20.8167C8.15003 20.9229 7.76984 20.8294 7.50888 20.573L4.13542 17.2575L0.683051 14.0243C0.415989 13.7742 0.306844 13.3982 0.398476 13.044L1.58301 8.46475L2.65686 3.8583C2.73993 3.50197 3.01097 3.21945 3.36356 3.12169L7.92156 1.85792L12.4478 0.484676C12.7979 0.378447 13.1781 0.471921 13.4391 0.728391L16.8125 4.04385L20.2649 7.27704C20.5319 7.52715 20.6411 7.90314 20.5495 8.25737L19.3649 12.8366L18.2911 17.443C18.208 17.7994 17.937 18.0819 17.5844 18.1797L13.0264 19.4434L8.50016 20.8167Z" fill="url(#paint0_linear_240_17322)"/>
<defs>
<linearGradient id="paint0_linear_240_17322" x1="7.93219" y1="20.989" x2="13.0157" y2="0.312356" gradientUnits="userSpaceOnUse">
<stop stop-color="#DE13FF"/>
<stop offset="1" stop-color="#F8E8FF"/>
</linearGradient>
</defs>
</svg>
