<svg width="48" height="49" viewBox="0 0 48 49" fill="none" xmlns="http://www.w3.org/2000/svg">
<path d="M18.9161 48.0634C18.566 48.1696 18.1858 48.0761 17.9248 47.8197L9.60206 39.64L1.08459 31.6632C0.817528 31.4131 0.708385 31.0371 0.800017 30.6829L3.72243 19.3853L6.37176 8.02062C6.45483 7.66429 6.72587 7.38177 7.07846 7.28401L18.3237 4.16612L29.4904 0.778135C29.8406 0.671907 30.2208 0.765381 30.4817 1.02185L38.8045 9.20153L47.322 17.1783C47.589 17.4284 47.6982 17.8044 47.6065 18.1586L44.6841 29.4562L42.0348 40.8209C41.9517 41.1772 41.6807 41.4597 41.3281 41.5575L30.0829 44.6754L18.9161 48.0634Z" fill="url(#paint0_linear_240_17321)"/>
<defs>
<linearGradient id="paint0_linear_240_17321" x1="18.3481" y1="48.2357" x2="30.0584" y2="0.605816" gradientUnits="userSpaceOnUse">
<stop stop-color="#D2A42C"/>
<stop offset="1" stop-color="#F8E8FF"/>
</linearGradient>
</defs>
</svg>
