<svg width="22" height="23" viewBox="0 0 22 23" fill="none" xmlns="http://www.w3.org/2000/svg">
<path d="M14.0525 1.27128C13.7915 1.01481 13.4113 0.921332 13.0612 1.02756L8.23123 2.49297L3.36733 3.84156C3.01474 3.93932 2.74369 4.22183 2.66062 4.57817L1.51471 9.49377L0.250671 14.3803C0.15904 14.7346 0.268185 15.1105 0.535246 15.3607L4.21932 18.8108L7.81918 22.3488C8.08014 22.6053 8.46033 22.6988 8.81046 22.5925L13.6405 21.1271L18.5044 19.7785C18.8569 19.6808 19.128 19.3982 19.2111 19.0419L20.357 14.1263L21.621 9.23976C21.7126 8.88553 21.6035 8.50954 21.3364 8.25943L17.6524 4.80924L14.0525 1.27128Z" fill="url(#paint0_linear_240_17325)"/>
<defs>
<linearGradient id="paint0_linear_240_17325" x1="13.6292" y1="0.855241" x2="8.2425" y2="22.7648" gradientUnits="userSpaceOnUse">
<stop stop-color="#FF372B"/>
<stop offset="1" stop-color="#F8E8FF"/>
</linearGradient>
</defs>
</svg>
