<svg width="36" height="37" viewBox="0 0 36 37" fill="none" xmlns="http://www.w3.org/2000/svg">
<path d="M14.3026 36.0288C13.9525 36.135 13.5723 36.0415 13.3113 35.7851L7.18586 29.7649L0.917111 23.8942C0.650051 23.644 0.540904 23.2681 0.632536 22.9138L2.7834 14.599L4.73326 6.23468C4.81633 5.87835 5.08738 5.59583 5.43997 5.49807L13.7163 3.20334L21.9349 0.709832C22.285 0.603604 22.6652 0.697078 22.9262 0.953547L29.0516 6.97368L35.3204 12.8444C35.5874 13.0946 35.6966 13.4706 35.6049 13.8248L33.4541 22.1396L31.5042 30.5039C31.4211 30.8603 31.1501 31.1428 30.7975 31.2405L22.5212 33.5353L14.3026 36.0288Z" fill="url(#paint0_linear_240_17324)"/>
<defs>
<linearGradient id="paint0_linear_240_17324" x1="13.7346" y1="36.2011" x2="22.5029" y2="0.537513" gradientUnits="userSpaceOnUse">
<stop stop-color="#D744BF"/>
<stop offset="1" stop-color="#F8E8FF"/>
</linearGradient>
</defs>
</svg>
