<svg width="43" height="39" viewBox="0 0 43 39" fill="none" xmlns="http://www.w3.org/2000/svg">
<path d="M2.11133 24.5733L2.11133 35.86C2.11133 36.5048 2.63407 37.0276 3.27891 37.0276H10.6736C11.3185 37.0276 11.8412 36.5048 11.8412 35.86V24.5733C11.8412 23.9285 11.3185 23.4058 10.6736 23.4058H3.27891C2.63407 23.4058 2.11133 23.9285 2.11133 24.5733Z" stroke="white" stroke-width="3.26"/>
<path d="M31.3008 13.8705V25.1571C31.3008 25.802 31.8235 26.3247 32.4684 26.3247H39.8631C40.5079 26.3247 41.0307 25.802 41.0307 25.1571V13.8705C41.0307 13.2256 40.5079 12.7029 39.8631 12.7029H32.4684C31.8235 12.7029 31.3008 13.2256 31.3008 13.8705Z" stroke="white" stroke-width="3.26"/>
<path d="M2.11133 3.16758L2.11133 14.4542C2.11133 15.0991 2.63407 15.6218 3.27891 15.6218H10.6736C11.3185 15.6218 11.8412 15.0991 11.8412 14.4542V3.16758C11.8412 2.52274 11.3185 1.99999 10.6736 1.99999H3.27891C2.63407 1.99999 2.11133 2.52274 2.11133 3.16758Z" stroke="white" stroke-width="3.26"/>
<path d="M11.8408 30.2167H18.6517C20.8013 30.2167 22.5437 28.4742 22.5437 26.3247V12.7029C22.5437 10.5534 20.8013 8.81091 18.6517 8.81091H11.8408" stroke="white" stroke-width="3.26"/>
<path d="M22.5439 19.5138H31.3008" stroke="white" stroke-width="3.26"/>
</svg>
