<svg width="46" height="42" viewBox="0 0 46 42" fill="none" xmlns="http://www.w3.org/2000/svg">
<path d="M24.7568 23.8047H30.1661H35.5753" stroke="white" stroke-width="3.88" stroke-linecap="round" stroke-linejoin="round"/>
<path d="M24.7568 29.2141H27.4614H30.1661" stroke="white" stroke-width="3.88" stroke-linecap="round" stroke-linejoin="round"/>
<path d="M30.1666 40.0325C37.6351 40.0325 43.6897 33.9779 43.6897 26.5094C43.6897 19.0408 37.6351 12.9863 30.1666 12.9863C22.698 12.9863 16.6436 19.0408 16.6436 26.5094C16.6436 28.9725 17.3021 31.2818 18.4527 33.2709L17.3197 39.3563L23.4051 38.2233C25.3942 39.3739 27.7035 40.0325 30.1666 40.0325Z" stroke="white" stroke-width="3.88" stroke-linecap="round" stroke-linejoin="round"/>
<path d="M9.32425 16.6484C5.27925 16.6484 2.00007 13.3692 2.00007 9.32418C2.00007 5.27915 5.27925 2 9.32425 2C13.3693 2 16.6484 5.27915 16.6484 9.32418C16.6484 10.6582 16.2918 11.909 15.6686 12.9863L16.2822 16.2822L12.9863 15.6685C11.9091 16.2917 10.6583 16.6484 9.32425 16.6484Z" stroke="white" stroke-width="3.88" stroke-linecap="round" stroke-linejoin="round"/>
</svg>
